G04 #@! TF.GenerationSoftware,KiCad,Pcbnew,5.1.5+dfsg1-2build2*
G04 #@! TF.CreationDate,2020-06-21T16:19:52-07:00*
G04 #@! TF.ProjectId,sram-cell,7372616d-2d63-4656-9c6c-2e6b69636164,rev?*
G04 #@! TF.SameCoordinates,Original*
G04 #@! TF.FileFunction,Other,Fab,Bot*
%FSLAX46Y46*%
G04 Gerber Fmt 4.6, Leading zero omitted, Abs format (unit mm)*
G04 Created by KiCad (PCBNEW 5.1.5+dfsg1-2build2) date 2020-06-21 16:19:52*
%MOMM*%
%LPD*%
G04 APERTURE LIST*
%ADD10C,0.100000*%
%ADD11C,0.150000*%
%ADD12C,0.120000*%
%ADD13C,0.080000*%
%ADD14C,0.075000*%
G04 APERTURE END LIST*
D10*
X176060000Y-117780000D02*
X176060000Y-120580000D01*
X176060000Y-120580000D02*
X175660000Y-120980000D01*
X175660000Y-120980000D02*
X174460000Y-120980000D01*
X174460000Y-120980000D02*
X174460000Y-117780000D01*
X174460000Y-117780000D02*
X176060000Y-117780000D01*
X176060000Y-100000000D02*
X176060000Y-102800000D01*
X176060000Y-102800000D02*
X175660000Y-103200000D01*
X175660000Y-103200000D02*
X174460000Y-103200000D01*
X174460000Y-103200000D02*
X174460000Y-100000000D01*
X174460000Y-100000000D02*
X176060000Y-100000000D01*
X176060000Y-82220000D02*
X176060000Y-85020000D01*
X176060000Y-85020000D02*
X175660000Y-85420000D01*
X175660000Y-85420000D02*
X174460000Y-85420000D01*
X174460000Y-85420000D02*
X174460000Y-82220000D01*
X174460000Y-82220000D02*
X176060000Y-82220000D01*
X130340000Y-117780000D02*
X130340000Y-120580000D01*
X130340000Y-120580000D02*
X129940000Y-120980000D01*
X129940000Y-120980000D02*
X128740000Y-120980000D01*
X128740000Y-120980000D02*
X128740000Y-117780000D01*
X128740000Y-117780000D02*
X130340000Y-117780000D01*
X130340000Y-100000000D02*
X130340000Y-102800000D01*
X130340000Y-102800000D02*
X129940000Y-103200000D01*
X129940000Y-103200000D02*
X128740000Y-103200000D01*
X128740000Y-103200000D02*
X128740000Y-100000000D01*
X128740000Y-100000000D02*
X130340000Y-100000000D01*
X130340000Y-82220000D02*
X130340000Y-85020000D01*
X130340000Y-85020000D02*
X129940000Y-85420000D01*
X129940000Y-85420000D02*
X128740000Y-85420000D01*
X128740000Y-85420000D02*
X128740000Y-82220000D01*
X128740000Y-82220000D02*
X130340000Y-82220000D01*
X151168000Y-111684000D02*
X151168000Y-114484000D01*
X151168000Y-114484000D02*
X150768000Y-114884000D01*
X150768000Y-114884000D02*
X149568000Y-114884000D01*
X149568000Y-114884000D02*
X149568000Y-111684000D01*
X149568000Y-111684000D02*
X151168000Y-111684000D01*
X151168000Y-100508000D02*
X151168000Y-103308000D01*
X151168000Y-103308000D02*
X150768000Y-103708000D01*
X150768000Y-103708000D02*
X149568000Y-103708000D01*
X149568000Y-103708000D02*
X149568000Y-100508000D01*
X149568000Y-100508000D02*
X151168000Y-100508000D01*
X158572000Y-107480000D02*
X155772000Y-107480000D01*
X155772000Y-107480000D02*
X155372000Y-107080000D01*
X155372000Y-107080000D02*
X155372000Y-105880000D01*
X155372000Y-105880000D02*
X158572000Y-105880000D01*
X158572000Y-105880000D02*
X158572000Y-107480000D01*
X165684000Y-107480000D02*
X162884000Y-107480000D01*
X162884000Y-107480000D02*
X162484000Y-107080000D01*
X162484000Y-107080000D02*
X162484000Y-105880000D01*
X162484000Y-105880000D02*
X165684000Y-105880000D01*
X165684000Y-105880000D02*
X165684000Y-107480000D01*
X142316000Y-109512000D02*
X139516000Y-109512000D01*
X139516000Y-109512000D02*
X139116000Y-109112000D01*
X139116000Y-109112000D02*
X139116000Y-107912000D01*
X139116000Y-107912000D02*
X142316000Y-107912000D01*
X142316000Y-107912000D02*
X142316000Y-109512000D01*
X149428000Y-109512000D02*
X146628000Y-109512000D01*
X146628000Y-109512000D02*
X146228000Y-109112000D01*
X146228000Y-109112000D02*
X146228000Y-107912000D01*
X146228000Y-107912000D02*
X149428000Y-107912000D01*
X149428000Y-107912000D02*
X149428000Y-109512000D01*
X155232000Y-111684000D02*
X155232000Y-114484000D01*
X155232000Y-114484000D02*
X154832000Y-114884000D01*
X154832000Y-114884000D02*
X153632000Y-114884000D01*
X153632000Y-114884000D02*
X153632000Y-111684000D01*
X153632000Y-111684000D02*
X155232000Y-111684000D01*
X155232000Y-100508000D02*
X155232000Y-103308000D01*
X155232000Y-103308000D02*
X154832000Y-103708000D01*
X154832000Y-103708000D02*
X153632000Y-103708000D01*
X153632000Y-103708000D02*
X153632000Y-100508000D01*
X153632000Y-100508000D02*
X155232000Y-100508000D01*
X135420000Y-94920000D02*
X135420000Y-97720000D01*
X135420000Y-97720000D02*
X135020000Y-98120000D01*
X135020000Y-98120000D02*
X133820000Y-98120000D01*
X133820000Y-98120000D02*
X133820000Y-94920000D01*
X133820000Y-94920000D02*
X135420000Y-94920000D01*
X145872000Y-89700000D02*
X143072000Y-89700000D01*
X143072000Y-89700000D02*
X142672000Y-89300000D01*
X142672000Y-89300000D02*
X142672000Y-88100000D01*
X142672000Y-88100000D02*
X145872000Y-88100000D01*
X145872000Y-88100000D02*
X145872000Y-89700000D01*
X162128000Y-89700000D02*
X159328000Y-89700000D01*
X159328000Y-89700000D02*
X158928000Y-89300000D01*
X158928000Y-89300000D02*
X158928000Y-88100000D01*
X158928000Y-88100000D02*
X162128000Y-88100000D01*
X162128000Y-88100000D02*
X162128000Y-89700000D01*
X170980000Y-94920000D02*
X170980000Y-97720000D01*
X170980000Y-97720000D02*
X170580000Y-98120000D01*
X170580000Y-98120000D02*
X169380000Y-98120000D01*
X169380000Y-98120000D02*
X169380000Y-94920000D01*
X169380000Y-94920000D02*
X170980000Y-94920000D01*
X168740000Y-122210500D02*
X168740000Y-122420500D01*
X169140000Y-122210500D02*
X169140000Y-122420500D01*
X169140000Y-122210500D02*
X168740000Y-122210500D01*
X168740000Y-122420500D02*
X168940000Y-122620500D01*
X168940000Y-122620500D02*
X169140000Y-122420500D01*
X171390000Y-127720500D02*
X171390000Y-122720500D01*
X171390000Y-122720500D02*
X163890000Y-122720500D01*
X171390000Y-127722204D02*
X163890000Y-127722204D01*
X170640000Y-127022204D02*
X164640000Y-127022204D01*
X163890000Y-127720500D02*
X163890000Y-122720500D01*
X138430000Y-125222000D02*
X138430000Y-122682000D01*
X138430000Y-122682000D02*
X130810000Y-122682000D01*
X130810000Y-122682000D02*
X130810000Y-125222000D01*
X130810000Y-125222000D02*
X138430000Y-125222000D01*
X156880000Y-77740000D02*
X156880000Y-79740000D01*
X158080000Y-77740000D02*
X156880000Y-77740000D01*
X158080000Y-79740000D02*
X158080000Y-77740000D01*
X156880000Y-79740000D02*
X158080000Y-79740000D01*
X133696000Y-118380000D02*
X132496000Y-118380000D01*
X132496000Y-118380000D02*
X132496000Y-120380000D01*
X132496000Y-120380000D02*
X133696000Y-120380000D01*
X133696000Y-120380000D02*
X133696000Y-118380000D01*
X152218000Y-125270000D02*
X152218000Y-118570000D01*
X148518000Y-118570000D02*
X152218000Y-118570000D01*
X149518000Y-125270000D02*
X152218000Y-125270000D01*
X148518000Y-124270000D02*
X148518000Y-118570000D01*
X148518000Y-124270000D02*
X149518000Y-125270000D01*
X141748000Y-124552000D02*
X143748000Y-124552000D01*
X141748000Y-123352000D02*
X141748000Y-124552000D01*
X143748000Y-123352000D02*
X141748000Y-123352000D01*
X143748000Y-124552000D02*
X143748000Y-123352000D01*
X141748000Y-120488000D02*
X143748000Y-120488000D01*
X141748000Y-119288000D02*
X141748000Y-120488000D01*
X143748000Y-119288000D02*
X141748000Y-119288000D01*
X143748000Y-120488000D02*
X143748000Y-119288000D01*
X153300000Y-81306000D02*
X153300000Y-78206000D01*
X153300000Y-78206000D02*
X151500000Y-78206000D01*
X151500000Y-80656000D02*
X151500000Y-78206000D01*
X153300000Y-81306000D02*
X152150000Y-81306000D01*
X151500000Y-80656000D02*
X152150000Y-81306000D01*
X153300000Y-86386000D02*
X153300000Y-83286000D01*
X153300000Y-83286000D02*
X151500000Y-83286000D01*
X151500000Y-85736000D02*
X151500000Y-83286000D01*
X153300000Y-86386000D02*
X152150000Y-86386000D01*
X151500000Y-85736000D02*
X152150000Y-86386000D01*
X175860000Y-125460000D02*
X175860000Y-123460000D01*
X174660000Y-125460000D02*
X175860000Y-125460000D01*
X174660000Y-123460000D02*
X174660000Y-125460000D01*
X175860000Y-123460000D02*
X174660000Y-123460000D01*
X175860000Y-108188000D02*
X175860000Y-106188000D01*
X174660000Y-108188000D02*
X175860000Y-108188000D01*
X174660000Y-106188000D02*
X174660000Y-108188000D01*
X175860000Y-106188000D02*
X174660000Y-106188000D01*
X175860000Y-90408000D02*
X175860000Y-88408000D01*
X174660000Y-90408000D02*
X175860000Y-90408000D01*
X174660000Y-88408000D02*
X174660000Y-90408000D01*
X175860000Y-88408000D02*
X174660000Y-88408000D01*
X130140000Y-108188000D02*
X130140000Y-106188000D01*
X128940000Y-108188000D02*
X130140000Y-108188000D01*
X128940000Y-106188000D02*
X128940000Y-108188000D01*
X130140000Y-106188000D02*
X128940000Y-106188000D01*
X130140000Y-90408000D02*
X130140000Y-88408000D01*
X128940000Y-90408000D02*
X130140000Y-90408000D01*
X128940000Y-88408000D02*
X128940000Y-90408000D01*
X130140000Y-88408000D02*
X128940000Y-88408000D01*
X146720000Y-112284000D02*
X146720000Y-114284000D01*
X147920000Y-112284000D02*
X146720000Y-112284000D01*
X147920000Y-114284000D02*
X147920000Y-112284000D01*
X146720000Y-114284000D02*
X147920000Y-114284000D01*
X146720000Y-101108000D02*
X146720000Y-103108000D01*
X147920000Y-101108000D02*
X146720000Y-101108000D01*
X147920000Y-103108000D02*
X147920000Y-101108000D01*
X146720000Y-103108000D02*
X147920000Y-103108000D01*
X158988000Y-109128000D02*
X156988000Y-109128000D01*
X158988000Y-110328000D02*
X158988000Y-109128000D01*
X156988000Y-110328000D02*
X158988000Y-110328000D01*
X156988000Y-109128000D02*
X156988000Y-110328000D01*
X165084000Y-109128000D02*
X163084000Y-109128000D01*
X165084000Y-110328000D02*
X165084000Y-109128000D01*
X163084000Y-110328000D02*
X165084000Y-110328000D01*
X163084000Y-109128000D02*
X163084000Y-110328000D01*
X141716000Y-105064000D02*
X139716000Y-105064000D01*
X141716000Y-106264000D02*
X141716000Y-105064000D01*
X139716000Y-106264000D02*
X141716000Y-106264000D01*
X139716000Y-105064000D02*
X139716000Y-106264000D01*
X145812000Y-106264000D02*
X147812000Y-106264000D01*
X145812000Y-105064000D02*
X145812000Y-106264000D01*
X147812000Y-105064000D02*
X145812000Y-105064000D01*
X147812000Y-106264000D02*
X147812000Y-105064000D01*
X156880000Y-112284000D02*
X156880000Y-114284000D01*
X158080000Y-112284000D02*
X156880000Y-112284000D01*
X158080000Y-114284000D02*
X158080000Y-112284000D01*
X156880000Y-114284000D02*
X158080000Y-114284000D01*
X156880000Y-101108000D02*
X156880000Y-103108000D01*
X158080000Y-101108000D02*
X156880000Y-101108000D01*
X158080000Y-103108000D02*
X158080000Y-101108000D01*
X156880000Y-103108000D02*
X158080000Y-103108000D01*
X137068000Y-95520000D02*
X137068000Y-97520000D01*
X138268000Y-95520000D02*
X137068000Y-95520000D01*
X138268000Y-97520000D02*
X138268000Y-95520000D01*
X137068000Y-97520000D02*
X138268000Y-97520000D01*
X137684000Y-89500000D02*
X139684000Y-89500000D01*
X137684000Y-88300000D02*
X137684000Y-89500000D01*
X139684000Y-88300000D02*
X137684000Y-88300000D01*
X139684000Y-89500000D02*
X139684000Y-88300000D01*
X153940000Y-89500000D02*
X155940000Y-89500000D01*
X153940000Y-88300000D02*
X153940000Y-89500000D01*
X155940000Y-88300000D02*
X153940000Y-88300000D01*
X155940000Y-89500000D02*
X155940000Y-88300000D01*
X173036000Y-112272000D02*
X174436000Y-112272000D01*
X174436000Y-115312000D02*
X174436000Y-112272000D01*
X173036000Y-114742000D02*
X173586000Y-115312000D01*
X173586000Y-115312000D02*
X174436000Y-115312000D01*
X173036000Y-114742000D02*
X173036000Y-112292000D01*
X131764000Y-115312000D02*
X130364000Y-115312000D01*
X130364000Y-112272000D02*
X130364000Y-115312000D01*
X131764000Y-112842000D02*
X131214000Y-112272000D01*
X131214000Y-112272000D02*
X130364000Y-112272000D01*
X131764000Y-112842000D02*
X131764000Y-115292000D01*
X164784000Y-104390000D02*
X163384000Y-104390000D01*
X163384000Y-101350000D02*
X163384000Y-104390000D01*
X164784000Y-101920000D02*
X164234000Y-101350000D01*
X164234000Y-101350000D02*
X163384000Y-101350000D01*
X164784000Y-101920000D02*
X164784000Y-104370000D01*
X140016000Y-111002000D02*
X141416000Y-111002000D01*
X141416000Y-114042000D02*
X141416000Y-111002000D01*
X140016000Y-113472000D02*
X140566000Y-114042000D01*
X140566000Y-114042000D02*
X141416000Y-114042000D01*
X140016000Y-113472000D02*
X140016000Y-111022000D01*
X148340000Y-91124000D02*
X148340000Y-89724000D01*
X151380000Y-89724000D02*
X148340000Y-89724000D01*
X150810000Y-91124000D02*
X151380000Y-90574000D01*
X151380000Y-90574000D02*
X151380000Y-89724000D01*
X150810000Y-91124000D02*
X148360000Y-91124000D01*
X166532000Y-97520000D02*
X167732000Y-97520000D01*
X167732000Y-97520000D02*
X167732000Y-95520000D01*
X167732000Y-95520000D02*
X166532000Y-95520000D01*
X166532000Y-95520000D02*
X166532000Y-97520000D01*
D11*
D12*
X175621904Y-118408571D02*
X174821904Y-118408571D01*
X174821904Y-118599047D01*
X174860000Y-118713333D01*
X174936190Y-118789523D01*
X175012380Y-118827619D01*
X175164761Y-118865714D01*
X175279047Y-118865714D01*
X175431428Y-118827619D01*
X175507619Y-118789523D01*
X175583809Y-118713333D01*
X175621904Y-118599047D01*
X175621904Y-118408571D01*
X175621904Y-119627619D02*
X175621904Y-119170476D01*
X175621904Y-119399047D02*
X174821904Y-119399047D01*
X174936190Y-119322857D01*
X175012380Y-119246666D01*
X175050476Y-119170476D01*
X175164761Y-120084761D02*
X175126666Y-120008571D01*
X175088571Y-119970476D01*
X175012380Y-119932380D01*
X174974285Y-119932380D01*
X174898095Y-119970476D01*
X174860000Y-120008571D01*
X174821904Y-120084761D01*
X174821904Y-120237142D01*
X174860000Y-120313333D01*
X174898095Y-120351428D01*
X174974285Y-120389523D01*
X175012380Y-120389523D01*
X175088571Y-120351428D01*
X175126666Y-120313333D01*
X175164761Y-120237142D01*
X175164761Y-120084761D01*
X175202857Y-120008571D01*
X175240952Y-119970476D01*
X175317142Y-119932380D01*
X175469523Y-119932380D01*
X175545714Y-119970476D01*
X175583809Y-120008571D01*
X175621904Y-120084761D01*
X175621904Y-120237142D01*
X175583809Y-120313333D01*
X175545714Y-120351428D01*
X175469523Y-120389523D01*
X175317142Y-120389523D01*
X175240952Y-120351428D01*
X175202857Y-120313333D01*
X175164761Y-120237142D01*
D11*
D12*
X175621904Y-100628571D02*
X174821904Y-100628571D01*
X174821904Y-100819047D01*
X174860000Y-100933333D01*
X174936190Y-101009523D01*
X175012380Y-101047619D01*
X175164761Y-101085714D01*
X175279047Y-101085714D01*
X175431428Y-101047619D01*
X175507619Y-101009523D01*
X175583809Y-100933333D01*
X175621904Y-100819047D01*
X175621904Y-100628571D01*
X175621904Y-101847619D02*
X175621904Y-101390476D01*
X175621904Y-101619047D02*
X174821904Y-101619047D01*
X174936190Y-101542857D01*
X175012380Y-101466666D01*
X175050476Y-101390476D01*
X174821904Y-102114285D02*
X174821904Y-102647619D01*
X175621904Y-102304761D01*
D11*
D12*
X175621904Y-82848571D02*
X174821904Y-82848571D01*
X174821904Y-83039047D01*
X174860000Y-83153333D01*
X174936190Y-83229523D01*
X175012380Y-83267619D01*
X175164761Y-83305714D01*
X175279047Y-83305714D01*
X175431428Y-83267619D01*
X175507619Y-83229523D01*
X175583809Y-83153333D01*
X175621904Y-83039047D01*
X175621904Y-82848571D01*
X175621904Y-84067619D02*
X175621904Y-83610476D01*
X175621904Y-83839047D02*
X174821904Y-83839047D01*
X174936190Y-83762857D01*
X175012380Y-83686666D01*
X175050476Y-83610476D01*
X174821904Y-84753333D02*
X174821904Y-84600952D01*
X174860000Y-84524761D01*
X174898095Y-84486666D01*
X175012380Y-84410476D01*
X175164761Y-84372380D01*
X175469523Y-84372380D01*
X175545714Y-84410476D01*
X175583809Y-84448571D01*
X175621904Y-84524761D01*
X175621904Y-84677142D01*
X175583809Y-84753333D01*
X175545714Y-84791428D01*
X175469523Y-84829523D01*
X175279047Y-84829523D01*
X175202857Y-84791428D01*
X175164761Y-84753333D01*
X175126666Y-84677142D01*
X175126666Y-84524761D01*
X175164761Y-84448571D01*
X175202857Y-84410476D01*
X175279047Y-84372380D01*
D11*
D12*
X129901904Y-118408571D02*
X129101904Y-118408571D01*
X129101904Y-118599047D01*
X129140000Y-118713333D01*
X129216190Y-118789523D01*
X129292380Y-118827619D01*
X129444761Y-118865714D01*
X129559047Y-118865714D01*
X129711428Y-118827619D01*
X129787619Y-118789523D01*
X129863809Y-118713333D01*
X129901904Y-118599047D01*
X129901904Y-118408571D01*
X129901904Y-119627619D02*
X129901904Y-119170476D01*
X129901904Y-119399047D02*
X129101904Y-119399047D01*
X129216190Y-119322857D01*
X129292380Y-119246666D01*
X129330476Y-119170476D01*
X129101904Y-120351428D02*
X129101904Y-119970476D01*
X129482857Y-119932380D01*
X129444761Y-119970476D01*
X129406666Y-120046666D01*
X129406666Y-120237142D01*
X129444761Y-120313333D01*
X129482857Y-120351428D01*
X129559047Y-120389523D01*
X129749523Y-120389523D01*
X129825714Y-120351428D01*
X129863809Y-120313333D01*
X129901904Y-120237142D01*
X129901904Y-120046666D01*
X129863809Y-119970476D01*
X129825714Y-119932380D01*
D11*
D12*
X129901904Y-100628571D02*
X129101904Y-100628571D01*
X129101904Y-100819047D01*
X129140000Y-100933333D01*
X129216190Y-101009523D01*
X129292380Y-101047619D01*
X129444761Y-101085714D01*
X129559047Y-101085714D01*
X129711428Y-101047619D01*
X129787619Y-101009523D01*
X129863809Y-100933333D01*
X129901904Y-100819047D01*
X129901904Y-100628571D01*
X129901904Y-101847619D02*
X129901904Y-101390476D01*
X129901904Y-101619047D02*
X129101904Y-101619047D01*
X129216190Y-101542857D01*
X129292380Y-101466666D01*
X129330476Y-101390476D01*
X129368571Y-102533333D02*
X129901904Y-102533333D01*
X129063809Y-102342857D02*
X129635238Y-102152380D01*
X129635238Y-102647619D01*
D11*
D12*
X129901904Y-82848571D02*
X129101904Y-82848571D01*
X129101904Y-83039047D01*
X129140000Y-83153333D01*
X129216190Y-83229523D01*
X129292380Y-83267619D01*
X129444761Y-83305714D01*
X129559047Y-83305714D01*
X129711428Y-83267619D01*
X129787619Y-83229523D01*
X129863809Y-83153333D01*
X129901904Y-83039047D01*
X129901904Y-82848571D01*
X129901904Y-84067619D02*
X129901904Y-83610476D01*
X129901904Y-83839047D02*
X129101904Y-83839047D01*
X129216190Y-83762857D01*
X129292380Y-83686666D01*
X129330476Y-83610476D01*
X129101904Y-84334285D02*
X129101904Y-84829523D01*
X129406666Y-84562857D01*
X129406666Y-84677142D01*
X129444761Y-84753333D01*
X129482857Y-84791428D01*
X129559047Y-84829523D01*
X129749523Y-84829523D01*
X129825714Y-84791428D01*
X129863809Y-84753333D01*
X129901904Y-84677142D01*
X129901904Y-84448571D01*
X129863809Y-84372380D01*
X129825714Y-84334285D01*
D11*
D12*
X150729904Y-112312571D02*
X149929904Y-112312571D01*
X149929904Y-112503047D01*
X149968000Y-112617333D01*
X150044190Y-112693523D01*
X150120380Y-112731619D01*
X150272761Y-112769714D01*
X150387047Y-112769714D01*
X150539428Y-112731619D01*
X150615619Y-112693523D01*
X150691809Y-112617333D01*
X150729904Y-112503047D01*
X150729904Y-112312571D01*
X150729904Y-113531619D02*
X150729904Y-113074476D01*
X150729904Y-113303047D02*
X149929904Y-113303047D01*
X150044190Y-113226857D01*
X150120380Y-113150666D01*
X150158476Y-113074476D01*
X150006095Y-113836380D02*
X149968000Y-113874476D01*
X149929904Y-113950666D01*
X149929904Y-114141142D01*
X149968000Y-114217333D01*
X150006095Y-114255428D01*
X150082285Y-114293523D01*
X150158476Y-114293523D01*
X150272761Y-114255428D01*
X150729904Y-113798285D01*
X150729904Y-114293523D01*
D11*
D12*
X150729904Y-101136571D02*
X149929904Y-101136571D01*
X149929904Y-101327047D01*
X149968000Y-101441333D01*
X150044190Y-101517523D01*
X150120380Y-101555619D01*
X150272761Y-101593714D01*
X150387047Y-101593714D01*
X150539428Y-101555619D01*
X150615619Y-101517523D01*
X150691809Y-101441333D01*
X150729904Y-101327047D01*
X150729904Y-101136571D01*
X150729904Y-102355619D02*
X150729904Y-101898476D01*
X150729904Y-102127047D02*
X149929904Y-102127047D01*
X150044190Y-102050857D01*
X150120380Y-101974666D01*
X150158476Y-101898476D01*
X150729904Y-103117523D02*
X150729904Y-102660380D01*
X150729904Y-102888952D02*
X149929904Y-102888952D01*
X150044190Y-102812761D01*
X150120380Y-102736571D01*
X150158476Y-102660380D01*
D11*
D12*
X157943428Y-107041904D02*
X157943428Y-106241904D01*
X157752952Y-106241904D01*
X157638666Y-106280000D01*
X157562476Y-106356190D01*
X157524380Y-106432380D01*
X157486285Y-106584761D01*
X157486285Y-106699047D01*
X157524380Y-106851428D01*
X157562476Y-106927619D01*
X157638666Y-107003809D01*
X157752952Y-107041904D01*
X157943428Y-107041904D01*
X156724380Y-107041904D02*
X157181523Y-107041904D01*
X156952952Y-107041904D02*
X156952952Y-106241904D01*
X157029142Y-106356190D01*
X157105333Y-106432380D01*
X157181523Y-106470476D01*
X156229142Y-106241904D02*
X156152952Y-106241904D01*
X156076761Y-106280000D01*
X156038666Y-106318095D01*
X156000571Y-106394285D01*
X155962476Y-106546666D01*
X155962476Y-106737142D01*
X156000571Y-106889523D01*
X156038666Y-106965714D01*
X156076761Y-107003809D01*
X156152952Y-107041904D01*
X156229142Y-107041904D01*
X156305333Y-107003809D01*
X156343428Y-106965714D01*
X156381523Y-106889523D01*
X156419619Y-106737142D01*
X156419619Y-106546666D01*
X156381523Y-106394285D01*
X156343428Y-106318095D01*
X156305333Y-106280000D01*
X156229142Y-106241904D01*
D11*
D12*
X164674476Y-107041904D02*
X164674476Y-106241904D01*
X164484000Y-106241904D01*
X164369714Y-106280000D01*
X164293523Y-106356190D01*
X164255428Y-106432380D01*
X164217333Y-106584761D01*
X164217333Y-106699047D01*
X164255428Y-106851428D01*
X164293523Y-106927619D01*
X164369714Y-107003809D01*
X164484000Y-107041904D01*
X164674476Y-107041904D01*
X163836380Y-107041904D02*
X163684000Y-107041904D01*
X163607809Y-107003809D01*
X163569714Y-106965714D01*
X163493523Y-106851428D01*
X163455428Y-106699047D01*
X163455428Y-106394285D01*
X163493523Y-106318095D01*
X163531619Y-106280000D01*
X163607809Y-106241904D01*
X163760190Y-106241904D01*
X163836380Y-106280000D01*
X163874476Y-106318095D01*
X163912571Y-106394285D01*
X163912571Y-106584761D01*
X163874476Y-106660952D01*
X163836380Y-106699047D01*
X163760190Y-106737142D01*
X163607809Y-106737142D01*
X163531619Y-106699047D01*
X163493523Y-106660952D01*
X163455428Y-106584761D01*
D11*
D12*
X141306476Y-109073904D02*
X141306476Y-108273904D01*
X141116000Y-108273904D01*
X141001714Y-108312000D01*
X140925523Y-108388190D01*
X140887428Y-108464380D01*
X140849333Y-108616761D01*
X140849333Y-108731047D01*
X140887428Y-108883428D01*
X140925523Y-108959619D01*
X141001714Y-109035809D01*
X141116000Y-109073904D01*
X141306476Y-109073904D01*
X140392190Y-108616761D02*
X140468380Y-108578666D01*
X140506476Y-108540571D01*
X140544571Y-108464380D01*
X140544571Y-108426285D01*
X140506476Y-108350095D01*
X140468380Y-108312000D01*
X140392190Y-108273904D01*
X140239809Y-108273904D01*
X140163619Y-108312000D01*
X140125523Y-108350095D01*
X140087428Y-108426285D01*
X140087428Y-108464380D01*
X140125523Y-108540571D01*
X140163619Y-108578666D01*
X140239809Y-108616761D01*
X140392190Y-108616761D01*
X140468380Y-108654857D01*
X140506476Y-108692952D01*
X140544571Y-108769142D01*
X140544571Y-108921523D01*
X140506476Y-108997714D01*
X140468380Y-109035809D01*
X140392190Y-109073904D01*
X140239809Y-109073904D01*
X140163619Y-109035809D01*
X140125523Y-108997714D01*
X140087428Y-108921523D01*
X140087428Y-108769142D01*
X140125523Y-108692952D01*
X140163619Y-108654857D01*
X140239809Y-108616761D01*
D11*
D12*
X148418476Y-109073904D02*
X148418476Y-108273904D01*
X148228000Y-108273904D01*
X148113714Y-108312000D01*
X148037523Y-108388190D01*
X147999428Y-108464380D01*
X147961333Y-108616761D01*
X147961333Y-108731047D01*
X147999428Y-108883428D01*
X148037523Y-108959619D01*
X148113714Y-109035809D01*
X148228000Y-109073904D01*
X148418476Y-109073904D01*
X147694666Y-108273904D02*
X147161333Y-108273904D01*
X147504190Y-109073904D01*
D11*
D12*
X154793904Y-112693523D02*
X153993904Y-112693523D01*
X153993904Y-112884000D01*
X154032000Y-112998285D01*
X154108190Y-113074476D01*
X154184380Y-113112571D01*
X154336761Y-113150666D01*
X154451047Y-113150666D01*
X154603428Y-113112571D01*
X154679619Y-113074476D01*
X154755809Y-112998285D01*
X154793904Y-112884000D01*
X154793904Y-112693523D01*
X153993904Y-113836380D02*
X153993904Y-113684000D01*
X154032000Y-113607809D01*
X154070095Y-113569714D01*
X154184380Y-113493523D01*
X154336761Y-113455428D01*
X154641523Y-113455428D01*
X154717714Y-113493523D01*
X154755809Y-113531619D01*
X154793904Y-113607809D01*
X154793904Y-113760190D01*
X154755809Y-113836380D01*
X154717714Y-113874476D01*
X154641523Y-113912571D01*
X154451047Y-113912571D01*
X154374857Y-113874476D01*
X154336761Y-113836380D01*
X154298666Y-113760190D01*
X154298666Y-113607809D01*
X154336761Y-113531619D01*
X154374857Y-113493523D01*
X154451047Y-113455428D01*
D11*
D12*
X154793904Y-101517523D02*
X153993904Y-101517523D01*
X153993904Y-101708000D01*
X154032000Y-101822285D01*
X154108190Y-101898476D01*
X154184380Y-101936571D01*
X154336761Y-101974666D01*
X154451047Y-101974666D01*
X154603428Y-101936571D01*
X154679619Y-101898476D01*
X154755809Y-101822285D01*
X154793904Y-101708000D01*
X154793904Y-101517523D01*
X153993904Y-102698476D02*
X153993904Y-102317523D01*
X154374857Y-102279428D01*
X154336761Y-102317523D01*
X154298666Y-102393714D01*
X154298666Y-102584190D01*
X154336761Y-102660380D01*
X154374857Y-102698476D01*
X154451047Y-102736571D01*
X154641523Y-102736571D01*
X154717714Y-102698476D01*
X154755809Y-102660380D01*
X154793904Y-102584190D01*
X154793904Y-102393714D01*
X154755809Y-102317523D01*
X154717714Y-102279428D01*
D11*
D12*
X134981904Y-95929523D02*
X134181904Y-95929523D01*
X134181904Y-96120000D01*
X134220000Y-96234285D01*
X134296190Y-96310476D01*
X134372380Y-96348571D01*
X134524761Y-96386666D01*
X134639047Y-96386666D01*
X134791428Y-96348571D01*
X134867619Y-96310476D01*
X134943809Y-96234285D01*
X134981904Y-96120000D01*
X134981904Y-95929523D01*
X134448571Y-97072380D02*
X134981904Y-97072380D01*
X134143809Y-96881904D02*
X134715238Y-96691428D01*
X134715238Y-97186666D01*
D11*
D12*
X144862476Y-89261904D02*
X144862476Y-88461904D01*
X144672000Y-88461904D01*
X144557714Y-88500000D01*
X144481523Y-88576190D01*
X144443428Y-88652380D01*
X144405333Y-88804761D01*
X144405333Y-88919047D01*
X144443428Y-89071428D01*
X144481523Y-89147619D01*
X144557714Y-89223809D01*
X144672000Y-89261904D01*
X144862476Y-89261904D01*
X144138666Y-88461904D02*
X143643428Y-88461904D01*
X143910095Y-88766666D01*
X143795809Y-88766666D01*
X143719619Y-88804761D01*
X143681523Y-88842857D01*
X143643428Y-88919047D01*
X143643428Y-89109523D01*
X143681523Y-89185714D01*
X143719619Y-89223809D01*
X143795809Y-89261904D01*
X144024380Y-89261904D01*
X144100571Y-89223809D01*
X144138666Y-89185714D01*
D11*
D12*
X161118476Y-89261904D02*
X161118476Y-88461904D01*
X160928000Y-88461904D01*
X160813714Y-88500000D01*
X160737523Y-88576190D01*
X160699428Y-88652380D01*
X160661333Y-88804761D01*
X160661333Y-88919047D01*
X160699428Y-89071428D01*
X160737523Y-89147619D01*
X160813714Y-89223809D01*
X160928000Y-89261904D01*
X161118476Y-89261904D01*
X160356571Y-88538095D02*
X160318476Y-88500000D01*
X160242285Y-88461904D01*
X160051809Y-88461904D01*
X159975619Y-88500000D01*
X159937523Y-88538095D01*
X159899428Y-88614285D01*
X159899428Y-88690476D01*
X159937523Y-88804761D01*
X160394666Y-89261904D01*
X159899428Y-89261904D01*
D11*
D12*
X170541904Y-95929523D02*
X169741904Y-95929523D01*
X169741904Y-96120000D01*
X169780000Y-96234285D01*
X169856190Y-96310476D01*
X169932380Y-96348571D01*
X170084761Y-96386666D01*
X170199047Y-96386666D01*
X170351428Y-96348571D01*
X170427619Y-96310476D01*
X170503809Y-96234285D01*
X170541904Y-96120000D01*
X170541904Y-95929523D01*
X170541904Y-97148571D02*
X170541904Y-96691428D01*
X170541904Y-96920000D02*
X169741904Y-96920000D01*
X169856190Y-96843809D01*
X169932380Y-96767619D01*
X169970476Y-96691428D01*
D11*
X172163809Y-120610380D02*
X172163809Y-121419904D01*
X172116190Y-121515142D01*
X172068571Y-121562761D01*
X171973333Y-121610380D01*
X171782857Y-121610380D01*
X171687619Y-121562761D01*
X171640000Y-121515142D01*
X171592380Y-121419904D01*
X171592380Y-120610380D01*
X171163809Y-121562761D02*
X171020952Y-121610380D01*
X170782857Y-121610380D01*
X170687619Y-121562761D01*
X170640000Y-121515142D01*
X170592380Y-121419904D01*
X170592380Y-121324666D01*
X170640000Y-121229428D01*
X170687619Y-121181809D01*
X170782857Y-121134190D01*
X170973333Y-121086571D01*
X171068571Y-121038952D01*
X171116190Y-120991333D01*
X171163809Y-120896095D01*
X171163809Y-120800857D01*
X171116190Y-120705619D01*
X171068571Y-120658000D01*
X170973333Y-120610380D01*
X170735238Y-120610380D01*
X170592380Y-120658000D01*
X169830476Y-121086571D02*
X169687619Y-121134190D01*
X169640000Y-121181809D01*
X169592380Y-121277047D01*
X169592380Y-121419904D01*
X169640000Y-121515142D01*
X169687619Y-121562761D01*
X169782857Y-121610380D01*
X170163809Y-121610380D01*
X170163809Y-120610380D01*
X169830476Y-120610380D01*
X169735238Y-120658000D01*
X169687619Y-120705619D01*
X169640000Y-120800857D01*
X169640000Y-120896095D01*
X169687619Y-120991333D01*
X169735238Y-121038952D01*
X169830476Y-121086571D01*
X170163809Y-121086571D01*
X169401904Y-121705619D02*
X168640000Y-121705619D01*
X168068571Y-121086571D02*
X167925714Y-121134190D01*
X167878095Y-121181809D01*
X167830476Y-121277047D01*
X167830476Y-121419904D01*
X167878095Y-121515142D01*
X167925714Y-121562761D01*
X168020952Y-121610380D01*
X168401904Y-121610380D01*
X168401904Y-120610380D01*
X168068571Y-120610380D01*
X167973333Y-120658000D01*
X167925714Y-120705619D01*
X167878095Y-120800857D01*
X167878095Y-120896095D01*
X167925714Y-120991333D01*
X167973333Y-121038952D01*
X168068571Y-121086571D01*
X168401904Y-121086571D01*
X167640000Y-121705619D02*
X166878095Y-121705619D01*
X166640000Y-121610380D02*
X166640000Y-120610380D01*
X166306666Y-121324666D01*
X165973333Y-120610380D01*
X165973333Y-121610380D01*
X165497142Y-121610380D02*
X165497142Y-120943714D01*
X165497142Y-120610380D02*
X165544761Y-120658000D01*
X165497142Y-120705619D01*
X165449523Y-120658000D01*
X165497142Y-120610380D01*
X165497142Y-120705619D01*
X164592380Y-121562761D02*
X164687619Y-121610380D01*
X164878095Y-121610380D01*
X164973333Y-121562761D01*
X165020952Y-121515142D01*
X165068571Y-121419904D01*
X165068571Y-121134190D01*
X165020952Y-121038952D01*
X164973333Y-120991333D01*
X164878095Y-120943714D01*
X164687619Y-120943714D01*
X164592380Y-120991333D01*
X164163809Y-121610380D02*
X164163809Y-120943714D01*
X164163809Y-121134190D02*
X164116190Y-121038952D01*
X164068571Y-120991333D01*
X163973333Y-120943714D01*
X163878095Y-120943714D01*
X163401904Y-121610380D02*
X163497142Y-121562761D01*
X163544761Y-121515142D01*
X163592380Y-121419904D01*
X163592380Y-121134190D01*
X163544761Y-121038952D01*
X163497142Y-120991333D01*
X163401904Y-120943714D01*
X163259047Y-120943714D01*
X163163809Y-120991333D01*
X163116190Y-121038952D01*
X163068571Y-121134190D01*
X163068571Y-121419904D01*
X163116190Y-121515142D01*
X163163809Y-121562761D01*
X163259047Y-121610380D01*
X163401904Y-121610380D01*
X167973333Y-124672880D02*
X167973333Y-125387166D01*
X168020952Y-125530023D01*
X168116190Y-125625261D01*
X168259047Y-125672880D01*
X168354285Y-125672880D01*
X166973333Y-125672880D02*
X167544761Y-125672880D01*
X167259047Y-125672880D02*
X167259047Y-124672880D01*
X167354285Y-124815738D01*
X167449523Y-124910976D01*
X167544761Y-124958595D01*
X139191428Y-126436380D02*
X139191428Y-125436380D01*
X138810476Y-125436380D01*
X138715238Y-125484000D01*
X138667619Y-125531619D01*
X138620000Y-125626857D01*
X138620000Y-125769714D01*
X138667619Y-125864952D01*
X138715238Y-125912571D01*
X138810476Y-125960190D01*
X139191428Y-125960190D01*
X138048571Y-126436380D02*
X138143809Y-126388761D01*
X138191428Y-126341142D01*
X138239047Y-126245904D01*
X138239047Y-125960190D01*
X138191428Y-125864952D01*
X138143809Y-125817333D01*
X138048571Y-125769714D01*
X137905714Y-125769714D01*
X137810476Y-125817333D01*
X137762857Y-125864952D01*
X137715238Y-125960190D01*
X137715238Y-126245904D01*
X137762857Y-126341142D01*
X137810476Y-126388761D01*
X137905714Y-126436380D01*
X138048571Y-126436380D01*
X137381904Y-125769714D02*
X137191428Y-126436380D01*
X137000952Y-125960190D01*
X136810476Y-126436380D01*
X136620000Y-125769714D01*
X135858095Y-126388761D02*
X135953333Y-126436380D01*
X136143809Y-126436380D01*
X136239047Y-126388761D01*
X136286666Y-126293523D01*
X136286666Y-125912571D01*
X136239047Y-125817333D01*
X136143809Y-125769714D01*
X135953333Y-125769714D01*
X135858095Y-125817333D01*
X135810476Y-125912571D01*
X135810476Y-126007809D01*
X136286666Y-126103047D01*
X135381904Y-126436380D02*
X135381904Y-125769714D01*
X135381904Y-125960190D02*
X135334285Y-125864952D01*
X135286666Y-125817333D01*
X135191428Y-125769714D01*
X135096190Y-125769714D01*
X134762857Y-126436380D02*
X134762857Y-125436380D01*
X134762857Y-125912571D02*
X134191428Y-125912571D01*
X134191428Y-126436380D02*
X134191428Y-125436380D01*
X133334285Y-126388761D02*
X133429523Y-126436380D01*
X133620000Y-126436380D01*
X133715238Y-126388761D01*
X133762857Y-126293523D01*
X133762857Y-125912571D01*
X133715238Y-125817333D01*
X133620000Y-125769714D01*
X133429523Y-125769714D01*
X133334285Y-125817333D01*
X133286666Y-125912571D01*
X133286666Y-126007809D01*
X133762857Y-126103047D01*
X132429523Y-126436380D02*
X132429523Y-125912571D01*
X132477142Y-125817333D01*
X132572380Y-125769714D01*
X132762857Y-125769714D01*
X132858095Y-125817333D01*
X132429523Y-126388761D02*
X132524761Y-126436380D01*
X132762857Y-126436380D01*
X132858095Y-126388761D01*
X132905714Y-126293523D01*
X132905714Y-126198285D01*
X132858095Y-126103047D01*
X132762857Y-126055428D01*
X132524761Y-126055428D01*
X132429523Y-126007809D01*
X131524761Y-126436380D02*
X131524761Y-125436380D01*
X131524761Y-126388761D02*
X131620000Y-126436380D01*
X131810476Y-126436380D01*
X131905714Y-126388761D01*
X131953333Y-126341142D01*
X132000952Y-126245904D01*
X132000952Y-125960190D01*
X131953333Y-125864952D01*
X131905714Y-125817333D01*
X131810476Y-125769714D01*
X131620000Y-125769714D01*
X131524761Y-125817333D01*
X130667619Y-126388761D02*
X130762857Y-126436380D01*
X130953333Y-126436380D01*
X131048571Y-126388761D01*
X131096190Y-126293523D01*
X131096190Y-125912571D01*
X131048571Y-125817333D01*
X130953333Y-125769714D01*
X130762857Y-125769714D01*
X130667619Y-125817333D01*
X130620000Y-125912571D01*
X130620000Y-126007809D01*
X131096190Y-126103047D01*
X130191428Y-126436380D02*
X130191428Y-125769714D01*
X130191428Y-125960190D02*
X130143809Y-125864952D01*
X130096190Y-125817333D01*
X130000952Y-125769714D01*
X129905714Y-125769714D01*
X134953333Y-123404380D02*
X134953333Y-124118666D01*
X135000952Y-124261523D01*
X135096190Y-124356761D01*
X135239047Y-124404380D01*
X135334285Y-124404380D01*
X134524761Y-123499619D02*
X134477142Y-123452000D01*
X134381904Y-123404380D01*
X134143809Y-123404380D01*
X134048571Y-123452000D01*
X134000952Y-123499619D01*
X133953333Y-123594857D01*
X133953333Y-123690095D01*
X134000952Y-123832952D01*
X134572380Y-124404380D01*
X133953333Y-124404380D01*
X160456476Y-79192380D02*
X161027904Y-79192380D01*
X160742190Y-79192380D02*
X160742190Y-78192380D01*
X160837428Y-78335238D01*
X160932666Y-78430476D01*
X161027904Y-78478095D01*
X159837428Y-78192380D02*
X159742190Y-78192380D01*
X159646952Y-78240000D01*
X159599333Y-78287619D01*
X159551714Y-78382857D01*
X159504095Y-78573333D01*
X159504095Y-78811428D01*
X159551714Y-79001904D01*
X159599333Y-79097142D01*
X159646952Y-79144761D01*
X159742190Y-79192380D01*
X159837428Y-79192380D01*
X159932666Y-79144761D01*
X159980285Y-79097142D01*
X160027904Y-79001904D01*
X160075523Y-78811428D01*
X160075523Y-78573333D01*
X160027904Y-78382857D01*
X159980285Y-78287619D01*
X159932666Y-78240000D01*
X159837428Y-78192380D01*
X159075523Y-79192380D02*
X159075523Y-78192380D01*
X158504095Y-79192380D02*
X158932666Y-78620952D01*
X158504095Y-78192380D02*
X159075523Y-78763809D01*
D13*
X157706190Y-78418571D02*
X157468095Y-78251904D01*
X157706190Y-78132857D02*
X157206190Y-78132857D01*
X157206190Y-78323333D01*
X157230000Y-78370952D01*
X157253809Y-78394761D01*
X157301428Y-78418571D01*
X157372857Y-78418571D01*
X157420476Y-78394761D01*
X157444285Y-78370952D01*
X157468095Y-78323333D01*
X157468095Y-78132857D01*
X157706190Y-78894761D02*
X157706190Y-78609047D01*
X157706190Y-78751904D02*
X157206190Y-78751904D01*
X157277619Y-78704285D01*
X157325238Y-78656666D01*
X157349047Y-78609047D01*
X157706190Y-79132857D02*
X157706190Y-79228095D01*
X157682380Y-79275714D01*
X157658571Y-79299523D01*
X157587142Y-79347142D01*
X157491904Y-79370952D01*
X157301428Y-79370952D01*
X157253809Y-79347142D01*
X157230000Y-79323333D01*
X157206190Y-79275714D01*
X157206190Y-79180476D01*
X157230000Y-79132857D01*
X157253809Y-79109047D01*
X157301428Y-79085238D01*
X157420476Y-79085238D01*
X157468095Y-79109047D01*
X157491904Y-79132857D01*
X157515714Y-79180476D01*
X157515714Y-79275714D01*
X157491904Y-79323333D01*
X157468095Y-79347142D01*
X157420476Y-79370952D01*
D11*
D13*
X133322190Y-119058571D02*
X133084095Y-118891904D01*
X133322190Y-118772857D02*
X132822190Y-118772857D01*
X132822190Y-118963333D01*
X132846000Y-119010952D01*
X132869809Y-119034761D01*
X132917428Y-119058571D01*
X132988857Y-119058571D01*
X133036476Y-119034761D01*
X133060285Y-119010952D01*
X133084095Y-118963333D01*
X133084095Y-118772857D01*
X133322190Y-119534761D02*
X133322190Y-119249047D01*
X133322190Y-119391904D02*
X132822190Y-119391904D01*
X132893619Y-119344285D01*
X132941238Y-119296666D01*
X132965047Y-119249047D01*
X132822190Y-119987142D02*
X132822190Y-119749047D01*
X133060285Y-119725238D01*
X133036476Y-119749047D01*
X133012666Y-119796666D01*
X133012666Y-119915714D01*
X133036476Y-119963333D01*
X133060285Y-119987142D01*
X133107904Y-120010952D01*
X133226952Y-120010952D01*
X133274571Y-119987142D01*
X133298380Y-119963333D01*
X133322190Y-119915714D01*
X133322190Y-119796666D01*
X133298380Y-119749047D01*
X133274571Y-119725238D01*
D11*
X154772761Y-118054380D02*
X155248952Y-118054380D01*
X155248952Y-117054380D01*
X154439428Y-118054380D02*
X154439428Y-117054380D01*
X154201333Y-117054380D01*
X154058476Y-117102000D01*
X153963238Y-117197238D01*
X153915619Y-117292476D01*
X153868000Y-117482952D01*
X153868000Y-117625809D01*
X153915619Y-117816285D01*
X153963238Y-117911523D01*
X154058476Y-118006761D01*
X154201333Y-118054380D01*
X154439428Y-118054380D01*
X152915619Y-118054380D02*
X153487047Y-118054380D01*
X153201333Y-118054380D02*
X153201333Y-117054380D01*
X153296571Y-117197238D01*
X153391809Y-117292476D01*
X153487047Y-117340095D01*
X151963238Y-118054380D02*
X152534666Y-118054380D01*
X152248952Y-118054380D02*
X152248952Y-117054380D01*
X152344190Y-117197238D01*
X152439428Y-117292476D01*
X152534666Y-117340095D01*
X151010857Y-118054380D02*
X151582285Y-118054380D01*
X151296571Y-118054380D02*
X151296571Y-117054380D01*
X151391809Y-117197238D01*
X151487047Y-117292476D01*
X151582285Y-117340095D01*
X150677523Y-117054380D02*
X150010857Y-117054380D01*
X150439428Y-118054380D01*
X149677523Y-118006761D02*
X149534666Y-118054380D01*
X149296571Y-118054380D01*
X149201333Y-118006761D01*
X149153714Y-117959142D01*
X149106095Y-117863904D01*
X149106095Y-117768666D01*
X149153714Y-117673428D01*
X149201333Y-117625809D01*
X149296571Y-117578190D01*
X149487047Y-117530571D01*
X149582285Y-117482952D01*
X149629904Y-117435333D01*
X149677523Y-117340095D01*
X149677523Y-117244857D01*
X149629904Y-117149619D01*
X149582285Y-117102000D01*
X149487047Y-117054380D01*
X149248952Y-117054380D01*
X149106095Y-117102000D01*
X148201333Y-117054380D02*
X148677523Y-117054380D01*
X148725142Y-117530571D01*
X148677523Y-117482952D01*
X148582285Y-117435333D01*
X148344190Y-117435333D01*
X148248952Y-117482952D01*
X148201333Y-117530571D01*
X148153714Y-117625809D01*
X148153714Y-117863904D01*
X148201333Y-117959142D01*
X148248952Y-118006761D01*
X148344190Y-118054380D01*
X148582285Y-118054380D01*
X148677523Y-118006761D01*
X148725142Y-117959142D01*
X147534666Y-117054380D02*
X147439428Y-117054380D01*
X147344190Y-117102000D01*
X147296571Y-117149619D01*
X147248952Y-117244857D01*
X147201333Y-117435333D01*
X147201333Y-117673428D01*
X147248952Y-117863904D01*
X147296571Y-117959142D01*
X147344190Y-118006761D01*
X147439428Y-118054380D01*
X147534666Y-118054380D01*
X147629904Y-118006761D01*
X147677523Y-117959142D01*
X147725142Y-117863904D01*
X147772761Y-117673428D01*
X147772761Y-117435333D01*
X147725142Y-117244857D01*
X147677523Y-117149619D01*
X147629904Y-117102000D01*
X147534666Y-117054380D01*
X146915619Y-117054380D02*
X146344190Y-117054380D01*
X146629904Y-118054380D02*
X146629904Y-117054380D01*
X145439428Y-118054380D02*
X145772761Y-117578190D01*
X146010857Y-118054380D02*
X146010857Y-117054380D01*
X145629904Y-117054380D01*
X145534666Y-117102000D01*
X145487047Y-117149619D01*
X145439428Y-117244857D01*
X145439428Y-117387714D01*
X145487047Y-117482952D01*
X145534666Y-117530571D01*
X145629904Y-117578190D01*
X146010857Y-117578190D01*
D12*
X149929904Y-121310476D02*
X150577523Y-121310476D01*
X150653714Y-121348571D01*
X150691809Y-121386666D01*
X150729904Y-121462857D01*
X150729904Y-121615238D01*
X150691809Y-121691428D01*
X150653714Y-121729523D01*
X150577523Y-121767619D01*
X149929904Y-121767619D01*
X149929904Y-122072380D02*
X149929904Y-122567619D01*
X150234666Y-122300952D01*
X150234666Y-122415238D01*
X150272761Y-122491428D01*
X150310857Y-122529523D01*
X150387047Y-122567619D01*
X150577523Y-122567619D01*
X150653714Y-122529523D01*
X150691809Y-122491428D01*
X150729904Y-122415238D01*
X150729904Y-122186666D01*
X150691809Y-122110476D01*
X150653714Y-122072380D01*
D11*
X142438476Y-125959142D02*
X142486095Y-126006761D01*
X142628952Y-126054380D01*
X142724190Y-126054380D01*
X142867047Y-126006761D01*
X142962285Y-125911523D01*
X143009904Y-125816285D01*
X143057523Y-125625809D01*
X143057523Y-125482952D01*
X143009904Y-125292476D01*
X142962285Y-125197238D01*
X142867047Y-125102000D01*
X142724190Y-125054380D01*
X142628952Y-125054380D01*
X142486095Y-125102000D01*
X142438476Y-125149619D01*
D13*
X142831333Y-124130571D02*
X142855142Y-124154380D01*
X142926571Y-124178190D01*
X142974190Y-124178190D01*
X143045619Y-124154380D01*
X143093238Y-124106761D01*
X143117047Y-124059142D01*
X143140857Y-123963904D01*
X143140857Y-123892476D01*
X143117047Y-123797238D01*
X143093238Y-123749619D01*
X143045619Y-123702000D01*
X142974190Y-123678190D01*
X142926571Y-123678190D01*
X142855142Y-123702000D01*
X142831333Y-123725809D01*
X142640857Y-123725809D02*
X142617047Y-123702000D01*
X142569428Y-123678190D01*
X142450380Y-123678190D01*
X142402761Y-123702000D01*
X142378952Y-123725809D01*
X142355142Y-123773428D01*
X142355142Y-123821047D01*
X142378952Y-123892476D01*
X142664666Y-124178190D01*
X142355142Y-124178190D01*
D11*
X142438476Y-121895142D02*
X142486095Y-121942761D01*
X142628952Y-121990380D01*
X142724190Y-121990380D01*
X142867047Y-121942761D01*
X142962285Y-121847523D01*
X143009904Y-121752285D01*
X143057523Y-121561809D01*
X143057523Y-121418952D01*
X143009904Y-121228476D01*
X142962285Y-121133238D01*
X142867047Y-121038000D01*
X142724190Y-120990380D01*
X142628952Y-120990380D01*
X142486095Y-121038000D01*
X142438476Y-121085619D01*
D13*
X142831333Y-120066571D02*
X142855142Y-120090380D01*
X142926571Y-120114190D01*
X142974190Y-120114190D01*
X143045619Y-120090380D01*
X143093238Y-120042761D01*
X143117047Y-119995142D01*
X143140857Y-119899904D01*
X143140857Y-119828476D01*
X143117047Y-119733238D01*
X143093238Y-119685619D01*
X143045619Y-119638000D01*
X142974190Y-119614190D01*
X142926571Y-119614190D01*
X142855142Y-119638000D01*
X142831333Y-119661809D01*
X142355142Y-120114190D02*
X142640857Y-120114190D01*
X142498000Y-120114190D02*
X142498000Y-119614190D01*
X142545619Y-119685619D01*
X142593238Y-119733238D01*
X142640857Y-119757047D01*
D11*
X150930857Y-80208380D02*
X150930857Y-79208380D01*
X150597523Y-79922666D01*
X150264190Y-79208380D01*
X150264190Y-80208380D01*
X149216571Y-80113142D02*
X149264190Y-80160761D01*
X149407047Y-80208380D01*
X149502285Y-80208380D01*
X149645142Y-80160761D01*
X149740380Y-80065523D01*
X149788000Y-79970285D01*
X149835619Y-79779809D01*
X149835619Y-79636952D01*
X149788000Y-79446476D01*
X149740380Y-79351238D01*
X149645142Y-79256000D01*
X149502285Y-79208380D01*
X149407047Y-79208380D01*
X149264190Y-79256000D01*
X149216571Y-79303619D01*
X148883238Y-79208380D02*
X148216571Y-79208380D01*
X148645142Y-80208380D01*
X147407047Y-79541714D02*
X147407047Y-80208380D01*
X147645142Y-79160761D02*
X147883238Y-79875047D01*
X147264190Y-79875047D01*
X147026095Y-79208380D02*
X146692761Y-80208380D01*
X146359428Y-79208380D01*
X146026095Y-80208380D02*
X146026095Y-79208380D01*
X146026095Y-79684571D02*
X145454666Y-79684571D01*
X145454666Y-80208380D02*
X145454666Y-79208380D01*
X144407047Y-80113142D02*
X144454666Y-80160761D01*
X144597523Y-80208380D01*
X144692761Y-80208380D01*
X144835619Y-80160761D01*
X144930857Y-80065523D01*
X144978476Y-79970285D01*
X145026095Y-79779809D01*
X145026095Y-79636952D01*
X144978476Y-79446476D01*
X144930857Y-79351238D01*
X144835619Y-79256000D01*
X144692761Y-79208380D01*
X144597523Y-79208380D01*
X144454666Y-79256000D01*
X144407047Y-79303619D01*
X143454666Y-80208380D02*
X144026095Y-80208380D01*
X143740380Y-80208380D02*
X143740380Y-79208380D01*
X143835619Y-79351238D01*
X143930857Y-79446476D01*
X144026095Y-79494095D01*
X142502285Y-79256000D02*
X142597523Y-79208380D01*
X142740380Y-79208380D01*
X142883238Y-79256000D01*
X142978476Y-79351238D01*
X143026095Y-79446476D01*
X143073714Y-79636952D01*
X143073714Y-79779809D01*
X143026095Y-79970285D01*
X142978476Y-80065523D01*
X142883238Y-80160761D01*
X142740380Y-80208380D01*
X142645142Y-80208380D01*
X142502285Y-80160761D01*
X142454666Y-80113142D01*
X142454666Y-79779809D01*
X142645142Y-79779809D01*
X141502285Y-80208380D02*
X142073714Y-80208380D01*
X141788000Y-80208380D02*
X141788000Y-79208380D01*
X141883238Y-79351238D01*
X141978476Y-79446476D01*
X142073714Y-79494095D01*
X141121333Y-79303619D02*
X141073714Y-79256000D01*
X140978476Y-79208380D01*
X140740380Y-79208380D01*
X140645142Y-79256000D01*
X140597523Y-79303619D01*
X140549904Y-79398857D01*
X140549904Y-79494095D01*
X140597523Y-79636952D01*
X141168952Y-80208380D01*
X140549904Y-80208380D01*
X139645142Y-79208380D02*
X140121333Y-79208380D01*
X140168952Y-79684571D01*
X140121333Y-79636952D01*
X140026095Y-79589333D01*
X139788000Y-79589333D01*
X139692761Y-79636952D01*
X139645142Y-79684571D01*
X139597523Y-79779809D01*
X139597523Y-80017904D01*
X139645142Y-80113142D01*
X139692761Y-80160761D01*
X139788000Y-80208380D01*
X140026095Y-80208380D01*
X140121333Y-80160761D01*
X140168952Y-80113142D01*
D14*
X152673809Y-80136952D02*
X152269047Y-80136952D01*
X152221428Y-80113142D01*
X152197619Y-80089333D01*
X152173809Y-80041714D01*
X152173809Y-79946476D01*
X152197619Y-79898857D01*
X152221428Y-79875047D01*
X152269047Y-79851238D01*
X152673809Y-79851238D01*
X152626190Y-79636952D02*
X152650000Y-79613142D01*
X152673809Y-79565523D01*
X152673809Y-79446476D01*
X152650000Y-79398857D01*
X152626190Y-79375047D01*
X152578571Y-79351238D01*
X152530952Y-79351238D01*
X152459523Y-79375047D01*
X152173809Y-79660761D01*
X152173809Y-79351238D01*
D11*
X150930857Y-85288380D02*
X150930857Y-84288380D01*
X150597523Y-85002666D01*
X150264190Y-84288380D01*
X150264190Y-85288380D01*
X149216571Y-85193142D02*
X149264190Y-85240761D01*
X149407047Y-85288380D01*
X149502285Y-85288380D01*
X149645142Y-85240761D01*
X149740380Y-85145523D01*
X149788000Y-85050285D01*
X149835619Y-84859809D01*
X149835619Y-84716952D01*
X149788000Y-84526476D01*
X149740380Y-84431238D01*
X149645142Y-84336000D01*
X149502285Y-84288380D01*
X149407047Y-84288380D01*
X149264190Y-84336000D01*
X149216571Y-84383619D01*
X148883238Y-84288380D02*
X148216571Y-84288380D01*
X148645142Y-85288380D01*
X147407047Y-84621714D02*
X147407047Y-85288380D01*
X147645142Y-84240761D02*
X147883238Y-84955047D01*
X147264190Y-84955047D01*
X147026095Y-84288380D02*
X146692761Y-85288380D01*
X146359428Y-84288380D01*
X146026095Y-85288380D02*
X146026095Y-84288380D01*
X146026095Y-84764571D02*
X145454666Y-84764571D01*
X145454666Y-85288380D02*
X145454666Y-84288380D01*
X144407047Y-85193142D02*
X144454666Y-85240761D01*
X144597523Y-85288380D01*
X144692761Y-85288380D01*
X144835619Y-85240761D01*
X144930857Y-85145523D01*
X144978476Y-85050285D01*
X145026095Y-84859809D01*
X145026095Y-84716952D01*
X144978476Y-84526476D01*
X144930857Y-84431238D01*
X144835619Y-84336000D01*
X144692761Y-84288380D01*
X144597523Y-84288380D01*
X144454666Y-84336000D01*
X144407047Y-84383619D01*
X143454666Y-85288380D02*
X144026095Y-85288380D01*
X143740380Y-85288380D02*
X143740380Y-84288380D01*
X143835619Y-84431238D01*
X143930857Y-84526476D01*
X144026095Y-84574095D01*
X142502285Y-84336000D02*
X142597523Y-84288380D01*
X142740380Y-84288380D01*
X142883238Y-84336000D01*
X142978476Y-84431238D01*
X143026095Y-84526476D01*
X143073714Y-84716952D01*
X143073714Y-84859809D01*
X143026095Y-85050285D01*
X142978476Y-85145523D01*
X142883238Y-85240761D01*
X142740380Y-85288380D01*
X142645142Y-85288380D01*
X142502285Y-85240761D01*
X142454666Y-85193142D01*
X142454666Y-84859809D01*
X142645142Y-84859809D01*
X141502285Y-85288380D02*
X142073714Y-85288380D01*
X141788000Y-85288380D02*
X141788000Y-84288380D01*
X141883238Y-84431238D01*
X141978476Y-84526476D01*
X142073714Y-84574095D01*
X141121333Y-84383619D02*
X141073714Y-84336000D01*
X140978476Y-84288380D01*
X140740380Y-84288380D01*
X140645142Y-84336000D01*
X140597523Y-84383619D01*
X140549904Y-84478857D01*
X140549904Y-84574095D01*
X140597523Y-84716952D01*
X141168952Y-85288380D01*
X140549904Y-85288380D01*
X139645142Y-84288380D02*
X140121333Y-84288380D01*
X140168952Y-84764571D01*
X140121333Y-84716952D01*
X140026095Y-84669333D01*
X139788000Y-84669333D01*
X139692761Y-84716952D01*
X139645142Y-84764571D01*
X139597523Y-84859809D01*
X139597523Y-85097904D01*
X139645142Y-85193142D01*
X139692761Y-85240761D01*
X139788000Y-85288380D01*
X140026095Y-85288380D01*
X140121333Y-85240761D01*
X140168952Y-85193142D01*
D14*
X152673809Y-85216952D02*
X152269047Y-85216952D01*
X152221428Y-85193142D01*
X152197619Y-85169333D01*
X152173809Y-85121714D01*
X152173809Y-85026476D01*
X152197619Y-84978857D01*
X152221428Y-84955047D01*
X152269047Y-84931238D01*
X152673809Y-84931238D01*
X152173809Y-84431238D02*
X152173809Y-84716952D01*
X152173809Y-84574095D02*
X152673809Y-84574095D01*
X152602380Y-84621714D01*
X152554761Y-84669333D01*
X152530952Y-84716952D01*
D11*
D13*
X175486190Y-124138571D02*
X175248095Y-123971904D01*
X175486190Y-123852857D02*
X174986190Y-123852857D01*
X174986190Y-124043333D01*
X175010000Y-124090952D01*
X175033809Y-124114761D01*
X175081428Y-124138571D01*
X175152857Y-124138571D01*
X175200476Y-124114761D01*
X175224285Y-124090952D01*
X175248095Y-124043333D01*
X175248095Y-123852857D01*
X175486190Y-124614761D02*
X175486190Y-124329047D01*
X175486190Y-124471904D02*
X174986190Y-124471904D01*
X175057619Y-124424285D01*
X175105238Y-124376666D01*
X175129047Y-124329047D01*
X175200476Y-124900476D02*
X175176666Y-124852857D01*
X175152857Y-124829047D01*
X175105238Y-124805238D01*
X175081428Y-124805238D01*
X175033809Y-124829047D01*
X175010000Y-124852857D01*
X174986190Y-124900476D01*
X174986190Y-124995714D01*
X175010000Y-125043333D01*
X175033809Y-125067142D01*
X175081428Y-125090952D01*
X175105238Y-125090952D01*
X175152857Y-125067142D01*
X175176666Y-125043333D01*
X175200476Y-124995714D01*
X175200476Y-124900476D01*
X175224285Y-124852857D01*
X175248095Y-124829047D01*
X175295714Y-124805238D01*
X175390952Y-124805238D01*
X175438571Y-124829047D01*
X175462380Y-124852857D01*
X175486190Y-124900476D01*
X175486190Y-124995714D01*
X175462380Y-125043333D01*
X175438571Y-125067142D01*
X175390952Y-125090952D01*
X175295714Y-125090952D01*
X175248095Y-125067142D01*
X175224285Y-125043333D01*
X175200476Y-124995714D01*
D11*
D13*
X175486190Y-106866571D02*
X175248095Y-106699904D01*
X175486190Y-106580857D02*
X174986190Y-106580857D01*
X174986190Y-106771333D01*
X175010000Y-106818952D01*
X175033809Y-106842761D01*
X175081428Y-106866571D01*
X175152857Y-106866571D01*
X175200476Y-106842761D01*
X175224285Y-106818952D01*
X175248095Y-106771333D01*
X175248095Y-106580857D01*
X175486190Y-107342761D02*
X175486190Y-107057047D01*
X175486190Y-107199904D02*
X174986190Y-107199904D01*
X175057619Y-107152285D01*
X175105238Y-107104666D01*
X175129047Y-107057047D01*
X174986190Y-107509428D02*
X174986190Y-107842761D01*
X175486190Y-107628476D01*
D11*
D13*
X175486190Y-89086571D02*
X175248095Y-88919904D01*
X175486190Y-88800857D02*
X174986190Y-88800857D01*
X174986190Y-88991333D01*
X175010000Y-89038952D01*
X175033809Y-89062761D01*
X175081428Y-89086571D01*
X175152857Y-89086571D01*
X175200476Y-89062761D01*
X175224285Y-89038952D01*
X175248095Y-88991333D01*
X175248095Y-88800857D01*
X175486190Y-89562761D02*
X175486190Y-89277047D01*
X175486190Y-89419904D02*
X174986190Y-89419904D01*
X175057619Y-89372285D01*
X175105238Y-89324666D01*
X175129047Y-89277047D01*
X174986190Y-89991333D02*
X174986190Y-89896095D01*
X175010000Y-89848476D01*
X175033809Y-89824666D01*
X175105238Y-89777047D01*
X175200476Y-89753238D01*
X175390952Y-89753238D01*
X175438571Y-89777047D01*
X175462380Y-89800857D01*
X175486190Y-89848476D01*
X175486190Y-89943714D01*
X175462380Y-89991333D01*
X175438571Y-90015142D01*
X175390952Y-90038952D01*
X175271904Y-90038952D01*
X175224285Y-90015142D01*
X175200476Y-89991333D01*
X175176666Y-89943714D01*
X175176666Y-89848476D01*
X175200476Y-89800857D01*
X175224285Y-89777047D01*
X175271904Y-89753238D01*
D11*
D13*
X129766190Y-106866571D02*
X129528095Y-106699904D01*
X129766190Y-106580857D02*
X129266190Y-106580857D01*
X129266190Y-106771333D01*
X129290000Y-106818952D01*
X129313809Y-106842761D01*
X129361428Y-106866571D01*
X129432857Y-106866571D01*
X129480476Y-106842761D01*
X129504285Y-106818952D01*
X129528095Y-106771333D01*
X129528095Y-106580857D01*
X129766190Y-107342761D02*
X129766190Y-107057047D01*
X129766190Y-107199904D02*
X129266190Y-107199904D01*
X129337619Y-107152285D01*
X129385238Y-107104666D01*
X129409047Y-107057047D01*
X129432857Y-107771333D02*
X129766190Y-107771333D01*
X129242380Y-107652285D02*
X129599523Y-107533238D01*
X129599523Y-107842761D01*
D11*
D13*
X129766190Y-89086571D02*
X129528095Y-88919904D01*
X129766190Y-88800857D02*
X129266190Y-88800857D01*
X129266190Y-88991333D01*
X129290000Y-89038952D01*
X129313809Y-89062761D01*
X129361428Y-89086571D01*
X129432857Y-89086571D01*
X129480476Y-89062761D01*
X129504285Y-89038952D01*
X129528095Y-88991333D01*
X129528095Y-88800857D01*
X129766190Y-89562761D02*
X129766190Y-89277047D01*
X129766190Y-89419904D02*
X129266190Y-89419904D01*
X129337619Y-89372285D01*
X129385238Y-89324666D01*
X129409047Y-89277047D01*
X129266190Y-89729428D02*
X129266190Y-90038952D01*
X129456666Y-89872285D01*
X129456666Y-89943714D01*
X129480476Y-89991333D01*
X129504285Y-90015142D01*
X129551904Y-90038952D01*
X129670952Y-90038952D01*
X129718571Y-90015142D01*
X129742380Y-89991333D01*
X129766190Y-89943714D01*
X129766190Y-89800857D01*
X129742380Y-89753238D01*
X129718571Y-89729428D01*
D11*
D13*
X147546190Y-112962571D02*
X147308095Y-112795904D01*
X147546190Y-112676857D02*
X147046190Y-112676857D01*
X147046190Y-112867333D01*
X147070000Y-112914952D01*
X147093809Y-112938761D01*
X147141428Y-112962571D01*
X147212857Y-112962571D01*
X147260476Y-112938761D01*
X147284285Y-112914952D01*
X147308095Y-112867333D01*
X147308095Y-112676857D01*
X147546190Y-113438761D02*
X147546190Y-113153047D01*
X147546190Y-113295904D02*
X147046190Y-113295904D01*
X147117619Y-113248285D01*
X147165238Y-113200666D01*
X147189047Y-113153047D01*
X147093809Y-113629238D02*
X147070000Y-113653047D01*
X147046190Y-113700666D01*
X147046190Y-113819714D01*
X147070000Y-113867333D01*
X147093809Y-113891142D01*
X147141428Y-113914952D01*
X147189047Y-113914952D01*
X147260476Y-113891142D01*
X147546190Y-113605428D01*
X147546190Y-113914952D01*
D11*
D13*
X147546190Y-101786571D02*
X147308095Y-101619904D01*
X147546190Y-101500857D02*
X147046190Y-101500857D01*
X147046190Y-101691333D01*
X147070000Y-101738952D01*
X147093809Y-101762761D01*
X147141428Y-101786571D01*
X147212857Y-101786571D01*
X147260476Y-101762761D01*
X147284285Y-101738952D01*
X147308095Y-101691333D01*
X147308095Y-101500857D01*
X147546190Y-102262761D02*
X147546190Y-101977047D01*
X147546190Y-102119904D02*
X147046190Y-102119904D01*
X147117619Y-102072285D01*
X147165238Y-102024666D01*
X147189047Y-101977047D01*
X147546190Y-102738952D02*
X147546190Y-102453238D01*
X147546190Y-102596095D02*
X147046190Y-102596095D01*
X147117619Y-102548476D01*
X147165238Y-102500857D01*
X147189047Y-102453238D01*
D11*
D13*
X158309428Y-109954190D02*
X158476095Y-109716095D01*
X158595142Y-109954190D02*
X158595142Y-109454190D01*
X158404666Y-109454190D01*
X158357047Y-109478000D01*
X158333238Y-109501809D01*
X158309428Y-109549428D01*
X158309428Y-109620857D01*
X158333238Y-109668476D01*
X158357047Y-109692285D01*
X158404666Y-109716095D01*
X158595142Y-109716095D01*
X157833238Y-109954190D02*
X158118952Y-109954190D01*
X157976095Y-109954190D02*
X157976095Y-109454190D01*
X158023714Y-109525619D01*
X158071333Y-109573238D01*
X158118952Y-109597047D01*
X157523714Y-109454190D02*
X157476095Y-109454190D01*
X157428476Y-109478000D01*
X157404666Y-109501809D01*
X157380857Y-109549428D01*
X157357047Y-109644666D01*
X157357047Y-109763714D01*
X157380857Y-109858952D01*
X157404666Y-109906571D01*
X157428476Y-109930380D01*
X157476095Y-109954190D01*
X157523714Y-109954190D01*
X157571333Y-109930380D01*
X157595142Y-109906571D01*
X157618952Y-109858952D01*
X157642761Y-109763714D01*
X157642761Y-109644666D01*
X157618952Y-109549428D01*
X157595142Y-109501809D01*
X157571333Y-109478000D01*
X157523714Y-109454190D01*
D11*
D13*
X164167333Y-109954190D02*
X164334000Y-109716095D01*
X164453047Y-109954190D02*
X164453047Y-109454190D01*
X164262571Y-109454190D01*
X164214952Y-109478000D01*
X164191142Y-109501809D01*
X164167333Y-109549428D01*
X164167333Y-109620857D01*
X164191142Y-109668476D01*
X164214952Y-109692285D01*
X164262571Y-109716095D01*
X164453047Y-109716095D01*
X163929238Y-109954190D02*
X163834000Y-109954190D01*
X163786380Y-109930380D01*
X163762571Y-109906571D01*
X163714952Y-109835142D01*
X163691142Y-109739904D01*
X163691142Y-109549428D01*
X163714952Y-109501809D01*
X163738761Y-109478000D01*
X163786380Y-109454190D01*
X163881619Y-109454190D01*
X163929238Y-109478000D01*
X163953047Y-109501809D01*
X163976857Y-109549428D01*
X163976857Y-109668476D01*
X163953047Y-109716095D01*
X163929238Y-109739904D01*
X163881619Y-109763714D01*
X163786380Y-109763714D01*
X163738761Y-109739904D01*
X163714952Y-109716095D01*
X163691142Y-109668476D01*
D11*
D13*
X140799333Y-105890190D02*
X140966000Y-105652095D01*
X141085047Y-105890190D02*
X141085047Y-105390190D01*
X140894571Y-105390190D01*
X140846952Y-105414000D01*
X140823142Y-105437809D01*
X140799333Y-105485428D01*
X140799333Y-105556857D01*
X140823142Y-105604476D01*
X140846952Y-105628285D01*
X140894571Y-105652095D01*
X141085047Y-105652095D01*
X140513619Y-105604476D02*
X140561238Y-105580666D01*
X140585047Y-105556857D01*
X140608857Y-105509238D01*
X140608857Y-105485428D01*
X140585047Y-105437809D01*
X140561238Y-105414000D01*
X140513619Y-105390190D01*
X140418380Y-105390190D01*
X140370761Y-105414000D01*
X140346952Y-105437809D01*
X140323142Y-105485428D01*
X140323142Y-105509238D01*
X140346952Y-105556857D01*
X140370761Y-105580666D01*
X140418380Y-105604476D01*
X140513619Y-105604476D01*
X140561238Y-105628285D01*
X140585047Y-105652095D01*
X140608857Y-105699714D01*
X140608857Y-105794952D01*
X140585047Y-105842571D01*
X140561238Y-105866380D01*
X140513619Y-105890190D01*
X140418380Y-105890190D01*
X140370761Y-105866380D01*
X140346952Y-105842571D01*
X140323142Y-105794952D01*
X140323142Y-105699714D01*
X140346952Y-105652095D01*
X140370761Y-105628285D01*
X140418380Y-105604476D01*
D11*
D13*
X146895333Y-105890190D02*
X147062000Y-105652095D01*
X147181047Y-105890190D02*
X147181047Y-105390190D01*
X146990571Y-105390190D01*
X146942952Y-105414000D01*
X146919142Y-105437809D01*
X146895333Y-105485428D01*
X146895333Y-105556857D01*
X146919142Y-105604476D01*
X146942952Y-105628285D01*
X146990571Y-105652095D01*
X147181047Y-105652095D01*
X146728666Y-105390190D02*
X146395333Y-105390190D01*
X146609619Y-105890190D01*
D11*
D13*
X157706190Y-113200666D02*
X157468095Y-113034000D01*
X157706190Y-112914952D02*
X157206190Y-112914952D01*
X157206190Y-113105428D01*
X157230000Y-113153047D01*
X157253809Y-113176857D01*
X157301428Y-113200666D01*
X157372857Y-113200666D01*
X157420476Y-113176857D01*
X157444285Y-113153047D01*
X157468095Y-113105428D01*
X157468095Y-112914952D01*
X157206190Y-113629238D02*
X157206190Y-113534000D01*
X157230000Y-113486380D01*
X157253809Y-113462571D01*
X157325238Y-113414952D01*
X157420476Y-113391142D01*
X157610952Y-113391142D01*
X157658571Y-113414952D01*
X157682380Y-113438761D01*
X157706190Y-113486380D01*
X157706190Y-113581619D01*
X157682380Y-113629238D01*
X157658571Y-113653047D01*
X157610952Y-113676857D01*
X157491904Y-113676857D01*
X157444285Y-113653047D01*
X157420476Y-113629238D01*
X157396666Y-113581619D01*
X157396666Y-113486380D01*
X157420476Y-113438761D01*
X157444285Y-113414952D01*
X157491904Y-113391142D01*
D11*
D13*
X157706190Y-102024666D02*
X157468095Y-101858000D01*
X157706190Y-101738952D02*
X157206190Y-101738952D01*
X157206190Y-101929428D01*
X157230000Y-101977047D01*
X157253809Y-102000857D01*
X157301428Y-102024666D01*
X157372857Y-102024666D01*
X157420476Y-102000857D01*
X157444285Y-101977047D01*
X157468095Y-101929428D01*
X157468095Y-101738952D01*
X157206190Y-102477047D02*
X157206190Y-102238952D01*
X157444285Y-102215142D01*
X157420476Y-102238952D01*
X157396666Y-102286571D01*
X157396666Y-102405619D01*
X157420476Y-102453238D01*
X157444285Y-102477047D01*
X157491904Y-102500857D01*
X157610952Y-102500857D01*
X157658571Y-102477047D01*
X157682380Y-102453238D01*
X157706190Y-102405619D01*
X157706190Y-102286571D01*
X157682380Y-102238952D01*
X157658571Y-102215142D01*
D11*
D13*
X137894190Y-96436666D02*
X137656095Y-96270000D01*
X137894190Y-96150952D02*
X137394190Y-96150952D01*
X137394190Y-96341428D01*
X137418000Y-96389047D01*
X137441809Y-96412857D01*
X137489428Y-96436666D01*
X137560857Y-96436666D01*
X137608476Y-96412857D01*
X137632285Y-96389047D01*
X137656095Y-96341428D01*
X137656095Y-96150952D01*
X137560857Y-96865238D02*
X137894190Y-96865238D01*
X137370380Y-96746190D02*
X137727523Y-96627142D01*
X137727523Y-96936666D01*
D11*
D13*
X138767333Y-89126190D02*
X138934000Y-88888095D01*
X139053047Y-89126190D02*
X139053047Y-88626190D01*
X138862571Y-88626190D01*
X138814952Y-88650000D01*
X138791142Y-88673809D01*
X138767333Y-88721428D01*
X138767333Y-88792857D01*
X138791142Y-88840476D01*
X138814952Y-88864285D01*
X138862571Y-88888095D01*
X139053047Y-88888095D01*
X138600666Y-88626190D02*
X138291142Y-88626190D01*
X138457809Y-88816666D01*
X138386380Y-88816666D01*
X138338761Y-88840476D01*
X138314952Y-88864285D01*
X138291142Y-88911904D01*
X138291142Y-89030952D01*
X138314952Y-89078571D01*
X138338761Y-89102380D01*
X138386380Y-89126190D01*
X138529238Y-89126190D01*
X138576857Y-89102380D01*
X138600666Y-89078571D01*
D11*
D13*
X155023333Y-89126190D02*
X155190000Y-88888095D01*
X155309047Y-89126190D02*
X155309047Y-88626190D01*
X155118571Y-88626190D01*
X155070952Y-88650000D01*
X155047142Y-88673809D01*
X155023333Y-88721428D01*
X155023333Y-88792857D01*
X155047142Y-88840476D01*
X155070952Y-88864285D01*
X155118571Y-88888095D01*
X155309047Y-88888095D01*
X154832857Y-88673809D02*
X154809047Y-88650000D01*
X154761428Y-88626190D01*
X154642380Y-88626190D01*
X154594761Y-88650000D01*
X154570952Y-88673809D01*
X154547142Y-88721428D01*
X154547142Y-88769047D01*
X154570952Y-88840476D01*
X154856666Y-89126190D01*
X154547142Y-89126190D01*
D11*
X177450285Y-111744380D02*
X177450285Y-110744380D01*
X176878857Y-111744380D01*
X176878857Y-110744380D01*
X176402666Y-111744380D02*
X176402666Y-110744380D01*
X176069333Y-111458666D01*
X175736000Y-110744380D01*
X175736000Y-111744380D01*
X175069333Y-110744380D02*
X174878857Y-110744380D01*
X174783619Y-110792000D01*
X174688380Y-110887238D01*
X174640761Y-111077714D01*
X174640761Y-111411047D01*
X174688380Y-111601523D01*
X174783619Y-111696761D01*
X174878857Y-111744380D01*
X175069333Y-111744380D01*
X175164571Y-111696761D01*
X175259809Y-111601523D01*
X175307428Y-111411047D01*
X175307428Y-111077714D01*
X175259809Y-110887238D01*
X175164571Y-110792000D01*
X175069333Y-110744380D01*
X174259809Y-111696761D02*
X174116952Y-111744380D01*
X173878857Y-111744380D01*
X173783619Y-111696761D01*
X173736000Y-111649142D01*
X173688380Y-111553904D01*
X173688380Y-111458666D01*
X173736000Y-111363428D01*
X173783619Y-111315809D01*
X173878857Y-111268190D01*
X174069333Y-111220571D01*
X174164571Y-111172952D01*
X174212190Y-111125333D01*
X174259809Y-111030095D01*
X174259809Y-110934857D01*
X174212190Y-110839619D01*
X174164571Y-110792000D01*
X174069333Y-110744380D01*
X173831238Y-110744380D01*
X173688380Y-110792000D01*
X173497904Y-111839619D02*
X172736000Y-111839619D01*
X171974095Y-110792000D02*
X172069333Y-110744380D01*
X172212190Y-110744380D01*
X172355047Y-110792000D01*
X172450285Y-110887238D01*
X172497904Y-110982476D01*
X172545523Y-111172952D01*
X172545523Y-111315809D01*
X172497904Y-111506285D01*
X172450285Y-111601523D01*
X172355047Y-111696761D01*
X172212190Y-111744380D01*
X172116952Y-111744380D01*
X171974095Y-111696761D01*
X171926476Y-111649142D01*
X171926476Y-111315809D01*
X172116952Y-111315809D01*
X171545523Y-111696761D02*
X171402666Y-111744380D01*
X171164571Y-111744380D01*
X171069333Y-111696761D01*
X171021714Y-111649142D01*
X170974095Y-111553904D01*
X170974095Y-111458666D01*
X171021714Y-111363428D01*
X171069333Y-111315809D01*
X171164571Y-111268190D01*
X171355047Y-111220571D01*
X171450285Y-111172952D01*
X171497904Y-111125333D01*
X171545523Y-111030095D01*
X171545523Y-110934857D01*
X171497904Y-110839619D01*
X171450285Y-110792000D01*
X171355047Y-110744380D01*
X171116952Y-110744380D01*
X170974095Y-110792000D01*
X170545523Y-111744380D02*
X170545523Y-110744380D01*
X170307428Y-110744380D01*
X170164571Y-110792000D01*
X170069333Y-110887238D01*
X170021714Y-110982476D01*
X169974095Y-111172952D01*
X169974095Y-111315809D01*
X170021714Y-111506285D01*
X170069333Y-111601523D01*
X170164571Y-111696761D01*
X170307428Y-111744380D01*
X170545523Y-111744380D01*
D14*
X174009809Y-113506285D02*
X173986000Y-113458666D01*
X173938380Y-113411047D01*
X173866952Y-113339619D01*
X173843142Y-113292000D01*
X173843142Y-113244380D01*
X173962190Y-113268190D02*
X173938380Y-113220571D01*
X173890761Y-113172952D01*
X173795523Y-113149142D01*
X173628857Y-113149142D01*
X173533619Y-113172952D01*
X173486000Y-113220571D01*
X173462190Y-113268190D01*
X173462190Y-113363428D01*
X173486000Y-113411047D01*
X173533619Y-113458666D01*
X173628857Y-113482476D01*
X173795523Y-113482476D01*
X173890761Y-113458666D01*
X173938380Y-113411047D01*
X173962190Y-113363428D01*
X173962190Y-113268190D01*
X173962190Y-113958666D02*
X173962190Y-113672952D01*
X173962190Y-113815809D02*
X173462190Y-113815809D01*
X173533619Y-113768190D01*
X173581238Y-113720571D01*
X173605047Y-113672952D01*
X173962190Y-114434857D02*
X173962190Y-114149142D01*
X173962190Y-114292000D02*
X173462190Y-114292000D01*
X173533619Y-114244380D01*
X173581238Y-114196761D01*
X173605047Y-114149142D01*
D11*
X134778285Y-111704380D02*
X134778285Y-110704380D01*
X134206857Y-111704380D01*
X134206857Y-110704380D01*
X133730666Y-111704380D02*
X133730666Y-110704380D01*
X133397333Y-111418666D01*
X133064000Y-110704380D01*
X133064000Y-111704380D01*
X132397333Y-110704380D02*
X132206857Y-110704380D01*
X132111619Y-110752000D01*
X132016380Y-110847238D01*
X131968761Y-111037714D01*
X131968761Y-111371047D01*
X132016380Y-111561523D01*
X132111619Y-111656761D01*
X132206857Y-111704380D01*
X132397333Y-111704380D01*
X132492571Y-111656761D01*
X132587809Y-111561523D01*
X132635428Y-111371047D01*
X132635428Y-111037714D01*
X132587809Y-110847238D01*
X132492571Y-110752000D01*
X132397333Y-110704380D01*
X131587809Y-111656761D02*
X131444952Y-111704380D01*
X131206857Y-111704380D01*
X131111619Y-111656761D01*
X131064000Y-111609142D01*
X131016380Y-111513904D01*
X131016380Y-111418666D01*
X131064000Y-111323428D01*
X131111619Y-111275809D01*
X131206857Y-111228190D01*
X131397333Y-111180571D01*
X131492571Y-111132952D01*
X131540190Y-111085333D01*
X131587809Y-110990095D01*
X131587809Y-110894857D01*
X131540190Y-110799619D01*
X131492571Y-110752000D01*
X131397333Y-110704380D01*
X131159238Y-110704380D01*
X131016380Y-110752000D01*
X130825904Y-111799619D02*
X130064000Y-111799619D01*
X129302095Y-110752000D02*
X129397333Y-110704380D01*
X129540190Y-110704380D01*
X129683047Y-110752000D01*
X129778285Y-110847238D01*
X129825904Y-110942476D01*
X129873523Y-111132952D01*
X129873523Y-111275809D01*
X129825904Y-111466285D01*
X129778285Y-111561523D01*
X129683047Y-111656761D01*
X129540190Y-111704380D01*
X129444952Y-111704380D01*
X129302095Y-111656761D01*
X129254476Y-111609142D01*
X129254476Y-111275809D01*
X129444952Y-111275809D01*
X128873523Y-111656761D02*
X128730666Y-111704380D01*
X128492571Y-111704380D01*
X128397333Y-111656761D01*
X128349714Y-111609142D01*
X128302095Y-111513904D01*
X128302095Y-111418666D01*
X128349714Y-111323428D01*
X128397333Y-111275809D01*
X128492571Y-111228190D01*
X128683047Y-111180571D01*
X128778285Y-111132952D01*
X128825904Y-111085333D01*
X128873523Y-110990095D01*
X128873523Y-110894857D01*
X128825904Y-110799619D01*
X128778285Y-110752000D01*
X128683047Y-110704380D01*
X128444952Y-110704380D01*
X128302095Y-110752000D01*
X127873523Y-111704380D02*
X127873523Y-110704380D01*
X127635428Y-110704380D01*
X127492571Y-110752000D01*
X127397333Y-110847238D01*
X127349714Y-110942476D01*
X127302095Y-111132952D01*
X127302095Y-111275809D01*
X127349714Y-111466285D01*
X127397333Y-111561523D01*
X127492571Y-111656761D01*
X127635428Y-111704380D01*
X127873523Y-111704380D01*
D14*
X131337809Y-113506285D02*
X131314000Y-113458666D01*
X131266380Y-113411047D01*
X131194952Y-113339619D01*
X131171142Y-113292000D01*
X131171142Y-113244380D01*
X131290190Y-113268190D02*
X131266380Y-113220571D01*
X131218761Y-113172952D01*
X131123523Y-113149142D01*
X130956857Y-113149142D01*
X130861619Y-113172952D01*
X130814000Y-113220571D01*
X130790190Y-113268190D01*
X130790190Y-113363428D01*
X130814000Y-113411047D01*
X130861619Y-113458666D01*
X130956857Y-113482476D01*
X131123523Y-113482476D01*
X131218761Y-113458666D01*
X131266380Y-113411047D01*
X131290190Y-113363428D01*
X131290190Y-113268190D01*
X131290190Y-113958666D02*
X131290190Y-113672952D01*
X131290190Y-113815809D02*
X130790190Y-113815809D01*
X130861619Y-113768190D01*
X130909238Y-113720571D01*
X130933047Y-113672952D01*
X130790190Y-114268190D02*
X130790190Y-114315809D01*
X130814000Y-114363428D01*
X130837809Y-114387238D01*
X130885428Y-114411047D01*
X130980666Y-114434857D01*
X131099714Y-114434857D01*
X131194952Y-114411047D01*
X131242571Y-114387238D01*
X131266380Y-114363428D01*
X131290190Y-114315809D01*
X131290190Y-114268190D01*
X131266380Y-114220571D01*
X131242571Y-114196761D01*
X131194952Y-114172952D01*
X131099714Y-114149142D01*
X130980666Y-114149142D01*
X130885428Y-114172952D01*
X130837809Y-114196761D01*
X130814000Y-114220571D01*
X130790190Y-114268190D01*
D11*
X167798285Y-100782380D02*
X167798285Y-99782380D01*
X167226857Y-100782380D01*
X167226857Y-99782380D01*
X166750666Y-100782380D02*
X166750666Y-99782380D01*
X166417333Y-100496666D01*
X166084000Y-99782380D01*
X166084000Y-100782380D01*
X165417333Y-99782380D02*
X165226857Y-99782380D01*
X165131619Y-99830000D01*
X165036380Y-99925238D01*
X164988761Y-100115714D01*
X164988761Y-100449047D01*
X165036380Y-100639523D01*
X165131619Y-100734761D01*
X165226857Y-100782380D01*
X165417333Y-100782380D01*
X165512571Y-100734761D01*
X165607809Y-100639523D01*
X165655428Y-100449047D01*
X165655428Y-100115714D01*
X165607809Y-99925238D01*
X165512571Y-99830000D01*
X165417333Y-99782380D01*
X164607809Y-100734761D02*
X164464952Y-100782380D01*
X164226857Y-100782380D01*
X164131619Y-100734761D01*
X164084000Y-100687142D01*
X164036380Y-100591904D01*
X164036380Y-100496666D01*
X164084000Y-100401428D01*
X164131619Y-100353809D01*
X164226857Y-100306190D01*
X164417333Y-100258571D01*
X164512571Y-100210952D01*
X164560190Y-100163333D01*
X164607809Y-100068095D01*
X164607809Y-99972857D01*
X164560190Y-99877619D01*
X164512571Y-99830000D01*
X164417333Y-99782380D01*
X164179238Y-99782380D01*
X164036380Y-99830000D01*
X163845904Y-100877619D02*
X163084000Y-100877619D01*
X162322095Y-99830000D02*
X162417333Y-99782380D01*
X162560190Y-99782380D01*
X162703047Y-99830000D01*
X162798285Y-99925238D01*
X162845904Y-100020476D01*
X162893523Y-100210952D01*
X162893523Y-100353809D01*
X162845904Y-100544285D01*
X162798285Y-100639523D01*
X162703047Y-100734761D01*
X162560190Y-100782380D01*
X162464952Y-100782380D01*
X162322095Y-100734761D01*
X162274476Y-100687142D01*
X162274476Y-100353809D01*
X162464952Y-100353809D01*
X161893523Y-100734761D02*
X161750666Y-100782380D01*
X161512571Y-100782380D01*
X161417333Y-100734761D01*
X161369714Y-100687142D01*
X161322095Y-100591904D01*
X161322095Y-100496666D01*
X161369714Y-100401428D01*
X161417333Y-100353809D01*
X161512571Y-100306190D01*
X161703047Y-100258571D01*
X161798285Y-100210952D01*
X161845904Y-100163333D01*
X161893523Y-100068095D01*
X161893523Y-99972857D01*
X161845904Y-99877619D01*
X161798285Y-99830000D01*
X161703047Y-99782380D01*
X161464952Y-99782380D01*
X161322095Y-99830000D01*
X160893523Y-100782380D02*
X160893523Y-99782380D01*
X160655428Y-99782380D01*
X160512571Y-99830000D01*
X160417333Y-99925238D01*
X160369714Y-100020476D01*
X160322095Y-100210952D01*
X160322095Y-100353809D01*
X160369714Y-100544285D01*
X160417333Y-100639523D01*
X160512571Y-100734761D01*
X160655428Y-100782380D01*
X160893523Y-100782380D01*
D14*
X164357809Y-102822380D02*
X164334000Y-102774761D01*
X164286380Y-102727142D01*
X164214952Y-102655714D01*
X164191142Y-102608095D01*
X164191142Y-102560476D01*
X164310190Y-102584285D02*
X164286380Y-102536666D01*
X164238761Y-102489047D01*
X164143523Y-102465238D01*
X163976857Y-102465238D01*
X163881619Y-102489047D01*
X163834000Y-102536666D01*
X163810190Y-102584285D01*
X163810190Y-102679523D01*
X163834000Y-102727142D01*
X163881619Y-102774761D01*
X163976857Y-102798571D01*
X164143523Y-102798571D01*
X164238761Y-102774761D01*
X164286380Y-102727142D01*
X164310190Y-102679523D01*
X164310190Y-102584285D01*
X164310190Y-103036666D02*
X164310190Y-103131904D01*
X164286380Y-103179523D01*
X164262571Y-103203333D01*
X164191142Y-103250952D01*
X164095904Y-103274761D01*
X163905428Y-103274761D01*
X163857809Y-103250952D01*
X163834000Y-103227142D01*
X163810190Y-103179523D01*
X163810190Y-103084285D01*
X163834000Y-103036666D01*
X163857809Y-103012857D01*
X163905428Y-102989047D01*
X164024476Y-102989047D01*
X164072095Y-103012857D01*
X164095904Y-103036666D01*
X164119714Y-103084285D01*
X164119714Y-103179523D01*
X164095904Y-103227142D01*
X164072095Y-103250952D01*
X164024476Y-103274761D01*
D11*
X144430285Y-115514380D02*
X144430285Y-114514380D01*
X143858857Y-115514380D01*
X143858857Y-114514380D01*
X143382666Y-115514380D02*
X143382666Y-114514380D01*
X143049333Y-115228666D01*
X142716000Y-114514380D01*
X142716000Y-115514380D01*
X142049333Y-114514380D02*
X141858857Y-114514380D01*
X141763619Y-114562000D01*
X141668380Y-114657238D01*
X141620761Y-114847714D01*
X141620761Y-115181047D01*
X141668380Y-115371523D01*
X141763619Y-115466761D01*
X141858857Y-115514380D01*
X142049333Y-115514380D01*
X142144571Y-115466761D01*
X142239809Y-115371523D01*
X142287428Y-115181047D01*
X142287428Y-114847714D01*
X142239809Y-114657238D01*
X142144571Y-114562000D01*
X142049333Y-114514380D01*
X141239809Y-115466761D02*
X141096952Y-115514380D01*
X140858857Y-115514380D01*
X140763619Y-115466761D01*
X140716000Y-115419142D01*
X140668380Y-115323904D01*
X140668380Y-115228666D01*
X140716000Y-115133428D01*
X140763619Y-115085809D01*
X140858857Y-115038190D01*
X141049333Y-114990571D01*
X141144571Y-114942952D01*
X141192190Y-114895333D01*
X141239809Y-114800095D01*
X141239809Y-114704857D01*
X141192190Y-114609619D01*
X141144571Y-114562000D01*
X141049333Y-114514380D01*
X140811238Y-114514380D01*
X140668380Y-114562000D01*
X140477904Y-115609619D02*
X139716000Y-115609619D01*
X138954095Y-114562000D02*
X139049333Y-114514380D01*
X139192190Y-114514380D01*
X139335047Y-114562000D01*
X139430285Y-114657238D01*
X139477904Y-114752476D01*
X139525523Y-114942952D01*
X139525523Y-115085809D01*
X139477904Y-115276285D01*
X139430285Y-115371523D01*
X139335047Y-115466761D01*
X139192190Y-115514380D01*
X139096952Y-115514380D01*
X138954095Y-115466761D01*
X138906476Y-115419142D01*
X138906476Y-115085809D01*
X139096952Y-115085809D01*
X138525523Y-115466761D02*
X138382666Y-115514380D01*
X138144571Y-115514380D01*
X138049333Y-115466761D01*
X138001714Y-115419142D01*
X137954095Y-115323904D01*
X137954095Y-115228666D01*
X138001714Y-115133428D01*
X138049333Y-115085809D01*
X138144571Y-115038190D01*
X138335047Y-114990571D01*
X138430285Y-114942952D01*
X138477904Y-114895333D01*
X138525523Y-114800095D01*
X138525523Y-114704857D01*
X138477904Y-114609619D01*
X138430285Y-114562000D01*
X138335047Y-114514380D01*
X138096952Y-114514380D01*
X137954095Y-114562000D01*
X137525523Y-115514380D02*
X137525523Y-114514380D01*
X137287428Y-114514380D01*
X137144571Y-114562000D01*
X137049333Y-114657238D01*
X137001714Y-114752476D01*
X136954095Y-114942952D01*
X136954095Y-115085809D01*
X137001714Y-115276285D01*
X137049333Y-115371523D01*
X137144571Y-115466761D01*
X137287428Y-115514380D01*
X137525523Y-115514380D01*
D14*
X140989809Y-112474380D02*
X140966000Y-112426761D01*
X140918380Y-112379142D01*
X140846952Y-112307714D01*
X140823142Y-112260095D01*
X140823142Y-112212476D01*
X140942190Y-112236285D02*
X140918380Y-112188666D01*
X140870761Y-112141047D01*
X140775523Y-112117238D01*
X140608857Y-112117238D01*
X140513619Y-112141047D01*
X140466000Y-112188666D01*
X140442190Y-112236285D01*
X140442190Y-112331523D01*
X140466000Y-112379142D01*
X140513619Y-112426761D01*
X140608857Y-112450571D01*
X140775523Y-112450571D01*
X140870761Y-112426761D01*
X140918380Y-112379142D01*
X140942190Y-112331523D01*
X140942190Y-112236285D01*
X140656476Y-112736285D02*
X140632666Y-112688666D01*
X140608857Y-112664857D01*
X140561238Y-112641047D01*
X140537428Y-112641047D01*
X140489809Y-112664857D01*
X140466000Y-112688666D01*
X140442190Y-112736285D01*
X140442190Y-112831523D01*
X140466000Y-112879142D01*
X140489809Y-112902952D01*
X140537428Y-112926761D01*
X140561238Y-112926761D01*
X140608857Y-112902952D01*
X140632666Y-112879142D01*
X140656476Y-112831523D01*
X140656476Y-112736285D01*
X140680285Y-112688666D01*
X140704095Y-112664857D01*
X140751714Y-112641047D01*
X140846952Y-112641047D01*
X140894571Y-112664857D01*
X140918380Y-112688666D01*
X140942190Y-112736285D01*
X140942190Y-112831523D01*
X140918380Y-112879142D01*
X140894571Y-112902952D01*
X140846952Y-112926761D01*
X140751714Y-112926761D01*
X140704095Y-112902952D01*
X140680285Y-112879142D01*
X140656476Y-112831523D01*
D11*
X153574285Y-92908380D02*
X153574285Y-91908380D01*
X153002857Y-92908380D01*
X153002857Y-91908380D01*
X152526666Y-92908380D02*
X152526666Y-91908380D01*
X152193333Y-92622666D01*
X151860000Y-91908380D01*
X151860000Y-92908380D01*
X151193333Y-91908380D02*
X151002857Y-91908380D01*
X150907619Y-91956000D01*
X150812380Y-92051238D01*
X150764761Y-92241714D01*
X150764761Y-92575047D01*
X150812380Y-92765523D01*
X150907619Y-92860761D01*
X151002857Y-92908380D01*
X151193333Y-92908380D01*
X151288571Y-92860761D01*
X151383809Y-92765523D01*
X151431428Y-92575047D01*
X151431428Y-92241714D01*
X151383809Y-92051238D01*
X151288571Y-91956000D01*
X151193333Y-91908380D01*
X150383809Y-92860761D02*
X150240952Y-92908380D01*
X150002857Y-92908380D01*
X149907619Y-92860761D01*
X149860000Y-92813142D01*
X149812380Y-92717904D01*
X149812380Y-92622666D01*
X149860000Y-92527428D01*
X149907619Y-92479809D01*
X150002857Y-92432190D01*
X150193333Y-92384571D01*
X150288571Y-92336952D01*
X150336190Y-92289333D01*
X150383809Y-92194095D01*
X150383809Y-92098857D01*
X150336190Y-92003619D01*
X150288571Y-91956000D01*
X150193333Y-91908380D01*
X149955238Y-91908380D01*
X149812380Y-91956000D01*
X149621904Y-93003619D02*
X148860000Y-93003619D01*
X148098095Y-91956000D02*
X148193333Y-91908380D01*
X148336190Y-91908380D01*
X148479047Y-91956000D01*
X148574285Y-92051238D01*
X148621904Y-92146476D01*
X148669523Y-92336952D01*
X148669523Y-92479809D01*
X148621904Y-92670285D01*
X148574285Y-92765523D01*
X148479047Y-92860761D01*
X148336190Y-92908380D01*
X148240952Y-92908380D01*
X148098095Y-92860761D01*
X148050476Y-92813142D01*
X148050476Y-92479809D01*
X148240952Y-92479809D01*
X147669523Y-92860761D02*
X147526666Y-92908380D01*
X147288571Y-92908380D01*
X147193333Y-92860761D01*
X147145714Y-92813142D01*
X147098095Y-92717904D01*
X147098095Y-92622666D01*
X147145714Y-92527428D01*
X147193333Y-92479809D01*
X147288571Y-92432190D01*
X147479047Y-92384571D01*
X147574285Y-92336952D01*
X147621904Y-92289333D01*
X147669523Y-92194095D01*
X147669523Y-92098857D01*
X147621904Y-92003619D01*
X147574285Y-91956000D01*
X147479047Y-91908380D01*
X147240952Y-91908380D01*
X147098095Y-91956000D01*
X146669523Y-92908380D02*
X146669523Y-91908380D01*
X146431428Y-91908380D01*
X146288571Y-91956000D01*
X146193333Y-92051238D01*
X146145714Y-92146476D01*
X146098095Y-92336952D01*
X146098095Y-92479809D01*
X146145714Y-92670285D01*
X146193333Y-92765523D01*
X146288571Y-92860761D01*
X146431428Y-92908380D01*
X146669523Y-92908380D01*
D14*
X149907619Y-90697809D02*
X149955238Y-90674000D01*
X150002857Y-90626380D01*
X150074285Y-90554952D01*
X150121904Y-90531142D01*
X150169523Y-90531142D01*
X150145714Y-90650190D02*
X150193333Y-90626380D01*
X150240952Y-90578761D01*
X150264761Y-90483523D01*
X150264761Y-90316857D01*
X150240952Y-90221619D01*
X150193333Y-90174000D01*
X150145714Y-90150190D01*
X150050476Y-90150190D01*
X150002857Y-90174000D01*
X149955238Y-90221619D01*
X149931428Y-90316857D01*
X149931428Y-90483523D01*
X149955238Y-90578761D01*
X150002857Y-90626380D01*
X150050476Y-90650190D01*
X150145714Y-90650190D01*
X149764761Y-90150190D02*
X149431428Y-90150190D01*
X149645714Y-90650190D01*
D11*
D13*
X167358190Y-96436666D02*
X167120095Y-96270000D01*
X167358190Y-96150952D02*
X166858190Y-96150952D01*
X166858190Y-96341428D01*
X166882000Y-96389047D01*
X166905809Y-96412857D01*
X166953428Y-96436666D01*
X167024857Y-96436666D01*
X167072476Y-96412857D01*
X167096285Y-96389047D01*
X167120095Y-96341428D01*
X167120095Y-96150952D01*
X167358190Y-96912857D02*
X167358190Y-96627142D01*
X167358190Y-96770000D02*
X166858190Y-96770000D01*
X166929619Y-96722380D01*
X166977238Y-96674761D01*
X167001047Y-96627142D01*
M02*
