G04 #@! TF.GenerationSoftware,KiCad,Pcbnew,5.1.5+dfsg1-2build2*
G04 #@! TF.CreationDate,2020-06-21T16:19:52-07:00*
G04 #@! TF.ProjectId,sram-cell,7372616d-2d63-4656-9c6c-2e6b69636164,rev?*
G04 #@! TF.SameCoordinates,Original*
G04 #@! TF.FileFunction,Paste,Bot*
G04 #@! TF.FilePolarity,Positive*
%FSLAX46Y46*%
G04 Gerber Fmt 4.6, Leading zero omitted, Abs format (unit mm)*
G04 Created by KiCad (PCBNEW 5.1.5+dfsg1-2build2) date 2020-06-21 16:19:52*
%MOMM*%
%LPD*%
G04 APERTURE LIST*
%ADD10C,0.100000*%
%ADD11R,1.500000X1.900000*%
%ADD12R,0.400000X1.350000*%
%ADD13R,2.000000X1.500000*%
%ADD14R,2.000000X3.800000*%
%ADD15R,1.060000X0.650000*%
%ADD16R,1.900000X0.800000*%
%ADD17R,0.800000X1.900000*%
G04 APERTURE END LIST*
D10*
G36*
X175877935Y-120456372D02*
G01*
X175905601Y-120460476D01*
X175932731Y-120467272D01*
X175959065Y-120476694D01*
X175984348Y-120488652D01*
X176008338Y-120503031D01*
X176030802Y-120519692D01*
X176051525Y-120538475D01*
X176070308Y-120559198D01*
X176086969Y-120581662D01*
X176101348Y-120605652D01*
X176113306Y-120630935D01*
X176122728Y-120657269D01*
X176129524Y-120684399D01*
X176133628Y-120712065D01*
X176135000Y-120740000D01*
X176135000Y-121595000D01*
X176133628Y-121622935D01*
X176129524Y-121650601D01*
X176122728Y-121677731D01*
X176113306Y-121704065D01*
X176101348Y-121729348D01*
X176086969Y-121753338D01*
X176070308Y-121775802D01*
X176051525Y-121796525D01*
X176030802Y-121815308D01*
X176008338Y-121831969D01*
X175984348Y-121846348D01*
X175959065Y-121858306D01*
X175932731Y-121867728D01*
X175905601Y-121874524D01*
X175877935Y-121878628D01*
X175850000Y-121880000D01*
X174670000Y-121880000D01*
X174642065Y-121878628D01*
X174614399Y-121874524D01*
X174587269Y-121867728D01*
X174560935Y-121858306D01*
X174535652Y-121846348D01*
X174511662Y-121831969D01*
X174489198Y-121815308D01*
X174468475Y-121796525D01*
X174449692Y-121775802D01*
X174433031Y-121753338D01*
X174418652Y-121729348D01*
X174406694Y-121704065D01*
X174397272Y-121677731D01*
X174390476Y-121650601D01*
X174386372Y-121622935D01*
X174385000Y-121595000D01*
X174385000Y-120740000D01*
X174386372Y-120712065D01*
X174390476Y-120684399D01*
X174397272Y-120657269D01*
X174406694Y-120630935D01*
X174418652Y-120605652D01*
X174433031Y-120581662D01*
X174449692Y-120559198D01*
X174468475Y-120538475D01*
X174489198Y-120519692D01*
X174511662Y-120503031D01*
X174535652Y-120488652D01*
X174560935Y-120476694D01*
X174587269Y-120467272D01*
X174614399Y-120460476D01*
X174642065Y-120456372D01*
X174670000Y-120455000D01*
X175850000Y-120455000D01*
X175877935Y-120456372D01*
G37*
G36*
X175877935Y-116881372D02*
G01*
X175905601Y-116885476D01*
X175932731Y-116892272D01*
X175959065Y-116901694D01*
X175984348Y-116913652D01*
X176008338Y-116928031D01*
X176030802Y-116944692D01*
X176051525Y-116963475D01*
X176070308Y-116984198D01*
X176086969Y-117006662D01*
X176101348Y-117030652D01*
X176113306Y-117055935D01*
X176122728Y-117082269D01*
X176129524Y-117109399D01*
X176133628Y-117137065D01*
X176135000Y-117165000D01*
X176135000Y-118020000D01*
X176133628Y-118047935D01*
X176129524Y-118075601D01*
X176122728Y-118102731D01*
X176113306Y-118129065D01*
X176101348Y-118154348D01*
X176086969Y-118178338D01*
X176070308Y-118200802D01*
X176051525Y-118221525D01*
X176030802Y-118240308D01*
X176008338Y-118256969D01*
X175984348Y-118271348D01*
X175959065Y-118283306D01*
X175932731Y-118292728D01*
X175905601Y-118299524D01*
X175877935Y-118303628D01*
X175850000Y-118305000D01*
X174670000Y-118305000D01*
X174642065Y-118303628D01*
X174614399Y-118299524D01*
X174587269Y-118292728D01*
X174560935Y-118283306D01*
X174535652Y-118271348D01*
X174511662Y-118256969D01*
X174489198Y-118240308D01*
X174468475Y-118221525D01*
X174449692Y-118200802D01*
X174433031Y-118178338D01*
X174418652Y-118154348D01*
X174406694Y-118129065D01*
X174397272Y-118102731D01*
X174390476Y-118075601D01*
X174386372Y-118047935D01*
X174385000Y-118020000D01*
X174385000Y-117165000D01*
X174386372Y-117137065D01*
X174390476Y-117109399D01*
X174397272Y-117082269D01*
X174406694Y-117055935D01*
X174418652Y-117030652D01*
X174433031Y-117006662D01*
X174449692Y-116984198D01*
X174468475Y-116963475D01*
X174489198Y-116944692D01*
X174511662Y-116928031D01*
X174535652Y-116913652D01*
X174560935Y-116901694D01*
X174587269Y-116892272D01*
X174614399Y-116885476D01*
X174642065Y-116881372D01*
X174670000Y-116880000D01*
X175850000Y-116880000D01*
X175877935Y-116881372D01*
G37*
G36*
X175877935Y-102676372D02*
G01*
X175905601Y-102680476D01*
X175932731Y-102687272D01*
X175959065Y-102696694D01*
X175984348Y-102708652D01*
X176008338Y-102723031D01*
X176030802Y-102739692D01*
X176051525Y-102758475D01*
X176070308Y-102779198D01*
X176086969Y-102801662D01*
X176101348Y-102825652D01*
X176113306Y-102850935D01*
X176122728Y-102877269D01*
X176129524Y-102904399D01*
X176133628Y-102932065D01*
X176135000Y-102960000D01*
X176135000Y-103815000D01*
X176133628Y-103842935D01*
X176129524Y-103870601D01*
X176122728Y-103897731D01*
X176113306Y-103924065D01*
X176101348Y-103949348D01*
X176086969Y-103973338D01*
X176070308Y-103995802D01*
X176051525Y-104016525D01*
X176030802Y-104035308D01*
X176008338Y-104051969D01*
X175984348Y-104066348D01*
X175959065Y-104078306D01*
X175932731Y-104087728D01*
X175905601Y-104094524D01*
X175877935Y-104098628D01*
X175850000Y-104100000D01*
X174670000Y-104100000D01*
X174642065Y-104098628D01*
X174614399Y-104094524D01*
X174587269Y-104087728D01*
X174560935Y-104078306D01*
X174535652Y-104066348D01*
X174511662Y-104051969D01*
X174489198Y-104035308D01*
X174468475Y-104016525D01*
X174449692Y-103995802D01*
X174433031Y-103973338D01*
X174418652Y-103949348D01*
X174406694Y-103924065D01*
X174397272Y-103897731D01*
X174390476Y-103870601D01*
X174386372Y-103842935D01*
X174385000Y-103815000D01*
X174385000Y-102960000D01*
X174386372Y-102932065D01*
X174390476Y-102904399D01*
X174397272Y-102877269D01*
X174406694Y-102850935D01*
X174418652Y-102825652D01*
X174433031Y-102801662D01*
X174449692Y-102779198D01*
X174468475Y-102758475D01*
X174489198Y-102739692D01*
X174511662Y-102723031D01*
X174535652Y-102708652D01*
X174560935Y-102696694D01*
X174587269Y-102687272D01*
X174614399Y-102680476D01*
X174642065Y-102676372D01*
X174670000Y-102675000D01*
X175850000Y-102675000D01*
X175877935Y-102676372D01*
G37*
G36*
X175877935Y-99101372D02*
G01*
X175905601Y-99105476D01*
X175932731Y-99112272D01*
X175959065Y-99121694D01*
X175984348Y-99133652D01*
X176008338Y-99148031D01*
X176030802Y-99164692D01*
X176051525Y-99183475D01*
X176070308Y-99204198D01*
X176086969Y-99226662D01*
X176101348Y-99250652D01*
X176113306Y-99275935D01*
X176122728Y-99302269D01*
X176129524Y-99329399D01*
X176133628Y-99357065D01*
X176135000Y-99385000D01*
X176135000Y-100240000D01*
X176133628Y-100267935D01*
X176129524Y-100295601D01*
X176122728Y-100322731D01*
X176113306Y-100349065D01*
X176101348Y-100374348D01*
X176086969Y-100398338D01*
X176070308Y-100420802D01*
X176051525Y-100441525D01*
X176030802Y-100460308D01*
X176008338Y-100476969D01*
X175984348Y-100491348D01*
X175959065Y-100503306D01*
X175932731Y-100512728D01*
X175905601Y-100519524D01*
X175877935Y-100523628D01*
X175850000Y-100525000D01*
X174670000Y-100525000D01*
X174642065Y-100523628D01*
X174614399Y-100519524D01*
X174587269Y-100512728D01*
X174560935Y-100503306D01*
X174535652Y-100491348D01*
X174511662Y-100476969D01*
X174489198Y-100460308D01*
X174468475Y-100441525D01*
X174449692Y-100420802D01*
X174433031Y-100398338D01*
X174418652Y-100374348D01*
X174406694Y-100349065D01*
X174397272Y-100322731D01*
X174390476Y-100295601D01*
X174386372Y-100267935D01*
X174385000Y-100240000D01*
X174385000Y-99385000D01*
X174386372Y-99357065D01*
X174390476Y-99329399D01*
X174397272Y-99302269D01*
X174406694Y-99275935D01*
X174418652Y-99250652D01*
X174433031Y-99226662D01*
X174449692Y-99204198D01*
X174468475Y-99183475D01*
X174489198Y-99164692D01*
X174511662Y-99148031D01*
X174535652Y-99133652D01*
X174560935Y-99121694D01*
X174587269Y-99112272D01*
X174614399Y-99105476D01*
X174642065Y-99101372D01*
X174670000Y-99100000D01*
X175850000Y-99100000D01*
X175877935Y-99101372D01*
G37*
G36*
X175877935Y-84896372D02*
G01*
X175905601Y-84900476D01*
X175932731Y-84907272D01*
X175959065Y-84916694D01*
X175984348Y-84928652D01*
X176008338Y-84943031D01*
X176030802Y-84959692D01*
X176051525Y-84978475D01*
X176070308Y-84999198D01*
X176086969Y-85021662D01*
X176101348Y-85045652D01*
X176113306Y-85070935D01*
X176122728Y-85097269D01*
X176129524Y-85124399D01*
X176133628Y-85152065D01*
X176135000Y-85180000D01*
X176135000Y-86035000D01*
X176133628Y-86062935D01*
X176129524Y-86090601D01*
X176122728Y-86117731D01*
X176113306Y-86144065D01*
X176101348Y-86169348D01*
X176086969Y-86193338D01*
X176070308Y-86215802D01*
X176051525Y-86236525D01*
X176030802Y-86255308D01*
X176008338Y-86271969D01*
X175984348Y-86286348D01*
X175959065Y-86298306D01*
X175932731Y-86307728D01*
X175905601Y-86314524D01*
X175877935Y-86318628D01*
X175850000Y-86320000D01*
X174670000Y-86320000D01*
X174642065Y-86318628D01*
X174614399Y-86314524D01*
X174587269Y-86307728D01*
X174560935Y-86298306D01*
X174535652Y-86286348D01*
X174511662Y-86271969D01*
X174489198Y-86255308D01*
X174468475Y-86236525D01*
X174449692Y-86215802D01*
X174433031Y-86193338D01*
X174418652Y-86169348D01*
X174406694Y-86144065D01*
X174397272Y-86117731D01*
X174390476Y-86090601D01*
X174386372Y-86062935D01*
X174385000Y-86035000D01*
X174385000Y-85180000D01*
X174386372Y-85152065D01*
X174390476Y-85124399D01*
X174397272Y-85097269D01*
X174406694Y-85070935D01*
X174418652Y-85045652D01*
X174433031Y-85021662D01*
X174449692Y-84999198D01*
X174468475Y-84978475D01*
X174489198Y-84959692D01*
X174511662Y-84943031D01*
X174535652Y-84928652D01*
X174560935Y-84916694D01*
X174587269Y-84907272D01*
X174614399Y-84900476D01*
X174642065Y-84896372D01*
X174670000Y-84895000D01*
X175850000Y-84895000D01*
X175877935Y-84896372D01*
G37*
G36*
X175877935Y-81321372D02*
G01*
X175905601Y-81325476D01*
X175932731Y-81332272D01*
X175959065Y-81341694D01*
X175984348Y-81353652D01*
X176008338Y-81368031D01*
X176030802Y-81384692D01*
X176051525Y-81403475D01*
X176070308Y-81424198D01*
X176086969Y-81446662D01*
X176101348Y-81470652D01*
X176113306Y-81495935D01*
X176122728Y-81522269D01*
X176129524Y-81549399D01*
X176133628Y-81577065D01*
X176135000Y-81605000D01*
X176135000Y-82460000D01*
X176133628Y-82487935D01*
X176129524Y-82515601D01*
X176122728Y-82542731D01*
X176113306Y-82569065D01*
X176101348Y-82594348D01*
X176086969Y-82618338D01*
X176070308Y-82640802D01*
X176051525Y-82661525D01*
X176030802Y-82680308D01*
X176008338Y-82696969D01*
X175984348Y-82711348D01*
X175959065Y-82723306D01*
X175932731Y-82732728D01*
X175905601Y-82739524D01*
X175877935Y-82743628D01*
X175850000Y-82745000D01*
X174670000Y-82745000D01*
X174642065Y-82743628D01*
X174614399Y-82739524D01*
X174587269Y-82732728D01*
X174560935Y-82723306D01*
X174535652Y-82711348D01*
X174511662Y-82696969D01*
X174489198Y-82680308D01*
X174468475Y-82661525D01*
X174449692Y-82640802D01*
X174433031Y-82618338D01*
X174418652Y-82594348D01*
X174406694Y-82569065D01*
X174397272Y-82542731D01*
X174390476Y-82515601D01*
X174386372Y-82487935D01*
X174385000Y-82460000D01*
X174385000Y-81605000D01*
X174386372Y-81577065D01*
X174390476Y-81549399D01*
X174397272Y-81522269D01*
X174406694Y-81495935D01*
X174418652Y-81470652D01*
X174433031Y-81446662D01*
X174449692Y-81424198D01*
X174468475Y-81403475D01*
X174489198Y-81384692D01*
X174511662Y-81368031D01*
X174535652Y-81353652D01*
X174560935Y-81341694D01*
X174587269Y-81332272D01*
X174614399Y-81325476D01*
X174642065Y-81321372D01*
X174670000Y-81320000D01*
X175850000Y-81320000D01*
X175877935Y-81321372D01*
G37*
G36*
X130157935Y-120456372D02*
G01*
X130185601Y-120460476D01*
X130212731Y-120467272D01*
X130239065Y-120476694D01*
X130264348Y-120488652D01*
X130288338Y-120503031D01*
X130310802Y-120519692D01*
X130331525Y-120538475D01*
X130350308Y-120559198D01*
X130366969Y-120581662D01*
X130381348Y-120605652D01*
X130393306Y-120630935D01*
X130402728Y-120657269D01*
X130409524Y-120684399D01*
X130413628Y-120712065D01*
X130415000Y-120740000D01*
X130415000Y-121595000D01*
X130413628Y-121622935D01*
X130409524Y-121650601D01*
X130402728Y-121677731D01*
X130393306Y-121704065D01*
X130381348Y-121729348D01*
X130366969Y-121753338D01*
X130350308Y-121775802D01*
X130331525Y-121796525D01*
X130310802Y-121815308D01*
X130288338Y-121831969D01*
X130264348Y-121846348D01*
X130239065Y-121858306D01*
X130212731Y-121867728D01*
X130185601Y-121874524D01*
X130157935Y-121878628D01*
X130130000Y-121880000D01*
X128950000Y-121880000D01*
X128922065Y-121878628D01*
X128894399Y-121874524D01*
X128867269Y-121867728D01*
X128840935Y-121858306D01*
X128815652Y-121846348D01*
X128791662Y-121831969D01*
X128769198Y-121815308D01*
X128748475Y-121796525D01*
X128729692Y-121775802D01*
X128713031Y-121753338D01*
X128698652Y-121729348D01*
X128686694Y-121704065D01*
X128677272Y-121677731D01*
X128670476Y-121650601D01*
X128666372Y-121622935D01*
X128665000Y-121595000D01*
X128665000Y-120740000D01*
X128666372Y-120712065D01*
X128670476Y-120684399D01*
X128677272Y-120657269D01*
X128686694Y-120630935D01*
X128698652Y-120605652D01*
X128713031Y-120581662D01*
X128729692Y-120559198D01*
X128748475Y-120538475D01*
X128769198Y-120519692D01*
X128791662Y-120503031D01*
X128815652Y-120488652D01*
X128840935Y-120476694D01*
X128867269Y-120467272D01*
X128894399Y-120460476D01*
X128922065Y-120456372D01*
X128950000Y-120455000D01*
X130130000Y-120455000D01*
X130157935Y-120456372D01*
G37*
G36*
X130157935Y-116881372D02*
G01*
X130185601Y-116885476D01*
X130212731Y-116892272D01*
X130239065Y-116901694D01*
X130264348Y-116913652D01*
X130288338Y-116928031D01*
X130310802Y-116944692D01*
X130331525Y-116963475D01*
X130350308Y-116984198D01*
X130366969Y-117006662D01*
X130381348Y-117030652D01*
X130393306Y-117055935D01*
X130402728Y-117082269D01*
X130409524Y-117109399D01*
X130413628Y-117137065D01*
X130415000Y-117165000D01*
X130415000Y-118020000D01*
X130413628Y-118047935D01*
X130409524Y-118075601D01*
X130402728Y-118102731D01*
X130393306Y-118129065D01*
X130381348Y-118154348D01*
X130366969Y-118178338D01*
X130350308Y-118200802D01*
X130331525Y-118221525D01*
X130310802Y-118240308D01*
X130288338Y-118256969D01*
X130264348Y-118271348D01*
X130239065Y-118283306D01*
X130212731Y-118292728D01*
X130185601Y-118299524D01*
X130157935Y-118303628D01*
X130130000Y-118305000D01*
X128950000Y-118305000D01*
X128922065Y-118303628D01*
X128894399Y-118299524D01*
X128867269Y-118292728D01*
X128840935Y-118283306D01*
X128815652Y-118271348D01*
X128791662Y-118256969D01*
X128769198Y-118240308D01*
X128748475Y-118221525D01*
X128729692Y-118200802D01*
X128713031Y-118178338D01*
X128698652Y-118154348D01*
X128686694Y-118129065D01*
X128677272Y-118102731D01*
X128670476Y-118075601D01*
X128666372Y-118047935D01*
X128665000Y-118020000D01*
X128665000Y-117165000D01*
X128666372Y-117137065D01*
X128670476Y-117109399D01*
X128677272Y-117082269D01*
X128686694Y-117055935D01*
X128698652Y-117030652D01*
X128713031Y-117006662D01*
X128729692Y-116984198D01*
X128748475Y-116963475D01*
X128769198Y-116944692D01*
X128791662Y-116928031D01*
X128815652Y-116913652D01*
X128840935Y-116901694D01*
X128867269Y-116892272D01*
X128894399Y-116885476D01*
X128922065Y-116881372D01*
X128950000Y-116880000D01*
X130130000Y-116880000D01*
X130157935Y-116881372D01*
G37*
G36*
X130157935Y-102676372D02*
G01*
X130185601Y-102680476D01*
X130212731Y-102687272D01*
X130239065Y-102696694D01*
X130264348Y-102708652D01*
X130288338Y-102723031D01*
X130310802Y-102739692D01*
X130331525Y-102758475D01*
X130350308Y-102779198D01*
X130366969Y-102801662D01*
X130381348Y-102825652D01*
X130393306Y-102850935D01*
X130402728Y-102877269D01*
X130409524Y-102904399D01*
X130413628Y-102932065D01*
X130415000Y-102960000D01*
X130415000Y-103815000D01*
X130413628Y-103842935D01*
X130409524Y-103870601D01*
X130402728Y-103897731D01*
X130393306Y-103924065D01*
X130381348Y-103949348D01*
X130366969Y-103973338D01*
X130350308Y-103995802D01*
X130331525Y-104016525D01*
X130310802Y-104035308D01*
X130288338Y-104051969D01*
X130264348Y-104066348D01*
X130239065Y-104078306D01*
X130212731Y-104087728D01*
X130185601Y-104094524D01*
X130157935Y-104098628D01*
X130130000Y-104100000D01*
X128950000Y-104100000D01*
X128922065Y-104098628D01*
X128894399Y-104094524D01*
X128867269Y-104087728D01*
X128840935Y-104078306D01*
X128815652Y-104066348D01*
X128791662Y-104051969D01*
X128769198Y-104035308D01*
X128748475Y-104016525D01*
X128729692Y-103995802D01*
X128713031Y-103973338D01*
X128698652Y-103949348D01*
X128686694Y-103924065D01*
X128677272Y-103897731D01*
X128670476Y-103870601D01*
X128666372Y-103842935D01*
X128665000Y-103815000D01*
X128665000Y-102960000D01*
X128666372Y-102932065D01*
X128670476Y-102904399D01*
X128677272Y-102877269D01*
X128686694Y-102850935D01*
X128698652Y-102825652D01*
X128713031Y-102801662D01*
X128729692Y-102779198D01*
X128748475Y-102758475D01*
X128769198Y-102739692D01*
X128791662Y-102723031D01*
X128815652Y-102708652D01*
X128840935Y-102696694D01*
X128867269Y-102687272D01*
X128894399Y-102680476D01*
X128922065Y-102676372D01*
X128950000Y-102675000D01*
X130130000Y-102675000D01*
X130157935Y-102676372D01*
G37*
G36*
X130157935Y-99101372D02*
G01*
X130185601Y-99105476D01*
X130212731Y-99112272D01*
X130239065Y-99121694D01*
X130264348Y-99133652D01*
X130288338Y-99148031D01*
X130310802Y-99164692D01*
X130331525Y-99183475D01*
X130350308Y-99204198D01*
X130366969Y-99226662D01*
X130381348Y-99250652D01*
X130393306Y-99275935D01*
X130402728Y-99302269D01*
X130409524Y-99329399D01*
X130413628Y-99357065D01*
X130415000Y-99385000D01*
X130415000Y-100240000D01*
X130413628Y-100267935D01*
X130409524Y-100295601D01*
X130402728Y-100322731D01*
X130393306Y-100349065D01*
X130381348Y-100374348D01*
X130366969Y-100398338D01*
X130350308Y-100420802D01*
X130331525Y-100441525D01*
X130310802Y-100460308D01*
X130288338Y-100476969D01*
X130264348Y-100491348D01*
X130239065Y-100503306D01*
X130212731Y-100512728D01*
X130185601Y-100519524D01*
X130157935Y-100523628D01*
X130130000Y-100525000D01*
X128950000Y-100525000D01*
X128922065Y-100523628D01*
X128894399Y-100519524D01*
X128867269Y-100512728D01*
X128840935Y-100503306D01*
X128815652Y-100491348D01*
X128791662Y-100476969D01*
X128769198Y-100460308D01*
X128748475Y-100441525D01*
X128729692Y-100420802D01*
X128713031Y-100398338D01*
X128698652Y-100374348D01*
X128686694Y-100349065D01*
X128677272Y-100322731D01*
X128670476Y-100295601D01*
X128666372Y-100267935D01*
X128665000Y-100240000D01*
X128665000Y-99385000D01*
X128666372Y-99357065D01*
X128670476Y-99329399D01*
X128677272Y-99302269D01*
X128686694Y-99275935D01*
X128698652Y-99250652D01*
X128713031Y-99226662D01*
X128729692Y-99204198D01*
X128748475Y-99183475D01*
X128769198Y-99164692D01*
X128791662Y-99148031D01*
X128815652Y-99133652D01*
X128840935Y-99121694D01*
X128867269Y-99112272D01*
X128894399Y-99105476D01*
X128922065Y-99101372D01*
X128950000Y-99100000D01*
X130130000Y-99100000D01*
X130157935Y-99101372D01*
G37*
G36*
X130157935Y-84896372D02*
G01*
X130185601Y-84900476D01*
X130212731Y-84907272D01*
X130239065Y-84916694D01*
X130264348Y-84928652D01*
X130288338Y-84943031D01*
X130310802Y-84959692D01*
X130331525Y-84978475D01*
X130350308Y-84999198D01*
X130366969Y-85021662D01*
X130381348Y-85045652D01*
X130393306Y-85070935D01*
X130402728Y-85097269D01*
X130409524Y-85124399D01*
X130413628Y-85152065D01*
X130415000Y-85180000D01*
X130415000Y-86035000D01*
X130413628Y-86062935D01*
X130409524Y-86090601D01*
X130402728Y-86117731D01*
X130393306Y-86144065D01*
X130381348Y-86169348D01*
X130366969Y-86193338D01*
X130350308Y-86215802D01*
X130331525Y-86236525D01*
X130310802Y-86255308D01*
X130288338Y-86271969D01*
X130264348Y-86286348D01*
X130239065Y-86298306D01*
X130212731Y-86307728D01*
X130185601Y-86314524D01*
X130157935Y-86318628D01*
X130130000Y-86320000D01*
X128950000Y-86320000D01*
X128922065Y-86318628D01*
X128894399Y-86314524D01*
X128867269Y-86307728D01*
X128840935Y-86298306D01*
X128815652Y-86286348D01*
X128791662Y-86271969D01*
X128769198Y-86255308D01*
X128748475Y-86236525D01*
X128729692Y-86215802D01*
X128713031Y-86193338D01*
X128698652Y-86169348D01*
X128686694Y-86144065D01*
X128677272Y-86117731D01*
X128670476Y-86090601D01*
X128666372Y-86062935D01*
X128665000Y-86035000D01*
X128665000Y-85180000D01*
X128666372Y-85152065D01*
X128670476Y-85124399D01*
X128677272Y-85097269D01*
X128686694Y-85070935D01*
X128698652Y-85045652D01*
X128713031Y-85021662D01*
X128729692Y-84999198D01*
X128748475Y-84978475D01*
X128769198Y-84959692D01*
X128791662Y-84943031D01*
X128815652Y-84928652D01*
X128840935Y-84916694D01*
X128867269Y-84907272D01*
X128894399Y-84900476D01*
X128922065Y-84896372D01*
X128950000Y-84895000D01*
X130130000Y-84895000D01*
X130157935Y-84896372D01*
G37*
G36*
X130157935Y-81321372D02*
G01*
X130185601Y-81325476D01*
X130212731Y-81332272D01*
X130239065Y-81341694D01*
X130264348Y-81353652D01*
X130288338Y-81368031D01*
X130310802Y-81384692D01*
X130331525Y-81403475D01*
X130350308Y-81424198D01*
X130366969Y-81446662D01*
X130381348Y-81470652D01*
X130393306Y-81495935D01*
X130402728Y-81522269D01*
X130409524Y-81549399D01*
X130413628Y-81577065D01*
X130415000Y-81605000D01*
X130415000Y-82460000D01*
X130413628Y-82487935D01*
X130409524Y-82515601D01*
X130402728Y-82542731D01*
X130393306Y-82569065D01*
X130381348Y-82594348D01*
X130366969Y-82618338D01*
X130350308Y-82640802D01*
X130331525Y-82661525D01*
X130310802Y-82680308D01*
X130288338Y-82696969D01*
X130264348Y-82711348D01*
X130239065Y-82723306D01*
X130212731Y-82732728D01*
X130185601Y-82739524D01*
X130157935Y-82743628D01*
X130130000Y-82745000D01*
X128950000Y-82745000D01*
X128922065Y-82743628D01*
X128894399Y-82739524D01*
X128867269Y-82732728D01*
X128840935Y-82723306D01*
X128815652Y-82711348D01*
X128791662Y-82696969D01*
X128769198Y-82680308D01*
X128748475Y-82661525D01*
X128729692Y-82640802D01*
X128713031Y-82618338D01*
X128698652Y-82594348D01*
X128686694Y-82569065D01*
X128677272Y-82542731D01*
X128670476Y-82515601D01*
X128666372Y-82487935D01*
X128665000Y-82460000D01*
X128665000Y-81605000D01*
X128666372Y-81577065D01*
X128670476Y-81549399D01*
X128677272Y-81522269D01*
X128686694Y-81495935D01*
X128698652Y-81470652D01*
X128713031Y-81446662D01*
X128729692Y-81424198D01*
X128748475Y-81403475D01*
X128769198Y-81384692D01*
X128791662Y-81368031D01*
X128815652Y-81353652D01*
X128840935Y-81341694D01*
X128867269Y-81332272D01*
X128894399Y-81325476D01*
X128922065Y-81321372D01*
X128950000Y-81320000D01*
X130130000Y-81320000D01*
X130157935Y-81321372D01*
G37*
G36*
X150985935Y-114360372D02*
G01*
X151013601Y-114364476D01*
X151040731Y-114371272D01*
X151067065Y-114380694D01*
X151092348Y-114392652D01*
X151116338Y-114407031D01*
X151138802Y-114423692D01*
X151159525Y-114442475D01*
X151178308Y-114463198D01*
X151194969Y-114485662D01*
X151209348Y-114509652D01*
X151221306Y-114534935D01*
X151230728Y-114561269D01*
X151237524Y-114588399D01*
X151241628Y-114616065D01*
X151243000Y-114644000D01*
X151243000Y-115499000D01*
X151241628Y-115526935D01*
X151237524Y-115554601D01*
X151230728Y-115581731D01*
X151221306Y-115608065D01*
X151209348Y-115633348D01*
X151194969Y-115657338D01*
X151178308Y-115679802D01*
X151159525Y-115700525D01*
X151138802Y-115719308D01*
X151116338Y-115735969D01*
X151092348Y-115750348D01*
X151067065Y-115762306D01*
X151040731Y-115771728D01*
X151013601Y-115778524D01*
X150985935Y-115782628D01*
X150958000Y-115784000D01*
X149778000Y-115784000D01*
X149750065Y-115782628D01*
X149722399Y-115778524D01*
X149695269Y-115771728D01*
X149668935Y-115762306D01*
X149643652Y-115750348D01*
X149619662Y-115735969D01*
X149597198Y-115719308D01*
X149576475Y-115700525D01*
X149557692Y-115679802D01*
X149541031Y-115657338D01*
X149526652Y-115633348D01*
X149514694Y-115608065D01*
X149505272Y-115581731D01*
X149498476Y-115554601D01*
X149494372Y-115526935D01*
X149493000Y-115499000D01*
X149493000Y-114644000D01*
X149494372Y-114616065D01*
X149498476Y-114588399D01*
X149505272Y-114561269D01*
X149514694Y-114534935D01*
X149526652Y-114509652D01*
X149541031Y-114485662D01*
X149557692Y-114463198D01*
X149576475Y-114442475D01*
X149597198Y-114423692D01*
X149619662Y-114407031D01*
X149643652Y-114392652D01*
X149668935Y-114380694D01*
X149695269Y-114371272D01*
X149722399Y-114364476D01*
X149750065Y-114360372D01*
X149778000Y-114359000D01*
X150958000Y-114359000D01*
X150985935Y-114360372D01*
G37*
G36*
X150985935Y-110785372D02*
G01*
X151013601Y-110789476D01*
X151040731Y-110796272D01*
X151067065Y-110805694D01*
X151092348Y-110817652D01*
X151116338Y-110832031D01*
X151138802Y-110848692D01*
X151159525Y-110867475D01*
X151178308Y-110888198D01*
X151194969Y-110910662D01*
X151209348Y-110934652D01*
X151221306Y-110959935D01*
X151230728Y-110986269D01*
X151237524Y-111013399D01*
X151241628Y-111041065D01*
X151243000Y-111069000D01*
X151243000Y-111924000D01*
X151241628Y-111951935D01*
X151237524Y-111979601D01*
X151230728Y-112006731D01*
X151221306Y-112033065D01*
X151209348Y-112058348D01*
X151194969Y-112082338D01*
X151178308Y-112104802D01*
X151159525Y-112125525D01*
X151138802Y-112144308D01*
X151116338Y-112160969D01*
X151092348Y-112175348D01*
X151067065Y-112187306D01*
X151040731Y-112196728D01*
X151013601Y-112203524D01*
X150985935Y-112207628D01*
X150958000Y-112209000D01*
X149778000Y-112209000D01*
X149750065Y-112207628D01*
X149722399Y-112203524D01*
X149695269Y-112196728D01*
X149668935Y-112187306D01*
X149643652Y-112175348D01*
X149619662Y-112160969D01*
X149597198Y-112144308D01*
X149576475Y-112125525D01*
X149557692Y-112104802D01*
X149541031Y-112082338D01*
X149526652Y-112058348D01*
X149514694Y-112033065D01*
X149505272Y-112006731D01*
X149498476Y-111979601D01*
X149494372Y-111951935D01*
X149493000Y-111924000D01*
X149493000Y-111069000D01*
X149494372Y-111041065D01*
X149498476Y-111013399D01*
X149505272Y-110986269D01*
X149514694Y-110959935D01*
X149526652Y-110934652D01*
X149541031Y-110910662D01*
X149557692Y-110888198D01*
X149576475Y-110867475D01*
X149597198Y-110848692D01*
X149619662Y-110832031D01*
X149643652Y-110817652D01*
X149668935Y-110805694D01*
X149695269Y-110796272D01*
X149722399Y-110789476D01*
X149750065Y-110785372D01*
X149778000Y-110784000D01*
X150958000Y-110784000D01*
X150985935Y-110785372D01*
G37*
G36*
X150985935Y-103184372D02*
G01*
X151013601Y-103188476D01*
X151040731Y-103195272D01*
X151067065Y-103204694D01*
X151092348Y-103216652D01*
X151116338Y-103231031D01*
X151138802Y-103247692D01*
X151159525Y-103266475D01*
X151178308Y-103287198D01*
X151194969Y-103309662D01*
X151209348Y-103333652D01*
X151221306Y-103358935D01*
X151230728Y-103385269D01*
X151237524Y-103412399D01*
X151241628Y-103440065D01*
X151243000Y-103468000D01*
X151243000Y-104323000D01*
X151241628Y-104350935D01*
X151237524Y-104378601D01*
X151230728Y-104405731D01*
X151221306Y-104432065D01*
X151209348Y-104457348D01*
X151194969Y-104481338D01*
X151178308Y-104503802D01*
X151159525Y-104524525D01*
X151138802Y-104543308D01*
X151116338Y-104559969D01*
X151092348Y-104574348D01*
X151067065Y-104586306D01*
X151040731Y-104595728D01*
X151013601Y-104602524D01*
X150985935Y-104606628D01*
X150958000Y-104608000D01*
X149778000Y-104608000D01*
X149750065Y-104606628D01*
X149722399Y-104602524D01*
X149695269Y-104595728D01*
X149668935Y-104586306D01*
X149643652Y-104574348D01*
X149619662Y-104559969D01*
X149597198Y-104543308D01*
X149576475Y-104524525D01*
X149557692Y-104503802D01*
X149541031Y-104481338D01*
X149526652Y-104457348D01*
X149514694Y-104432065D01*
X149505272Y-104405731D01*
X149498476Y-104378601D01*
X149494372Y-104350935D01*
X149493000Y-104323000D01*
X149493000Y-103468000D01*
X149494372Y-103440065D01*
X149498476Y-103412399D01*
X149505272Y-103385269D01*
X149514694Y-103358935D01*
X149526652Y-103333652D01*
X149541031Y-103309662D01*
X149557692Y-103287198D01*
X149576475Y-103266475D01*
X149597198Y-103247692D01*
X149619662Y-103231031D01*
X149643652Y-103216652D01*
X149668935Y-103204694D01*
X149695269Y-103195272D01*
X149722399Y-103188476D01*
X149750065Y-103184372D01*
X149778000Y-103183000D01*
X150958000Y-103183000D01*
X150985935Y-103184372D01*
G37*
G36*
X150985935Y-99609372D02*
G01*
X151013601Y-99613476D01*
X151040731Y-99620272D01*
X151067065Y-99629694D01*
X151092348Y-99641652D01*
X151116338Y-99656031D01*
X151138802Y-99672692D01*
X151159525Y-99691475D01*
X151178308Y-99712198D01*
X151194969Y-99734662D01*
X151209348Y-99758652D01*
X151221306Y-99783935D01*
X151230728Y-99810269D01*
X151237524Y-99837399D01*
X151241628Y-99865065D01*
X151243000Y-99893000D01*
X151243000Y-100748000D01*
X151241628Y-100775935D01*
X151237524Y-100803601D01*
X151230728Y-100830731D01*
X151221306Y-100857065D01*
X151209348Y-100882348D01*
X151194969Y-100906338D01*
X151178308Y-100928802D01*
X151159525Y-100949525D01*
X151138802Y-100968308D01*
X151116338Y-100984969D01*
X151092348Y-100999348D01*
X151067065Y-101011306D01*
X151040731Y-101020728D01*
X151013601Y-101027524D01*
X150985935Y-101031628D01*
X150958000Y-101033000D01*
X149778000Y-101033000D01*
X149750065Y-101031628D01*
X149722399Y-101027524D01*
X149695269Y-101020728D01*
X149668935Y-101011306D01*
X149643652Y-100999348D01*
X149619662Y-100984969D01*
X149597198Y-100968308D01*
X149576475Y-100949525D01*
X149557692Y-100928802D01*
X149541031Y-100906338D01*
X149526652Y-100882348D01*
X149514694Y-100857065D01*
X149505272Y-100830731D01*
X149498476Y-100803601D01*
X149494372Y-100775935D01*
X149493000Y-100748000D01*
X149493000Y-99893000D01*
X149494372Y-99865065D01*
X149498476Y-99837399D01*
X149505272Y-99810269D01*
X149514694Y-99783935D01*
X149526652Y-99758652D01*
X149541031Y-99734662D01*
X149557692Y-99712198D01*
X149576475Y-99691475D01*
X149597198Y-99672692D01*
X149619662Y-99656031D01*
X149643652Y-99641652D01*
X149668935Y-99629694D01*
X149695269Y-99620272D01*
X149722399Y-99613476D01*
X149750065Y-99609372D01*
X149778000Y-99608000D01*
X150958000Y-99608000D01*
X150985935Y-99609372D01*
G37*
G36*
X155639935Y-105806372D02*
G01*
X155667601Y-105810476D01*
X155694731Y-105817272D01*
X155721065Y-105826694D01*
X155746348Y-105838652D01*
X155770338Y-105853031D01*
X155792802Y-105869692D01*
X155813525Y-105888475D01*
X155832308Y-105909198D01*
X155848969Y-105931662D01*
X155863348Y-105955652D01*
X155875306Y-105980935D01*
X155884728Y-106007269D01*
X155891524Y-106034399D01*
X155895628Y-106062065D01*
X155897000Y-106090000D01*
X155897000Y-107270000D01*
X155895628Y-107297935D01*
X155891524Y-107325601D01*
X155884728Y-107352731D01*
X155875306Y-107379065D01*
X155863348Y-107404348D01*
X155848969Y-107428338D01*
X155832308Y-107450802D01*
X155813525Y-107471525D01*
X155792802Y-107490308D01*
X155770338Y-107506969D01*
X155746348Y-107521348D01*
X155721065Y-107533306D01*
X155694731Y-107542728D01*
X155667601Y-107549524D01*
X155639935Y-107553628D01*
X155612000Y-107555000D01*
X154757000Y-107555000D01*
X154729065Y-107553628D01*
X154701399Y-107549524D01*
X154674269Y-107542728D01*
X154647935Y-107533306D01*
X154622652Y-107521348D01*
X154598662Y-107506969D01*
X154576198Y-107490308D01*
X154555475Y-107471525D01*
X154536692Y-107450802D01*
X154520031Y-107428338D01*
X154505652Y-107404348D01*
X154493694Y-107379065D01*
X154484272Y-107352731D01*
X154477476Y-107325601D01*
X154473372Y-107297935D01*
X154472000Y-107270000D01*
X154472000Y-106090000D01*
X154473372Y-106062065D01*
X154477476Y-106034399D01*
X154484272Y-106007269D01*
X154493694Y-105980935D01*
X154505652Y-105955652D01*
X154520031Y-105931662D01*
X154536692Y-105909198D01*
X154555475Y-105888475D01*
X154576198Y-105869692D01*
X154598662Y-105853031D01*
X154622652Y-105838652D01*
X154647935Y-105826694D01*
X154674269Y-105817272D01*
X154701399Y-105810476D01*
X154729065Y-105806372D01*
X154757000Y-105805000D01*
X155612000Y-105805000D01*
X155639935Y-105806372D01*
G37*
G36*
X159214935Y-105806372D02*
G01*
X159242601Y-105810476D01*
X159269731Y-105817272D01*
X159296065Y-105826694D01*
X159321348Y-105838652D01*
X159345338Y-105853031D01*
X159367802Y-105869692D01*
X159388525Y-105888475D01*
X159407308Y-105909198D01*
X159423969Y-105931662D01*
X159438348Y-105955652D01*
X159450306Y-105980935D01*
X159459728Y-106007269D01*
X159466524Y-106034399D01*
X159470628Y-106062065D01*
X159472000Y-106090000D01*
X159472000Y-107270000D01*
X159470628Y-107297935D01*
X159466524Y-107325601D01*
X159459728Y-107352731D01*
X159450306Y-107379065D01*
X159438348Y-107404348D01*
X159423969Y-107428338D01*
X159407308Y-107450802D01*
X159388525Y-107471525D01*
X159367802Y-107490308D01*
X159345338Y-107506969D01*
X159321348Y-107521348D01*
X159296065Y-107533306D01*
X159269731Y-107542728D01*
X159242601Y-107549524D01*
X159214935Y-107553628D01*
X159187000Y-107555000D01*
X158332000Y-107555000D01*
X158304065Y-107553628D01*
X158276399Y-107549524D01*
X158249269Y-107542728D01*
X158222935Y-107533306D01*
X158197652Y-107521348D01*
X158173662Y-107506969D01*
X158151198Y-107490308D01*
X158130475Y-107471525D01*
X158111692Y-107450802D01*
X158095031Y-107428338D01*
X158080652Y-107404348D01*
X158068694Y-107379065D01*
X158059272Y-107352731D01*
X158052476Y-107325601D01*
X158048372Y-107297935D01*
X158047000Y-107270000D01*
X158047000Y-106090000D01*
X158048372Y-106062065D01*
X158052476Y-106034399D01*
X158059272Y-106007269D01*
X158068694Y-105980935D01*
X158080652Y-105955652D01*
X158095031Y-105931662D01*
X158111692Y-105909198D01*
X158130475Y-105888475D01*
X158151198Y-105869692D01*
X158173662Y-105853031D01*
X158197652Y-105838652D01*
X158222935Y-105826694D01*
X158249269Y-105817272D01*
X158276399Y-105810476D01*
X158304065Y-105806372D01*
X158332000Y-105805000D01*
X159187000Y-105805000D01*
X159214935Y-105806372D01*
G37*
G36*
X162751935Y-105806372D02*
G01*
X162779601Y-105810476D01*
X162806731Y-105817272D01*
X162833065Y-105826694D01*
X162858348Y-105838652D01*
X162882338Y-105853031D01*
X162904802Y-105869692D01*
X162925525Y-105888475D01*
X162944308Y-105909198D01*
X162960969Y-105931662D01*
X162975348Y-105955652D01*
X162987306Y-105980935D01*
X162996728Y-106007269D01*
X163003524Y-106034399D01*
X163007628Y-106062065D01*
X163009000Y-106090000D01*
X163009000Y-107270000D01*
X163007628Y-107297935D01*
X163003524Y-107325601D01*
X162996728Y-107352731D01*
X162987306Y-107379065D01*
X162975348Y-107404348D01*
X162960969Y-107428338D01*
X162944308Y-107450802D01*
X162925525Y-107471525D01*
X162904802Y-107490308D01*
X162882338Y-107506969D01*
X162858348Y-107521348D01*
X162833065Y-107533306D01*
X162806731Y-107542728D01*
X162779601Y-107549524D01*
X162751935Y-107553628D01*
X162724000Y-107555000D01*
X161869000Y-107555000D01*
X161841065Y-107553628D01*
X161813399Y-107549524D01*
X161786269Y-107542728D01*
X161759935Y-107533306D01*
X161734652Y-107521348D01*
X161710662Y-107506969D01*
X161688198Y-107490308D01*
X161667475Y-107471525D01*
X161648692Y-107450802D01*
X161632031Y-107428338D01*
X161617652Y-107404348D01*
X161605694Y-107379065D01*
X161596272Y-107352731D01*
X161589476Y-107325601D01*
X161585372Y-107297935D01*
X161584000Y-107270000D01*
X161584000Y-106090000D01*
X161585372Y-106062065D01*
X161589476Y-106034399D01*
X161596272Y-106007269D01*
X161605694Y-105980935D01*
X161617652Y-105955652D01*
X161632031Y-105931662D01*
X161648692Y-105909198D01*
X161667475Y-105888475D01*
X161688198Y-105869692D01*
X161710662Y-105853031D01*
X161734652Y-105838652D01*
X161759935Y-105826694D01*
X161786269Y-105817272D01*
X161813399Y-105810476D01*
X161841065Y-105806372D01*
X161869000Y-105805000D01*
X162724000Y-105805000D01*
X162751935Y-105806372D01*
G37*
G36*
X166326935Y-105806372D02*
G01*
X166354601Y-105810476D01*
X166381731Y-105817272D01*
X166408065Y-105826694D01*
X166433348Y-105838652D01*
X166457338Y-105853031D01*
X166479802Y-105869692D01*
X166500525Y-105888475D01*
X166519308Y-105909198D01*
X166535969Y-105931662D01*
X166550348Y-105955652D01*
X166562306Y-105980935D01*
X166571728Y-106007269D01*
X166578524Y-106034399D01*
X166582628Y-106062065D01*
X166584000Y-106090000D01*
X166584000Y-107270000D01*
X166582628Y-107297935D01*
X166578524Y-107325601D01*
X166571728Y-107352731D01*
X166562306Y-107379065D01*
X166550348Y-107404348D01*
X166535969Y-107428338D01*
X166519308Y-107450802D01*
X166500525Y-107471525D01*
X166479802Y-107490308D01*
X166457338Y-107506969D01*
X166433348Y-107521348D01*
X166408065Y-107533306D01*
X166381731Y-107542728D01*
X166354601Y-107549524D01*
X166326935Y-107553628D01*
X166299000Y-107555000D01*
X165444000Y-107555000D01*
X165416065Y-107553628D01*
X165388399Y-107549524D01*
X165361269Y-107542728D01*
X165334935Y-107533306D01*
X165309652Y-107521348D01*
X165285662Y-107506969D01*
X165263198Y-107490308D01*
X165242475Y-107471525D01*
X165223692Y-107450802D01*
X165207031Y-107428338D01*
X165192652Y-107404348D01*
X165180694Y-107379065D01*
X165171272Y-107352731D01*
X165164476Y-107325601D01*
X165160372Y-107297935D01*
X165159000Y-107270000D01*
X165159000Y-106090000D01*
X165160372Y-106062065D01*
X165164476Y-106034399D01*
X165171272Y-106007269D01*
X165180694Y-105980935D01*
X165192652Y-105955652D01*
X165207031Y-105931662D01*
X165223692Y-105909198D01*
X165242475Y-105888475D01*
X165263198Y-105869692D01*
X165285662Y-105853031D01*
X165309652Y-105838652D01*
X165334935Y-105826694D01*
X165361269Y-105817272D01*
X165388399Y-105810476D01*
X165416065Y-105806372D01*
X165444000Y-105805000D01*
X166299000Y-105805000D01*
X166326935Y-105806372D01*
G37*
G36*
X139383935Y-107838372D02*
G01*
X139411601Y-107842476D01*
X139438731Y-107849272D01*
X139465065Y-107858694D01*
X139490348Y-107870652D01*
X139514338Y-107885031D01*
X139536802Y-107901692D01*
X139557525Y-107920475D01*
X139576308Y-107941198D01*
X139592969Y-107963662D01*
X139607348Y-107987652D01*
X139619306Y-108012935D01*
X139628728Y-108039269D01*
X139635524Y-108066399D01*
X139639628Y-108094065D01*
X139641000Y-108122000D01*
X139641000Y-109302000D01*
X139639628Y-109329935D01*
X139635524Y-109357601D01*
X139628728Y-109384731D01*
X139619306Y-109411065D01*
X139607348Y-109436348D01*
X139592969Y-109460338D01*
X139576308Y-109482802D01*
X139557525Y-109503525D01*
X139536802Y-109522308D01*
X139514338Y-109538969D01*
X139490348Y-109553348D01*
X139465065Y-109565306D01*
X139438731Y-109574728D01*
X139411601Y-109581524D01*
X139383935Y-109585628D01*
X139356000Y-109587000D01*
X138501000Y-109587000D01*
X138473065Y-109585628D01*
X138445399Y-109581524D01*
X138418269Y-109574728D01*
X138391935Y-109565306D01*
X138366652Y-109553348D01*
X138342662Y-109538969D01*
X138320198Y-109522308D01*
X138299475Y-109503525D01*
X138280692Y-109482802D01*
X138264031Y-109460338D01*
X138249652Y-109436348D01*
X138237694Y-109411065D01*
X138228272Y-109384731D01*
X138221476Y-109357601D01*
X138217372Y-109329935D01*
X138216000Y-109302000D01*
X138216000Y-108122000D01*
X138217372Y-108094065D01*
X138221476Y-108066399D01*
X138228272Y-108039269D01*
X138237694Y-108012935D01*
X138249652Y-107987652D01*
X138264031Y-107963662D01*
X138280692Y-107941198D01*
X138299475Y-107920475D01*
X138320198Y-107901692D01*
X138342662Y-107885031D01*
X138366652Y-107870652D01*
X138391935Y-107858694D01*
X138418269Y-107849272D01*
X138445399Y-107842476D01*
X138473065Y-107838372D01*
X138501000Y-107837000D01*
X139356000Y-107837000D01*
X139383935Y-107838372D01*
G37*
G36*
X142958935Y-107838372D02*
G01*
X142986601Y-107842476D01*
X143013731Y-107849272D01*
X143040065Y-107858694D01*
X143065348Y-107870652D01*
X143089338Y-107885031D01*
X143111802Y-107901692D01*
X143132525Y-107920475D01*
X143151308Y-107941198D01*
X143167969Y-107963662D01*
X143182348Y-107987652D01*
X143194306Y-108012935D01*
X143203728Y-108039269D01*
X143210524Y-108066399D01*
X143214628Y-108094065D01*
X143216000Y-108122000D01*
X143216000Y-109302000D01*
X143214628Y-109329935D01*
X143210524Y-109357601D01*
X143203728Y-109384731D01*
X143194306Y-109411065D01*
X143182348Y-109436348D01*
X143167969Y-109460338D01*
X143151308Y-109482802D01*
X143132525Y-109503525D01*
X143111802Y-109522308D01*
X143089338Y-109538969D01*
X143065348Y-109553348D01*
X143040065Y-109565306D01*
X143013731Y-109574728D01*
X142986601Y-109581524D01*
X142958935Y-109585628D01*
X142931000Y-109587000D01*
X142076000Y-109587000D01*
X142048065Y-109585628D01*
X142020399Y-109581524D01*
X141993269Y-109574728D01*
X141966935Y-109565306D01*
X141941652Y-109553348D01*
X141917662Y-109538969D01*
X141895198Y-109522308D01*
X141874475Y-109503525D01*
X141855692Y-109482802D01*
X141839031Y-109460338D01*
X141824652Y-109436348D01*
X141812694Y-109411065D01*
X141803272Y-109384731D01*
X141796476Y-109357601D01*
X141792372Y-109329935D01*
X141791000Y-109302000D01*
X141791000Y-108122000D01*
X141792372Y-108094065D01*
X141796476Y-108066399D01*
X141803272Y-108039269D01*
X141812694Y-108012935D01*
X141824652Y-107987652D01*
X141839031Y-107963662D01*
X141855692Y-107941198D01*
X141874475Y-107920475D01*
X141895198Y-107901692D01*
X141917662Y-107885031D01*
X141941652Y-107870652D01*
X141966935Y-107858694D01*
X141993269Y-107849272D01*
X142020399Y-107842476D01*
X142048065Y-107838372D01*
X142076000Y-107837000D01*
X142931000Y-107837000D01*
X142958935Y-107838372D01*
G37*
G36*
X146495935Y-107838372D02*
G01*
X146523601Y-107842476D01*
X146550731Y-107849272D01*
X146577065Y-107858694D01*
X146602348Y-107870652D01*
X146626338Y-107885031D01*
X146648802Y-107901692D01*
X146669525Y-107920475D01*
X146688308Y-107941198D01*
X146704969Y-107963662D01*
X146719348Y-107987652D01*
X146731306Y-108012935D01*
X146740728Y-108039269D01*
X146747524Y-108066399D01*
X146751628Y-108094065D01*
X146753000Y-108122000D01*
X146753000Y-109302000D01*
X146751628Y-109329935D01*
X146747524Y-109357601D01*
X146740728Y-109384731D01*
X146731306Y-109411065D01*
X146719348Y-109436348D01*
X146704969Y-109460338D01*
X146688308Y-109482802D01*
X146669525Y-109503525D01*
X146648802Y-109522308D01*
X146626338Y-109538969D01*
X146602348Y-109553348D01*
X146577065Y-109565306D01*
X146550731Y-109574728D01*
X146523601Y-109581524D01*
X146495935Y-109585628D01*
X146468000Y-109587000D01*
X145613000Y-109587000D01*
X145585065Y-109585628D01*
X145557399Y-109581524D01*
X145530269Y-109574728D01*
X145503935Y-109565306D01*
X145478652Y-109553348D01*
X145454662Y-109538969D01*
X145432198Y-109522308D01*
X145411475Y-109503525D01*
X145392692Y-109482802D01*
X145376031Y-109460338D01*
X145361652Y-109436348D01*
X145349694Y-109411065D01*
X145340272Y-109384731D01*
X145333476Y-109357601D01*
X145329372Y-109329935D01*
X145328000Y-109302000D01*
X145328000Y-108122000D01*
X145329372Y-108094065D01*
X145333476Y-108066399D01*
X145340272Y-108039269D01*
X145349694Y-108012935D01*
X145361652Y-107987652D01*
X145376031Y-107963662D01*
X145392692Y-107941198D01*
X145411475Y-107920475D01*
X145432198Y-107901692D01*
X145454662Y-107885031D01*
X145478652Y-107870652D01*
X145503935Y-107858694D01*
X145530269Y-107849272D01*
X145557399Y-107842476D01*
X145585065Y-107838372D01*
X145613000Y-107837000D01*
X146468000Y-107837000D01*
X146495935Y-107838372D01*
G37*
G36*
X150070935Y-107838372D02*
G01*
X150098601Y-107842476D01*
X150125731Y-107849272D01*
X150152065Y-107858694D01*
X150177348Y-107870652D01*
X150201338Y-107885031D01*
X150223802Y-107901692D01*
X150244525Y-107920475D01*
X150263308Y-107941198D01*
X150279969Y-107963662D01*
X150294348Y-107987652D01*
X150306306Y-108012935D01*
X150315728Y-108039269D01*
X150322524Y-108066399D01*
X150326628Y-108094065D01*
X150328000Y-108122000D01*
X150328000Y-109302000D01*
X150326628Y-109329935D01*
X150322524Y-109357601D01*
X150315728Y-109384731D01*
X150306306Y-109411065D01*
X150294348Y-109436348D01*
X150279969Y-109460338D01*
X150263308Y-109482802D01*
X150244525Y-109503525D01*
X150223802Y-109522308D01*
X150201338Y-109538969D01*
X150177348Y-109553348D01*
X150152065Y-109565306D01*
X150125731Y-109574728D01*
X150098601Y-109581524D01*
X150070935Y-109585628D01*
X150043000Y-109587000D01*
X149188000Y-109587000D01*
X149160065Y-109585628D01*
X149132399Y-109581524D01*
X149105269Y-109574728D01*
X149078935Y-109565306D01*
X149053652Y-109553348D01*
X149029662Y-109538969D01*
X149007198Y-109522308D01*
X148986475Y-109503525D01*
X148967692Y-109482802D01*
X148951031Y-109460338D01*
X148936652Y-109436348D01*
X148924694Y-109411065D01*
X148915272Y-109384731D01*
X148908476Y-109357601D01*
X148904372Y-109329935D01*
X148903000Y-109302000D01*
X148903000Y-108122000D01*
X148904372Y-108094065D01*
X148908476Y-108066399D01*
X148915272Y-108039269D01*
X148924694Y-108012935D01*
X148936652Y-107987652D01*
X148951031Y-107963662D01*
X148967692Y-107941198D01*
X148986475Y-107920475D01*
X149007198Y-107901692D01*
X149029662Y-107885031D01*
X149053652Y-107870652D01*
X149078935Y-107858694D01*
X149105269Y-107849272D01*
X149132399Y-107842476D01*
X149160065Y-107838372D01*
X149188000Y-107837000D01*
X150043000Y-107837000D01*
X150070935Y-107838372D01*
G37*
G36*
X155049935Y-114360372D02*
G01*
X155077601Y-114364476D01*
X155104731Y-114371272D01*
X155131065Y-114380694D01*
X155156348Y-114392652D01*
X155180338Y-114407031D01*
X155202802Y-114423692D01*
X155223525Y-114442475D01*
X155242308Y-114463198D01*
X155258969Y-114485662D01*
X155273348Y-114509652D01*
X155285306Y-114534935D01*
X155294728Y-114561269D01*
X155301524Y-114588399D01*
X155305628Y-114616065D01*
X155307000Y-114644000D01*
X155307000Y-115499000D01*
X155305628Y-115526935D01*
X155301524Y-115554601D01*
X155294728Y-115581731D01*
X155285306Y-115608065D01*
X155273348Y-115633348D01*
X155258969Y-115657338D01*
X155242308Y-115679802D01*
X155223525Y-115700525D01*
X155202802Y-115719308D01*
X155180338Y-115735969D01*
X155156348Y-115750348D01*
X155131065Y-115762306D01*
X155104731Y-115771728D01*
X155077601Y-115778524D01*
X155049935Y-115782628D01*
X155022000Y-115784000D01*
X153842000Y-115784000D01*
X153814065Y-115782628D01*
X153786399Y-115778524D01*
X153759269Y-115771728D01*
X153732935Y-115762306D01*
X153707652Y-115750348D01*
X153683662Y-115735969D01*
X153661198Y-115719308D01*
X153640475Y-115700525D01*
X153621692Y-115679802D01*
X153605031Y-115657338D01*
X153590652Y-115633348D01*
X153578694Y-115608065D01*
X153569272Y-115581731D01*
X153562476Y-115554601D01*
X153558372Y-115526935D01*
X153557000Y-115499000D01*
X153557000Y-114644000D01*
X153558372Y-114616065D01*
X153562476Y-114588399D01*
X153569272Y-114561269D01*
X153578694Y-114534935D01*
X153590652Y-114509652D01*
X153605031Y-114485662D01*
X153621692Y-114463198D01*
X153640475Y-114442475D01*
X153661198Y-114423692D01*
X153683662Y-114407031D01*
X153707652Y-114392652D01*
X153732935Y-114380694D01*
X153759269Y-114371272D01*
X153786399Y-114364476D01*
X153814065Y-114360372D01*
X153842000Y-114359000D01*
X155022000Y-114359000D01*
X155049935Y-114360372D01*
G37*
G36*
X155049935Y-110785372D02*
G01*
X155077601Y-110789476D01*
X155104731Y-110796272D01*
X155131065Y-110805694D01*
X155156348Y-110817652D01*
X155180338Y-110832031D01*
X155202802Y-110848692D01*
X155223525Y-110867475D01*
X155242308Y-110888198D01*
X155258969Y-110910662D01*
X155273348Y-110934652D01*
X155285306Y-110959935D01*
X155294728Y-110986269D01*
X155301524Y-111013399D01*
X155305628Y-111041065D01*
X155307000Y-111069000D01*
X155307000Y-111924000D01*
X155305628Y-111951935D01*
X155301524Y-111979601D01*
X155294728Y-112006731D01*
X155285306Y-112033065D01*
X155273348Y-112058348D01*
X155258969Y-112082338D01*
X155242308Y-112104802D01*
X155223525Y-112125525D01*
X155202802Y-112144308D01*
X155180338Y-112160969D01*
X155156348Y-112175348D01*
X155131065Y-112187306D01*
X155104731Y-112196728D01*
X155077601Y-112203524D01*
X155049935Y-112207628D01*
X155022000Y-112209000D01*
X153842000Y-112209000D01*
X153814065Y-112207628D01*
X153786399Y-112203524D01*
X153759269Y-112196728D01*
X153732935Y-112187306D01*
X153707652Y-112175348D01*
X153683662Y-112160969D01*
X153661198Y-112144308D01*
X153640475Y-112125525D01*
X153621692Y-112104802D01*
X153605031Y-112082338D01*
X153590652Y-112058348D01*
X153578694Y-112033065D01*
X153569272Y-112006731D01*
X153562476Y-111979601D01*
X153558372Y-111951935D01*
X153557000Y-111924000D01*
X153557000Y-111069000D01*
X153558372Y-111041065D01*
X153562476Y-111013399D01*
X153569272Y-110986269D01*
X153578694Y-110959935D01*
X153590652Y-110934652D01*
X153605031Y-110910662D01*
X153621692Y-110888198D01*
X153640475Y-110867475D01*
X153661198Y-110848692D01*
X153683662Y-110832031D01*
X153707652Y-110817652D01*
X153732935Y-110805694D01*
X153759269Y-110796272D01*
X153786399Y-110789476D01*
X153814065Y-110785372D01*
X153842000Y-110784000D01*
X155022000Y-110784000D01*
X155049935Y-110785372D01*
G37*
G36*
X155049935Y-103184372D02*
G01*
X155077601Y-103188476D01*
X155104731Y-103195272D01*
X155131065Y-103204694D01*
X155156348Y-103216652D01*
X155180338Y-103231031D01*
X155202802Y-103247692D01*
X155223525Y-103266475D01*
X155242308Y-103287198D01*
X155258969Y-103309662D01*
X155273348Y-103333652D01*
X155285306Y-103358935D01*
X155294728Y-103385269D01*
X155301524Y-103412399D01*
X155305628Y-103440065D01*
X155307000Y-103468000D01*
X155307000Y-104323000D01*
X155305628Y-104350935D01*
X155301524Y-104378601D01*
X155294728Y-104405731D01*
X155285306Y-104432065D01*
X155273348Y-104457348D01*
X155258969Y-104481338D01*
X155242308Y-104503802D01*
X155223525Y-104524525D01*
X155202802Y-104543308D01*
X155180338Y-104559969D01*
X155156348Y-104574348D01*
X155131065Y-104586306D01*
X155104731Y-104595728D01*
X155077601Y-104602524D01*
X155049935Y-104606628D01*
X155022000Y-104608000D01*
X153842000Y-104608000D01*
X153814065Y-104606628D01*
X153786399Y-104602524D01*
X153759269Y-104595728D01*
X153732935Y-104586306D01*
X153707652Y-104574348D01*
X153683662Y-104559969D01*
X153661198Y-104543308D01*
X153640475Y-104524525D01*
X153621692Y-104503802D01*
X153605031Y-104481338D01*
X153590652Y-104457348D01*
X153578694Y-104432065D01*
X153569272Y-104405731D01*
X153562476Y-104378601D01*
X153558372Y-104350935D01*
X153557000Y-104323000D01*
X153557000Y-103468000D01*
X153558372Y-103440065D01*
X153562476Y-103412399D01*
X153569272Y-103385269D01*
X153578694Y-103358935D01*
X153590652Y-103333652D01*
X153605031Y-103309662D01*
X153621692Y-103287198D01*
X153640475Y-103266475D01*
X153661198Y-103247692D01*
X153683662Y-103231031D01*
X153707652Y-103216652D01*
X153732935Y-103204694D01*
X153759269Y-103195272D01*
X153786399Y-103188476D01*
X153814065Y-103184372D01*
X153842000Y-103183000D01*
X155022000Y-103183000D01*
X155049935Y-103184372D01*
G37*
G36*
X155049935Y-99609372D02*
G01*
X155077601Y-99613476D01*
X155104731Y-99620272D01*
X155131065Y-99629694D01*
X155156348Y-99641652D01*
X155180338Y-99656031D01*
X155202802Y-99672692D01*
X155223525Y-99691475D01*
X155242308Y-99712198D01*
X155258969Y-99734662D01*
X155273348Y-99758652D01*
X155285306Y-99783935D01*
X155294728Y-99810269D01*
X155301524Y-99837399D01*
X155305628Y-99865065D01*
X155307000Y-99893000D01*
X155307000Y-100748000D01*
X155305628Y-100775935D01*
X155301524Y-100803601D01*
X155294728Y-100830731D01*
X155285306Y-100857065D01*
X155273348Y-100882348D01*
X155258969Y-100906338D01*
X155242308Y-100928802D01*
X155223525Y-100949525D01*
X155202802Y-100968308D01*
X155180338Y-100984969D01*
X155156348Y-100999348D01*
X155131065Y-101011306D01*
X155104731Y-101020728D01*
X155077601Y-101027524D01*
X155049935Y-101031628D01*
X155022000Y-101033000D01*
X153842000Y-101033000D01*
X153814065Y-101031628D01*
X153786399Y-101027524D01*
X153759269Y-101020728D01*
X153732935Y-101011306D01*
X153707652Y-100999348D01*
X153683662Y-100984969D01*
X153661198Y-100968308D01*
X153640475Y-100949525D01*
X153621692Y-100928802D01*
X153605031Y-100906338D01*
X153590652Y-100882348D01*
X153578694Y-100857065D01*
X153569272Y-100830731D01*
X153562476Y-100803601D01*
X153558372Y-100775935D01*
X153557000Y-100748000D01*
X153557000Y-99893000D01*
X153558372Y-99865065D01*
X153562476Y-99837399D01*
X153569272Y-99810269D01*
X153578694Y-99783935D01*
X153590652Y-99758652D01*
X153605031Y-99734662D01*
X153621692Y-99712198D01*
X153640475Y-99691475D01*
X153661198Y-99672692D01*
X153683662Y-99656031D01*
X153707652Y-99641652D01*
X153732935Y-99629694D01*
X153759269Y-99620272D01*
X153786399Y-99613476D01*
X153814065Y-99609372D01*
X153842000Y-99608000D01*
X155022000Y-99608000D01*
X155049935Y-99609372D01*
G37*
G36*
X135237935Y-97596372D02*
G01*
X135265601Y-97600476D01*
X135292731Y-97607272D01*
X135319065Y-97616694D01*
X135344348Y-97628652D01*
X135368338Y-97643031D01*
X135390802Y-97659692D01*
X135411525Y-97678475D01*
X135430308Y-97699198D01*
X135446969Y-97721662D01*
X135461348Y-97745652D01*
X135473306Y-97770935D01*
X135482728Y-97797269D01*
X135489524Y-97824399D01*
X135493628Y-97852065D01*
X135495000Y-97880000D01*
X135495000Y-98735000D01*
X135493628Y-98762935D01*
X135489524Y-98790601D01*
X135482728Y-98817731D01*
X135473306Y-98844065D01*
X135461348Y-98869348D01*
X135446969Y-98893338D01*
X135430308Y-98915802D01*
X135411525Y-98936525D01*
X135390802Y-98955308D01*
X135368338Y-98971969D01*
X135344348Y-98986348D01*
X135319065Y-98998306D01*
X135292731Y-99007728D01*
X135265601Y-99014524D01*
X135237935Y-99018628D01*
X135210000Y-99020000D01*
X134030000Y-99020000D01*
X134002065Y-99018628D01*
X133974399Y-99014524D01*
X133947269Y-99007728D01*
X133920935Y-98998306D01*
X133895652Y-98986348D01*
X133871662Y-98971969D01*
X133849198Y-98955308D01*
X133828475Y-98936525D01*
X133809692Y-98915802D01*
X133793031Y-98893338D01*
X133778652Y-98869348D01*
X133766694Y-98844065D01*
X133757272Y-98817731D01*
X133750476Y-98790601D01*
X133746372Y-98762935D01*
X133745000Y-98735000D01*
X133745000Y-97880000D01*
X133746372Y-97852065D01*
X133750476Y-97824399D01*
X133757272Y-97797269D01*
X133766694Y-97770935D01*
X133778652Y-97745652D01*
X133793031Y-97721662D01*
X133809692Y-97699198D01*
X133828475Y-97678475D01*
X133849198Y-97659692D01*
X133871662Y-97643031D01*
X133895652Y-97628652D01*
X133920935Y-97616694D01*
X133947269Y-97607272D01*
X133974399Y-97600476D01*
X134002065Y-97596372D01*
X134030000Y-97595000D01*
X135210000Y-97595000D01*
X135237935Y-97596372D01*
G37*
G36*
X135237935Y-94021372D02*
G01*
X135265601Y-94025476D01*
X135292731Y-94032272D01*
X135319065Y-94041694D01*
X135344348Y-94053652D01*
X135368338Y-94068031D01*
X135390802Y-94084692D01*
X135411525Y-94103475D01*
X135430308Y-94124198D01*
X135446969Y-94146662D01*
X135461348Y-94170652D01*
X135473306Y-94195935D01*
X135482728Y-94222269D01*
X135489524Y-94249399D01*
X135493628Y-94277065D01*
X135495000Y-94305000D01*
X135495000Y-95160000D01*
X135493628Y-95187935D01*
X135489524Y-95215601D01*
X135482728Y-95242731D01*
X135473306Y-95269065D01*
X135461348Y-95294348D01*
X135446969Y-95318338D01*
X135430308Y-95340802D01*
X135411525Y-95361525D01*
X135390802Y-95380308D01*
X135368338Y-95396969D01*
X135344348Y-95411348D01*
X135319065Y-95423306D01*
X135292731Y-95432728D01*
X135265601Y-95439524D01*
X135237935Y-95443628D01*
X135210000Y-95445000D01*
X134030000Y-95445000D01*
X134002065Y-95443628D01*
X133974399Y-95439524D01*
X133947269Y-95432728D01*
X133920935Y-95423306D01*
X133895652Y-95411348D01*
X133871662Y-95396969D01*
X133849198Y-95380308D01*
X133828475Y-95361525D01*
X133809692Y-95340802D01*
X133793031Y-95318338D01*
X133778652Y-95294348D01*
X133766694Y-95269065D01*
X133757272Y-95242731D01*
X133750476Y-95215601D01*
X133746372Y-95187935D01*
X133745000Y-95160000D01*
X133745000Y-94305000D01*
X133746372Y-94277065D01*
X133750476Y-94249399D01*
X133757272Y-94222269D01*
X133766694Y-94195935D01*
X133778652Y-94170652D01*
X133793031Y-94146662D01*
X133809692Y-94124198D01*
X133828475Y-94103475D01*
X133849198Y-94084692D01*
X133871662Y-94068031D01*
X133895652Y-94053652D01*
X133920935Y-94041694D01*
X133947269Y-94032272D01*
X133974399Y-94025476D01*
X134002065Y-94021372D01*
X134030000Y-94020000D01*
X135210000Y-94020000D01*
X135237935Y-94021372D01*
G37*
G36*
X142939935Y-88026372D02*
G01*
X142967601Y-88030476D01*
X142994731Y-88037272D01*
X143021065Y-88046694D01*
X143046348Y-88058652D01*
X143070338Y-88073031D01*
X143092802Y-88089692D01*
X143113525Y-88108475D01*
X143132308Y-88129198D01*
X143148969Y-88151662D01*
X143163348Y-88175652D01*
X143175306Y-88200935D01*
X143184728Y-88227269D01*
X143191524Y-88254399D01*
X143195628Y-88282065D01*
X143197000Y-88310000D01*
X143197000Y-89490000D01*
X143195628Y-89517935D01*
X143191524Y-89545601D01*
X143184728Y-89572731D01*
X143175306Y-89599065D01*
X143163348Y-89624348D01*
X143148969Y-89648338D01*
X143132308Y-89670802D01*
X143113525Y-89691525D01*
X143092802Y-89710308D01*
X143070338Y-89726969D01*
X143046348Y-89741348D01*
X143021065Y-89753306D01*
X142994731Y-89762728D01*
X142967601Y-89769524D01*
X142939935Y-89773628D01*
X142912000Y-89775000D01*
X142057000Y-89775000D01*
X142029065Y-89773628D01*
X142001399Y-89769524D01*
X141974269Y-89762728D01*
X141947935Y-89753306D01*
X141922652Y-89741348D01*
X141898662Y-89726969D01*
X141876198Y-89710308D01*
X141855475Y-89691525D01*
X141836692Y-89670802D01*
X141820031Y-89648338D01*
X141805652Y-89624348D01*
X141793694Y-89599065D01*
X141784272Y-89572731D01*
X141777476Y-89545601D01*
X141773372Y-89517935D01*
X141772000Y-89490000D01*
X141772000Y-88310000D01*
X141773372Y-88282065D01*
X141777476Y-88254399D01*
X141784272Y-88227269D01*
X141793694Y-88200935D01*
X141805652Y-88175652D01*
X141820031Y-88151662D01*
X141836692Y-88129198D01*
X141855475Y-88108475D01*
X141876198Y-88089692D01*
X141898662Y-88073031D01*
X141922652Y-88058652D01*
X141947935Y-88046694D01*
X141974269Y-88037272D01*
X142001399Y-88030476D01*
X142029065Y-88026372D01*
X142057000Y-88025000D01*
X142912000Y-88025000D01*
X142939935Y-88026372D01*
G37*
G36*
X146514935Y-88026372D02*
G01*
X146542601Y-88030476D01*
X146569731Y-88037272D01*
X146596065Y-88046694D01*
X146621348Y-88058652D01*
X146645338Y-88073031D01*
X146667802Y-88089692D01*
X146688525Y-88108475D01*
X146707308Y-88129198D01*
X146723969Y-88151662D01*
X146738348Y-88175652D01*
X146750306Y-88200935D01*
X146759728Y-88227269D01*
X146766524Y-88254399D01*
X146770628Y-88282065D01*
X146772000Y-88310000D01*
X146772000Y-89490000D01*
X146770628Y-89517935D01*
X146766524Y-89545601D01*
X146759728Y-89572731D01*
X146750306Y-89599065D01*
X146738348Y-89624348D01*
X146723969Y-89648338D01*
X146707308Y-89670802D01*
X146688525Y-89691525D01*
X146667802Y-89710308D01*
X146645338Y-89726969D01*
X146621348Y-89741348D01*
X146596065Y-89753306D01*
X146569731Y-89762728D01*
X146542601Y-89769524D01*
X146514935Y-89773628D01*
X146487000Y-89775000D01*
X145632000Y-89775000D01*
X145604065Y-89773628D01*
X145576399Y-89769524D01*
X145549269Y-89762728D01*
X145522935Y-89753306D01*
X145497652Y-89741348D01*
X145473662Y-89726969D01*
X145451198Y-89710308D01*
X145430475Y-89691525D01*
X145411692Y-89670802D01*
X145395031Y-89648338D01*
X145380652Y-89624348D01*
X145368694Y-89599065D01*
X145359272Y-89572731D01*
X145352476Y-89545601D01*
X145348372Y-89517935D01*
X145347000Y-89490000D01*
X145347000Y-88310000D01*
X145348372Y-88282065D01*
X145352476Y-88254399D01*
X145359272Y-88227269D01*
X145368694Y-88200935D01*
X145380652Y-88175652D01*
X145395031Y-88151662D01*
X145411692Y-88129198D01*
X145430475Y-88108475D01*
X145451198Y-88089692D01*
X145473662Y-88073031D01*
X145497652Y-88058652D01*
X145522935Y-88046694D01*
X145549269Y-88037272D01*
X145576399Y-88030476D01*
X145604065Y-88026372D01*
X145632000Y-88025000D01*
X146487000Y-88025000D01*
X146514935Y-88026372D01*
G37*
G36*
X159195935Y-88026372D02*
G01*
X159223601Y-88030476D01*
X159250731Y-88037272D01*
X159277065Y-88046694D01*
X159302348Y-88058652D01*
X159326338Y-88073031D01*
X159348802Y-88089692D01*
X159369525Y-88108475D01*
X159388308Y-88129198D01*
X159404969Y-88151662D01*
X159419348Y-88175652D01*
X159431306Y-88200935D01*
X159440728Y-88227269D01*
X159447524Y-88254399D01*
X159451628Y-88282065D01*
X159453000Y-88310000D01*
X159453000Y-89490000D01*
X159451628Y-89517935D01*
X159447524Y-89545601D01*
X159440728Y-89572731D01*
X159431306Y-89599065D01*
X159419348Y-89624348D01*
X159404969Y-89648338D01*
X159388308Y-89670802D01*
X159369525Y-89691525D01*
X159348802Y-89710308D01*
X159326338Y-89726969D01*
X159302348Y-89741348D01*
X159277065Y-89753306D01*
X159250731Y-89762728D01*
X159223601Y-89769524D01*
X159195935Y-89773628D01*
X159168000Y-89775000D01*
X158313000Y-89775000D01*
X158285065Y-89773628D01*
X158257399Y-89769524D01*
X158230269Y-89762728D01*
X158203935Y-89753306D01*
X158178652Y-89741348D01*
X158154662Y-89726969D01*
X158132198Y-89710308D01*
X158111475Y-89691525D01*
X158092692Y-89670802D01*
X158076031Y-89648338D01*
X158061652Y-89624348D01*
X158049694Y-89599065D01*
X158040272Y-89572731D01*
X158033476Y-89545601D01*
X158029372Y-89517935D01*
X158028000Y-89490000D01*
X158028000Y-88310000D01*
X158029372Y-88282065D01*
X158033476Y-88254399D01*
X158040272Y-88227269D01*
X158049694Y-88200935D01*
X158061652Y-88175652D01*
X158076031Y-88151662D01*
X158092692Y-88129198D01*
X158111475Y-88108475D01*
X158132198Y-88089692D01*
X158154662Y-88073031D01*
X158178652Y-88058652D01*
X158203935Y-88046694D01*
X158230269Y-88037272D01*
X158257399Y-88030476D01*
X158285065Y-88026372D01*
X158313000Y-88025000D01*
X159168000Y-88025000D01*
X159195935Y-88026372D01*
G37*
G36*
X162770935Y-88026372D02*
G01*
X162798601Y-88030476D01*
X162825731Y-88037272D01*
X162852065Y-88046694D01*
X162877348Y-88058652D01*
X162901338Y-88073031D01*
X162923802Y-88089692D01*
X162944525Y-88108475D01*
X162963308Y-88129198D01*
X162979969Y-88151662D01*
X162994348Y-88175652D01*
X163006306Y-88200935D01*
X163015728Y-88227269D01*
X163022524Y-88254399D01*
X163026628Y-88282065D01*
X163028000Y-88310000D01*
X163028000Y-89490000D01*
X163026628Y-89517935D01*
X163022524Y-89545601D01*
X163015728Y-89572731D01*
X163006306Y-89599065D01*
X162994348Y-89624348D01*
X162979969Y-89648338D01*
X162963308Y-89670802D01*
X162944525Y-89691525D01*
X162923802Y-89710308D01*
X162901338Y-89726969D01*
X162877348Y-89741348D01*
X162852065Y-89753306D01*
X162825731Y-89762728D01*
X162798601Y-89769524D01*
X162770935Y-89773628D01*
X162743000Y-89775000D01*
X161888000Y-89775000D01*
X161860065Y-89773628D01*
X161832399Y-89769524D01*
X161805269Y-89762728D01*
X161778935Y-89753306D01*
X161753652Y-89741348D01*
X161729662Y-89726969D01*
X161707198Y-89710308D01*
X161686475Y-89691525D01*
X161667692Y-89670802D01*
X161651031Y-89648338D01*
X161636652Y-89624348D01*
X161624694Y-89599065D01*
X161615272Y-89572731D01*
X161608476Y-89545601D01*
X161604372Y-89517935D01*
X161603000Y-89490000D01*
X161603000Y-88310000D01*
X161604372Y-88282065D01*
X161608476Y-88254399D01*
X161615272Y-88227269D01*
X161624694Y-88200935D01*
X161636652Y-88175652D01*
X161651031Y-88151662D01*
X161667692Y-88129198D01*
X161686475Y-88108475D01*
X161707198Y-88089692D01*
X161729662Y-88073031D01*
X161753652Y-88058652D01*
X161778935Y-88046694D01*
X161805269Y-88037272D01*
X161832399Y-88030476D01*
X161860065Y-88026372D01*
X161888000Y-88025000D01*
X162743000Y-88025000D01*
X162770935Y-88026372D01*
G37*
G36*
X170797935Y-97596372D02*
G01*
X170825601Y-97600476D01*
X170852731Y-97607272D01*
X170879065Y-97616694D01*
X170904348Y-97628652D01*
X170928338Y-97643031D01*
X170950802Y-97659692D01*
X170971525Y-97678475D01*
X170990308Y-97699198D01*
X171006969Y-97721662D01*
X171021348Y-97745652D01*
X171033306Y-97770935D01*
X171042728Y-97797269D01*
X171049524Y-97824399D01*
X171053628Y-97852065D01*
X171055000Y-97880000D01*
X171055000Y-98735000D01*
X171053628Y-98762935D01*
X171049524Y-98790601D01*
X171042728Y-98817731D01*
X171033306Y-98844065D01*
X171021348Y-98869348D01*
X171006969Y-98893338D01*
X170990308Y-98915802D01*
X170971525Y-98936525D01*
X170950802Y-98955308D01*
X170928338Y-98971969D01*
X170904348Y-98986348D01*
X170879065Y-98998306D01*
X170852731Y-99007728D01*
X170825601Y-99014524D01*
X170797935Y-99018628D01*
X170770000Y-99020000D01*
X169590000Y-99020000D01*
X169562065Y-99018628D01*
X169534399Y-99014524D01*
X169507269Y-99007728D01*
X169480935Y-98998306D01*
X169455652Y-98986348D01*
X169431662Y-98971969D01*
X169409198Y-98955308D01*
X169388475Y-98936525D01*
X169369692Y-98915802D01*
X169353031Y-98893338D01*
X169338652Y-98869348D01*
X169326694Y-98844065D01*
X169317272Y-98817731D01*
X169310476Y-98790601D01*
X169306372Y-98762935D01*
X169305000Y-98735000D01*
X169305000Y-97880000D01*
X169306372Y-97852065D01*
X169310476Y-97824399D01*
X169317272Y-97797269D01*
X169326694Y-97770935D01*
X169338652Y-97745652D01*
X169353031Y-97721662D01*
X169369692Y-97699198D01*
X169388475Y-97678475D01*
X169409198Y-97659692D01*
X169431662Y-97643031D01*
X169455652Y-97628652D01*
X169480935Y-97616694D01*
X169507269Y-97607272D01*
X169534399Y-97600476D01*
X169562065Y-97596372D01*
X169590000Y-97595000D01*
X170770000Y-97595000D01*
X170797935Y-97596372D01*
G37*
G36*
X170797935Y-94021372D02*
G01*
X170825601Y-94025476D01*
X170852731Y-94032272D01*
X170879065Y-94041694D01*
X170904348Y-94053652D01*
X170928338Y-94068031D01*
X170950802Y-94084692D01*
X170971525Y-94103475D01*
X170990308Y-94124198D01*
X171006969Y-94146662D01*
X171021348Y-94170652D01*
X171033306Y-94195935D01*
X171042728Y-94222269D01*
X171049524Y-94249399D01*
X171053628Y-94277065D01*
X171055000Y-94305000D01*
X171055000Y-95160000D01*
X171053628Y-95187935D01*
X171049524Y-95215601D01*
X171042728Y-95242731D01*
X171033306Y-95269065D01*
X171021348Y-95294348D01*
X171006969Y-95318338D01*
X170990308Y-95340802D01*
X170971525Y-95361525D01*
X170950802Y-95380308D01*
X170928338Y-95396969D01*
X170904348Y-95411348D01*
X170879065Y-95423306D01*
X170852731Y-95432728D01*
X170825601Y-95439524D01*
X170797935Y-95443628D01*
X170770000Y-95445000D01*
X169590000Y-95445000D01*
X169562065Y-95443628D01*
X169534399Y-95439524D01*
X169507269Y-95432728D01*
X169480935Y-95423306D01*
X169455652Y-95411348D01*
X169431662Y-95396969D01*
X169409198Y-95380308D01*
X169388475Y-95361525D01*
X169369692Y-95340802D01*
X169353031Y-95318338D01*
X169338652Y-95294348D01*
X169326694Y-95269065D01*
X169317272Y-95242731D01*
X169310476Y-95215601D01*
X169306372Y-95187935D01*
X169305000Y-95160000D01*
X169305000Y-94305000D01*
X169306372Y-94277065D01*
X169310476Y-94249399D01*
X169317272Y-94222269D01*
X169326694Y-94195935D01*
X169338652Y-94170652D01*
X169353031Y-94146662D01*
X169369692Y-94124198D01*
X169388475Y-94103475D01*
X169409198Y-94084692D01*
X169431662Y-94068031D01*
X169455652Y-94053652D01*
X169480935Y-94041694D01*
X169507269Y-94032272D01*
X169534399Y-94025476D01*
X169562065Y-94021372D01*
X169590000Y-94020000D01*
X170770000Y-94020000D01*
X170797935Y-94021372D01*
G37*
D11*
X168640000Y-125570500D03*
D12*
X167640000Y-122870500D03*
X166990000Y-122870500D03*
X166340000Y-122870500D03*
X168940000Y-122870500D03*
X168290000Y-122870500D03*
D11*
X166640000Y-125570500D03*
D10*
G36*
X157954505Y-77141204D02*
G01*
X157978773Y-77144804D01*
X158002572Y-77150765D01*
X158025671Y-77159030D01*
X158047850Y-77169520D01*
X158068893Y-77182132D01*
X158088599Y-77196747D01*
X158106777Y-77213223D01*
X158123253Y-77231401D01*
X158137868Y-77251107D01*
X158150480Y-77272150D01*
X158160970Y-77294329D01*
X158169235Y-77317428D01*
X158175196Y-77341227D01*
X158178796Y-77365495D01*
X158180000Y-77389999D01*
X158180000Y-78040001D01*
X158178796Y-78064505D01*
X158175196Y-78088773D01*
X158169235Y-78112572D01*
X158160970Y-78135671D01*
X158150480Y-78157850D01*
X158137868Y-78178893D01*
X158123253Y-78198599D01*
X158106777Y-78216777D01*
X158088599Y-78233253D01*
X158068893Y-78247868D01*
X158047850Y-78260480D01*
X158025671Y-78270970D01*
X158002572Y-78279235D01*
X157978773Y-78285196D01*
X157954505Y-78288796D01*
X157930001Y-78290000D01*
X157029999Y-78290000D01*
X157005495Y-78288796D01*
X156981227Y-78285196D01*
X156957428Y-78279235D01*
X156934329Y-78270970D01*
X156912150Y-78260480D01*
X156891107Y-78247868D01*
X156871401Y-78233253D01*
X156853223Y-78216777D01*
X156836747Y-78198599D01*
X156822132Y-78178893D01*
X156809520Y-78157850D01*
X156799030Y-78135671D01*
X156790765Y-78112572D01*
X156784804Y-78088773D01*
X156781204Y-78064505D01*
X156780000Y-78040001D01*
X156780000Y-77389999D01*
X156781204Y-77365495D01*
X156784804Y-77341227D01*
X156790765Y-77317428D01*
X156799030Y-77294329D01*
X156809520Y-77272150D01*
X156822132Y-77251107D01*
X156836747Y-77231401D01*
X156853223Y-77213223D01*
X156871401Y-77196747D01*
X156891107Y-77182132D01*
X156912150Y-77169520D01*
X156934329Y-77159030D01*
X156957428Y-77150765D01*
X156981227Y-77144804D01*
X157005495Y-77141204D01*
X157029999Y-77140000D01*
X157930001Y-77140000D01*
X157954505Y-77141204D01*
G37*
G36*
X157954505Y-79191204D02*
G01*
X157978773Y-79194804D01*
X158002572Y-79200765D01*
X158025671Y-79209030D01*
X158047850Y-79219520D01*
X158068893Y-79232132D01*
X158088599Y-79246747D01*
X158106777Y-79263223D01*
X158123253Y-79281401D01*
X158137868Y-79301107D01*
X158150480Y-79322150D01*
X158160970Y-79344329D01*
X158169235Y-79367428D01*
X158175196Y-79391227D01*
X158178796Y-79415495D01*
X158180000Y-79439999D01*
X158180000Y-80090001D01*
X158178796Y-80114505D01*
X158175196Y-80138773D01*
X158169235Y-80162572D01*
X158160970Y-80185671D01*
X158150480Y-80207850D01*
X158137868Y-80228893D01*
X158123253Y-80248599D01*
X158106777Y-80266777D01*
X158088599Y-80283253D01*
X158068893Y-80297868D01*
X158047850Y-80310480D01*
X158025671Y-80320970D01*
X158002572Y-80329235D01*
X157978773Y-80335196D01*
X157954505Y-80338796D01*
X157930001Y-80340000D01*
X157029999Y-80340000D01*
X157005495Y-80338796D01*
X156981227Y-80335196D01*
X156957428Y-80329235D01*
X156934329Y-80320970D01*
X156912150Y-80310480D01*
X156891107Y-80297868D01*
X156871401Y-80283253D01*
X156853223Y-80266777D01*
X156836747Y-80248599D01*
X156822132Y-80228893D01*
X156809520Y-80207850D01*
X156799030Y-80185671D01*
X156790765Y-80162572D01*
X156784804Y-80138773D01*
X156781204Y-80114505D01*
X156780000Y-80090001D01*
X156780000Y-79439999D01*
X156781204Y-79415495D01*
X156784804Y-79391227D01*
X156790765Y-79367428D01*
X156799030Y-79344329D01*
X156809520Y-79322150D01*
X156822132Y-79301107D01*
X156836747Y-79281401D01*
X156853223Y-79263223D01*
X156871401Y-79246747D01*
X156891107Y-79232132D01*
X156912150Y-79219520D01*
X156934329Y-79209030D01*
X156957428Y-79200765D01*
X156981227Y-79194804D01*
X157005495Y-79191204D01*
X157029999Y-79190000D01*
X157930001Y-79190000D01*
X157954505Y-79191204D01*
G37*
G36*
X133570505Y-117781204D02*
G01*
X133594773Y-117784804D01*
X133618572Y-117790765D01*
X133641671Y-117799030D01*
X133663850Y-117809520D01*
X133684893Y-117822132D01*
X133704599Y-117836747D01*
X133722777Y-117853223D01*
X133739253Y-117871401D01*
X133753868Y-117891107D01*
X133766480Y-117912150D01*
X133776970Y-117934329D01*
X133785235Y-117957428D01*
X133791196Y-117981227D01*
X133794796Y-118005495D01*
X133796000Y-118029999D01*
X133796000Y-118680001D01*
X133794796Y-118704505D01*
X133791196Y-118728773D01*
X133785235Y-118752572D01*
X133776970Y-118775671D01*
X133766480Y-118797850D01*
X133753868Y-118818893D01*
X133739253Y-118838599D01*
X133722777Y-118856777D01*
X133704599Y-118873253D01*
X133684893Y-118887868D01*
X133663850Y-118900480D01*
X133641671Y-118910970D01*
X133618572Y-118919235D01*
X133594773Y-118925196D01*
X133570505Y-118928796D01*
X133546001Y-118930000D01*
X132645999Y-118930000D01*
X132621495Y-118928796D01*
X132597227Y-118925196D01*
X132573428Y-118919235D01*
X132550329Y-118910970D01*
X132528150Y-118900480D01*
X132507107Y-118887868D01*
X132487401Y-118873253D01*
X132469223Y-118856777D01*
X132452747Y-118838599D01*
X132438132Y-118818893D01*
X132425520Y-118797850D01*
X132415030Y-118775671D01*
X132406765Y-118752572D01*
X132400804Y-118728773D01*
X132397204Y-118704505D01*
X132396000Y-118680001D01*
X132396000Y-118029999D01*
X132397204Y-118005495D01*
X132400804Y-117981227D01*
X132406765Y-117957428D01*
X132415030Y-117934329D01*
X132425520Y-117912150D01*
X132438132Y-117891107D01*
X132452747Y-117871401D01*
X132469223Y-117853223D01*
X132487401Y-117836747D01*
X132507107Y-117822132D01*
X132528150Y-117809520D01*
X132550329Y-117799030D01*
X132573428Y-117790765D01*
X132597227Y-117784804D01*
X132621495Y-117781204D01*
X132645999Y-117780000D01*
X133546001Y-117780000D01*
X133570505Y-117781204D01*
G37*
G36*
X133570505Y-119831204D02*
G01*
X133594773Y-119834804D01*
X133618572Y-119840765D01*
X133641671Y-119849030D01*
X133663850Y-119859520D01*
X133684893Y-119872132D01*
X133704599Y-119886747D01*
X133722777Y-119903223D01*
X133739253Y-119921401D01*
X133753868Y-119941107D01*
X133766480Y-119962150D01*
X133776970Y-119984329D01*
X133785235Y-120007428D01*
X133791196Y-120031227D01*
X133794796Y-120055495D01*
X133796000Y-120079999D01*
X133796000Y-120730001D01*
X133794796Y-120754505D01*
X133791196Y-120778773D01*
X133785235Y-120802572D01*
X133776970Y-120825671D01*
X133766480Y-120847850D01*
X133753868Y-120868893D01*
X133739253Y-120888599D01*
X133722777Y-120906777D01*
X133704599Y-120923253D01*
X133684893Y-120937868D01*
X133663850Y-120950480D01*
X133641671Y-120960970D01*
X133618572Y-120969235D01*
X133594773Y-120975196D01*
X133570505Y-120978796D01*
X133546001Y-120980000D01*
X132645999Y-120980000D01*
X132621495Y-120978796D01*
X132597227Y-120975196D01*
X132573428Y-120969235D01*
X132550329Y-120960970D01*
X132528150Y-120950480D01*
X132507107Y-120937868D01*
X132487401Y-120923253D01*
X132469223Y-120906777D01*
X132452747Y-120888599D01*
X132438132Y-120868893D01*
X132425520Y-120847850D01*
X132415030Y-120825671D01*
X132406765Y-120802572D01*
X132400804Y-120778773D01*
X132397204Y-120754505D01*
X132396000Y-120730001D01*
X132396000Y-120079999D01*
X132397204Y-120055495D01*
X132400804Y-120031227D01*
X132406765Y-120007428D01*
X132415030Y-119984329D01*
X132425520Y-119962150D01*
X132438132Y-119941107D01*
X132452747Y-119921401D01*
X132469223Y-119903223D01*
X132487401Y-119886747D01*
X132507107Y-119872132D01*
X132528150Y-119859520D01*
X132550329Y-119849030D01*
X132573428Y-119840765D01*
X132597227Y-119834804D01*
X132621495Y-119831204D01*
X132645999Y-119830000D01*
X133546001Y-119830000D01*
X133570505Y-119831204D01*
G37*
D13*
X147218000Y-124220000D03*
X147218000Y-119620000D03*
X147218000Y-121920000D03*
D14*
X153518000Y-121920000D03*
D10*
G36*
X142072505Y-123253204D02*
G01*
X142096773Y-123256804D01*
X142120572Y-123262765D01*
X142143671Y-123271030D01*
X142165850Y-123281520D01*
X142186893Y-123294132D01*
X142206599Y-123308747D01*
X142224777Y-123325223D01*
X142241253Y-123343401D01*
X142255868Y-123363107D01*
X142268480Y-123384150D01*
X142278970Y-123406329D01*
X142287235Y-123429428D01*
X142293196Y-123453227D01*
X142296796Y-123477495D01*
X142298000Y-123501999D01*
X142298000Y-124402001D01*
X142296796Y-124426505D01*
X142293196Y-124450773D01*
X142287235Y-124474572D01*
X142278970Y-124497671D01*
X142268480Y-124519850D01*
X142255868Y-124540893D01*
X142241253Y-124560599D01*
X142224777Y-124578777D01*
X142206599Y-124595253D01*
X142186893Y-124609868D01*
X142165850Y-124622480D01*
X142143671Y-124632970D01*
X142120572Y-124641235D01*
X142096773Y-124647196D01*
X142072505Y-124650796D01*
X142048001Y-124652000D01*
X141397999Y-124652000D01*
X141373495Y-124650796D01*
X141349227Y-124647196D01*
X141325428Y-124641235D01*
X141302329Y-124632970D01*
X141280150Y-124622480D01*
X141259107Y-124609868D01*
X141239401Y-124595253D01*
X141221223Y-124578777D01*
X141204747Y-124560599D01*
X141190132Y-124540893D01*
X141177520Y-124519850D01*
X141167030Y-124497671D01*
X141158765Y-124474572D01*
X141152804Y-124450773D01*
X141149204Y-124426505D01*
X141148000Y-124402001D01*
X141148000Y-123501999D01*
X141149204Y-123477495D01*
X141152804Y-123453227D01*
X141158765Y-123429428D01*
X141167030Y-123406329D01*
X141177520Y-123384150D01*
X141190132Y-123363107D01*
X141204747Y-123343401D01*
X141221223Y-123325223D01*
X141239401Y-123308747D01*
X141259107Y-123294132D01*
X141280150Y-123281520D01*
X141302329Y-123271030D01*
X141325428Y-123262765D01*
X141349227Y-123256804D01*
X141373495Y-123253204D01*
X141397999Y-123252000D01*
X142048001Y-123252000D01*
X142072505Y-123253204D01*
G37*
G36*
X144122505Y-123253204D02*
G01*
X144146773Y-123256804D01*
X144170572Y-123262765D01*
X144193671Y-123271030D01*
X144215850Y-123281520D01*
X144236893Y-123294132D01*
X144256599Y-123308747D01*
X144274777Y-123325223D01*
X144291253Y-123343401D01*
X144305868Y-123363107D01*
X144318480Y-123384150D01*
X144328970Y-123406329D01*
X144337235Y-123429428D01*
X144343196Y-123453227D01*
X144346796Y-123477495D01*
X144348000Y-123501999D01*
X144348000Y-124402001D01*
X144346796Y-124426505D01*
X144343196Y-124450773D01*
X144337235Y-124474572D01*
X144328970Y-124497671D01*
X144318480Y-124519850D01*
X144305868Y-124540893D01*
X144291253Y-124560599D01*
X144274777Y-124578777D01*
X144256599Y-124595253D01*
X144236893Y-124609868D01*
X144215850Y-124622480D01*
X144193671Y-124632970D01*
X144170572Y-124641235D01*
X144146773Y-124647196D01*
X144122505Y-124650796D01*
X144098001Y-124652000D01*
X143447999Y-124652000D01*
X143423495Y-124650796D01*
X143399227Y-124647196D01*
X143375428Y-124641235D01*
X143352329Y-124632970D01*
X143330150Y-124622480D01*
X143309107Y-124609868D01*
X143289401Y-124595253D01*
X143271223Y-124578777D01*
X143254747Y-124560599D01*
X143240132Y-124540893D01*
X143227520Y-124519850D01*
X143217030Y-124497671D01*
X143208765Y-124474572D01*
X143202804Y-124450773D01*
X143199204Y-124426505D01*
X143198000Y-124402001D01*
X143198000Y-123501999D01*
X143199204Y-123477495D01*
X143202804Y-123453227D01*
X143208765Y-123429428D01*
X143217030Y-123406329D01*
X143227520Y-123384150D01*
X143240132Y-123363107D01*
X143254747Y-123343401D01*
X143271223Y-123325223D01*
X143289401Y-123308747D01*
X143309107Y-123294132D01*
X143330150Y-123281520D01*
X143352329Y-123271030D01*
X143375428Y-123262765D01*
X143399227Y-123256804D01*
X143423495Y-123253204D01*
X143447999Y-123252000D01*
X144098001Y-123252000D01*
X144122505Y-123253204D01*
G37*
G36*
X142072505Y-119189204D02*
G01*
X142096773Y-119192804D01*
X142120572Y-119198765D01*
X142143671Y-119207030D01*
X142165850Y-119217520D01*
X142186893Y-119230132D01*
X142206599Y-119244747D01*
X142224777Y-119261223D01*
X142241253Y-119279401D01*
X142255868Y-119299107D01*
X142268480Y-119320150D01*
X142278970Y-119342329D01*
X142287235Y-119365428D01*
X142293196Y-119389227D01*
X142296796Y-119413495D01*
X142298000Y-119437999D01*
X142298000Y-120338001D01*
X142296796Y-120362505D01*
X142293196Y-120386773D01*
X142287235Y-120410572D01*
X142278970Y-120433671D01*
X142268480Y-120455850D01*
X142255868Y-120476893D01*
X142241253Y-120496599D01*
X142224777Y-120514777D01*
X142206599Y-120531253D01*
X142186893Y-120545868D01*
X142165850Y-120558480D01*
X142143671Y-120568970D01*
X142120572Y-120577235D01*
X142096773Y-120583196D01*
X142072505Y-120586796D01*
X142048001Y-120588000D01*
X141397999Y-120588000D01*
X141373495Y-120586796D01*
X141349227Y-120583196D01*
X141325428Y-120577235D01*
X141302329Y-120568970D01*
X141280150Y-120558480D01*
X141259107Y-120545868D01*
X141239401Y-120531253D01*
X141221223Y-120514777D01*
X141204747Y-120496599D01*
X141190132Y-120476893D01*
X141177520Y-120455850D01*
X141167030Y-120433671D01*
X141158765Y-120410572D01*
X141152804Y-120386773D01*
X141149204Y-120362505D01*
X141148000Y-120338001D01*
X141148000Y-119437999D01*
X141149204Y-119413495D01*
X141152804Y-119389227D01*
X141158765Y-119365428D01*
X141167030Y-119342329D01*
X141177520Y-119320150D01*
X141190132Y-119299107D01*
X141204747Y-119279401D01*
X141221223Y-119261223D01*
X141239401Y-119244747D01*
X141259107Y-119230132D01*
X141280150Y-119217520D01*
X141302329Y-119207030D01*
X141325428Y-119198765D01*
X141349227Y-119192804D01*
X141373495Y-119189204D01*
X141397999Y-119188000D01*
X142048001Y-119188000D01*
X142072505Y-119189204D01*
G37*
G36*
X144122505Y-119189204D02*
G01*
X144146773Y-119192804D01*
X144170572Y-119198765D01*
X144193671Y-119207030D01*
X144215850Y-119217520D01*
X144236893Y-119230132D01*
X144256599Y-119244747D01*
X144274777Y-119261223D01*
X144291253Y-119279401D01*
X144305868Y-119299107D01*
X144318480Y-119320150D01*
X144328970Y-119342329D01*
X144337235Y-119365428D01*
X144343196Y-119389227D01*
X144346796Y-119413495D01*
X144348000Y-119437999D01*
X144348000Y-120338001D01*
X144346796Y-120362505D01*
X144343196Y-120386773D01*
X144337235Y-120410572D01*
X144328970Y-120433671D01*
X144318480Y-120455850D01*
X144305868Y-120476893D01*
X144291253Y-120496599D01*
X144274777Y-120514777D01*
X144256599Y-120531253D01*
X144236893Y-120545868D01*
X144215850Y-120558480D01*
X144193671Y-120568970D01*
X144170572Y-120577235D01*
X144146773Y-120583196D01*
X144122505Y-120586796D01*
X144098001Y-120588000D01*
X143447999Y-120588000D01*
X143423495Y-120586796D01*
X143399227Y-120583196D01*
X143375428Y-120577235D01*
X143352329Y-120568970D01*
X143330150Y-120558480D01*
X143309107Y-120545868D01*
X143289401Y-120531253D01*
X143271223Y-120514777D01*
X143254747Y-120496599D01*
X143240132Y-120476893D01*
X143227520Y-120455850D01*
X143217030Y-120433671D01*
X143208765Y-120410572D01*
X143202804Y-120386773D01*
X143199204Y-120362505D01*
X143198000Y-120338001D01*
X143198000Y-119437999D01*
X143199204Y-119413495D01*
X143202804Y-119389227D01*
X143208765Y-119365428D01*
X143217030Y-119342329D01*
X143227520Y-119320150D01*
X143240132Y-119299107D01*
X143254747Y-119279401D01*
X143271223Y-119261223D01*
X143289401Y-119244747D01*
X143309107Y-119230132D01*
X143330150Y-119217520D01*
X143352329Y-119207030D01*
X143375428Y-119198765D01*
X143399227Y-119192804D01*
X143423495Y-119189204D01*
X143447999Y-119188000D01*
X144098001Y-119188000D01*
X144122505Y-119189204D01*
G37*
D15*
X153500000Y-80706000D03*
X153500000Y-78806000D03*
X151300000Y-78806000D03*
X151300000Y-79756000D03*
X151300000Y-80706000D03*
X153500000Y-85786000D03*
X153500000Y-83886000D03*
X151300000Y-83886000D03*
X151300000Y-84836000D03*
X151300000Y-85786000D03*
D10*
G36*
X175734505Y-124911204D02*
G01*
X175758773Y-124914804D01*
X175782572Y-124920765D01*
X175805671Y-124929030D01*
X175827850Y-124939520D01*
X175848893Y-124952132D01*
X175868599Y-124966747D01*
X175886777Y-124983223D01*
X175903253Y-125001401D01*
X175917868Y-125021107D01*
X175930480Y-125042150D01*
X175940970Y-125064329D01*
X175949235Y-125087428D01*
X175955196Y-125111227D01*
X175958796Y-125135495D01*
X175960000Y-125159999D01*
X175960000Y-125810001D01*
X175958796Y-125834505D01*
X175955196Y-125858773D01*
X175949235Y-125882572D01*
X175940970Y-125905671D01*
X175930480Y-125927850D01*
X175917868Y-125948893D01*
X175903253Y-125968599D01*
X175886777Y-125986777D01*
X175868599Y-126003253D01*
X175848893Y-126017868D01*
X175827850Y-126030480D01*
X175805671Y-126040970D01*
X175782572Y-126049235D01*
X175758773Y-126055196D01*
X175734505Y-126058796D01*
X175710001Y-126060000D01*
X174809999Y-126060000D01*
X174785495Y-126058796D01*
X174761227Y-126055196D01*
X174737428Y-126049235D01*
X174714329Y-126040970D01*
X174692150Y-126030480D01*
X174671107Y-126017868D01*
X174651401Y-126003253D01*
X174633223Y-125986777D01*
X174616747Y-125968599D01*
X174602132Y-125948893D01*
X174589520Y-125927850D01*
X174579030Y-125905671D01*
X174570765Y-125882572D01*
X174564804Y-125858773D01*
X174561204Y-125834505D01*
X174560000Y-125810001D01*
X174560000Y-125159999D01*
X174561204Y-125135495D01*
X174564804Y-125111227D01*
X174570765Y-125087428D01*
X174579030Y-125064329D01*
X174589520Y-125042150D01*
X174602132Y-125021107D01*
X174616747Y-125001401D01*
X174633223Y-124983223D01*
X174651401Y-124966747D01*
X174671107Y-124952132D01*
X174692150Y-124939520D01*
X174714329Y-124929030D01*
X174737428Y-124920765D01*
X174761227Y-124914804D01*
X174785495Y-124911204D01*
X174809999Y-124910000D01*
X175710001Y-124910000D01*
X175734505Y-124911204D01*
G37*
G36*
X175734505Y-122861204D02*
G01*
X175758773Y-122864804D01*
X175782572Y-122870765D01*
X175805671Y-122879030D01*
X175827850Y-122889520D01*
X175848893Y-122902132D01*
X175868599Y-122916747D01*
X175886777Y-122933223D01*
X175903253Y-122951401D01*
X175917868Y-122971107D01*
X175930480Y-122992150D01*
X175940970Y-123014329D01*
X175949235Y-123037428D01*
X175955196Y-123061227D01*
X175958796Y-123085495D01*
X175960000Y-123109999D01*
X175960000Y-123760001D01*
X175958796Y-123784505D01*
X175955196Y-123808773D01*
X175949235Y-123832572D01*
X175940970Y-123855671D01*
X175930480Y-123877850D01*
X175917868Y-123898893D01*
X175903253Y-123918599D01*
X175886777Y-123936777D01*
X175868599Y-123953253D01*
X175848893Y-123967868D01*
X175827850Y-123980480D01*
X175805671Y-123990970D01*
X175782572Y-123999235D01*
X175758773Y-124005196D01*
X175734505Y-124008796D01*
X175710001Y-124010000D01*
X174809999Y-124010000D01*
X174785495Y-124008796D01*
X174761227Y-124005196D01*
X174737428Y-123999235D01*
X174714329Y-123990970D01*
X174692150Y-123980480D01*
X174671107Y-123967868D01*
X174651401Y-123953253D01*
X174633223Y-123936777D01*
X174616747Y-123918599D01*
X174602132Y-123898893D01*
X174589520Y-123877850D01*
X174579030Y-123855671D01*
X174570765Y-123832572D01*
X174564804Y-123808773D01*
X174561204Y-123784505D01*
X174560000Y-123760001D01*
X174560000Y-123109999D01*
X174561204Y-123085495D01*
X174564804Y-123061227D01*
X174570765Y-123037428D01*
X174579030Y-123014329D01*
X174589520Y-122992150D01*
X174602132Y-122971107D01*
X174616747Y-122951401D01*
X174633223Y-122933223D01*
X174651401Y-122916747D01*
X174671107Y-122902132D01*
X174692150Y-122889520D01*
X174714329Y-122879030D01*
X174737428Y-122870765D01*
X174761227Y-122864804D01*
X174785495Y-122861204D01*
X174809999Y-122860000D01*
X175710001Y-122860000D01*
X175734505Y-122861204D01*
G37*
G36*
X175734505Y-107639204D02*
G01*
X175758773Y-107642804D01*
X175782572Y-107648765D01*
X175805671Y-107657030D01*
X175827850Y-107667520D01*
X175848893Y-107680132D01*
X175868599Y-107694747D01*
X175886777Y-107711223D01*
X175903253Y-107729401D01*
X175917868Y-107749107D01*
X175930480Y-107770150D01*
X175940970Y-107792329D01*
X175949235Y-107815428D01*
X175955196Y-107839227D01*
X175958796Y-107863495D01*
X175960000Y-107887999D01*
X175960000Y-108538001D01*
X175958796Y-108562505D01*
X175955196Y-108586773D01*
X175949235Y-108610572D01*
X175940970Y-108633671D01*
X175930480Y-108655850D01*
X175917868Y-108676893D01*
X175903253Y-108696599D01*
X175886777Y-108714777D01*
X175868599Y-108731253D01*
X175848893Y-108745868D01*
X175827850Y-108758480D01*
X175805671Y-108768970D01*
X175782572Y-108777235D01*
X175758773Y-108783196D01*
X175734505Y-108786796D01*
X175710001Y-108788000D01*
X174809999Y-108788000D01*
X174785495Y-108786796D01*
X174761227Y-108783196D01*
X174737428Y-108777235D01*
X174714329Y-108768970D01*
X174692150Y-108758480D01*
X174671107Y-108745868D01*
X174651401Y-108731253D01*
X174633223Y-108714777D01*
X174616747Y-108696599D01*
X174602132Y-108676893D01*
X174589520Y-108655850D01*
X174579030Y-108633671D01*
X174570765Y-108610572D01*
X174564804Y-108586773D01*
X174561204Y-108562505D01*
X174560000Y-108538001D01*
X174560000Y-107887999D01*
X174561204Y-107863495D01*
X174564804Y-107839227D01*
X174570765Y-107815428D01*
X174579030Y-107792329D01*
X174589520Y-107770150D01*
X174602132Y-107749107D01*
X174616747Y-107729401D01*
X174633223Y-107711223D01*
X174651401Y-107694747D01*
X174671107Y-107680132D01*
X174692150Y-107667520D01*
X174714329Y-107657030D01*
X174737428Y-107648765D01*
X174761227Y-107642804D01*
X174785495Y-107639204D01*
X174809999Y-107638000D01*
X175710001Y-107638000D01*
X175734505Y-107639204D01*
G37*
G36*
X175734505Y-105589204D02*
G01*
X175758773Y-105592804D01*
X175782572Y-105598765D01*
X175805671Y-105607030D01*
X175827850Y-105617520D01*
X175848893Y-105630132D01*
X175868599Y-105644747D01*
X175886777Y-105661223D01*
X175903253Y-105679401D01*
X175917868Y-105699107D01*
X175930480Y-105720150D01*
X175940970Y-105742329D01*
X175949235Y-105765428D01*
X175955196Y-105789227D01*
X175958796Y-105813495D01*
X175960000Y-105837999D01*
X175960000Y-106488001D01*
X175958796Y-106512505D01*
X175955196Y-106536773D01*
X175949235Y-106560572D01*
X175940970Y-106583671D01*
X175930480Y-106605850D01*
X175917868Y-106626893D01*
X175903253Y-106646599D01*
X175886777Y-106664777D01*
X175868599Y-106681253D01*
X175848893Y-106695868D01*
X175827850Y-106708480D01*
X175805671Y-106718970D01*
X175782572Y-106727235D01*
X175758773Y-106733196D01*
X175734505Y-106736796D01*
X175710001Y-106738000D01*
X174809999Y-106738000D01*
X174785495Y-106736796D01*
X174761227Y-106733196D01*
X174737428Y-106727235D01*
X174714329Y-106718970D01*
X174692150Y-106708480D01*
X174671107Y-106695868D01*
X174651401Y-106681253D01*
X174633223Y-106664777D01*
X174616747Y-106646599D01*
X174602132Y-106626893D01*
X174589520Y-106605850D01*
X174579030Y-106583671D01*
X174570765Y-106560572D01*
X174564804Y-106536773D01*
X174561204Y-106512505D01*
X174560000Y-106488001D01*
X174560000Y-105837999D01*
X174561204Y-105813495D01*
X174564804Y-105789227D01*
X174570765Y-105765428D01*
X174579030Y-105742329D01*
X174589520Y-105720150D01*
X174602132Y-105699107D01*
X174616747Y-105679401D01*
X174633223Y-105661223D01*
X174651401Y-105644747D01*
X174671107Y-105630132D01*
X174692150Y-105617520D01*
X174714329Y-105607030D01*
X174737428Y-105598765D01*
X174761227Y-105592804D01*
X174785495Y-105589204D01*
X174809999Y-105588000D01*
X175710001Y-105588000D01*
X175734505Y-105589204D01*
G37*
G36*
X175734505Y-89859204D02*
G01*
X175758773Y-89862804D01*
X175782572Y-89868765D01*
X175805671Y-89877030D01*
X175827850Y-89887520D01*
X175848893Y-89900132D01*
X175868599Y-89914747D01*
X175886777Y-89931223D01*
X175903253Y-89949401D01*
X175917868Y-89969107D01*
X175930480Y-89990150D01*
X175940970Y-90012329D01*
X175949235Y-90035428D01*
X175955196Y-90059227D01*
X175958796Y-90083495D01*
X175960000Y-90107999D01*
X175960000Y-90758001D01*
X175958796Y-90782505D01*
X175955196Y-90806773D01*
X175949235Y-90830572D01*
X175940970Y-90853671D01*
X175930480Y-90875850D01*
X175917868Y-90896893D01*
X175903253Y-90916599D01*
X175886777Y-90934777D01*
X175868599Y-90951253D01*
X175848893Y-90965868D01*
X175827850Y-90978480D01*
X175805671Y-90988970D01*
X175782572Y-90997235D01*
X175758773Y-91003196D01*
X175734505Y-91006796D01*
X175710001Y-91008000D01*
X174809999Y-91008000D01*
X174785495Y-91006796D01*
X174761227Y-91003196D01*
X174737428Y-90997235D01*
X174714329Y-90988970D01*
X174692150Y-90978480D01*
X174671107Y-90965868D01*
X174651401Y-90951253D01*
X174633223Y-90934777D01*
X174616747Y-90916599D01*
X174602132Y-90896893D01*
X174589520Y-90875850D01*
X174579030Y-90853671D01*
X174570765Y-90830572D01*
X174564804Y-90806773D01*
X174561204Y-90782505D01*
X174560000Y-90758001D01*
X174560000Y-90107999D01*
X174561204Y-90083495D01*
X174564804Y-90059227D01*
X174570765Y-90035428D01*
X174579030Y-90012329D01*
X174589520Y-89990150D01*
X174602132Y-89969107D01*
X174616747Y-89949401D01*
X174633223Y-89931223D01*
X174651401Y-89914747D01*
X174671107Y-89900132D01*
X174692150Y-89887520D01*
X174714329Y-89877030D01*
X174737428Y-89868765D01*
X174761227Y-89862804D01*
X174785495Y-89859204D01*
X174809999Y-89858000D01*
X175710001Y-89858000D01*
X175734505Y-89859204D01*
G37*
G36*
X175734505Y-87809204D02*
G01*
X175758773Y-87812804D01*
X175782572Y-87818765D01*
X175805671Y-87827030D01*
X175827850Y-87837520D01*
X175848893Y-87850132D01*
X175868599Y-87864747D01*
X175886777Y-87881223D01*
X175903253Y-87899401D01*
X175917868Y-87919107D01*
X175930480Y-87940150D01*
X175940970Y-87962329D01*
X175949235Y-87985428D01*
X175955196Y-88009227D01*
X175958796Y-88033495D01*
X175960000Y-88057999D01*
X175960000Y-88708001D01*
X175958796Y-88732505D01*
X175955196Y-88756773D01*
X175949235Y-88780572D01*
X175940970Y-88803671D01*
X175930480Y-88825850D01*
X175917868Y-88846893D01*
X175903253Y-88866599D01*
X175886777Y-88884777D01*
X175868599Y-88901253D01*
X175848893Y-88915868D01*
X175827850Y-88928480D01*
X175805671Y-88938970D01*
X175782572Y-88947235D01*
X175758773Y-88953196D01*
X175734505Y-88956796D01*
X175710001Y-88958000D01*
X174809999Y-88958000D01*
X174785495Y-88956796D01*
X174761227Y-88953196D01*
X174737428Y-88947235D01*
X174714329Y-88938970D01*
X174692150Y-88928480D01*
X174671107Y-88915868D01*
X174651401Y-88901253D01*
X174633223Y-88884777D01*
X174616747Y-88866599D01*
X174602132Y-88846893D01*
X174589520Y-88825850D01*
X174579030Y-88803671D01*
X174570765Y-88780572D01*
X174564804Y-88756773D01*
X174561204Y-88732505D01*
X174560000Y-88708001D01*
X174560000Y-88057999D01*
X174561204Y-88033495D01*
X174564804Y-88009227D01*
X174570765Y-87985428D01*
X174579030Y-87962329D01*
X174589520Y-87940150D01*
X174602132Y-87919107D01*
X174616747Y-87899401D01*
X174633223Y-87881223D01*
X174651401Y-87864747D01*
X174671107Y-87850132D01*
X174692150Y-87837520D01*
X174714329Y-87827030D01*
X174737428Y-87818765D01*
X174761227Y-87812804D01*
X174785495Y-87809204D01*
X174809999Y-87808000D01*
X175710001Y-87808000D01*
X175734505Y-87809204D01*
G37*
G36*
X130014505Y-107639204D02*
G01*
X130038773Y-107642804D01*
X130062572Y-107648765D01*
X130085671Y-107657030D01*
X130107850Y-107667520D01*
X130128893Y-107680132D01*
X130148599Y-107694747D01*
X130166777Y-107711223D01*
X130183253Y-107729401D01*
X130197868Y-107749107D01*
X130210480Y-107770150D01*
X130220970Y-107792329D01*
X130229235Y-107815428D01*
X130235196Y-107839227D01*
X130238796Y-107863495D01*
X130240000Y-107887999D01*
X130240000Y-108538001D01*
X130238796Y-108562505D01*
X130235196Y-108586773D01*
X130229235Y-108610572D01*
X130220970Y-108633671D01*
X130210480Y-108655850D01*
X130197868Y-108676893D01*
X130183253Y-108696599D01*
X130166777Y-108714777D01*
X130148599Y-108731253D01*
X130128893Y-108745868D01*
X130107850Y-108758480D01*
X130085671Y-108768970D01*
X130062572Y-108777235D01*
X130038773Y-108783196D01*
X130014505Y-108786796D01*
X129990001Y-108788000D01*
X129089999Y-108788000D01*
X129065495Y-108786796D01*
X129041227Y-108783196D01*
X129017428Y-108777235D01*
X128994329Y-108768970D01*
X128972150Y-108758480D01*
X128951107Y-108745868D01*
X128931401Y-108731253D01*
X128913223Y-108714777D01*
X128896747Y-108696599D01*
X128882132Y-108676893D01*
X128869520Y-108655850D01*
X128859030Y-108633671D01*
X128850765Y-108610572D01*
X128844804Y-108586773D01*
X128841204Y-108562505D01*
X128840000Y-108538001D01*
X128840000Y-107887999D01*
X128841204Y-107863495D01*
X128844804Y-107839227D01*
X128850765Y-107815428D01*
X128859030Y-107792329D01*
X128869520Y-107770150D01*
X128882132Y-107749107D01*
X128896747Y-107729401D01*
X128913223Y-107711223D01*
X128931401Y-107694747D01*
X128951107Y-107680132D01*
X128972150Y-107667520D01*
X128994329Y-107657030D01*
X129017428Y-107648765D01*
X129041227Y-107642804D01*
X129065495Y-107639204D01*
X129089999Y-107638000D01*
X129990001Y-107638000D01*
X130014505Y-107639204D01*
G37*
G36*
X130014505Y-105589204D02*
G01*
X130038773Y-105592804D01*
X130062572Y-105598765D01*
X130085671Y-105607030D01*
X130107850Y-105617520D01*
X130128893Y-105630132D01*
X130148599Y-105644747D01*
X130166777Y-105661223D01*
X130183253Y-105679401D01*
X130197868Y-105699107D01*
X130210480Y-105720150D01*
X130220970Y-105742329D01*
X130229235Y-105765428D01*
X130235196Y-105789227D01*
X130238796Y-105813495D01*
X130240000Y-105837999D01*
X130240000Y-106488001D01*
X130238796Y-106512505D01*
X130235196Y-106536773D01*
X130229235Y-106560572D01*
X130220970Y-106583671D01*
X130210480Y-106605850D01*
X130197868Y-106626893D01*
X130183253Y-106646599D01*
X130166777Y-106664777D01*
X130148599Y-106681253D01*
X130128893Y-106695868D01*
X130107850Y-106708480D01*
X130085671Y-106718970D01*
X130062572Y-106727235D01*
X130038773Y-106733196D01*
X130014505Y-106736796D01*
X129990001Y-106738000D01*
X129089999Y-106738000D01*
X129065495Y-106736796D01*
X129041227Y-106733196D01*
X129017428Y-106727235D01*
X128994329Y-106718970D01*
X128972150Y-106708480D01*
X128951107Y-106695868D01*
X128931401Y-106681253D01*
X128913223Y-106664777D01*
X128896747Y-106646599D01*
X128882132Y-106626893D01*
X128869520Y-106605850D01*
X128859030Y-106583671D01*
X128850765Y-106560572D01*
X128844804Y-106536773D01*
X128841204Y-106512505D01*
X128840000Y-106488001D01*
X128840000Y-105837999D01*
X128841204Y-105813495D01*
X128844804Y-105789227D01*
X128850765Y-105765428D01*
X128859030Y-105742329D01*
X128869520Y-105720150D01*
X128882132Y-105699107D01*
X128896747Y-105679401D01*
X128913223Y-105661223D01*
X128931401Y-105644747D01*
X128951107Y-105630132D01*
X128972150Y-105617520D01*
X128994329Y-105607030D01*
X129017428Y-105598765D01*
X129041227Y-105592804D01*
X129065495Y-105589204D01*
X129089999Y-105588000D01*
X129990001Y-105588000D01*
X130014505Y-105589204D01*
G37*
G36*
X130014505Y-89859204D02*
G01*
X130038773Y-89862804D01*
X130062572Y-89868765D01*
X130085671Y-89877030D01*
X130107850Y-89887520D01*
X130128893Y-89900132D01*
X130148599Y-89914747D01*
X130166777Y-89931223D01*
X130183253Y-89949401D01*
X130197868Y-89969107D01*
X130210480Y-89990150D01*
X130220970Y-90012329D01*
X130229235Y-90035428D01*
X130235196Y-90059227D01*
X130238796Y-90083495D01*
X130240000Y-90107999D01*
X130240000Y-90758001D01*
X130238796Y-90782505D01*
X130235196Y-90806773D01*
X130229235Y-90830572D01*
X130220970Y-90853671D01*
X130210480Y-90875850D01*
X130197868Y-90896893D01*
X130183253Y-90916599D01*
X130166777Y-90934777D01*
X130148599Y-90951253D01*
X130128893Y-90965868D01*
X130107850Y-90978480D01*
X130085671Y-90988970D01*
X130062572Y-90997235D01*
X130038773Y-91003196D01*
X130014505Y-91006796D01*
X129990001Y-91008000D01*
X129089999Y-91008000D01*
X129065495Y-91006796D01*
X129041227Y-91003196D01*
X129017428Y-90997235D01*
X128994329Y-90988970D01*
X128972150Y-90978480D01*
X128951107Y-90965868D01*
X128931401Y-90951253D01*
X128913223Y-90934777D01*
X128896747Y-90916599D01*
X128882132Y-90896893D01*
X128869520Y-90875850D01*
X128859030Y-90853671D01*
X128850765Y-90830572D01*
X128844804Y-90806773D01*
X128841204Y-90782505D01*
X128840000Y-90758001D01*
X128840000Y-90107999D01*
X128841204Y-90083495D01*
X128844804Y-90059227D01*
X128850765Y-90035428D01*
X128859030Y-90012329D01*
X128869520Y-89990150D01*
X128882132Y-89969107D01*
X128896747Y-89949401D01*
X128913223Y-89931223D01*
X128931401Y-89914747D01*
X128951107Y-89900132D01*
X128972150Y-89887520D01*
X128994329Y-89877030D01*
X129017428Y-89868765D01*
X129041227Y-89862804D01*
X129065495Y-89859204D01*
X129089999Y-89858000D01*
X129990001Y-89858000D01*
X130014505Y-89859204D01*
G37*
G36*
X130014505Y-87809204D02*
G01*
X130038773Y-87812804D01*
X130062572Y-87818765D01*
X130085671Y-87827030D01*
X130107850Y-87837520D01*
X130128893Y-87850132D01*
X130148599Y-87864747D01*
X130166777Y-87881223D01*
X130183253Y-87899401D01*
X130197868Y-87919107D01*
X130210480Y-87940150D01*
X130220970Y-87962329D01*
X130229235Y-87985428D01*
X130235196Y-88009227D01*
X130238796Y-88033495D01*
X130240000Y-88057999D01*
X130240000Y-88708001D01*
X130238796Y-88732505D01*
X130235196Y-88756773D01*
X130229235Y-88780572D01*
X130220970Y-88803671D01*
X130210480Y-88825850D01*
X130197868Y-88846893D01*
X130183253Y-88866599D01*
X130166777Y-88884777D01*
X130148599Y-88901253D01*
X130128893Y-88915868D01*
X130107850Y-88928480D01*
X130085671Y-88938970D01*
X130062572Y-88947235D01*
X130038773Y-88953196D01*
X130014505Y-88956796D01*
X129990001Y-88958000D01*
X129089999Y-88958000D01*
X129065495Y-88956796D01*
X129041227Y-88953196D01*
X129017428Y-88947235D01*
X128994329Y-88938970D01*
X128972150Y-88928480D01*
X128951107Y-88915868D01*
X128931401Y-88901253D01*
X128913223Y-88884777D01*
X128896747Y-88866599D01*
X128882132Y-88846893D01*
X128869520Y-88825850D01*
X128859030Y-88803671D01*
X128850765Y-88780572D01*
X128844804Y-88756773D01*
X128841204Y-88732505D01*
X128840000Y-88708001D01*
X128840000Y-88057999D01*
X128841204Y-88033495D01*
X128844804Y-88009227D01*
X128850765Y-87985428D01*
X128859030Y-87962329D01*
X128869520Y-87940150D01*
X128882132Y-87919107D01*
X128896747Y-87899401D01*
X128913223Y-87881223D01*
X128931401Y-87864747D01*
X128951107Y-87850132D01*
X128972150Y-87837520D01*
X128994329Y-87827030D01*
X129017428Y-87818765D01*
X129041227Y-87812804D01*
X129065495Y-87809204D01*
X129089999Y-87808000D01*
X129990001Y-87808000D01*
X130014505Y-87809204D01*
G37*
G36*
X147794505Y-111685204D02*
G01*
X147818773Y-111688804D01*
X147842572Y-111694765D01*
X147865671Y-111703030D01*
X147887850Y-111713520D01*
X147908893Y-111726132D01*
X147928599Y-111740747D01*
X147946777Y-111757223D01*
X147963253Y-111775401D01*
X147977868Y-111795107D01*
X147990480Y-111816150D01*
X148000970Y-111838329D01*
X148009235Y-111861428D01*
X148015196Y-111885227D01*
X148018796Y-111909495D01*
X148020000Y-111933999D01*
X148020000Y-112584001D01*
X148018796Y-112608505D01*
X148015196Y-112632773D01*
X148009235Y-112656572D01*
X148000970Y-112679671D01*
X147990480Y-112701850D01*
X147977868Y-112722893D01*
X147963253Y-112742599D01*
X147946777Y-112760777D01*
X147928599Y-112777253D01*
X147908893Y-112791868D01*
X147887850Y-112804480D01*
X147865671Y-112814970D01*
X147842572Y-112823235D01*
X147818773Y-112829196D01*
X147794505Y-112832796D01*
X147770001Y-112834000D01*
X146869999Y-112834000D01*
X146845495Y-112832796D01*
X146821227Y-112829196D01*
X146797428Y-112823235D01*
X146774329Y-112814970D01*
X146752150Y-112804480D01*
X146731107Y-112791868D01*
X146711401Y-112777253D01*
X146693223Y-112760777D01*
X146676747Y-112742599D01*
X146662132Y-112722893D01*
X146649520Y-112701850D01*
X146639030Y-112679671D01*
X146630765Y-112656572D01*
X146624804Y-112632773D01*
X146621204Y-112608505D01*
X146620000Y-112584001D01*
X146620000Y-111933999D01*
X146621204Y-111909495D01*
X146624804Y-111885227D01*
X146630765Y-111861428D01*
X146639030Y-111838329D01*
X146649520Y-111816150D01*
X146662132Y-111795107D01*
X146676747Y-111775401D01*
X146693223Y-111757223D01*
X146711401Y-111740747D01*
X146731107Y-111726132D01*
X146752150Y-111713520D01*
X146774329Y-111703030D01*
X146797428Y-111694765D01*
X146821227Y-111688804D01*
X146845495Y-111685204D01*
X146869999Y-111684000D01*
X147770001Y-111684000D01*
X147794505Y-111685204D01*
G37*
G36*
X147794505Y-113735204D02*
G01*
X147818773Y-113738804D01*
X147842572Y-113744765D01*
X147865671Y-113753030D01*
X147887850Y-113763520D01*
X147908893Y-113776132D01*
X147928599Y-113790747D01*
X147946777Y-113807223D01*
X147963253Y-113825401D01*
X147977868Y-113845107D01*
X147990480Y-113866150D01*
X148000970Y-113888329D01*
X148009235Y-113911428D01*
X148015196Y-113935227D01*
X148018796Y-113959495D01*
X148020000Y-113983999D01*
X148020000Y-114634001D01*
X148018796Y-114658505D01*
X148015196Y-114682773D01*
X148009235Y-114706572D01*
X148000970Y-114729671D01*
X147990480Y-114751850D01*
X147977868Y-114772893D01*
X147963253Y-114792599D01*
X147946777Y-114810777D01*
X147928599Y-114827253D01*
X147908893Y-114841868D01*
X147887850Y-114854480D01*
X147865671Y-114864970D01*
X147842572Y-114873235D01*
X147818773Y-114879196D01*
X147794505Y-114882796D01*
X147770001Y-114884000D01*
X146869999Y-114884000D01*
X146845495Y-114882796D01*
X146821227Y-114879196D01*
X146797428Y-114873235D01*
X146774329Y-114864970D01*
X146752150Y-114854480D01*
X146731107Y-114841868D01*
X146711401Y-114827253D01*
X146693223Y-114810777D01*
X146676747Y-114792599D01*
X146662132Y-114772893D01*
X146649520Y-114751850D01*
X146639030Y-114729671D01*
X146630765Y-114706572D01*
X146624804Y-114682773D01*
X146621204Y-114658505D01*
X146620000Y-114634001D01*
X146620000Y-113983999D01*
X146621204Y-113959495D01*
X146624804Y-113935227D01*
X146630765Y-113911428D01*
X146639030Y-113888329D01*
X146649520Y-113866150D01*
X146662132Y-113845107D01*
X146676747Y-113825401D01*
X146693223Y-113807223D01*
X146711401Y-113790747D01*
X146731107Y-113776132D01*
X146752150Y-113763520D01*
X146774329Y-113753030D01*
X146797428Y-113744765D01*
X146821227Y-113738804D01*
X146845495Y-113735204D01*
X146869999Y-113734000D01*
X147770001Y-113734000D01*
X147794505Y-113735204D01*
G37*
G36*
X147794505Y-100509204D02*
G01*
X147818773Y-100512804D01*
X147842572Y-100518765D01*
X147865671Y-100527030D01*
X147887850Y-100537520D01*
X147908893Y-100550132D01*
X147928599Y-100564747D01*
X147946777Y-100581223D01*
X147963253Y-100599401D01*
X147977868Y-100619107D01*
X147990480Y-100640150D01*
X148000970Y-100662329D01*
X148009235Y-100685428D01*
X148015196Y-100709227D01*
X148018796Y-100733495D01*
X148020000Y-100757999D01*
X148020000Y-101408001D01*
X148018796Y-101432505D01*
X148015196Y-101456773D01*
X148009235Y-101480572D01*
X148000970Y-101503671D01*
X147990480Y-101525850D01*
X147977868Y-101546893D01*
X147963253Y-101566599D01*
X147946777Y-101584777D01*
X147928599Y-101601253D01*
X147908893Y-101615868D01*
X147887850Y-101628480D01*
X147865671Y-101638970D01*
X147842572Y-101647235D01*
X147818773Y-101653196D01*
X147794505Y-101656796D01*
X147770001Y-101658000D01*
X146869999Y-101658000D01*
X146845495Y-101656796D01*
X146821227Y-101653196D01*
X146797428Y-101647235D01*
X146774329Y-101638970D01*
X146752150Y-101628480D01*
X146731107Y-101615868D01*
X146711401Y-101601253D01*
X146693223Y-101584777D01*
X146676747Y-101566599D01*
X146662132Y-101546893D01*
X146649520Y-101525850D01*
X146639030Y-101503671D01*
X146630765Y-101480572D01*
X146624804Y-101456773D01*
X146621204Y-101432505D01*
X146620000Y-101408001D01*
X146620000Y-100757999D01*
X146621204Y-100733495D01*
X146624804Y-100709227D01*
X146630765Y-100685428D01*
X146639030Y-100662329D01*
X146649520Y-100640150D01*
X146662132Y-100619107D01*
X146676747Y-100599401D01*
X146693223Y-100581223D01*
X146711401Y-100564747D01*
X146731107Y-100550132D01*
X146752150Y-100537520D01*
X146774329Y-100527030D01*
X146797428Y-100518765D01*
X146821227Y-100512804D01*
X146845495Y-100509204D01*
X146869999Y-100508000D01*
X147770001Y-100508000D01*
X147794505Y-100509204D01*
G37*
G36*
X147794505Y-102559204D02*
G01*
X147818773Y-102562804D01*
X147842572Y-102568765D01*
X147865671Y-102577030D01*
X147887850Y-102587520D01*
X147908893Y-102600132D01*
X147928599Y-102614747D01*
X147946777Y-102631223D01*
X147963253Y-102649401D01*
X147977868Y-102669107D01*
X147990480Y-102690150D01*
X148000970Y-102712329D01*
X148009235Y-102735428D01*
X148015196Y-102759227D01*
X148018796Y-102783495D01*
X148020000Y-102807999D01*
X148020000Y-103458001D01*
X148018796Y-103482505D01*
X148015196Y-103506773D01*
X148009235Y-103530572D01*
X148000970Y-103553671D01*
X147990480Y-103575850D01*
X147977868Y-103596893D01*
X147963253Y-103616599D01*
X147946777Y-103634777D01*
X147928599Y-103651253D01*
X147908893Y-103665868D01*
X147887850Y-103678480D01*
X147865671Y-103688970D01*
X147842572Y-103697235D01*
X147818773Y-103703196D01*
X147794505Y-103706796D01*
X147770001Y-103708000D01*
X146869999Y-103708000D01*
X146845495Y-103706796D01*
X146821227Y-103703196D01*
X146797428Y-103697235D01*
X146774329Y-103688970D01*
X146752150Y-103678480D01*
X146731107Y-103665868D01*
X146711401Y-103651253D01*
X146693223Y-103634777D01*
X146676747Y-103616599D01*
X146662132Y-103596893D01*
X146649520Y-103575850D01*
X146639030Y-103553671D01*
X146630765Y-103530572D01*
X146624804Y-103506773D01*
X146621204Y-103482505D01*
X146620000Y-103458001D01*
X146620000Y-102807999D01*
X146621204Y-102783495D01*
X146624804Y-102759227D01*
X146630765Y-102735428D01*
X146639030Y-102712329D01*
X146649520Y-102690150D01*
X146662132Y-102669107D01*
X146676747Y-102649401D01*
X146693223Y-102631223D01*
X146711401Y-102614747D01*
X146731107Y-102600132D01*
X146752150Y-102587520D01*
X146774329Y-102577030D01*
X146797428Y-102568765D01*
X146821227Y-102562804D01*
X146845495Y-102559204D01*
X146869999Y-102558000D01*
X147770001Y-102558000D01*
X147794505Y-102559204D01*
G37*
G36*
X159362505Y-109029204D02*
G01*
X159386773Y-109032804D01*
X159410572Y-109038765D01*
X159433671Y-109047030D01*
X159455850Y-109057520D01*
X159476893Y-109070132D01*
X159496599Y-109084747D01*
X159514777Y-109101223D01*
X159531253Y-109119401D01*
X159545868Y-109139107D01*
X159558480Y-109160150D01*
X159568970Y-109182329D01*
X159577235Y-109205428D01*
X159583196Y-109229227D01*
X159586796Y-109253495D01*
X159588000Y-109277999D01*
X159588000Y-110178001D01*
X159586796Y-110202505D01*
X159583196Y-110226773D01*
X159577235Y-110250572D01*
X159568970Y-110273671D01*
X159558480Y-110295850D01*
X159545868Y-110316893D01*
X159531253Y-110336599D01*
X159514777Y-110354777D01*
X159496599Y-110371253D01*
X159476893Y-110385868D01*
X159455850Y-110398480D01*
X159433671Y-110408970D01*
X159410572Y-110417235D01*
X159386773Y-110423196D01*
X159362505Y-110426796D01*
X159338001Y-110428000D01*
X158687999Y-110428000D01*
X158663495Y-110426796D01*
X158639227Y-110423196D01*
X158615428Y-110417235D01*
X158592329Y-110408970D01*
X158570150Y-110398480D01*
X158549107Y-110385868D01*
X158529401Y-110371253D01*
X158511223Y-110354777D01*
X158494747Y-110336599D01*
X158480132Y-110316893D01*
X158467520Y-110295850D01*
X158457030Y-110273671D01*
X158448765Y-110250572D01*
X158442804Y-110226773D01*
X158439204Y-110202505D01*
X158438000Y-110178001D01*
X158438000Y-109277999D01*
X158439204Y-109253495D01*
X158442804Y-109229227D01*
X158448765Y-109205428D01*
X158457030Y-109182329D01*
X158467520Y-109160150D01*
X158480132Y-109139107D01*
X158494747Y-109119401D01*
X158511223Y-109101223D01*
X158529401Y-109084747D01*
X158549107Y-109070132D01*
X158570150Y-109057520D01*
X158592329Y-109047030D01*
X158615428Y-109038765D01*
X158639227Y-109032804D01*
X158663495Y-109029204D01*
X158687999Y-109028000D01*
X159338001Y-109028000D01*
X159362505Y-109029204D01*
G37*
G36*
X157312505Y-109029204D02*
G01*
X157336773Y-109032804D01*
X157360572Y-109038765D01*
X157383671Y-109047030D01*
X157405850Y-109057520D01*
X157426893Y-109070132D01*
X157446599Y-109084747D01*
X157464777Y-109101223D01*
X157481253Y-109119401D01*
X157495868Y-109139107D01*
X157508480Y-109160150D01*
X157518970Y-109182329D01*
X157527235Y-109205428D01*
X157533196Y-109229227D01*
X157536796Y-109253495D01*
X157538000Y-109277999D01*
X157538000Y-110178001D01*
X157536796Y-110202505D01*
X157533196Y-110226773D01*
X157527235Y-110250572D01*
X157518970Y-110273671D01*
X157508480Y-110295850D01*
X157495868Y-110316893D01*
X157481253Y-110336599D01*
X157464777Y-110354777D01*
X157446599Y-110371253D01*
X157426893Y-110385868D01*
X157405850Y-110398480D01*
X157383671Y-110408970D01*
X157360572Y-110417235D01*
X157336773Y-110423196D01*
X157312505Y-110426796D01*
X157288001Y-110428000D01*
X156637999Y-110428000D01*
X156613495Y-110426796D01*
X156589227Y-110423196D01*
X156565428Y-110417235D01*
X156542329Y-110408970D01*
X156520150Y-110398480D01*
X156499107Y-110385868D01*
X156479401Y-110371253D01*
X156461223Y-110354777D01*
X156444747Y-110336599D01*
X156430132Y-110316893D01*
X156417520Y-110295850D01*
X156407030Y-110273671D01*
X156398765Y-110250572D01*
X156392804Y-110226773D01*
X156389204Y-110202505D01*
X156388000Y-110178001D01*
X156388000Y-109277999D01*
X156389204Y-109253495D01*
X156392804Y-109229227D01*
X156398765Y-109205428D01*
X156407030Y-109182329D01*
X156417520Y-109160150D01*
X156430132Y-109139107D01*
X156444747Y-109119401D01*
X156461223Y-109101223D01*
X156479401Y-109084747D01*
X156499107Y-109070132D01*
X156520150Y-109057520D01*
X156542329Y-109047030D01*
X156565428Y-109038765D01*
X156589227Y-109032804D01*
X156613495Y-109029204D01*
X156637999Y-109028000D01*
X157288001Y-109028000D01*
X157312505Y-109029204D01*
G37*
G36*
X165458505Y-109029204D02*
G01*
X165482773Y-109032804D01*
X165506572Y-109038765D01*
X165529671Y-109047030D01*
X165551850Y-109057520D01*
X165572893Y-109070132D01*
X165592599Y-109084747D01*
X165610777Y-109101223D01*
X165627253Y-109119401D01*
X165641868Y-109139107D01*
X165654480Y-109160150D01*
X165664970Y-109182329D01*
X165673235Y-109205428D01*
X165679196Y-109229227D01*
X165682796Y-109253495D01*
X165684000Y-109277999D01*
X165684000Y-110178001D01*
X165682796Y-110202505D01*
X165679196Y-110226773D01*
X165673235Y-110250572D01*
X165664970Y-110273671D01*
X165654480Y-110295850D01*
X165641868Y-110316893D01*
X165627253Y-110336599D01*
X165610777Y-110354777D01*
X165592599Y-110371253D01*
X165572893Y-110385868D01*
X165551850Y-110398480D01*
X165529671Y-110408970D01*
X165506572Y-110417235D01*
X165482773Y-110423196D01*
X165458505Y-110426796D01*
X165434001Y-110428000D01*
X164783999Y-110428000D01*
X164759495Y-110426796D01*
X164735227Y-110423196D01*
X164711428Y-110417235D01*
X164688329Y-110408970D01*
X164666150Y-110398480D01*
X164645107Y-110385868D01*
X164625401Y-110371253D01*
X164607223Y-110354777D01*
X164590747Y-110336599D01*
X164576132Y-110316893D01*
X164563520Y-110295850D01*
X164553030Y-110273671D01*
X164544765Y-110250572D01*
X164538804Y-110226773D01*
X164535204Y-110202505D01*
X164534000Y-110178001D01*
X164534000Y-109277999D01*
X164535204Y-109253495D01*
X164538804Y-109229227D01*
X164544765Y-109205428D01*
X164553030Y-109182329D01*
X164563520Y-109160150D01*
X164576132Y-109139107D01*
X164590747Y-109119401D01*
X164607223Y-109101223D01*
X164625401Y-109084747D01*
X164645107Y-109070132D01*
X164666150Y-109057520D01*
X164688329Y-109047030D01*
X164711428Y-109038765D01*
X164735227Y-109032804D01*
X164759495Y-109029204D01*
X164783999Y-109028000D01*
X165434001Y-109028000D01*
X165458505Y-109029204D01*
G37*
G36*
X163408505Y-109029204D02*
G01*
X163432773Y-109032804D01*
X163456572Y-109038765D01*
X163479671Y-109047030D01*
X163501850Y-109057520D01*
X163522893Y-109070132D01*
X163542599Y-109084747D01*
X163560777Y-109101223D01*
X163577253Y-109119401D01*
X163591868Y-109139107D01*
X163604480Y-109160150D01*
X163614970Y-109182329D01*
X163623235Y-109205428D01*
X163629196Y-109229227D01*
X163632796Y-109253495D01*
X163634000Y-109277999D01*
X163634000Y-110178001D01*
X163632796Y-110202505D01*
X163629196Y-110226773D01*
X163623235Y-110250572D01*
X163614970Y-110273671D01*
X163604480Y-110295850D01*
X163591868Y-110316893D01*
X163577253Y-110336599D01*
X163560777Y-110354777D01*
X163542599Y-110371253D01*
X163522893Y-110385868D01*
X163501850Y-110398480D01*
X163479671Y-110408970D01*
X163456572Y-110417235D01*
X163432773Y-110423196D01*
X163408505Y-110426796D01*
X163384001Y-110428000D01*
X162733999Y-110428000D01*
X162709495Y-110426796D01*
X162685227Y-110423196D01*
X162661428Y-110417235D01*
X162638329Y-110408970D01*
X162616150Y-110398480D01*
X162595107Y-110385868D01*
X162575401Y-110371253D01*
X162557223Y-110354777D01*
X162540747Y-110336599D01*
X162526132Y-110316893D01*
X162513520Y-110295850D01*
X162503030Y-110273671D01*
X162494765Y-110250572D01*
X162488804Y-110226773D01*
X162485204Y-110202505D01*
X162484000Y-110178001D01*
X162484000Y-109277999D01*
X162485204Y-109253495D01*
X162488804Y-109229227D01*
X162494765Y-109205428D01*
X162503030Y-109182329D01*
X162513520Y-109160150D01*
X162526132Y-109139107D01*
X162540747Y-109119401D01*
X162557223Y-109101223D01*
X162575401Y-109084747D01*
X162595107Y-109070132D01*
X162616150Y-109057520D01*
X162638329Y-109047030D01*
X162661428Y-109038765D01*
X162685227Y-109032804D01*
X162709495Y-109029204D01*
X162733999Y-109028000D01*
X163384001Y-109028000D01*
X163408505Y-109029204D01*
G37*
G36*
X142090505Y-104965204D02*
G01*
X142114773Y-104968804D01*
X142138572Y-104974765D01*
X142161671Y-104983030D01*
X142183850Y-104993520D01*
X142204893Y-105006132D01*
X142224599Y-105020747D01*
X142242777Y-105037223D01*
X142259253Y-105055401D01*
X142273868Y-105075107D01*
X142286480Y-105096150D01*
X142296970Y-105118329D01*
X142305235Y-105141428D01*
X142311196Y-105165227D01*
X142314796Y-105189495D01*
X142316000Y-105213999D01*
X142316000Y-106114001D01*
X142314796Y-106138505D01*
X142311196Y-106162773D01*
X142305235Y-106186572D01*
X142296970Y-106209671D01*
X142286480Y-106231850D01*
X142273868Y-106252893D01*
X142259253Y-106272599D01*
X142242777Y-106290777D01*
X142224599Y-106307253D01*
X142204893Y-106321868D01*
X142183850Y-106334480D01*
X142161671Y-106344970D01*
X142138572Y-106353235D01*
X142114773Y-106359196D01*
X142090505Y-106362796D01*
X142066001Y-106364000D01*
X141415999Y-106364000D01*
X141391495Y-106362796D01*
X141367227Y-106359196D01*
X141343428Y-106353235D01*
X141320329Y-106344970D01*
X141298150Y-106334480D01*
X141277107Y-106321868D01*
X141257401Y-106307253D01*
X141239223Y-106290777D01*
X141222747Y-106272599D01*
X141208132Y-106252893D01*
X141195520Y-106231850D01*
X141185030Y-106209671D01*
X141176765Y-106186572D01*
X141170804Y-106162773D01*
X141167204Y-106138505D01*
X141166000Y-106114001D01*
X141166000Y-105213999D01*
X141167204Y-105189495D01*
X141170804Y-105165227D01*
X141176765Y-105141428D01*
X141185030Y-105118329D01*
X141195520Y-105096150D01*
X141208132Y-105075107D01*
X141222747Y-105055401D01*
X141239223Y-105037223D01*
X141257401Y-105020747D01*
X141277107Y-105006132D01*
X141298150Y-104993520D01*
X141320329Y-104983030D01*
X141343428Y-104974765D01*
X141367227Y-104968804D01*
X141391495Y-104965204D01*
X141415999Y-104964000D01*
X142066001Y-104964000D01*
X142090505Y-104965204D01*
G37*
G36*
X140040505Y-104965204D02*
G01*
X140064773Y-104968804D01*
X140088572Y-104974765D01*
X140111671Y-104983030D01*
X140133850Y-104993520D01*
X140154893Y-105006132D01*
X140174599Y-105020747D01*
X140192777Y-105037223D01*
X140209253Y-105055401D01*
X140223868Y-105075107D01*
X140236480Y-105096150D01*
X140246970Y-105118329D01*
X140255235Y-105141428D01*
X140261196Y-105165227D01*
X140264796Y-105189495D01*
X140266000Y-105213999D01*
X140266000Y-106114001D01*
X140264796Y-106138505D01*
X140261196Y-106162773D01*
X140255235Y-106186572D01*
X140246970Y-106209671D01*
X140236480Y-106231850D01*
X140223868Y-106252893D01*
X140209253Y-106272599D01*
X140192777Y-106290777D01*
X140174599Y-106307253D01*
X140154893Y-106321868D01*
X140133850Y-106334480D01*
X140111671Y-106344970D01*
X140088572Y-106353235D01*
X140064773Y-106359196D01*
X140040505Y-106362796D01*
X140016001Y-106364000D01*
X139365999Y-106364000D01*
X139341495Y-106362796D01*
X139317227Y-106359196D01*
X139293428Y-106353235D01*
X139270329Y-106344970D01*
X139248150Y-106334480D01*
X139227107Y-106321868D01*
X139207401Y-106307253D01*
X139189223Y-106290777D01*
X139172747Y-106272599D01*
X139158132Y-106252893D01*
X139145520Y-106231850D01*
X139135030Y-106209671D01*
X139126765Y-106186572D01*
X139120804Y-106162773D01*
X139117204Y-106138505D01*
X139116000Y-106114001D01*
X139116000Y-105213999D01*
X139117204Y-105189495D01*
X139120804Y-105165227D01*
X139126765Y-105141428D01*
X139135030Y-105118329D01*
X139145520Y-105096150D01*
X139158132Y-105075107D01*
X139172747Y-105055401D01*
X139189223Y-105037223D01*
X139207401Y-105020747D01*
X139227107Y-105006132D01*
X139248150Y-104993520D01*
X139270329Y-104983030D01*
X139293428Y-104974765D01*
X139317227Y-104968804D01*
X139341495Y-104965204D01*
X139365999Y-104964000D01*
X140016001Y-104964000D01*
X140040505Y-104965204D01*
G37*
G36*
X146136505Y-104965204D02*
G01*
X146160773Y-104968804D01*
X146184572Y-104974765D01*
X146207671Y-104983030D01*
X146229850Y-104993520D01*
X146250893Y-105006132D01*
X146270599Y-105020747D01*
X146288777Y-105037223D01*
X146305253Y-105055401D01*
X146319868Y-105075107D01*
X146332480Y-105096150D01*
X146342970Y-105118329D01*
X146351235Y-105141428D01*
X146357196Y-105165227D01*
X146360796Y-105189495D01*
X146362000Y-105213999D01*
X146362000Y-106114001D01*
X146360796Y-106138505D01*
X146357196Y-106162773D01*
X146351235Y-106186572D01*
X146342970Y-106209671D01*
X146332480Y-106231850D01*
X146319868Y-106252893D01*
X146305253Y-106272599D01*
X146288777Y-106290777D01*
X146270599Y-106307253D01*
X146250893Y-106321868D01*
X146229850Y-106334480D01*
X146207671Y-106344970D01*
X146184572Y-106353235D01*
X146160773Y-106359196D01*
X146136505Y-106362796D01*
X146112001Y-106364000D01*
X145461999Y-106364000D01*
X145437495Y-106362796D01*
X145413227Y-106359196D01*
X145389428Y-106353235D01*
X145366329Y-106344970D01*
X145344150Y-106334480D01*
X145323107Y-106321868D01*
X145303401Y-106307253D01*
X145285223Y-106290777D01*
X145268747Y-106272599D01*
X145254132Y-106252893D01*
X145241520Y-106231850D01*
X145231030Y-106209671D01*
X145222765Y-106186572D01*
X145216804Y-106162773D01*
X145213204Y-106138505D01*
X145212000Y-106114001D01*
X145212000Y-105213999D01*
X145213204Y-105189495D01*
X145216804Y-105165227D01*
X145222765Y-105141428D01*
X145231030Y-105118329D01*
X145241520Y-105096150D01*
X145254132Y-105075107D01*
X145268747Y-105055401D01*
X145285223Y-105037223D01*
X145303401Y-105020747D01*
X145323107Y-105006132D01*
X145344150Y-104993520D01*
X145366329Y-104983030D01*
X145389428Y-104974765D01*
X145413227Y-104968804D01*
X145437495Y-104965204D01*
X145461999Y-104964000D01*
X146112001Y-104964000D01*
X146136505Y-104965204D01*
G37*
G36*
X148186505Y-104965204D02*
G01*
X148210773Y-104968804D01*
X148234572Y-104974765D01*
X148257671Y-104983030D01*
X148279850Y-104993520D01*
X148300893Y-105006132D01*
X148320599Y-105020747D01*
X148338777Y-105037223D01*
X148355253Y-105055401D01*
X148369868Y-105075107D01*
X148382480Y-105096150D01*
X148392970Y-105118329D01*
X148401235Y-105141428D01*
X148407196Y-105165227D01*
X148410796Y-105189495D01*
X148412000Y-105213999D01*
X148412000Y-106114001D01*
X148410796Y-106138505D01*
X148407196Y-106162773D01*
X148401235Y-106186572D01*
X148392970Y-106209671D01*
X148382480Y-106231850D01*
X148369868Y-106252893D01*
X148355253Y-106272599D01*
X148338777Y-106290777D01*
X148320599Y-106307253D01*
X148300893Y-106321868D01*
X148279850Y-106334480D01*
X148257671Y-106344970D01*
X148234572Y-106353235D01*
X148210773Y-106359196D01*
X148186505Y-106362796D01*
X148162001Y-106364000D01*
X147511999Y-106364000D01*
X147487495Y-106362796D01*
X147463227Y-106359196D01*
X147439428Y-106353235D01*
X147416329Y-106344970D01*
X147394150Y-106334480D01*
X147373107Y-106321868D01*
X147353401Y-106307253D01*
X147335223Y-106290777D01*
X147318747Y-106272599D01*
X147304132Y-106252893D01*
X147291520Y-106231850D01*
X147281030Y-106209671D01*
X147272765Y-106186572D01*
X147266804Y-106162773D01*
X147263204Y-106138505D01*
X147262000Y-106114001D01*
X147262000Y-105213999D01*
X147263204Y-105189495D01*
X147266804Y-105165227D01*
X147272765Y-105141428D01*
X147281030Y-105118329D01*
X147291520Y-105096150D01*
X147304132Y-105075107D01*
X147318747Y-105055401D01*
X147335223Y-105037223D01*
X147353401Y-105020747D01*
X147373107Y-105006132D01*
X147394150Y-104993520D01*
X147416329Y-104983030D01*
X147439428Y-104974765D01*
X147463227Y-104968804D01*
X147487495Y-104965204D01*
X147511999Y-104964000D01*
X148162001Y-104964000D01*
X148186505Y-104965204D01*
G37*
G36*
X157954505Y-111685204D02*
G01*
X157978773Y-111688804D01*
X158002572Y-111694765D01*
X158025671Y-111703030D01*
X158047850Y-111713520D01*
X158068893Y-111726132D01*
X158088599Y-111740747D01*
X158106777Y-111757223D01*
X158123253Y-111775401D01*
X158137868Y-111795107D01*
X158150480Y-111816150D01*
X158160970Y-111838329D01*
X158169235Y-111861428D01*
X158175196Y-111885227D01*
X158178796Y-111909495D01*
X158180000Y-111933999D01*
X158180000Y-112584001D01*
X158178796Y-112608505D01*
X158175196Y-112632773D01*
X158169235Y-112656572D01*
X158160970Y-112679671D01*
X158150480Y-112701850D01*
X158137868Y-112722893D01*
X158123253Y-112742599D01*
X158106777Y-112760777D01*
X158088599Y-112777253D01*
X158068893Y-112791868D01*
X158047850Y-112804480D01*
X158025671Y-112814970D01*
X158002572Y-112823235D01*
X157978773Y-112829196D01*
X157954505Y-112832796D01*
X157930001Y-112834000D01*
X157029999Y-112834000D01*
X157005495Y-112832796D01*
X156981227Y-112829196D01*
X156957428Y-112823235D01*
X156934329Y-112814970D01*
X156912150Y-112804480D01*
X156891107Y-112791868D01*
X156871401Y-112777253D01*
X156853223Y-112760777D01*
X156836747Y-112742599D01*
X156822132Y-112722893D01*
X156809520Y-112701850D01*
X156799030Y-112679671D01*
X156790765Y-112656572D01*
X156784804Y-112632773D01*
X156781204Y-112608505D01*
X156780000Y-112584001D01*
X156780000Y-111933999D01*
X156781204Y-111909495D01*
X156784804Y-111885227D01*
X156790765Y-111861428D01*
X156799030Y-111838329D01*
X156809520Y-111816150D01*
X156822132Y-111795107D01*
X156836747Y-111775401D01*
X156853223Y-111757223D01*
X156871401Y-111740747D01*
X156891107Y-111726132D01*
X156912150Y-111713520D01*
X156934329Y-111703030D01*
X156957428Y-111694765D01*
X156981227Y-111688804D01*
X157005495Y-111685204D01*
X157029999Y-111684000D01*
X157930001Y-111684000D01*
X157954505Y-111685204D01*
G37*
G36*
X157954505Y-113735204D02*
G01*
X157978773Y-113738804D01*
X158002572Y-113744765D01*
X158025671Y-113753030D01*
X158047850Y-113763520D01*
X158068893Y-113776132D01*
X158088599Y-113790747D01*
X158106777Y-113807223D01*
X158123253Y-113825401D01*
X158137868Y-113845107D01*
X158150480Y-113866150D01*
X158160970Y-113888329D01*
X158169235Y-113911428D01*
X158175196Y-113935227D01*
X158178796Y-113959495D01*
X158180000Y-113983999D01*
X158180000Y-114634001D01*
X158178796Y-114658505D01*
X158175196Y-114682773D01*
X158169235Y-114706572D01*
X158160970Y-114729671D01*
X158150480Y-114751850D01*
X158137868Y-114772893D01*
X158123253Y-114792599D01*
X158106777Y-114810777D01*
X158088599Y-114827253D01*
X158068893Y-114841868D01*
X158047850Y-114854480D01*
X158025671Y-114864970D01*
X158002572Y-114873235D01*
X157978773Y-114879196D01*
X157954505Y-114882796D01*
X157930001Y-114884000D01*
X157029999Y-114884000D01*
X157005495Y-114882796D01*
X156981227Y-114879196D01*
X156957428Y-114873235D01*
X156934329Y-114864970D01*
X156912150Y-114854480D01*
X156891107Y-114841868D01*
X156871401Y-114827253D01*
X156853223Y-114810777D01*
X156836747Y-114792599D01*
X156822132Y-114772893D01*
X156809520Y-114751850D01*
X156799030Y-114729671D01*
X156790765Y-114706572D01*
X156784804Y-114682773D01*
X156781204Y-114658505D01*
X156780000Y-114634001D01*
X156780000Y-113983999D01*
X156781204Y-113959495D01*
X156784804Y-113935227D01*
X156790765Y-113911428D01*
X156799030Y-113888329D01*
X156809520Y-113866150D01*
X156822132Y-113845107D01*
X156836747Y-113825401D01*
X156853223Y-113807223D01*
X156871401Y-113790747D01*
X156891107Y-113776132D01*
X156912150Y-113763520D01*
X156934329Y-113753030D01*
X156957428Y-113744765D01*
X156981227Y-113738804D01*
X157005495Y-113735204D01*
X157029999Y-113734000D01*
X157930001Y-113734000D01*
X157954505Y-113735204D01*
G37*
G36*
X157954505Y-100509204D02*
G01*
X157978773Y-100512804D01*
X158002572Y-100518765D01*
X158025671Y-100527030D01*
X158047850Y-100537520D01*
X158068893Y-100550132D01*
X158088599Y-100564747D01*
X158106777Y-100581223D01*
X158123253Y-100599401D01*
X158137868Y-100619107D01*
X158150480Y-100640150D01*
X158160970Y-100662329D01*
X158169235Y-100685428D01*
X158175196Y-100709227D01*
X158178796Y-100733495D01*
X158180000Y-100757999D01*
X158180000Y-101408001D01*
X158178796Y-101432505D01*
X158175196Y-101456773D01*
X158169235Y-101480572D01*
X158160970Y-101503671D01*
X158150480Y-101525850D01*
X158137868Y-101546893D01*
X158123253Y-101566599D01*
X158106777Y-101584777D01*
X158088599Y-101601253D01*
X158068893Y-101615868D01*
X158047850Y-101628480D01*
X158025671Y-101638970D01*
X158002572Y-101647235D01*
X157978773Y-101653196D01*
X157954505Y-101656796D01*
X157930001Y-101658000D01*
X157029999Y-101658000D01*
X157005495Y-101656796D01*
X156981227Y-101653196D01*
X156957428Y-101647235D01*
X156934329Y-101638970D01*
X156912150Y-101628480D01*
X156891107Y-101615868D01*
X156871401Y-101601253D01*
X156853223Y-101584777D01*
X156836747Y-101566599D01*
X156822132Y-101546893D01*
X156809520Y-101525850D01*
X156799030Y-101503671D01*
X156790765Y-101480572D01*
X156784804Y-101456773D01*
X156781204Y-101432505D01*
X156780000Y-101408001D01*
X156780000Y-100757999D01*
X156781204Y-100733495D01*
X156784804Y-100709227D01*
X156790765Y-100685428D01*
X156799030Y-100662329D01*
X156809520Y-100640150D01*
X156822132Y-100619107D01*
X156836747Y-100599401D01*
X156853223Y-100581223D01*
X156871401Y-100564747D01*
X156891107Y-100550132D01*
X156912150Y-100537520D01*
X156934329Y-100527030D01*
X156957428Y-100518765D01*
X156981227Y-100512804D01*
X157005495Y-100509204D01*
X157029999Y-100508000D01*
X157930001Y-100508000D01*
X157954505Y-100509204D01*
G37*
G36*
X157954505Y-102559204D02*
G01*
X157978773Y-102562804D01*
X158002572Y-102568765D01*
X158025671Y-102577030D01*
X158047850Y-102587520D01*
X158068893Y-102600132D01*
X158088599Y-102614747D01*
X158106777Y-102631223D01*
X158123253Y-102649401D01*
X158137868Y-102669107D01*
X158150480Y-102690150D01*
X158160970Y-102712329D01*
X158169235Y-102735428D01*
X158175196Y-102759227D01*
X158178796Y-102783495D01*
X158180000Y-102807999D01*
X158180000Y-103458001D01*
X158178796Y-103482505D01*
X158175196Y-103506773D01*
X158169235Y-103530572D01*
X158160970Y-103553671D01*
X158150480Y-103575850D01*
X158137868Y-103596893D01*
X158123253Y-103616599D01*
X158106777Y-103634777D01*
X158088599Y-103651253D01*
X158068893Y-103665868D01*
X158047850Y-103678480D01*
X158025671Y-103688970D01*
X158002572Y-103697235D01*
X157978773Y-103703196D01*
X157954505Y-103706796D01*
X157930001Y-103708000D01*
X157029999Y-103708000D01*
X157005495Y-103706796D01*
X156981227Y-103703196D01*
X156957428Y-103697235D01*
X156934329Y-103688970D01*
X156912150Y-103678480D01*
X156891107Y-103665868D01*
X156871401Y-103651253D01*
X156853223Y-103634777D01*
X156836747Y-103616599D01*
X156822132Y-103596893D01*
X156809520Y-103575850D01*
X156799030Y-103553671D01*
X156790765Y-103530572D01*
X156784804Y-103506773D01*
X156781204Y-103482505D01*
X156780000Y-103458001D01*
X156780000Y-102807999D01*
X156781204Y-102783495D01*
X156784804Y-102759227D01*
X156790765Y-102735428D01*
X156799030Y-102712329D01*
X156809520Y-102690150D01*
X156822132Y-102669107D01*
X156836747Y-102649401D01*
X156853223Y-102631223D01*
X156871401Y-102614747D01*
X156891107Y-102600132D01*
X156912150Y-102587520D01*
X156934329Y-102577030D01*
X156957428Y-102568765D01*
X156981227Y-102562804D01*
X157005495Y-102559204D01*
X157029999Y-102558000D01*
X157930001Y-102558000D01*
X157954505Y-102559204D01*
G37*
G36*
X138142505Y-94921204D02*
G01*
X138166773Y-94924804D01*
X138190572Y-94930765D01*
X138213671Y-94939030D01*
X138235850Y-94949520D01*
X138256893Y-94962132D01*
X138276599Y-94976747D01*
X138294777Y-94993223D01*
X138311253Y-95011401D01*
X138325868Y-95031107D01*
X138338480Y-95052150D01*
X138348970Y-95074329D01*
X138357235Y-95097428D01*
X138363196Y-95121227D01*
X138366796Y-95145495D01*
X138368000Y-95169999D01*
X138368000Y-95820001D01*
X138366796Y-95844505D01*
X138363196Y-95868773D01*
X138357235Y-95892572D01*
X138348970Y-95915671D01*
X138338480Y-95937850D01*
X138325868Y-95958893D01*
X138311253Y-95978599D01*
X138294777Y-95996777D01*
X138276599Y-96013253D01*
X138256893Y-96027868D01*
X138235850Y-96040480D01*
X138213671Y-96050970D01*
X138190572Y-96059235D01*
X138166773Y-96065196D01*
X138142505Y-96068796D01*
X138118001Y-96070000D01*
X137217999Y-96070000D01*
X137193495Y-96068796D01*
X137169227Y-96065196D01*
X137145428Y-96059235D01*
X137122329Y-96050970D01*
X137100150Y-96040480D01*
X137079107Y-96027868D01*
X137059401Y-96013253D01*
X137041223Y-95996777D01*
X137024747Y-95978599D01*
X137010132Y-95958893D01*
X136997520Y-95937850D01*
X136987030Y-95915671D01*
X136978765Y-95892572D01*
X136972804Y-95868773D01*
X136969204Y-95844505D01*
X136968000Y-95820001D01*
X136968000Y-95169999D01*
X136969204Y-95145495D01*
X136972804Y-95121227D01*
X136978765Y-95097428D01*
X136987030Y-95074329D01*
X136997520Y-95052150D01*
X137010132Y-95031107D01*
X137024747Y-95011401D01*
X137041223Y-94993223D01*
X137059401Y-94976747D01*
X137079107Y-94962132D01*
X137100150Y-94949520D01*
X137122329Y-94939030D01*
X137145428Y-94930765D01*
X137169227Y-94924804D01*
X137193495Y-94921204D01*
X137217999Y-94920000D01*
X138118001Y-94920000D01*
X138142505Y-94921204D01*
G37*
G36*
X138142505Y-96971204D02*
G01*
X138166773Y-96974804D01*
X138190572Y-96980765D01*
X138213671Y-96989030D01*
X138235850Y-96999520D01*
X138256893Y-97012132D01*
X138276599Y-97026747D01*
X138294777Y-97043223D01*
X138311253Y-97061401D01*
X138325868Y-97081107D01*
X138338480Y-97102150D01*
X138348970Y-97124329D01*
X138357235Y-97147428D01*
X138363196Y-97171227D01*
X138366796Y-97195495D01*
X138368000Y-97219999D01*
X138368000Y-97870001D01*
X138366796Y-97894505D01*
X138363196Y-97918773D01*
X138357235Y-97942572D01*
X138348970Y-97965671D01*
X138338480Y-97987850D01*
X138325868Y-98008893D01*
X138311253Y-98028599D01*
X138294777Y-98046777D01*
X138276599Y-98063253D01*
X138256893Y-98077868D01*
X138235850Y-98090480D01*
X138213671Y-98100970D01*
X138190572Y-98109235D01*
X138166773Y-98115196D01*
X138142505Y-98118796D01*
X138118001Y-98120000D01*
X137217999Y-98120000D01*
X137193495Y-98118796D01*
X137169227Y-98115196D01*
X137145428Y-98109235D01*
X137122329Y-98100970D01*
X137100150Y-98090480D01*
X137079107Y-98077868D01*
X137059401Y-98063253D01*
X137041223Y-98046777D01*
X137024747Y-98028599D01*
X137010132Y-98008893D01*
X136997520Y-97987850D01*
X136987030Y-97965671D01*
X136978765Y-97942572D01*
X136972804Y-97918773D01*
X136969204Y-97894505D01*
X136968000Y-97870001D01*
X136968000Y-97219999D01*
X136969204Y-97195495D01*
X136972804Y-97171227D01*
X136978765Y-97147428D01*
X136987030Y-97124329D01*
X136997520Y-97102150D01*
X137010132Y-97081107D01*
X137024747Y-97061401D01*
X137041223Y-97043223D01*
X137059401Y-97026747D01*
X137079107Y-97012132D01*
X137100150Y-96999520D01*
X137122329Y-96989030D01*
X137145428Y-96980765D01*
X137169227Y-96974804D01*
X137193495Y-96971204D01*
X137217999Y-96970000D01*
X138118001Y-96970000D01*
X138142505Y-96971204D01*
G37*
G36*
X138008505Y-88201204D02*
G01*
X138032773Y-88204804D01*
X138056572Y-88210765D01*
X138079671Y-88219030D01*
X138101850Y-88229520D01*
X138122893Y-88242132D01*
X138142599Y-88256747D01*
X138160777Y-88273223D01*
X138177253Y-88291401D01*
X138191868Y-88311107D01*
X138204480Y-88332150D01*
X138214970Y-88354329D01*
X138223235Y-88377428D01*
X138229196Y-88401227D01*
X138232796Y-88425495D01*
X138234000Y-88449999D01*
X138234000Y-89350001D01*
X138232796Y-89374505D01*
X138229196Y-89398773D01*
X138223235Y-89422572D01*
X138214970Y-89445671D01*
X138204480Y-89467850D01*
X138191868Y-89488893D01*
X138177253Y-89508599D01*
X138160777Y-89526777D01*
X138142599Y-89543253D01*
X138122893Y-89557868D01*
X138101850Y-89570480D01*
X138079671Y-89580970D01*
X138056572Y-89589235D01*
X138032773Y-89595196D01*
X138008505Y-89598796D01*
X137984001Y-89600000D01*
X137333999Y-89600000D01*
X137309495Y-89598796D01*
X137285227Y-89595196D01*
X137261428Y-89589235D01*
X137238329Y-89580970D01*
X137216150Y-89570480D01*
X137195107Y-89557868D01*
X137175401Y-89543253D01*
X137157223Y-89526777D01*
X137140747Y-89508599D01*
X137126132Y-89488893D01*
X137113520Y-89467850D01*
X137103030Y-89445671D01*
X137094765Y-89422572D01*
X137088804Y-89398773D01*
X137085204Y-89374505D01*
X137084000Y-89350001D01*
X137084000Y-88449999D01*
X137085204Y-88425495D01*
X137088804Y-88401227D01*
X137094765Y-88377428D01*
X137103030Y-88354329D01*
X137113520Y-88332150D01*
X137126132Y-88311107D01*
X137140747Y-88291401D01*
X137157223Y-88273223D01*
X137175401Y-88256747D01*
X137195107Y-88242132D01*
X137216150Y-88229520D01*
X137238329Y-88219030D01*
X137261428Y-88210765D01*
X137285227Y-88204804D01*
X137309495Y-88201204D01*
X137333999Y-88200000D01*
X137984001Y-88200000D01*
X138008505Y-88201204D01*
G37*
G36*
X140058505Y-88201204D02*
G01*
X140082773Y-88204804D01*
X140106572Y-88210765D01*
X140129671Y-88219030D01*
X140151850Y-88229520D01*
X140172893Y-88242132D01*
X140192599Y-88256747D01*
X140210777Y-88273223D01*
X140227253Y-88291401D01*
X140241868Y-88311107D01*
X140254480Y-88332150D01*
X140264970Y-88354329D01*
X140273235Y-88377428D01*
X140279196Y-88401227D01*
X140282796Y-88425495D01*
X140284000Y-88449999D01*
X140284000Y-89350001D01*
X140282796Y-89374505D01*
X140279196Y-89398773D01*
X140273235Y-89422572D01*
X140264970Y-89445671D01*
X140254480Y-89467850D01*
X140241868Y-89488893D01*
X140227253Y-89508599D01*
X140210777Y-89526777D01*
X140192599Y-89543253D01*
X140172893Y-89557868D01*
X140151850Y-89570480D01*
X140129671Y-89580970D01*
X140106572Y-89589235D01*
X140082773Y-89595196D01*
X140058505Y-89598796D01*
X140034001Y-89600000D01*
X139383999Y-89600000D01*
X139359495Y-89598796D01*
X139335227Y-89595196D01*
X139311428Y-89589235D01*
X139288329Y-89580970D01*
X139266150Y-89570480D01*
X139245107Y-89557868D01*
X139225401Y-89543253D01*
X139207223Y-89526777D01*
X139190747Y-89508599D01*
X139176132Y-89488893D01*
X139163520Y-89467850D01*
X139153030Y-89445671D01*
X139144765Y-89422572D01*
X139138804Y-89398773D01*
X139135204Y-89374505D01*
X139134000Y-89350001D01*
X139134000Y-88449999D01*
X139135204Y-88425495D01*
X139138804Y-88401227D01*
X139144765Y-88377428D01*
X139153030Y-88354329D01*
X139163520Y-88332150D01*
X139176132Y-88311107D01*
X139190747Y-88291401D01*
X139207223Y-88273223D01*
X139225401Y-88256747D01*
X139245107Y-88242132D01*
X139266150Y-88229520D01*
X139288329Y-88219030D01*
X139311428Y-88210765D01*
X139335227Y-88204804D01*
X139359495Y-88201204D01*
X139383999Y-88200000D01*
X140034001Y-88200000D01*
X140058505Y-88201204D01*
G37*
G36*
X154264505Y-88201204D02*
G01*
X154288773Y-88204804D01*
X154312572Y-88210765D01*
X154335671Y-88219030D01*
X154357850Y-88229520D01*
X154378893Y-88242132D01*
X154398599Y-88256747D01*
X154416777Y-88273223D01*
X154433253Y-88291401D01*
X154447868Y-88311107D01*
X154460480Y-88332150D01*
X154470970Y-88354329D01*
X154479235Y-88377428D01*
X154485196Y-88401227D01*
X154488796Y-88425495D01*
X154490000Y-88449999D01*
X154490000Y-89350001D01*
X154488796Y-89374505D01*
X154485196Y-89398773D01*
X154479235Y-89422572D01*
X154470970Y-89445671D01*
X154460480Y-89467850D01*
X154447868Y-89488893D01*
X154433253Y-89508599D01*
X154416777Y-89526777D01*
X154398599Y-89543253D01*
X154378893Y-89557868D01*
X154357850Y-89570480D01*
X154335671Y-89580970D01*
X154312572Y-89589235D01*
X154288773Y-89595196D01*
X154264505Y-89598796D01*
X154240001Y-89600000D01*
X153589999Y-89600000D01*
X153565495Y-89598796D01*
X153541227Y-89595196D01*
X153517428Y-89589235D01*
X153494329Y-89580970D01*
X153472150Y-89570480D01*
X153451107Y-89557868D01*
X153431401Y-89543253D01*
X153413223Y-89526777D01*
X153396747Y-89508599D01*
X153382132Y-89488893D01*
X153369520Y-89467850D01*
X153359030Y-89445671D01*
X153350765Y-89422572D01*
X153344804Y-89398773D01*
X153341204Y-89374505D01*
X153340000Y-89350001D01*
X153340000Y-88449999D01*
X153341204Y-88425495D01*
X153344804Y-88401227D01*
X153350765Y-88377428D01*
X153359030Y-88354329D01*
X153369520Y-88332150D01*
X153382132Y-88311107D01*
X153396747Y-88291401D01*
X153413223Y-88273223D01*
X153431401Y-88256747D01*
X153451107Y-88242132D01*
X153472150Y-88229520D01*
X153494329Y-88219030D01*
X153517428Y-88210765D01*
X153541227Y-88204804D01*
X153565495Y-88201204D01*
X153589999Y-88200000D01*
X154240001Y-88200000D01*
X154264505Y-88201204D01*
G37*
G36*
X156314505Y-88201204D02*
G01*
X156338773Y-88204804D01*
X156362572Y-88210765D01*
X156385671Y-88219030D01*
X156407850Y-88229520D01*
X156428893Y-88242132D01*
X156448599Y-88256747D01*
X156466777Y-88273223D01*
X156483253Y-88291401D01*
X156497868Y-88311107D01*
X156510480Y-88332150D01*
X156520970Y-88354329D01*
X156529235Y-88377428D01*
X156535196Y-88401227D01*
X156538796Y-88425495D01*
X156540000Y-88449999D01*
X156540000Y-89350001D01*
X156538796Y-89374505D01*
X156535196Y-89398773D01*
X156529235Y-89422572D01*
X156520970Y-89445671D01*
X156510480Y-89467850D01*
X156497868Y-89488893D01*
X156483253Y-89508599D01*
X156466777Y-89526777D01*
X156448599Y-89543253D01*
X156428893Y-89557868D01*
X156407850Y-89570480D01*
X156385671Y-89580970D01*
X156362572Y-89589235D01*
X156338773Y-89595196D01*
X156314505Y-89598796D01*
X156290001Y-89600000D01*
X155639999Y-89600000D01*
X155615495Y-89598796D01*
X155591227Y-89595196D01*
X155567428Y-89589235D01*
X155544329Y-89580970D01*
X155522150Y-89570480D01*
X155501107Y-89557868D01*
X155481401Y-89543253D01*
X155463223Y-89526777D01*
X155446747Y-89508599D01*
X155432132Y-89488893D01*
X155419520Y-89467850D01*
X155409030Y-89445671D01*
X155400765Y-89422572D01*
X155394804Y-89398773D01*
X155391204Y-89374505D01*
X155390000Y-89350001D01*
X155390000Y-88449999D01*
X155391204Y-88425495D01*
X155394804Y-88401227D01*
X155400765Y-88377428D01*
X155409030Y-88354329D01*
X155419520Y-88332150D01*
X155432132Y-88311107D01*
X155446747Y-88291401D01*
X155463223Y-88273223D01*
X155481401Y-88256747D01*
X155501107Y-88242132D01*
X155522150Y-88229520D01*
X155544329Y-88219030D01*
X155567428Y-88210765D01*
X155591227Y-88204804D01*
X155615495Y-88201204D01*
X155639999Y-88200000D01*
X156290001Y-88200000D01*
X156314505Y-88201204D01*
G37*
D16*
X175236000Y-113792000D03*
X172236000Y-112842000D03*
X172236000Y-114742000D03*
X129564000Y-113792000D03*
X132564000Y-114742000D03*
X132564000Y-112842000D03*
X162584000Y-102870000D03*
X165584000Y-103820000D03*
X165584000Y-101920000D03*
X142216000Y-112522000D03*
X139216000Y-111572000D03*
X139216000Y-113472000D03*
D17*
X149860000Y-88924000D03*
X148910000Y-91924000D03*
X150810000Y-91924000D03*
D10*
G36*
X167606505Y-96971204D02*
G01*
X167630773Y-96974804D01*
X167654572Y-96980765D01*
X167677671Y-96989030D01*
X167699850Y-96999520D01*
X167720893Y-97012132D01*
X167740599Y-97026747D01*
X167758777Y-97043223D01*
X167775253Y-97061401D01*
X167789868Y-97081107D01*
X167802480Y-97102150D01*
X167812970Y-97124329D01*
X167821235Y-97147428D01*
X167827196Y-97171227D01*
X167830796Y-97195495D01*
X167832000Y-97219999D01*
X167832000Y-97870001D01*
X167830796Y-97894505D01*
X167827196Y-97918773D01*
X167821235Y-97942572D01*
X167812970Y-97965671D01*
X167802480Y-97987850D01*
X167789868Y-98008893D01*
X167775253Y-98028599D01*
X167758777Y-98046777D01*
X167740599Y-98063253D01*
X167720893Y-98077868D01*
X167699850Y-98090480D01*
X167677671Y-98100970D01*
X167654572Y-98109235D01*
X167630773Y-98115196D01*
X167606505Y-98118796D01*
X167582001Y-98120000D01*
X166681999Y-98120000D01*
X166657495Y-98118796D01*
X166633227Y-98115196D01*
X166609428Y-98109235D01*
X166586329Y-98100970D01*
X166564150Y-98090480D01*
X166543107Y-98077868D01*
X166523401Y-98063253D01*
X166505223Y-98046777D01*
X166488747Y-98028599D01*
X166474132Y-98008893D01*
X166461520Y-97987850D01*
X166451030Y-97965671D01*
X166442765Y-97942572D01*
X166436804Y-97918773D01*
X166433204Y-97894505D01*
X166432000Y-97870001D01*
X166432000Y-97219999D01*
X166433204Y-97195495D01*
X166436804Y-97171227D01*
X166442765Y-97147428D01*
X166451030Y-97124329D01*
X166461520Y-97102150D01*
X166474132Y-97081107D01*
X166488747Y-97061401D01*
X166505223Y-97043223D01*
X166523401Y-97026747D01*
X166543107Y-97012132D01*
X166564150Y-96999520D01*
X166586329Y-96989030D01*
X166609428Y-96980765D01*
X166633227Y-96974804D01*
X166657495Y-96971204D01*
X166681999Y-96970000D01*
X167582001Y-96970000D01*
X167606505Y-96971204D01*
G37*
G36*
X167606505Y-94921204D02*
G01*
X167630773Y-94924804D01*
X167654572Y-94930765D01*
X167677671Y-94939030D01*
X167699850Y-94949520D01*
X167720893Y-94962132D01*
X167740599Y-94976747D01*
X167758777Y-94993223D01*
X167775253Y-95011401D01*
X167789868Y-95031107D01*
X167802480Y-95052150D01*
X167812970Y-95074329D01*
X167821235Y-95097428D01*
X167827196Y-95121227D01*
X167830796Y-95145495D01*
X167832000Y-95169999D01*
X167832000Y-95820001D01*
X167830796Y-95844505D01*
X167827196Y-95868773D01*
X167821235Y-95892572D01*
X167812970Y-95915671D01*
X167802480Y-95937850D01*
X167789868Y-95958893D01*
X167775253Y-95978599D01*
X167758777Y-95996777D01*
X167740599Y-96013253D01*
X167720893Y-96027868D01*
X167699850Y-96040480D01*
X167677671Y-96050970D01*
X167654572Y-96059235D01*
X167630773Y-96065196D01*
X167606505Y-96068796D01*
X167582001Y-96070000D01*
X166681999Y-96070000D01*
X166657495Y-96068796D01*
X166633227Y-96065196D01*
X166609428Y-96059235D01*
X166586329Y-96050970D01*
X166564150Y-96040480D01*
X166543107Y-96027868D01*
X166523401Y-96013253D01*
X166505223Y-95996777D01*
X166488747Y-95978599D01*
X166474132Y-95958893D01*
X166461520Y-95937850D01*
X166451030Y-95915671D01*
X166442765Y-95892572D01*
X166436804Y-95868773D01*
X166433204Y-95844505D01*
X166432000Y-95820001D01*
X166432000Y-95169999D01*
X166433204Y-95145495D01*
X166436804Y-95121227D01*
X166442765Y-95097428D01*
X166451030Y-95074329D01*
X166461520Y-95052150D01*
X166474132Y-95031107D01*
X166488747Y-95011401D01*
X166505223Y-94993223D01*
X166523401Y-94976747D01*
X166543107Y-94962132D01*
X166564150Y-94949520D01*
X166586329Y-94939030D01*
X166609428Y-94930765D01*
X166633227Y-94924804D01*
X166657495Y-94921204D01*
X166681999Y-94920000D01*
X167582001Y-94920000D01*
X167606505Y-94921204D01*
G37*
M02*
