G04 #@! TF.GenerationSoftware,KiCad,Pcbnew,5.1.5+dfsg1-2build2*
G04 #@! TF.CreationDate,2020-06-21T16:19:52-07:00*
G04 #@! TF.ProjectId,sram-cell,7372616d-2d63-4656-9c6c-2e6b69636164,rev?*
G04 #@! TF.SameCoordinates,Original*
G04 #@! TF.FileFunction,Soldermask,Bot*
G04 #@! TF.FilePolarity,Negative*
%FSLAX46Y46*%
G04 Gerber Fmt 4.6, Leading zero omitted, Abs format (unit mm)*
G04 Created by KiCad (PCBNEW 5.1.5+dfsg1-2build2) date 2020-06-21 16:19:52*
%MOMM*%
%LPD*%
G04 APERTURE LIST*
%ADD10C,0.100000*%
G04 APERTURE END LIST*
D10*
G36*
X164165862Y-124568898D02*
G01*
X164178114Y-124569500D01*
X165391000Y-124569500D01*
X165391000Y-126571500D01*
X164178114Y-126571500D01*
X164165862Y-126572102D01*
X164140000Y-126574649D01*
X164114138Y-126572102D01*
X164101886Y-126571500D01*
X164028594Y-126571500D01*
X164011836Y-126562543D01*
X164000299Y-126558415D01*
X163915307Y-126532632D01*
X163889664Y-126524854D01*
X163776575Y-126464406D01*
X163677447Y-126383054D01*
X163596094Y-126283924D01*
X163535646Y-126170835D01*
X163525960Y-126138903D01*
X163498420Y-126048117D01*
X163489000Y-125952472D01*
X163489000Y-125188527D01*
X163498420Y-125092882D01*
X163535645Y-124970168D01*
X163563288Y-124918452D01*
X163596095Y-124857075D01*
X163677447Y-124757946D01*
X163776576Y-124676594D01*
X163889666Y-124616146D01*
X163899697Y-124613103D01*
X164000290Y-124582588D01*
X164022925Y-124573212D01*
X164028481Y-124569500D01*
X164101886Y-124569500D01*
X164114138Y-124568898D01*
X164140000Y-124566351D01*
X164165862Y-124568898D01*
G37*
G36*
X171165862Y-124568898D02*
G01*
X171178114Y-124569500D01*
X171251406Y-124569500D01*
X171268164Y-124578457D01*
X171279707Y-124582587D01*
X171380303Y-124613103D01*
X171390334Y-124616146D01*
X171503424Y-124676594D01*
X171602554Y-124757947D01*
X171683906Y-124857075D01*
X171744354Y-124970164D01*
X171747326Y-124979962D01*
X171781580Y-125092882D01*
X171791000Y-125188527D01*
X171791000Y-125952473D01*
X171781580Y-126048118D01*
X171767328Y-126095101D01*
X171744354Y-126170836D01*
X171683906Y-126283925D01*
X171602554Y-126383054D01*
X171503425Y-126464406D01*
X171390336Y-126524854D01*
X171364693Y-126532632D01*
X171279708Y-126558413D01*
X171257075Y-126567787D01*
X171251518Y-126571500D01*
X171178114Y-126571500D01*
X171165862Y-126572102D01*
X171140000Y-126574649D01*
X171114138Y-126572102D01*
X171101886Y-126571500D01*
X169889000Y-126571500D01*
X169889000Y-124569500D01*
X171101886Y-124569500D01*
X171114138Y-124568898D01*
X171140000Y-124566351D01*
X171165862Y-124568898D01*
G37*
G36*
X167441000Y-126571500D02*
G01*
X165839000Y-126571500D01*
X165839000Y-124569500D01*
X167441000Y-124569500D01*
X167441000Y-126571500D01*
G37*
G36*
X169441000Y-126571500D02*
G01*
X167839000Y-126571500D01*
X167839000Y-124569500D01*
X169441000Y-124569500D01*
X169441000Y-126571500D01*
G37*
G36*
X175848674Y-124863465D02*
G01*
X175886367Y-124874899D01*
X175921103Y-124893466D01*
X175951548Y-124918452D01*
X175976534Y-124948897D01*
X175995101Y-124983633D01*
X176006535Y-125021326D01*
X176011000Y-125066661D01*
X176011000Y-125903339D01*
X176006535Y-125948674D01*
X175995101Y-125986367D01*
X175976534Y-126021103D01*
X175951548Y-126051548D01*
X175921103Y-126076534D01*
X175886367Y-126095101D01*
X175848674Y-126106535D01*
X175803339Y-126111000D01*
X174716661Y-126111000D01*
X174671326Y-126106535D01*
X174633633Y-126095101D01*
X174598897Y-126076534D01*
X174568452Y-126051548D01*
X174543466Y-126021103D01*
X174524899Y-125986367D01*
X174513465Y-125948674D01*
X174509000Y-125903339D01*
X174509000Y-125066661D01*
X174513465Y-125021326D01*
X174524899Y-124983633D01*
X174543466Y-124948897D01*
X174568452Y-124918452D01*
X174598897Y-124893466D01*
X174633633Y-124874899D01*
X174671326Y-124863465D01*
X174716661Y-124859000D01*
X175803339Y-124859000D01*
X175848674Y-124863465D01*
G37*
G36*
X148269000Y-125021000D02*
G01*
X146167000Y-125021000D01*
X146167000Y-123419000D01*
X148269000Y-123419000D01*
X148269000Y-125021000D01*
G37*
G36*
X134733512Y-123055927D02*
G01*
X134882812Y-123085624D01*
X135046784Y-123153544D01*
X135194354Y-123252147D01*
X135319853Y-123377646D01*
X135418456Y-123525216D01*
X135486376Y-123689188D01*
X135506195Y-123788827D01*
X135521000Y-123863258D01*
X135521000Y-124040742D01*
X135516970Y-124061000D01*
X135486376Y-124214812D01*
X135418456Y-124378784D01*
X135319853Y-124526354D01*
X135194354Y-124651853D01*
X135046784Y-124750456D01*
X134882812Y-124818376D01*
X134733512Y-124848073D01*
X134708742Y-124853000D01*
X134531258Y-124853000D01*
X134506488Y-124848073D01*
X134357188Y-124818376D01*
X134193216Y-124750456D01*
X134045646Y-124651853D01*
X133920147Y-124526354D01*
X133821544Y-124378784D01*
X133753624Y-124214812D01*
X133723030Y-124061000D01*
X133719000Y-124040742D01*
X133719000Y-123863258D01*
X133733805Y-123788827D01*
X133753624Y-123689188D01*
X133821544Y-123525216D01*
X133920147Y-123377646D01*
X134045646Y-123252147D01*
X134193216Y-123153544D01*
X134357188Y-123085624D01*
X134506488Y-123055927D01*
X134531258Y-123051000D01*
X134708742Y-123051000D01*
X134733512Y-123055927D01*
G37*
G36*
X137273512Y-123055927D02*
G01*
X137422812Y-123085624D01*
X137586784Y-123153544D01*
X137734354Y-123252147D01*
X137859853Y-123377646D01*
X137958456Y-123525216D01*
X138026376Y-123689188D01*
X138046195Y-123788827D01*
X138061000Y-123863258D01*
X138061000Y-124040742D01*
X138056970Y-124061000D01*
X138026376Y-124214812D01*
X137958456Y-124378784D01*
X137859853Y-124526354D01*
X137734354Y-124651853D01*
X137586784Y-124750456D01*
X137422812Y-124818376D01*
X137273512Y-124848073D01*
X137248742Y-124853000D01*
X137071258Y-124853000D01*
X137046488Y-124848073D01*
X136897188Y-124818376D01*
X136733216Y-124750456D01*
X136585646Y-124651853D01*
X136460147Y-124526354D01*
X136361544Y-124378784D01*
X136293624Y-124214812D01*
X136263030Y-124061000D01*
X136259000Y-124040742D01*
X136259000Y-123863258D01*
X136273805Y-123788827D01*
X136293624Y-123689188D01*
X136361544Y-123525216D01*
X136460147Y-123377646D01*
X136585646Y-123252147D01*
X136733216Y-123153544D01*
X136897188Y-123085624D01*
X137046488Y-123055927D01*
X137071258Y-123051000D01*
X137248742Y-123051000D01*
X137273512Y-123055927D01*
G37*
G36*
X132193512Y-123055927D02*
G01*
X132342812Y-123085624D01*
X132506784Y-123153544D01*
X132654354Y-123252147D01*
X132779853Y-123377646D01*
X132878456Y-123525216D01*
X132946376Y-123689188D01*
X132966195Y-123788827D01*
X132981000Y-123863258D01*
X132981000Y-124040742D01*
X132976970Y-124061000D01*
X132946376Y-124214812D01*
X132878456Y-124378784D01*
X132779853Y-124526354D01*
X132654354Y-124651853D01*
X132506784Y-124750456D01*
X132342812Y-124818376D01*
X132193512Y-124848073D01*
X132168742Y-124853000D01*
X131991258Y-124853000D01*
X131966488Y-124848073D01*
X131817188Y-124818376D01*
X131653216Y-124750456D01*
X131505646Y-124651853D01*
X131380147Y-124526354D01*
X131281544Y-124378784D01*
X131213624Y-124214812D01*
X131183030Y-124061000D01*
X131179000Y-124040742D01*
X131179000Y-123863258D01*
X131193805Y-123788827D01*
X131213624Y-123689188D01*
X131281544Y-123525216D01*
X131380147Y-123377646D01*
X131505646Y-123252147D01*
X131653216Y-123153544D01*
X131817188Y-123085624D01*
X131966488Y-123055927D01*
X131991258Y-123051000D01*
X132168742Y-123051000D01*
X132193512Y-123055927D01*
G37*
G36*
X142186674Y-123205465D02*
G01*
X142224367Y-123216899D01*
X142259103Y-123235466D01*
X142289548Y-123260452D01*
X142314534Y-123290897D01*
X142333101Y-123325633D01*
X142344535Y-123363326D01*
X142349000Y-123408661D01*
X142349000Y-124495339D01*
X142344535Y-124540674D01*
X142333101Y-124578367D01*
X142314534Y-124613103D01*
X142289548Y-124643548D01*
X142259103Y-124668534D01*
X142224367Y-124687101D01*
X142186674Y-124698535D01*
X142141339Y-124703000D01*
X141304661Y-124703000D01*
X141259326Y-124698535D01*
X141221633Y-124687101D01*
X141186897Y-124668534D01*
X141156452Y-124643548D01*
X141131466Y-124613103D01*
X141112899Y-124578367D01*
X141101465Y-124540674D01*
X141097000Y-124495339D01*
X141097000Y-123408661D01*
X141101465Y-123363326D01*
X141112899Y-123325633D01*
X141131466Y-123290897D01*
X141156452Y-123260452D01*
X141186897Y-123235466D01*
X141221633Y-123216899D01*
X141259326Y-123205465D01*
X141304661Y-123201000D01*
X142141339Y-123201000D01*
X142186674Y-123205465D01*
G37*
G36*
X144236674Y-123205465D02*
G01*
X144274367Y-123216899D01*
X144309103Y-123235466D01*
X144339548Y-123260452D01*
X144364534Y-123290897D01*
X144383101Y-123325633D01*
X144394535Y-123363326D01*
X144399000Y-123408661D01*
X144399000Y-124495339D01*
X144394535Y-124540674D01*
X144383101Y-124578367D01*
X144364534Y-124613103D01*
X144339548Y-124643548D01*
X144309103Y-124668534D01*
X144274367Y-124687101D01*
X144236674Y-124698535D01*
X144191339Y-124703000D01*
X143354661Y-124703000D01*
X143309326Y-124698535D01*
X143271633Y-124687101D01*
X143236897Y-124668534D01*
X143206452Y-124643548D01*
X143181466Y-124613103D01*
X143162899Y-124578367D01*
X143151465Y-124540674D01*
X143147000Y-124495339D01*
X143147000Y-123408661D01*
X143151465Y-123363326D01*
X143162899Y-123325633D01*
X143181466Y-123290897D01*
X143206452Y-123260452D01*
X143236897Y-123235466D01*
X143271633Y-123216899D01*
X143309326Y-123205465D01*
X143354661Y-123201000D01*
X144191339Y-123201000D01*
X144236674Y-123205465D01*
G37*
G36*
X175848674Y-122813465D02*
G01*
X175886367Y-122824899D01*
X175921103Y-122843466D01*
X175951548Y-122868452D01*
X175976534Y-122898897D01*
X175995101Y-122933633D01*
X176006535Y-122971326D01*
X176011000Y-123016661D01*
X176011000Y-123853339D01*
X176006535Y-123898674D01*
X175995101Y-123936367D01*
X175976534Y-123971103D01*
X175951548Y-124001548D01*
X175921103Y-124026534D01*
X175886367Y-124045101D01*
X175848674Y-124056535D01*
X175803339Y-124061000D01*
X174716661Y-124061000D01*
X174671326Y-124056535D01*
X174633633Y-124045101D01*
X174598897Y-124026534D01*
X174568452Y-124001548D01*
X174543466Y-123971103D01*
X174524899Y-123936367D01*
X174513465Y-123898674D01*
X174509000Y-123853339D01*
X174509000Y-123016661D01*
X174513465Y-122971326D01*
X174524899Y-122933633D01*
X174543466Y-122898897D01*
X174568452Y-122868452D01*
X174598897Y-122843466D01*
X174633633Y-122824899D01*
X174671326Y-122813465D01*
X174716661Y-122809000D01*
X175803339Y-122809000D01*
X175848674Y-122813465D01*
G37*
G36*
X154569000Y-123871000D02*
G01*
X152467000Y-123871000D01*
X152467000Y-119969000D01*
X154569000Y-119969000D01*
X154569000Y-123871000D01*
G37*
G36*
X165366348Y-122124320D02*
G01*
X165366350Y-122124321D01*
X165366351Y-122124321D01*
X165507574Y-122182817D01*
X165507577Y-122182819D01*
X165634669Y-122267739D01*
X165742761Y-122375831D01*
X165799375Y-122460560D01*
X165827683Y-122502926D01*
X165848517Y-122553225D01*
X165860068Y-122574836D01*
X165875614Y-122593778D01*
X165894556Y-122609323D01*
X165916166Y-122620874D01*
X165939615Y-122627987D01*
X165964001Y-122630389D01*
X165988387Y-122627987D01*
X166011836Y-122620874D01*
X166033447Y-122609323D01*
X166052389Y-122593777D01*
X166067934Y-122574835D01*
X166079485Y-122553225D01*
X166086598Y-122529776D01*
X166089000Y-122505390D01*
X166089000Y-122144500D01*
X169191000Y-122144500D01*
X169191000Y-122505390D01*
X169193402Y-122529776D01*
X169200515Y-122553225D01*
X169212066Y-122574836D01*
X169227611Y-122593778D01*
X169246553Y-122609323D01*
X169268164Y-122620874D01*
X169291613Y-122627987D01*
X169315999Y-122630389D01*
X169340385Y-122627987D01*
X169363834Y-122620874D01*
X169385445Y-122609323D01*
X169404387Y-122593778D01*
X169419932Y-122574836D01*
X169431483Y-122553225D01*
X169452317Y-122502926D01*
X169480625Y-122460560D01*
X169537239Y-122375831D01*
X169645331Y-122267739D01*
X169772423Y-122182819D01*
X169772426Y-122182817D01*
X169913649Y-122124321D01*
X169913650Y-122124321D01*
X169913652Y-122124320D01*
X170063569Y-122094500D01*
X170216431Y-122094500D01*
X170366348Y-122124320D01*
X170366350Y-122124321D01*
X170366351Y-122124321D01*
X170507574Y-122182817D01*
X170507577Y-122182819D01*
X170634669Y-122267739D01*
X170742761Y-122375831D01*
X170827681Y-122502923D01*
X170827683Y-122502926D01*
X170880479Y-122630389D01*
X170886180Y-122644152D01*
X170916000Y-122794069D01*
X170916000Y-122946931D01*
X170888413Y-123085624D01*
X170886179Y-123096851D01*
X170827683Y-123238074D01*
X170827682Y-123238075D01*
X170827681Y-123238077D01*
X170742761Y-123365169D01*
X170634669Y-123473261D01*
X170507577Y-123558181D01*
X170507574Y-123558183D01*
X170366351Y-123616679D01*
X170366350Y-123616679D01*
X170366348Y-123616680D01*
X170216431Y-123646500D01*
X170063569Y-123646500D01*
X169913652Y-123616680D01*
X169913650Y-123616679D01*
X169913649Y-123616679D01*
X169772426Y-123558183D01*
X169772423Y-123558181D01*
X169645331Y-123473261D01*
X169537239Y-123365169D01*
X169461721Y-123252148D01*
X169452317Y-123238074D01*
X169431481Y-123187772D01*
X169419932Y-123166164D01*
X169404386Y-123147222D01*
X169385444Y-123131677D01*
X169363834Y-123120126D01*
X169340385Y-123113013D01*
X169315999Y-123110611D01*
X169291613Y-123113013D01*
X169268164Y-123120126D01*
X169246553Y-123131677D01*
X169227611Y-123147223D01*
X169212066Y-123166165D01*
X169200515Y-123187775D01*
X169193402Y-123211224D01*
X169191000Y-123235610D01*
X169191000Y-123596500D01*
X166089000Y-123596500D01*
X166089000Y-123235610D01*
X166086598Y-123211224D01*
X166079485Y-123187775D01*
X166067934Y-123166164D01*
X166052389Y-123147222D01*
X166033447Y-123131677D01*
X166011836Y-123120126D01*
X165988387Y-123113013D01*
X165964001Y-123110611D01*
X165939615Y-123113013D01*
X165916166Y-123120126D01*
X165894555Y-123131677D01*
X165875613Y-123147222D01*
X165860068Y-123166164D01*
X165848519Y-123187772D01*
X165827683Y-123238074D01*
X165818279Y-123252148D01*
X165742761Y-123365169D01*
X165634669Y-123473261D01*
X165507577Y-123558181D01*
X165507574Y-123558183D01*
X165366351Y-123616679D01*
X165366350Y-123616679D01*
X165366348Y-123616680D01*
X165216431Y-123646500D01*
X165063569Y-123646500D01*
X164913652Y-123616680D01*
X164913650Y-123616679D01*
X164913649Y-123616679D01*
X164772426Y-123558183D01*
X164772423Y-123558181D01*
X164645331Y-123473261D01*
X164537239Y-123365169D01*
X164452319Y-123238077D01*
X164452318Y-123238075D01*
X164452317Y-123238074D01*
X164393821Y-123096851D01*
X164391588Y-123085624D01*
X164364000Y-122946931D01*
X164364000Y-122794069D01*
X164393820Y-122644152D01*
X164399521Y-122630389D01*
X164452317Y-122502926D01*
X164452319Y-122502923D01*
X164537239Y-122375831D01*
X164645331Y-122267739D01*
X164772423Y-122182819D01*
X164772426Y-122182817D01*
X164913649Y-122124321D01*
X164913650Y-122124321D01*
X164913652Y-122124320D01*
X165063569Y-122094500D01*
X165216431Y-122094500D01*
X165366348Y-122124320D01*
G37*
G36*
X148269000Y-122721000D02*
G01*
X146167000Y-122721000D01*
X146167000Y-121119000D01*
X148269000Y-121119000D01*
X148269000Y-122721000D01*
G37*
G36*
X176000429Y-116834020D02*
G01*
X176043539Y-116847097D01*
X176083268Y-116868333D01*
X176118090Y-116896910D01*
X176146667Y-116931732D01*
X176167903Y-116971461D01*
X176180980Y-117014571D01*
X176186000Y-117065540D01*
X176186000Y-118119460D01*
X176180980Y-118170429D01*
X176167903Y-118213539D01*
X176146667Y-118253268D01*
X176118090Y-118288090D01*
X176083266Y-118316668D01*
X176041903Y-118338777D01*
X176021529Y-118352390D01*
X176004202Y-118369717D01*
X175990588Y-118390091D01*
X175981211Y-118412730D01*
X175976430Y-118436764D01*
X175976430Y-118461268D01*
X175981210Y-118485301D01*
X175990588Y-118507940D01*
X176004201Y-118528314D01*
X176021528Y-118545641D01*
X176041903Y-118559255D01*
X176090902Y-118585446D01*
X176235712Y-118704288D01*
X176354554Y-118849097D01*
X176425057Y-118981000D01*
X176442860Y-119014307D01*
X176497239Y-119193571D01*
X176497240Y-119193575D01*
X176515601Y-119380000D01*
X176497240Y-119566425D01*
X176497239Y-119566428D01*
X176497239Y-119566429D01*
X176442860Y-119745693D01*
X176442858Y-119745696D01*
X176442858Y-119745697D01*
X176354554Y-119910903D01*
X176235712Y-120055712D01*
X176090902Y-120174554D01*
X176041903Y-120200745D01*
X176021528Y-120214359D01*
X176004201Y-120231686D01*
X175990588Y-120252060D01*
X175981210Y-120274699D01*
X175976430Y-120298732D01*
X175976430Y-120323236D01*
X175981211Y-120347270D01*
X175990588Y-120369908D01*
X176004202Y-120390283D01*
X176021529Y-120407610D01*
X176041903Y-120421223D01*
X176083266Y-120443332D01*
X176118090Y-120471910D01*
X176146667Y-120506732D01*
X176167903Y-120546461D01*
X176180980Y-120589571D01*
X176186000Y-120640540D01*
X176186000Y-121694460D01*
X176180980Y-121745429D01*
X176167903Y-121788539D01*
X176146667Y-121828268D01*
X176118090Y-121863090D01*
X176083268Y-121891667D01*
X176043539Y-121912903D01*
X176000429Y-121925980D01*
X175949460Y-121931000D01*
X174570540Y-121931000D01*
X174519571Y-121925980D01*
X174476461Y-121912903D01*
X174436732Y-121891667D01*
X174401910Y-121863090D01*
X174373333Y-121828268D01*
X174352097Y-121788539D01*
X174339020Y-121745429D01*
X174334000Y-121694460D01*
X174334000Y-120640540D01*
X174339020Y-120589571D01*
X174352097Y-120546461D01*
X174373333Y-120506732D01*
X174401910Y-120471910D01*
X174436734Y-120443332D01*
X174478097Y-120421223D01*
X174498471Y-120407610D01*
X174515798Y-120390283D01*
X174529412Y-120369909D01*
X174538789Y-120347270D01*
X174543570Y-120323236D01*
X174543570Y-120298732D01*
X174538790Y-120274699D01*
X174529412Y-120252060D01*
X174515799Y-120231686D01*
X174498472Y-120214359D01*
X174478097Y-120200745D01*
X174429098Y-120174554D01*
X174284288Y-120055712D01*
X174165446Y-119910903D01*
X174077142Y-119745697D01*
X174077142Y-119745696D01*
X174077140Y-119745693D01*
X174022761Y-119566429D01*
X174022761Y-119566428D01*
X174022760Y-119566425D01*
X174004399Y-119380000D01*
X174022760Y-119193575D01*
X174022761Y-119193571D01*
X174077140Y-119014307D01*
X174094943Y-118981000D01*
X174165446Y-118849097D01*
X174284288Y-118704288D01*
X174429098Y-118585446D01*
X174478097Y-118559255D01*
X174498472Y-118545641D01*
X174515799Y-118528314D01*
X174529412Y-118507940D01*
X174538790Y-118485301D01*
X174543570Y-118461268D01*
X174543570Y-118436764D01*
X174538789Y-118412730D01*
X174529412Y-118390092D01*
X174515798Y-118369717D01*
X174498471Y-118352390D01*
X174478097Y-118338777D01*
X174436734Y-118316668D01*
X174401910Y-118288090D01*
X174373333Y-118253268D01*
X174352097Y-118213539D01*
X174339020Y-118170429D01*
X174334000Y-118119460D01*
X174334000Y-117065540D01*
X174339020Y-117014571D01*
X174352097Y-116971461D01*
X174373333Y-116931732D01*
X174401910Y-116896910D01*
X174436732Y-116868333D01*
X174476461Y-116847097D01*
X174519571Y-116834020D01*
X174570540Y-116829000D01*
X175949460Y-116829000D01*
X176000429Y-116834020D01*
G37*
G36*
X130280429Y-116834020D02*
G01*
X130323539Y-116847097D01*
X130363268Y-116868333D01*
X130398090Y-116896910D01*
X130426667Y-116931732D01*
X130447903Y-116971461D01*
X130460980Y-117014571D01*
X130466000Y-117065540D01*
X130466000Y-118119460D01*
X130460980Y-118170429D01*
X130447903Y-118213539D01*
X130426667Y-118253268D01*
X130398090Y-118288090D01*
X130363266Y-118316668D01*
X130321903Y-118338777D01*
X130301529Y-118352390D01*
X130284202Y-118369717D01*
X130270588Y-118390091D01*
X130261211Y-118412730D01*
X130256430Y-118436764D01*
X130256430Y-118461268D01*
X130261210Y-118485301D01*
X130270588Y-118507940D01*
X130284201Y-118528314D01*
X130301528Y-118545641D01*
X130321903Y-118559255D01*
X130370902Y-118585446D01*
X130515712Y-118704288D01*
X130634554Y-118849097D01*
X130705057Y-118981000D01*
X130722860Y-119014307D01*
X130777239Y-119193571D01*
X130777240Y-119193575D01*
X130795601Y-119380000D01*
X130777240Y-119566425D01*
X130777239Y-119566428D01*
X130777239Y-119566429D01*
X130722860Y-119745693D01*
X130722858Y-119745696D01*
X130722858Y-119745697D01*
X130634554Y-119910903D01*
X130515712Y-120055712D01*
X130370902Y-120174554D01*
X130321903Y-120200745D01*
X130301528Y-120214359D01*
X130284201Y-120231686D01*
X130270588Y-120252060D01*
X130261210Y-120274699D01*
X130256430Y-120298732D01*
X130256430Y-120323236D01*
X130261211Y-120347270D01*
X130270588Y-120369908D01*
X130284202Y-120390283D01*
X130301529Y-120407610D01*
X130321903Y-120421223D01*
X130363266Y-120443332D01*
X130398090Y-120471910D01*
X130426667Y-120506732D01*
X130447903Y-120546461D01*
X130460980Y-120589571D01*
X130466000Y-120640540D01*
X130466000Y-121694460D01*
X130460980Y-121745429D01*
X130447903Y-121788539D01*
X130426667Y-121828268D01*
X130398090Y-121863090D01*
X130363268Y-121891667D01*
X130323539Y-121912903D01*
X130280429Y-121925980D01*
X130229460Y-121931000D01*
X128850540Y-121931000D01*
X128799571Y-121925980D01*
X128756461Y-121912903D01*
X128716732Y-121891667D01*
X128681910Y-121863090D01*
X128653333Y-121828268D01*
X128632097Y-121788539D01*
X128619020Y-121745429D01*
X128614000Y-121694460D01*
X128614000Y-120640540D01*
X128619020Y-120589571D01*
X128632097Y-120546461D01*
X128653333Y-120506732D01*
X128681910Y-120471910D01*
X128716734Y-120443332D01*
X128758097Y-120421223D01*
X128778471Y-120407610D01*
X128795798Y-120390283D01*
X128809412Y-120369909D01*
X128818789Y-120347270D01*
X128823570Y-120323236D01*
X128823570Y-120298732D01*
X128818790Y-120274699D01*
X128809412Y-120252060D01*
X128795799Y-120231686D01*
X128778472Y-120214359D01*
X128758097Y-120200745D01*
X128709098Y-120174554D01*
X128564288Y-120055712D01*
X128445446Y-119910903D01*
X128357142Y-119745697D01*
X128357142Y-119745696D01*
X128357140Y-119745693D01*
X128302761Y-119566429D01*
X128302761Y-119566428D01*
X128302760Y-119566425D01*
X128284399Y-119380000D01*
X128302760Y-119193575D01*
X128302761Y-119193571D01*
X128357140Y-119014307D01*
X128374943Y-118981000D01*
X128445446Y-118849097D01*
X128564288Y-118704288D01*
X128709098Y-118585446D01*
X128758097Y-118559255D01*
X128778472Y-118545641D01*
X128795799Y-118528314D01*
X128809412Y-118507940D01*
X128818790Y-118485301D01*
X128823570Y-118461268D01*
X128823570Y-118436764D01*
X128818789Y-118412730D01*
X128809412Y-118390092D01*
X128795798Y-118369717D01*
X128778471Y-118352390D01*
X128758097Y-118338777D01*
X128716734Y-118316668D01*
X128681910Y-118288090D01*
X128653333Y-118253268D01*
X128632097Y-118213539D01*
X128619020Y-118170429D01*
X128614000Y-118119460D01*
X128614000Y-117065540D01*
X128619020Y-117014571D01*
X128632097Y-116971461D01*
X128653333Y-116931732D01*
X128681910Y-116896910D01*
X128716732Y-116868333D01*
X128756461Y-116847097D01*
X128799571Y-116834020D01*
X128850540Y-116829000D01*
X130229460Y-116829000D01*
X130280429Y-116834020D01*
G37*
G36*
X137527999Y-119595737D02*
G01*
X137537608Y-119598652D01*
X137546472Y-119603390D01*
X137554237Y-119609763D01*
X137564448Y-119622206D01*
X137571378Y-119632575D01*
X137588705Y-119649902D01*
X137609080Y-119663515D01*
X137631720Y-119672891D01*
X137655753Y-119677671D01*
X137680257Y-119677670D01*
X137704290Y-119672888D01*
X137726929Y-119663510D01*
X137747302Y-119649895D01*
X137764629Y-119632568D01*
X137771558Y-119622198D01*
X137781763Y-119609763D01*
X137789528Y-119603390D01*
X137798392Y-119598652D01*
X137808001Y-119595737D01*
X137824140Y-119594148D01*
X138311861Y-119594148D01*
X138330199Y-119595954D01*
X138342450Y-119596556D01*
X138360869Y-119596556D01*
X138383149Y-119598750D01*
X138467233Y-119615476D01*
X138488660Y-119621976D01*
X138567858Y-119654780D01*
X138573303Y-119657691D01*
X138573309Y-119657693D01*
X138582169Y-119662429D01*
X138582173Y-119662432D01*
X138587614Y-119665340D01*
X138658899Y-119712971D01*
X138676204Y-119727172D01*
X138736828Y-119787796D01*
X138751029Y-119805101D01*
X138798660Y-119876386D01*
X138801568Y-119881827D01*
X138801571Y-119881831D01*
X138806307Y-119890691D01*
X138806309Y-119890697D01*
X138809220Y-119896142D01*
X138842024Y-119975340D01*
X138848524Y-119996767D01*
X138865250Y-120080851D01*
X138867444Y-120103131D01*
X138867444Y-120121550D01*
X138868046Y-120133801D01*
X138869852Y-120152139D01*
X138869852Y-120639862D01*
X138868046Y-120658199D01*
X138867444Y-120670450D01*
X138867444Y-120688869D01*
X138865250Y-120711149D01*
X138848524Y-120795233D01*
X138842024Y-120816660D01*
X138809220Y-120895858D01*
X138806309Y-120901303D01*
X138806307Y-120901309D01*
X138801571Y-120910169D01*
X138801568Y-120910173D01*
X138798660Y-120915614D01*
X138751029Y-120986899D01*
X138736828Y-121004204D01*
X138676204Y-121064828D01*
X138658899Y-121079029D01*
X138587614Y-121126660D01*
X138582173Y-121129568D01*
X138582169Y-121129571D01*
X138573309Y-121134307D01*
X138573303Y-121134309D01*
X138567858Y-121137220D01*
X138488660Y-121170024D01*
X138467233Y-121176524D01*
X138383149Y-121193250D01*
X138360869Y-121195444D01*
X138342450Y-121195444D01*
X138330199Y-121196046D01*
X138311862Y-121197852D01*
X137824140Y-121197852D01*
X137808001Y-121196263D01*
X137798392Y-121193348D01*
X137789528Y-121188610D01*
X137781763Y-121182237D01*
X137771552Y-121169794D01*
X137764622Y-121159425D01*
X137747295Y-121142098D01*
X137726920Y-121128485D01*
X137704280Y-121119109D01*
X137680247Y-121114329D01*
X137655743Y-121114330D01*
X137631710Y-121119112D01*
X137609071Y-121128490D01*
X137588698Y-121142105D01*
X137571371Y-121159432D01*
X137564442Y-121169802D01*
X137554237Y-121182237D01*
X137546472Y-121188610D01*
X137537608Y-121193348D01*
X137527999Y-121196263D01*
X137511860Y-121197852D01*
X137024138Y-121197852D01*
X137005801Y-121196046D01*
X136993550Y-121195444D01*
X136975131Y-121195444D01*
X136952851Y-121193250D01*
X136868767Y-121176524D01*
X136847340Y-121170024D01*
X136768142Y-121137220D01*
X136762697Y-121134309D01*
X136762691Y-121134307D01*
X136753831Y-121129571D01*
X136753827Y-121129568D01*
X136748386Y-121126660D01*
X136677101Y-121079029D01*
X136659796Y-121064828D01*
X136599172Y-121004204D01*
X136584971Y-120986899D01*
X136537340Y-120915614D01*
X136534432Y-120910173D01*
X136534429Y-120910169D01*
X136529693Y-120901309D01*
X136529691Y-120901303D01*
X136526780Y-120895858D01*
X136493976Y-120816660D01*
X136487476Y-120795233D01*
X136470750Y-120711149D01*
X136468556Y-120688869D01*
X136468556Y-120670450D01*
X136467954Y-120658199D01*
X136466148Y-120639862D01*
X136466148Y-120152139D01*
X136467954Y-120133801D01*
X136468556Y-120121550D01*
X136468556Y-120103131D01*
X136470750Y-120080851D01*
X136487476Y-119996767D01*
X136493976Y-119975340D01*
X136526780Y-119896142D01*
X136529691Y-119890697D01*
X136529693Y-119890691D01*
X136534429Y-119881831D01*
X136534432Y-119881827D01*
X136537340Y-119876386D01*
X136584971Y-119805101D01*
X136599172Y-119787796D01*
X136659796Y-119727172D01*
X136677101Y-119712971D01*
X136748386Y-119665340D01*
X136753827Y-119662432D01*
X136753831Y-119662429D01*
X136762691Y-119657693D01*
X136762697Y-119657691D01*
X136768142Y-119654780D01*
X136847340Y-119621976D01*
X136868767Y-119615476D01*
X136952851Y-119598750D01*
X136975131Y-119596556D01*
X136993550Y-119596556D01*
X137005801Y-119595954D01*
X137024139Y-119594148D01*
X137511860Y-119594148D01*
X137527999Y-119595737D01*
G37*
G36*
X133684674Y-119783465D02*
G01*
X133722367Y-119794899D01*
X133757103Y-119813466D01*
X133787548Y-119838452D01*
X133812534Y-119868897D01*
X133831101Y-119903633D01*
X133842535Y-119941326D01*
X133847000Y-119986661D01*
X133847000Y-120823339D01*
X133842535Y-120868674D01*
X133831101Y-120906367D01*
X133812534Y-120941103D01*
X133787548Y-120971548D01*
X133757103Y-120996534D01*
X133722367Y-121015101D01*
X133684674Y-121026535D01*
X133639339Y-121031000D01*
X132552661Y-121031000D01*
X132507326Y-121026535D01*
X132469633Y-121015101D01*
X132434897Y-120996534D01*
X132404452Y-120971548D01*
X132379466Y-120941103D01*
X132360899Y-120906367D01*
X132349465Y-120868674D01*
X132345000Y-120823339D01*
X132345000Y-119986661D01*
X132349465Y-119941326D01*
X132360899Y-119903633D01*
X132379466Y-119868897D01*
X132404452Y-119838452D01*
X132434897Y-119813466D01*
X132469633Y-119794899D01*
X132507326Y-119783465D01*
X132552661Y-119779000D01*
X133639339Y-119779000D01*
X133684674Y-119783465D01*
G37*
G36*
X144236674Y-119141465D02*
G01*
X144274367Y-119152899D01*
X144309103Y-119171466D01*
X144339548Y-119196452D01*
X144364534Y-119226897D01*
X144383101Y-119261633D01*
X144394535Y-119299326D01*
X144399000Y-119344661D01*
X144399000Y-120431339D01*
X144394535Y-120476674D01*
X144383101Y-120514367D01*
X144364534Y-120549103D01*
X144339548Y-120579548D01*
X144309103Y-120604534D01*
X144274367Y-120623101D01*
X144236674Y-120634535D01*
X144191339Y-120639000D01*
X143354661Y-120639000D01*
X143309326Y-120634535D01*
X143271633Y-120623101D01*
X143236897Y-120604534D01*
X143206452Y-120579548D01*
X143181466Y-120549103D01*
X143162899Y-120514367D01*
X143151465Y-120476674D01*
X143147000Y-120431339D01*
X143147000Y-119344661D01*
X143151465Y-119299326D01*
X143162899Y-119261633D01*
X143181466Y-119226897D01*
X143206452Y-119196452D01*
X143236897Y-119171466D01*
X143271633Y-119152899D01*
X143309326Y-119141465D01*
X143354661Y-119137000D01*
X144191339Y-119137000D01*
X144236674Y-119141465D01*
G37*
G36*
X142186674Y-119141465D02*
G01*
X142224367Y-119152899D01*
X142259103Y-119171466D01*
X142289548Y-119196452D01*
X142314534Y-119226897D01*
X142333101Y-119261633D01*
X142344535Y-119299326D01*
X142349000Y-119344661D01*
X142349000Y-120431339D01*
X142344535Y-120476674D01*
X142333101Y-120514367D01*
X142314534Y-120549103D01*
X142289548Y-120579548D01*
X142259103Y-120604534D01*
X142224367Y-120623101D01*
X142186674Y-120634535D01*
X142141339Y-120639000D01*
X141304661Y-120639000D01*
X141259326Y-120634535D01*
X141221633Y-120623101D01*
X141186897Y-120604534D01*
X141156452Y-120579548D01*
X141131466Y-120549103D01*
X141112899Y-120514367D01*
X141101465Y-120476674D01*
X141097000Y-120431339D01*
X141097000Y-119344661D01*
X141101465Y-119299326D01*
X141112899Y-119261633D01*
X141131466Y-119226897D01*
X141156452Y-119196452D01*
X141186897Y-119171466D01*
X141221633Y-119152899D01*
X141259326Y-119141465D01*
X141304661Y-119137000D01*
X142141339Y-119137000D01*
X142186674Y-119141465D01*
G37*
G36*
X148269000Y-120421000D02*
G01*
X146167000Y-120421000D01*
X146167000Y-118819000D01*
X148269000Y-118819000D01*
X148269000Y-120421000D01*
G37*
G36*
X133684674Y-117733465D02*
G01*
X133722367Y-117744899D01*
X133757103Y-117763466D01*
X133787548Y-117788452D01*
X133812534Y-117818897D01*
X133831101Y-117853633D01*
X133842535Y-117891326D01*
X133847000Y-117936661D01*
X133847000Y-118773339D01*
X133842535Y-118818674D01*
X133831101Y-118856367D01*
X133812534Y-118891103D01*
X133787548Y-118921548D01*
X133757103Y-118946534D01*
X133722367Y-118965101D01*
X133684674Y-118976535D01*
X133639339Y-118981000D01*
X132552661Y-118981000D01*
X132507326Y-118976535D01*
X132469633Y-118965101D01*
X132434897Y-118946534D01*
X132404452Y-118921548D01*
X132379466Y-118891103D01*
X132360899Y-118856367D01*
X132349465Y-118818674D01*
X132345000Y-118773339D01*
X132345000Y-117936661D01*
X132349465Y-117891326D01*
X132360899Y-117853633D01*
X132379466Y-117818897D01*
X132404452Y-117788452D01*
X132434897Y-117763466D01*
X132469633Y-117744899D01*
X132507326Y-117733465D01*
X132552661Y-117729000D01*
X133639339Y-117729000D01*
X133684674Y-117733465D01*
G37*
G36*
X155172429Y-110738020D02*
G01*
X155215539Y-110751097D01*
X155255268Y-110772333D01*
X155290090Y-110800910D01*
X155318667Y-110835732D01*
X155339903Y-110875461D01*
X155352980Y-110918571D01*
X155358000Y-110969540D01*
X155358000Y-112023460D01*
X155352980Y-112074429D01*
X155339903Y-112117539D01*
X155318667Y-112157268D01*
X155290090Y-112192090D01*
X155255266Y-112220668D01*
X155213903Y-112242777D01*
X155193529Y-112256390D01*
X155176202Y-112273717D01*
X155162588Y-112294091D01*
X155153211Y-112316730D01*
X155148430Y-112340764D01*
X155148430Y-112365268D01*
X155153210Y-112389301D01*
X155162588Y-112411940D01*
X155176201Y-112432314D01*
X155193528Y-112449641D01*
X155213903Y-112463255D01*
X155262902Y-112489446D01*
X155407712Y-112608288D01*
X155526554Y-112753097D01*
X155597057Y-112885000D01*
X155614860Y-112918307D01*
X155669239Y-113097571D01*
X155669240Y-113097575D01*
X155687601Y-113284000D01*
X155669240Y-113470425D01*
X155669239Y-113470428D01*
X155669239Y-113470429D01*
X155614860Y-113649693D01*
X155614858Y-113649696D01*
X155614858Y-113649697D01*
X155526554Y-113814903D01*
X155407712Y-113959712D01*
X155262902Y-114078554D01*
X155213903Y-114104745D01*
X155193528Y-114118359D01*
X155176201Y-114135686D01*
X155162588Y-114156060D01*
X155153210Y-114178699D01*
X155148430Y-114202732D01*
X155148430Y-114227236D01*
X155153211Y-114251270D01*
X155162588Y-114273908D01*
X155176202Y-114294283D01*
X155193529Y-114311610D01*
X155213903Y-114325223D01*
X155255266Y-114347332D01*
X155290090Y-114375910D01*
X155318667Y-114410732D01*
X155339903Y-114450461D01*
X155352980Y-114493571D01*
X155358000Y-114544540D01*
X155358000Y-115598460D01*
X155352980Y-115649429D01*
X155339903Y-115692539D01*
X155318667Y-115732268D01*
X155290090Y-115767090D01*
X155255268Y-115795667D01*
X155215539Y-115816903D01*
X155172429Y-115829980D01*
X155121460Y-115835000D01*
X153742540Y-115835000D01*
X153691571Y-115829980D01*
X153648461Y-115816903D01*
X153608732Y-115795667D01*
X153573910Y-115767090D01*
X153545333Y-115732268D01*
X153524097Y-115692539D01*
X153511020Y-115649429D01*
X153506000Y-115598460D01*
X153506000Y-114544540D01*
X153511020Y-114493571D01*
X153524097Y-114450461D01*
X153545333Y-114410732D01*
X153573910Y-114375910D01*
X153608734Y-114347332D01*
X153650097Y-114325223D01*
X153670471Y-114311610D01*
X153687798Y-114294283D01*
X153701412Y-114273909D01*
X153710789Y-114251270D01*
X153715570Y-114227236D01*
X153715570Y-114202732D01*
X153710790Y-114178699D01*
X153701412Y-114156060D01*
X153687799Y-114135686D01*
X153670472Y-114118359D01*
X153650097Y-114104745D01*
X153601098Y-114078554D01*
X153456288Y-113959712D01*
X153337446Y-113814903D01*
X153249142Y-113649697D01*
X153249142Y-113649696D01*
X153249140Y-113649693D01*
X153194761Y-113470429D01*
X153194761Y-113470428D01*
X153194760Y-113470425D01*
X153176399Y-113284000D01*
X153194760Y-113097575D01*
X153194761Y-113097571D01*
X153249140Y-112918307D01*
X153266943Y-112885000D01*
X153337446Y-112753097D01*
X153456288Y-112608288D01*
X153601098Y-112489446D01*
X153650097Y-112463255D01*
X153670472Y-112449641D01*
X153687799Y-112432314D01*
X153701412Y-112411940D01*
X153710790Y-112389301D01*
X153715570Y-112365268D01*
X153715570Y-112340764D01*
X153710789Y-112316730D01*
X153701412Y-112294092D01*
X153687798Y-112273717D01*
X153670471Y-112256390D01*
X153650097Y-112242777D01*
X153608734Y-112220668D01*
X153573910Y-112192090D01*
X153545333Y-112157268D01*
X153524097Y-112117539D01*
X153511020Y-112074429D01*
X153506000Y-112023460D01*
X153506000Y-110969540D01*
X153511020Y-110918571D01*
X153524097Y-110875461D01*
X153545333Y-110835732D01*
X153573910Y-110800910D01*
X153608732Y-110772333D01*
X153648461Y-110751097D01*
X153691571Y-110738020D01*
X153742540Y-110733000D01*
X155121460Y-110733000D01*
X155172429Y-110738020D01*
G37*
G36*
X151108429Y-110738020D02*
G01*
X151151539Y-110751097D01*
X151191268Y-110772333D01*
X151226090Y-110800910D01*
X151254667Y-110835732D01*
X151275903Y-110875461D01*
X151288980Y-110918571D01*
X151294000Y-110969540D01*
X151294000Y-112023460D01*
X151288980Y-112074429D01*
X151275903Y-112117539D01*
X151254667Y-112157268D01*
X151226090Y-112192090D01*
X151191266Y-112220668D01*
X151149903Y-112242777D01*
X151129529Y-112256390D01*
X151112202Y-112273717D01*
X151098588Y-112294091D01*
X151089211Y-112316730D01*
X151084430Y-112340764D01*
X151084430Y-112365268D01*
X151089210Y-112389301D01*
X151098588Y-112411940D01*
X151112201Y-112432314D01*
X151129528Y-112449641D01*
X151149903Y-112463255D01*
X151198902Y-112489446D01*
X151343712Y-112608288D01*
X151462554Y-112753097D01*
X151533057Y-112885000D01*
X151550860Y-112918307D01*
X151605239Y-113097571D01*
X151605240Y-113097575D01*
X151623601Y-113284000D01*
X151605240Y-113470425D01*
X151605239Y-113470428D01*
X151605239Y-113470429D01*
X151550860Y-113649693D01*
X151550858Y-113649696D01*
X151550858Y-113649697D01*
X151462554Y-113814903D01*
X151343712Y-113959712D01*
X151198902Y-114078554D01*
X151149903Y-114104745D01*
X151129528Y-114118359D01*
X151112201Y-114135686D01*
X151098588Y-114156060D01*
X151089210Y-114178699D01*
X151084430Y-114202732D01*
X151084430Y-114227236D01*
X151089211Y-114251270D01*
X151098588Y-114273908D01*
X151112202Y-114294283D01*
X151129529Y-114311610D01*
X151149903Y-114325223D01*
X151191266Y-114347332D01*
X151226090Y-114375910D01*
X151254667Y-114410732D01*
X151275903Y-114450461D01*
X151288980Y-114493571D01*
X151294000Y-114544540D01*
X151294000Y-115598460D01*
X151288980Y-115649429D01*
X151275903Y-115692539D01*
X151254667Y-115732268D01*
X151226090Y-115767090D01*
X151191268Y-115795667D01*
X151151539Y-115816903D01*
X151108429Y-115829980D01*
X151057460Y-115835000D01*
X149678540Y-115835000D01*
X149627571Y-115829980D01*
X149584461Y-115816903D01*
X149544732Y-115795667D01*
X149509910Y-115767090D01*
X149481333Y-115732268D01*
X149460097Y-115692539D01*
X149447020Y-115649429D01*
X149442000Y-115598460D01*
X149442000Y-114544540D01*
X149447020Y-114493571D01*
X149460097Y-114450461D01*
X149481333Y-114410732D01*
X149509910Y-114375910D01*
X149544734Y-114347332D01*
X149586097Y-114325223D01*
X149606471Y-114311610D01*
X149623798Y-114294283D01*
X149637412Y-114273909D01*
X149646789Y-114251270D01*
X149651570Y-114227236D01*
X149651570Y-114202732D01*
X149646790Y-114178699D01*
X149637412Y-114156060D01*
X149623799Y-114135686D01*
X149606472Y-114118359D01*
X149586097Y-114104745D01*
X149537098Y-114078554D01*
X149392288Y-113959712D01*
X149273446Y-113814903D01*
X149185142Y-113649697D01*
X149185142Y-113649696D01*
X149185140Y-113649693D01*
X149130761Y-113470429D01*
X149130761Y-113470428D01*
X149130760Y-113470425D01*
X149112399Y-113284000D01*
X149130760Y-113097575D01*
X149130761Y-113097571D01*
X149185140Y-112918307D01*
X149202943Y-112885000D01*
X149273446Y-112753097D01*
X149392288Y-112608288D01*
X149537098Y-112489446D01*
X149586097Y-112463255D01*
X149606472Y-112449641D01*
X149623799Y-112432314D01*
X149637412Y-112411940D01*
X149646790Y-112389301D01*
X149651570Y-112365268D01*
X149651570Y-112340764D01*
X149646789Y-112316730D01*
X149637412Y-112294092D01*
X149623798Y-112273717D01*
X149606471Y-112256390D01*
X149586097Y-112242777D01*
X149544734Y-112220668D01*
X149509910Y-112192090D01*
X149481333Y-112157268D01*
X149460097Y-112117539D01*
X149447020Y-112074429D01*
X149442000Y-112023460D01*
X149442000Y-110969540D01*
X149447020Y-110918571D01*
X149460097Y-110875461D01*
X149481333Y-110835732D01*
X149509910Y-110800910D01*
X149544732Y-110772333D01*
X149584461Y-110751097D01*
X149627571Y-110738020D01*
X149678540Y-110733000D01*
X151057460Y-110733000D01*
X151108429Y-110738020D01*
G37*
G36*
X133565000Y-115193000D02*
G01*
X131563000Y-115193000D01*
X131563000Y-114291000D01*
X133565000Y-114291000D01*
X133565000Y-115193000D01*
G37*
G36*
X173237000Y-115193000D02*
G01*
X171235000Y-115193000D01*
X171235000Y-114291000D01*
X173237000Y-114291000D01*
X173237000Y-115193000D01*
G37*
G36*
X158068674Y-113687465D02*
G01*
X158106367Y-113698899D01*
X158141103Y-113717466D01*
X158171548Y-113742452D01*
X158196534Y-113772897D01*
X158215101Y-113807633D01*
X158226535Y-113845326D01*
X158231000Y-113890661D01*
X158231000Y-114727339D01*
X158226535Y-114772674D01*
X158215101Y-114810367D01*
X158196534Y-114845103D01*
X158171548Y-114875548D01*
X158141103Y-114900534D01*
X158106367Y-114919101D01*
X158068674Y-114930535D01*
X158023339Y-114935000D01*
X156936661Y-114935000D01*
X156891326Y-114930535D01*
X156853633Y-114919101D01*
X156818897Y-114900534D01*
X156788452Y-114875548D01*
X156763466Y-114845103D01*
X156744899Y-114810367D01*
X156733465Y-114772674D01*
X156729000Y-114727339D01*
X156729000Y-113890661D01*
X156733465Y-113845326D01*
X156744899Y-113807633D01*
X156763466Y-113772897D01*
X156788452Y-113742452D01*
X156818897Y-113717466D01*
X156853633Y-113698899D01*
X156891326Y-113687465D01*
X156936661Y-113683000D01*
X158023339Y-113683000D01*
X158068674Y-113687465D01*
G37*
G36*
X147908674Y-113687465D02*
G01*
X147946367Y-113698899D01*
X147981103Y-113717466D01*
X148011548Y-113742452D01*
X148036534Y-113772897D01*
X148055101Y-113807633D01*
X148066535Y-113845326D01*
X148071000Y-113890661D01*
X148071000Y-114727339D01*
X148066535Y-114772674D01*
X148055101Y-114810367D01*
X148036534Y-114845103D01*
X148011548Y-114875548D01*
X147981103Y-114900534D01*
X147946367Y-114919101D01*
X147908674Y-114930535D01*
X147863339Y-114935000D01*
X146776661Y-114935000D01*
X146731326Y-114930535D01*
X146693633Y-114919101D01*
X146658897Y-114900534D01*
X146628452Y-114875548D01*
X146603466Y-114845103D01*
X146584899Y-114810367D01*
X146573465Y-114772674D01*
X146569000Y-114727339D01*
X146569000Y-113890661D01*
X146573465Y-113845326D01*
X146584899Y-113807633D01*
X146603466Y-113772897D01*
X146628452Y-113742452D01*
X146658897Y-113717466D01*
X146693633Y-113698899D01*
X146731326Y-113687465D01*
X146776661Y-113683000D01*
X147863339Y-113683000D01*
X147908674Y-113687465D01*
G37*
G36*
X176237000Y-114243000D02*
G01*
X174235000Y-114243000D01*
X174235000Y-113341000D01*
X176237000Y-113341000D01*
X176237000Y-114243000D01*
G37*
G36*
X130565000Y-114243000D02*
G01*
X128563000Y-114243000D01*
X128563000Y-113341000D01*
X130565000Y-113341000D01*
X130565000Y-114243000D01*
G37*
G36*
X140217000Y-113923000D02*
G01*
X138215000Y-113923000D01*
X138215000Y-113021000D01*
X140217000Y-113021000D01*
X140217000Y-113923000D01*
G37*
G36*
X133565000Y-113293000D02*
G01*
X131563000Y-113293000D01*
X131563000Y-112391000D01*
X133565000Y-112391000D01*
X133565000Y-113293000D01*
G37*
G36*
X173237000Y-113293000D02*
G01*
X171235000Y-113293000D01*
X171235000Y-112391000D01*
X173237000Y-112391000D01*
X173237000Y-113293000D01*
G37*
G36*
X143217000Y-112973000D02*
G01*
X141215000Y-112973000D01*
X141215000Y-112071000D01*
X143217000Y-112071000D01*
X143217000Y-112973000D01*
G37*
G36*
X147908674Y-111637465D02*
G01*
X147946367Y-111648899D01*
X147981103Y-111667466D01*
X148011548Y-111692452D01*
X148036534Y-111722897D01*
X148055101Y-111757633D01*
X148066535Y-111795326D01*
X148071000Y-111840661D01*
X148071000Y-112677339D01*
X148066535Y-112722674D01*
X148055101Y-112760367D01*
X148036534Y-112795103D01*
X148011548Y-112825548D01*
X147981103Y-112850534D01*
X147946367Y-112869101D01*
X147908674Y-112880535D01*
X147863339Y-112885000D01*
X146776661Y-112885000D01*
X146731326Y-112880535D01*
X146693633Y-112869101D01*
X146658897Y-112850534D01*
X146628452Y-112825548D01*
X146603466Y-112795103D01*
X146584899Y-112760367D01*
X146573465Y-112722674D01*
X146569000Y-112677339D01*
X146569000Y-111840661D01*
X146573465Y-111795326D01*
X146584899Y-111757633D01*
X146603466Y-111722897D01*
X146628452Y-111692452D01*
X146658897Y-111667466D01*
X146693633Y-111648899D01*
X146731326Y-111637465D01*
X146776661Y-111633000D01*
X147863339Y-111633000D01*
X147908674Y-111637465D01*
G37*
G36*
X158068674Y-111637465D02*
G01*
X158106367Y-111648899D01*
X158141103Y-111667466D01*
X158171548Y-111692452D01*
X158196534Y-111722897D01*
X158215101Y-111757633D01*
X158226535Y-111795326D01*
X158231000Y-111840661D01*
X158231000Y-112677339D01*
X158226535Y-112722674D01*
X158215101Y-112760367D01*
X158196534Y-112795103D01*
X158171548Y-112825548D01*
X158141103Y-112850534D01*
X158106367Y-112869101D01*
X158068674Y-112880535D01*
X158023339Y-112885000D01*
X156936661Y-112885000D01*
X156891326Y-112880535D01*
X156853633Y-112869101D01*
X156818897Y-112850534D01*
X156788452Y-112825548D01*
X156763466Y-112795103D01*
X156744899Y-112760367D01*
X156733465Y-112722674D01*
X156729000Y-112677339D01*
X156729000Y-111840661D01*
X156733465Y-111795326D01*
X156744899Y-111757633D01*
X156763466Y-111722897D01*
X156788452Y-111692452D01*
X156818897Y-111667466D01*
X156853633Y-111648899D01*
X156891326Y-111637465D01*
X156936661Y-111633000D01*
X158023339Y-111633000D01*
X158068674Y-111637465D01*
G37*
G36*
X140217000Y-112023000D02*
G01*
X138215000Y-112023000D01*
X138215000Y-111121000D01*
X140217000Y-111121000D01*
X140217000Y-112023000D01*
G37*
G36*
X157426674Y-108981465D02*
G01*
X157464367Y-108992899D01*
X157499103Y-109011466D01*
X157529548Y-109036452D01*
X157554534Y-109066897D01*
X157573101Y-109101633D01*
X157584535Y-109139326D01*
X157589000Y-109184661D01*
X157589000Y-110271339D01*
X157584535Y-110316674D01*
X157573101Y-110354367D01*
X157554534Y-110389103D01*
X157529548Y-110419548D01*
X157499103Y-110444534D01*
X157464367Y-110463101D01*
X157426674Y-110474535D01*
X157381339Y-110479000D01*
X156544661Y-110479000D01*
X156499326Y-110474535D01*
X156461633Y-110463101D01*
X156426897Y-110444534D01*
X156396452Y-110419548D01*
X156371466Y-110389103D01*
X156352899Y-110354367D01*
X156341465Y-110316674D01*
X156337000Y-110271339D01*
X156337000Y-109184661D01*
X156341465Y-109139326D01*
X156352899Y-109101633D01*
X156371466Y-109066897D01*
X156396452Y-109036452D01*
X156426897Y-109011466D01*
X156461633Y-108992899D01*
X156499326Y-108981465D01*
X156544661Y-108977000D01*
X157381339Y-108977000D01*
X157426674Y-108981465D01*
G37*
G36*
X163522674Y-108981465D02*
G01*
X163560367Y-108992899D01*
X163595103Y-109011466D01*
X163625548Y-109036452D01*
X163650534Y-109066897D01*
X163669101Y-109101633D01*
X163680535Y-109139326D01*
X163685000Y-109184661D01*
X163685000Y-110271339D01*
X163680535Y-110316674D01*
X163669101Y-110354367D01*
X163650534Y-110389103D01*
X163625548Y-110419548D01*
X163595103Y-110444534D01*
X163560367Y-110463101D01*
X163522674Y-110474535D01*
X163477339Y-110479000D01*
X162640661Y-110479000D01*
X162595326Y-110474535D01*
X162557633Y-110463101D01*
X162522897Y-110444534D01*
X162492452Y-110419548D01*
X162467466Y-110389103D01*
X162448899Y-110354367D01*
X162437465Y-110316674D01*
X162433000Y-110271339D01*
X162433000Y-109184661D01*
X162437465Y-109139326D01*
X162448899Y-109101633D01*
X162467466Y-109066897D01*
X162492452Y-109036452D01*
X162522897Y-109011466D01*
X162557633Y-108992899D01*
X162595326Y-108981465D01*
X162640661Y-108977000D01*
X163477339Y-108977000D01*
X163522674Y-108981465D01*
G37*
G36*
X165572674Y-108981465D02*
G01*
X165610367Y-108992899D01*
X165645103Y-109011466D01*
X165675548Y-109036452D01*
X165700534Y-109066897D01*
X165719101Y-109101633D01*
X165730535Y-109139326D01*
X165735000Y-109184661D01*
X165735000Y-110271339D01*
X165730535Y-110316674D01*
X165719101Y-110354367D01*
X165700534Y-110389103D01*
X165675548Y-110419548D01*
X165645103Y-110444534D01*
X165610367Y-110463101D01*
X165572674Y-110474535D01*
X165527339Y-110479000D01*
X164690661Y-110479000D01*
X164645326Y-110474535D01*
X164607633Y-110463101D01*
X164572897Y-110444534D01*
X164542452Y-110419548D01*
X164517466Y-110389103D01*
X164498899Y-110354367D01*
X164487465Y-110316674D01*
X164483000Y-110271339D01*
X164483000Y-109184661D01*
X164487465Y-109139326D01*
X164498899Y-109101633D01*
X164517466Y-109066897D01*
X164542452Y-109036452D01*
X164572897Y-109011466D01*
X164607633Y-108992899D01*
X164645326Y-108981465D01*
X164690661Y-108977000D01*
X165527339Y-108977000D01*
X165572674Y-108981465D01*
G37*
G36*
X159476674Y-108981465D02*
G01*
X159514367Y-108992899D01*
X159549103Y-109011466D01*
X159579548Y-109036452D01*
X159604534Y-109066897D01*
X159623101Y-109101633D01*
X159634535Y-109139326D01*
X159639000Y-109184661D01*
X159639000Y-110271339D01*
X159634535Y-110316674D01*
X159623101Y-110354367D01*
X159604534Y-110389103D01*
X159579548Y-110419548D01*
X159549103Y-110444534D01*
X159514367Y-110463101D01*
X159476674Y-110474535D01*
X159431339Y-110479000D01*
X158594661Y-110479000D01*
X158549326Y-110474535D01*
X158511633Y-110463101D01*
X158476897Y-110444534D01*
X158446452Y-110419548D01*
X158421466Y-110389103D01*
X158402899Y-110354367D01*
X158391465Y-110316674D01*
X158387000Y-110271339D01*
X158387000Y-109184661D01*
X158391465Y-109139326D01*
X158402899Y-109101633D01*
X158421466Y-109066897D01*
X158446452Y-109036452D01*
X158476897Y-109011466D01*
X158511633Y-108992899D01*
X158549326Y-108981465D01*
X158594661Y-108977000D01*
X159431339Y-108977000D01*
X159476674Y-108981465D01*
G37*
G36*
X140902424Y-107474760D02*
G01*
X140902427Y-107474761D01*
X140902428Y-107474761D01*
X141081692Y-107529140D01*
X141081695Y-107529142D01*
X141081696Y-107529142D01*
X141246903Y-107617446D01*
X141391712Y-107736288D01*
X141510554Y-107881098D01*
X141536745Y-107930097D01*
X141550359Y-107950472D01*
X141567686Y-107967799D01*
X141588060Y-107981412D01*
X141610699Y-107990790D01*
X141634732Y-107995570D01*
X141659236Y-107995570D01*
X141683270Y-107990789D01*
X141705908Y-107981412D01*
X141726283Y-107967798D01*
X141743610Y-107950471D01*
X141757223Y-107930097D01*
X141779332Y-107888734D01*
X141807910Y-107853910D01*
X141842732Y-107825333D01*
X141882461Y-107804097D01*
X141925571Y-107791020D01*
X141976540Y-107786000D01*
X143030460Y-107786000D01*
X143081429Y-107791020D01*
X143124539Y-107804097D01*
X143164268Y-107825333D01*
X143199090Y-107853910D01*
X143227667Y-107888732D01*
X143248903Y-107928461D01*
X143261980Y-107971571D01*
X143267000Y-108022540D01*
X143267000Y-109401460D01*
X143261980Y-109452429D01*
X143248903Y-109495539D01*
X143227667Y-109535268D01*
X143199090Y-109570090D01*
X143164268Y-109598667D01*
X143124539Y-109619903D01*
X143081429Y-109632980D01*
X143030460Y-109638000D01*
X141976540Y-109638000D01*
X141925571Y-109632980D01*
X141882461Y-109619903D01*
X141842732Y-109598667D01*
X141807910Y-109570090D01*
X141779333Y-109535268D01*
X141757222Y-109493902D01*
X141743608Y-109473527D01*
X141726280Y-109456201D01*
X141705906Y-109442587D01*
X141683267Y-109433210D01*
X141659234Y-109428430D01*
X141634730Y-109428430D01*
X141610696Y-109433211D01*
X141588058Y-109442588D01*
X141567683Y-109456202D01*
X141550357Y-109473530D01*
X141536746Y-109493899D01*
X141532271Y-109502271D01*
X141510552Y-109542905D01*
X141391712Y-109687712D01*
X141246903Y-109806554D01*
X141081697Y-109894858D01*
X141081693Y-109894860D01*
X140902429Y-109949239D01*
X140902428Y-109949239D01*
X140902425Y-109949240D01*
X140716000Y-109967601D01*
X140529576Y-109949240D01*
X140529573Y-109949239D01*
X140529572Y-109949239D01*
X140350308Y-109894860D01*
X140350304Y-109894858D01*
X140185098Y-109806554D01*
X140040289Y-109687712D01*
X139921450Y-109542906D01*
X139899730Y-109502271D01*
X139895253Y-109493897D01*
X139881643Y-109473528D01*
X139864316Y-109456201D01*
X139843942Y-109442587D01*
X139821303Y-109433210D01*
X139797270Y-109428429D01*
X139772765Y-109428429D01*
X139748732Y-109433209D01*
X139726093Y-109442586D01*
X139705719Y-109456200D01*
X139688392Y-109473527D01*
X139674778Y-109493902D01*
X139652668Y-109535266D01*
X139624090Y-109570090D01*
X139589268Y-109598667D01*
X139549539Y-109619903D01*
X139506429Y-109632980D01*
X139455460Y-109638000D01*
X138401540Y-109638000D01*
X138350571Y-109632980D01*
X138307461Y-109619903D01*
X138267732Y-109598667D01*
X138232910Y-109570090D01*
X138204333Y-109535268D01*
X138183097Y-109495539D01*
X138170020Y-109452429D01*
X138165000Y-109401460D01*
X138165000Y-108022540D01*
X138170020Y-107971571D01*
X138183097Y-107928461D01*
X138204333Y-107888732D01*
X138232910Y-107853910D01*
X138267732Y-107825333D01*
X138307461Y-107804097D01*
X138350571Y-107791020D01*
X138401540Y-107786000D01*
X139455460Y-107786000D01*
X139506429Y-107791020D01*
X139549539Y-107804097D01*
X139589268Y-107825333D01*
X139624090Y-107853910D01*
X139652667Y-107888732D01*
X139674778Y-107930098D01*
X139688392Y-107950473D01*
X139705720Y-107967799D01*
X139726094Y-107981413D01*
X139748733Y-107990790D01*
X139772766Y-107995570D01*
X139797270Y-107995570D01*
X139821304Y-107990789D01*
X139843942Y-107981412D01*
X139864317Y-107967798D01*
X139881643Y-107950470D01*
X139895255Y-107930100D01*
X139921447Y-107881097D01*
X139921448Y-107881095D01*
X140040288Y-107736288D01*
X140185097Y-107617446D01*
X140350303Y-107529142D01*
X140350304Y-107529142D01*
X140350307Y-107529140D01*
X140529571Y-107474761D01*
X140529572Y-107474761D01*
X140529575Y-107474760D01*
X140716000Y-107456399D01*
X140902424Y-107474760D01*
G37*
G36*
X148014424Y-107474760D02*
G01*
X148014427Y-107474761D01*
X148014428Y-107474761D01*
X148193692Y-107529140D01*
X148193695Y-107529142D01*
X148193696Y-107529142D01*
X148358903Y-107617446D01*
X148503712Y-107736288D01*
X148622554Y-107881098D01*
X148648745Y-107930097D01*
X148662359Y-107950472D01*
X148679686Y-107967799D01*
X148700060Y-107981412D01*
X148722699Y-107990790D01*
X148746732Y-107995570D01*
X148771236Y-107995570D01*
X148795270Y-107990789D01*
X148817908Y-107981412D01*
X148838283Y-107967798D01*
X148855610Y-107950471D01*
X148869223Y-107930097D01*
X148891332Y-107888734D01*
X148919910Y-107853910D01*
X148954732Y-107825333D01*
X148994461Y-107804097D01*
X149037571Y-107791020D01*
X149088540Y-107786000D01*
X150142460Y-107786000D01*
X150193429Y-107791020D01*
X150236539Y-107804097D01*
X150276268Y-107825333D01*
X150311090Y-107853910D01*
X150339667Y-107888732D01*
X150360903Y-107928461D01*
X150373980Y-107971571D01*
X150379000Y-108022540D01*
X150379000Y-109401460D01*
X150373980Y-109452429D01*
X150360903Y-109495539D01*
X150339667Y-109535268D01*
X150311090Y-109570090D01*
X150276268Y-109598667D01*
X150236539Y-109619903D01*
X150193429Y-109632980D01*
X150142460Y-109638000D01*
X149088540Y-109638000D01*
X149037571Y-109632980D01*
X148994461Y-109619903D01*
X148954732Y-109598667D01*
X148919910Y-109570090D01*
X148891333Y-109535268D01*
X148869222Y-109493902D01*
X148855608Y-109473527D01*
X148838280Y-109456201D01*
X148817906Y-109442587D01*
X148795267Y-109433210D01*
X148771234Y-109428430D01*
X148746730Y-109428430D01*
X148722696Y-109433211D01*
X148700058Y-109442588D01*
X148679683Y-109456202D01*
X148662357Y-109473530D01*
X148648746Y-109493899D01*
X148644271Y-109502271D01*
X148622552Y-109542905D01*
X148503712Y-109687712D01*
X148358903Y-109806554D01*
X148193697Y-109894858D01*
X148193693Y-109894860D01*
X148014429Y-109949239D01*
X148014428Y-109949239D01*
X148014425Y-109949240D01*
X147828000Y-109967601D01*
X147641576Y-109949240D01*
X147641573Y-109949239D01*
X147641572Y-109949239D01*
X147462308Y-109894860D01*
X147462304Y-109894858D01*
X147297098Y-109806554D01*
X147152289Y-109687712D01*
X147033450Y-109542906D01*
X147011730Y-109502271D01*
X147007253Y-109493897D01*
X146993643Y-109473528D01*
X146976316Y-109456201D01*
X146955942Y-109442587D01*
X146933303Y-109433210D01*
X146909270Y-109428429D01*
X146884765Y-109428429D01*
X146860732Y-109433209D01*
X146838093Y-109442586D01*
X146817719Y-109456200D01*
X146800392Y-109473527D01*
X146786778Y-109493902D01*
X146764668Y-109535266D01*
X146736090Y-109570090D01*
X146701268Y-109598667D01*
X146661539Y-109619903D01*
X146618429Y-109632980D01*
X146567460Y-109638000D01*
X145513540Y-109638000D01*
X145462571Y-109632980D01*
X145419461Y-109619903D01*
X145379732Y-109598667D01*
X145344910Y-109570090D01*
X145316333Y-109535268D01*
X145295097Y-109495539D01*
X145282020Y-109452429D01*
X145277000Y-109401460D01*
X145277000Y-108022540D01*
X145282020Y-107971571D01*
X145295097Y-107928461D01*
X145316333Y-107888732D01*
X145344910Y-107853910D01*
X145379732Y-107825333D01*
X145419461Y-107804097D01*
X145462571Y-107791020D01*
X145513540Y-107786000D01*
X146567460Y-107786000D01*
X146618429Y-107791020D01*
X146661539Y-107804097D01*
X146701268Y-107825333D01*
X146736090Y-107853910D01*
X146764667Y-107888732D01*
X146786778Y-107930098D01*
X146800392Y-107950473D01*
X146817720Y-107967799D01*
X146838094Y-107981413D01*
X146860733Y-107990790D01*
X146884766Y-107995570D01*
X146909270Y-107995570D01*
X146933304Y-107990789D01*
X146955942Y-107981412D01*
X146976317Y-107967798D01*
X146993643Y-107950470D01*
X147007255Y-107930100D01*
X147033447Y-107881097D01*
X147033448Y-107881095D01*
X147152288Y-107736288D01*
X147297097Y-107617446D01*
X147462303Y-107529142D01*
X147462304Y-107529142D01*
X147462307Y-107529140D01*
X147641571Y-107474761D01*
X147641572Y-107474761D01*
X147641575Y-107474760D01*
X147828000Y-107456399D01*
X148014424Y-107474760D01*
G37*
G36*
X175848674Y-107591465D02*
G01*
X175886367Y-107602899D01*
X175921103Y-107621466D01*
X175951548Y-107646452D01*
X175976534Y-107676897D01*
X175995101Y-107711633D01*
X176006535Y-107749326D01*
X176011000Y-107794661D01*
X176011000Y-108631339D01*
X176006535Y-108676674D01*
X175995101Y-108714367D01*
X175976534Y-108749103D01*
X175951548Y-108779548D01*
X175921103Y-108804534D01*
X175886367Y-108823101D01*
X175848674Y-108834535D01*
X175803339Y-108839000D01*
X174716661Y-108839000D01*
X174671326Y-108834535D01*
X174633633Y-108823101D01*
X174598897Y-108804534D01*
X174568452Y-108779548D01*
X174543466Y-108749103D01*
X174524899Y-108714367D01*
X174513465Y-108676674D01*
X174509000Y-108631339D01*
X174509000Y-107794661D01*
X174513465Y-107749326D01*
X174524899Y-107711633D01*
X174543466Y-107676897D01*
X174568452Y-107646452D01*
X174598897Y-107621466D01*
X174633633Y-107602899D01*
X174671326Y-107591465D01*
X174716661Y-107587000D01*
X175803339Y-107587000D01*
X175848674Y-107591465D01*
G37*
G36*
X130128674Y-107591465D02*
G01*
X130166367Y-107602899D01*
X130201103Y-107621466D01*
X130231548Y-107646452D01*
X130256534Y-107676897D01*
X130275101Y-107711633D01*
X130286535Y-107749326D01*
X130291000Y-107794661D01*
X130291000Y-108631339D01*
X130286535Y-108676674D01*
X130275101Y-108714367D01*
X130256534Y-108749103D01*
X130231548Y-108779548D01*
X130201103Y-108804534D01*
X130166367Y-108823101D01*
X130128674Y-108834535D01*
X130083339Y-108839000D01*
X128996661Y-108839000D01*
X128951326Y-108834535D01*
X128913633Y-108823101D01*
X128878897Y-108804534D01*
X128848452Y-108779548D01*
X128823466Y-108749103D01*
X128804899Y-108714367D01*
X128793465Y-108676674D01*
X128789000Y-108631339D01*
X128789000Y-107794661D01*
X128793465Y-107749326D01*
X128804899Y-107711633D01*
X128823466Y-107676897D01*
X128848452Y-107646452D01*
X128878897Y-107621466D01*
X128913633Y-107602899D01*
X128951326Y-107591465D01*
X128996661Y-107587000D01*
X130083339Y-107587000D01*
X130128674Y-107591465D01*
G37*
G36*
X164270424Y-105442760D02*
G01*
X164270427Y-105442761D01*
X164270428Y-105442761D01*
X164449692Y-105497140D01*
X164449695Y-105497142D01*
X164449696Y-105497142D01*
X164614903Y-105585446D01*
X164759712Y-105704288D01*
X164878554Y-105849098D01*
X164904745Y-105898097D01*
X164918359Y-105918472D01*
X164935686Y-105935799D01*
X164956060Y-105949412D01*
X164978699Y-105958790D01*
X165002732Y-105963570D01*
X165027236Y-105963570D01*
X165051270Y-105958789D01*
X165073908Y-105949412D01*
X165094283Y-105935798D01*
X165111610Y-105918471D01*
X165125223Y-105898097D01*
X165147332Y-105856734D01*
X165175910Y-105821910D01*
X165210732Y-105793333D01*
X165250461Y-105772097D01*
X165293571Y-105759020D01*
X165344540Y-105754000D01*
X166398460Y-105754000D01*
X166449429Y-105759020D01*
X166492539Y-105772097D01*
X166532268Y-105793333D01*
X166567090Y-105821910D01*
X166595667Y-105856732D01*
X166616903Y-105896461D01*
X166629980Y-105939571D01*
X166635000Y-105990540D01*
X166635000Y-107369460D01*
X166629980Y-107420429D01*
X166616903Y-107463539D01*
X166595667Y-107503268D01*
X166567090Y-107538090D01*
X166532268Y-107566667D01*
X166492539Y-107587903D01*
X166449429Y-107600980D01*
X166398460Y-107606000D01*
X165344540Y-107606000D01*
X165293571Y-107600980D01*
X165250461Y-107587903D01*
X165210732Y-107566667D01*
X165175910Y-107538090D01*
X165147333Y-107503268D01*
X165125222Y-107461902D01*
X165111608Y-107441527D01*
X165094280Y-107424201D01*
X165073906Y-107410587D01*
X165051267Y-107401210D01*
X165027234Y-107396430D01*
X165002730Y-107396430D01*
X164978696Y-107401211D01*
X164956058Y-107410588D01*
X164935683Y-107424202D01*
X164918357Y-107441530D01*
X164904746Y-107461899D01*
X164897871Y-107474761D01*
X164878552Y-107510905D01*
X164759712Y-107655712D01*
X164614903Y-107774554D01*
X164456591Y-107859173D01*
X164449693Y-107862860D01*
X164270429Y-107917239D01*
X164270428Y-107917239D01*
X164270425Y-107917240D01*
X164084000Y-107935601D01*
X163897576Y-107917240D01*
X163897573Y-107917239D01*
X163897572Y-107917239D01*
X163718308Y-107862860D01*
X163711410Y-107859173D01*
X163553098Y-107774554D01*
X163408289Y-107655712D01*
X163289450Y-107510906D01*
X163270130Y-107474761D01*
X163263253Y-107461897D01*
X163249643Y-107441528D01*
X163232316Y-107424201D01*
X163211942Y-107410587D01*
X163189303Y-107401210D01*
X163165270Y-107396429D01*
X163140765Y-107396429D01*
X163116732Y-107401209D01*
X163094093Y-107410586D01*
X163073719Y-107424200D01*
X163056392Y-107441527D01*
X163042778Y-107461902D01*
X163020668Y-107503266D01*
X162992090Y-107538090D01*
X162957268Y-107566667D01*
X162917539Y-107587903D01*
X162874429Y-107600980D01*
X162823460Y-107606000D01*
X161769540Y-107606000D01*
X161718571Y-107600980D01*
X161675461Y-107587903D01*
X161635732Y-107566667D01*
X161600910Y-107538090D01*
X161572333Y-107503268D01*
X161551097Y-107463539D01*
X161538020Y-107420429D01*
X161533000Y-107369460D01*
X161533000Y-105990540D01*
X161538020Y-105939571D01*
X161551097Y-105896461D01*
X161572333Y-105856732D01*
X161600910Y-105821910D01*
X161635732Y-105793333D01*
X161675461Y-105772097D01*
X161718571Y-105759020D01*
X161769540Y-105754000D01*
X162823460Y-105754000D01*
X162874429Y-105759020D01*
X162917539Y-105772097D01*
X162957268Y-105793333D01*
X162992090Y-105821910D01*
X163020667Y-105856732D01*
X163042778Y-105898098D01*
X163056392Y-105918473D01*
X163073720Y-105935799D01*
X163094094Y-105949413D01*
X163116733Y-105958790D01*
X163140766Y-105963570D01*
X163165270Y-105963570D01*
X163189304Y-105958789D01*
X163211942Y-105949412D01*
X163232317Y-105935798D01*
X163249643Y-105918470D01*
X163263255Y-105898100D01*
X163289447Y-105849097D01*
X163289448Y-105849095D01*
X163408288Y-105704288D01*
X163553097Y-105585446D01*
X163718303Y-105497142D01*
X163718304Y-105497142D01*
X163718307Y-105497140D01*
X163897571Y-105442761D01*
X163897572Y-105442761D01*
X163897575Y-105442760D01*
X164084000Y-105424399D01*
X164270424Y-105442760D01*
G37*
G36*
X157158424Y-105442760D02*
G01*
X157158427Y-105442761D01*
X157158428Y-105442761D01*
X157337692Y-105497140D01*
X157337695Y-105497142D01*
X157337696Y-105497142D01*
X157502903Y-105585446D01*
X157647712Y-105704288D01*
X157766554Y-105849098D01*
X157792745Y-105898097D01*
X157806359Y-105918472D01*
X157823686Y-105935799D01*
X157844060Y-105949412D01*
X157866699Y-105958790D01*
X157890732Y-105963570D01*
X157915236Y-105963570D01*
X157939270Y-105958789D01*
X157961908Y-105949412D01*
X157982283Y-105935798D01*
X157999610Y-105918471D01*
X158013223Y-105898097D01*
X158035332Y-105856734D01*
X158063910Y-105821910D01*
X158098732Y-105793333D01*
X158138461Y-105772097D01*
X158181571Y-105759020D01*
X158232540Y-105754000D01*
X159286460Y-105754000D01*
X159337429Y-105759020D01*
X159380539Y-105772097D01*
X159420268Y-105793333D01*
X159455090Y-105821910D01*
X159483667Y-105856732D01*
X159504903Y-105896461D01*
X159517980Y-105939571D01*
X159523000Y-105990540D01*
X159523000Y-107369460D01*
X159517980Y-107420429D01*
X159504903Y-107463539D01*
X159483667Y-107503268D01*
X159455090Y-107538090D01*
X159420268Y-107566667D01*
X159380539Y-107587903D01*
X159337429Y-107600980D01*
X159286460Y-107606000D01*
X158232540Y-107606000D01*
X158181571Y-107600980D01*
X158138461Y-107587903D01*
X158098732Y-107566667D01*
X158063910Y-107538090D01*
X158035333Y-107503268D01*
X158013222Y-107461902D01*
X157999608Y-107441527D01*
X157982280Y-107424201D01*
X157961906Y-107410587D01*
X157939267Y-107401210D01*
X157915234Y-107396430D01*
X157890730Y-107396430D01*
X157866696Y-107401211D01*
X157844058Y-107410588D01*
X157823683Y-107424202D01*
X157806357Y-107441530D01*
X157792746Y-107461899D01*
X157785871Y-107474761D01*
X157766552Y-107510905D01*
X157647712Y-107655712D01*
X157502903Y-107774554D01*
X157344591Y-107859173D01*
X157337693Y-107862860D01*
X157158429Y-107917239D01*
X157158428Y-107917239D01*
X157158425Y-107917240D01*
X156972000Y-107935601D01*
X156785576Y-107917240D01*
X156785573Y-107917239D01*
X156785572Y-107917239D01*
X156606308Y-107862860D01*
X156599410Y-107859173D01*
X156441098Y-107774554D01*
X156296289Y-107655712D01*
X156177450Y-107510906D01*
X156158130Y-107474761D01*
X156151253Y-107461897D01*
X156137643Y-107441528D01*
X156120316Y-107424201D01*
X156099942Y-107410587D01*
X156077303Y-107401210D01*
X156053270Y-107396429D01*
X156028765Y-107396429D01*
X156004732Y-107401209D01*
X155982093Y-107410586D01*
X155961719Y-107424200D01*
X155944392Y-107441527D01*
X155930778Y-107461902D01*
X155908668Y-107503266D01*
X155880090Y-107538090D01*
X155845268Y-107566667D01*
X155805539Y-107587903D01*
X155762429Y-107600980D01*
X155711460Y-107606000D01*
X154657540Y-107606000D01*
X154606571Y-107600980D01*
X154563461Y-107587903D01*
X154523732Y-107566667D01*
X154488910Y-107538090D01*
X154460333Y-107503268D01*
X154439097Y-107463539D01*
X154426020Y-107420429D01*
X154421000Y-107369460D01*
X154421000Y-105990540D01*
X154426020Y-105939571D01*
X154439097Y-105896461D01*
X154460333Y-105856732D01*
X154488910Y-105821910D01*
X154523732Y-105793333D01*
X154563461Y-105772097D01*
X154606571Y-105759020D01*
X154657540Y-105754000D01*
X155711460Y-105754000D01*
X155762429Y-105759020D01*
X155805539Y-105772097D01*
X155845268Y-105793333D01*
X155880090Y-105821910D01*
X155908667Y-105856732D01*
X155930778Y-105898098D01*
X155944392Y-105918473D01*
X155961720Y-105935799D01*
X155982094Y-105949413D01*
X156004733Y-105958790D01*
X156028766Y-105963570D01*
X156053270Y-105963570D01*
X156077304Y-105958789D01*
X156099942Y-105949412D01*
X156120317Y-105935798D01*
X156137643Y-105918470D01*
X156151255Y-105898100D01*
X156177447Y-105849097D01*
X156177448Y-105849095D01*
X156296288Y-105704288D01*
X156441097Y-105585446D01*
X156606303Y-105497142D01*
X156606304Y-105497142D01*
X156606307Y-105497140D01*
X156785571Y-105442761D01*
X156785572Y-105442761D01*
X156785575Y-105442760D01*
X156972000Y-105424399D01*
X157158424Y-105442760D01*
G37*
G36*
X130128674Y-105541465D02*
G01*
X130166367Y-105552899D01*
X130201103Y-105571466D01*
X130231548Y-105596452D01*
X130256534Y-105626897D01*
X130275101Y-105661633D01*
X130286535Y-105699326D01*
X130291000Y-105744661D01*
X130291000Y-106581339D01*
X130286535Y-106626674D01*
X130275101Y-106664367D01*
X130256534Y-106699103D01*
X130231548Y-106729548D01*
X130201103Y-106754534D01*
X130166367Y-106773101D01*
X130128674Y-106784535D01*
X130083339Y-106789000D01*
X128996661Y-106789000D01*
X128951326Y-106784535D01*
X128913633Y-106773101D01*
X128878897Y-106754534D01*
X128848452Y-106729548D01*
X128823466Y-106699103D01*
X128804899Y-106664367D01*
X128793465Y-106626674D01*
X128789000Y-106581339D01*
X128789000Y-105744661D01*
X128793465Y-105699326D01*
X128804899Y-105661633D01*
X128823466Y-105626897D01*
X128848452Y-105596452D01*
X128878897Y-105571466D01*
X128913633Y-105552899D01*
X128951326Y-105541465D01*
X128996661Y-105537000D01*
X130083339Y-105537000D01*
X130128674Y-105541465D01*
G37*
G36*
X175848674Y-105541465D02*
G01*
X175886367Y-105552899D01*
X175921103Y-105571466D01*
X175951548Y-105596452D01*
X175976534Y-105626897D01*
X175995101Y-105661633D01*
X176006535Y-105699326D01*
X176011000Y-105744661D01*
X176011000Y-106581339D01*
X176006535Y-106626674D01*
X175995101Y-106664367D01*
X175976534Y-106699103D01*
X175951548Y-106729548D01*
X175921103Y-106754534D01*
X175886367Y-106773101D01*
X175848674Y-106784535D01*
X175803339Y-106789000D01*
X174716661Y-106789000D01*
X174671326Y-106784535D01*
X174633633Y-106773101D01*
X174598897Y-106754534D01*
X174568452Y-106729548D01*
X174543466Y-106699103D01*
X174524899Y-106664367D01*
X174513465Y-106626674D01*
X174509000Y-106581339D01*
X174509000Y-105744661D01*
X174513465Y-105699326D01*
X174524899Y-105661633D01*
X174543466Y-105626897D01*
X174568452Y-105596452D01*
X174598897Y-105571466D01*
X174633633Y-105552899D01*
X174671326Y-105541465D01*
X174716661Y-105537000D01*
X175803339Y-105537000D01*
X175848674Y-105541465D01*
G37*
G36*
X142204674Y-104917465D02*
G01*
X142242367Y-104928899D01*
X142277103Y-104947466D01*
X142307548Y-104972452D01*
X142332534Y-105002897D01*
X142351101Y-105037633D01*
X142362535Y-105075326D01*
X142367000Y-105120661D01*
X142367000Y-106207339D01*
X142362535Y-106252674D01*
X142351101Y-106290367D01*
X142332534Y-106325103D01*
X142307548Y-106355548D01*
X142277103Y-106380534D01*
X142242367Y-106399101D01*
X142204674Y-106410535D01*
X142159339Y-106415000D01*
X141322661Y-106415000D01*
X141277326Y-106410535D01*
X141239633Y-106399101D01*
X141204897Y-106380534D01*
X141174452Y-106355548D01*
X141149466Y-106325103D01*
X141130899Y-106290367D01*
X141119465Y-106252674D01*
X141115000Y-106207339D01*
X141115000Y-105120661D01*
X141119465Y-105075326D01*
X141130899Y-105037633D01*
X141149466Y-105002897D01*
X141174452Y-104972452D01*
X141204897Y-104947466D01*
X141239633Y-104928899D01*
X141277326Y-104917465D01*
X141322661Y-104913000D01*
X142159339Y-104913000D01*
X142204674Y-104917465D01*
G37*
G36*
X140154674Y-104917465D02*
G01*
X140192367Y-104928899D01*
X140227103Y-104947466D01*
X140257548Y-104972452D01*
X140282534Y-105002897D01*
X140301101Y-105037633D01*
X140312535Y-105075326D01*
X140317000Y-105120661D01*
X140317000Y-106207339D01*
X140312535Y-106252674D01*
X140301101Y-106290367D01*
X140282534Y-106325103D01*
X140257548Y-106355548D01*
X140227103Y-106380534D01*
X140192367Y-106399101D01*
X140154674Y-106410535D01*
X140109339Y-106415000D01*
X139272661Y-106415000D01*
X139227326Y-106410535D01*
X139189633Y-106399101D01*
X139154897Y-106380534D01*
X139124452Y-106355548D01*
X139099466Y-106325103D01*
X139080899Y-106290367D01*
X139069465Y-106252674D01*
X139065000Y-106207339D01*
X139065000Y-105120661D01*
X139069465Y-105075326D01*
X139080899Y-105037633D01*
X139099466Y-105002897D01*
X139124452Y-104972452D01*
X139154897Y-104947466D01*
X139189633Y-104928899D01*
X139227326Y-104917465D01*
X139272661Y-104913000D01*
X140109339Y-104913000D01*
X140154674Y-104917465D01*
G37*
G36*
X146250674Y-104917465D02*
G01*
X146288367Y-104928899D01*
X146323103Y-104947466D01*
X146353548Y-104972452D01*
X146378534Y-105002897D01*
X146397101Y-105037633D01*
X146408535Y-105075326D01*
X146413000Y-105120661D01*
X146413000Y-106207339D01*
X146408535Y-106252674D01*
X146397101Y-106290367D01*
X146378534Y-106325103D01*
X146353548Y-106355548D01*
X146323103Y-106380534D01*
X146288367Y-106399101D01*
X146250674Y-106410535D01*
X146205339Y-106415000D01*
X145368661Y-106415000D01*
X145323326Y-106410535D01*
X145285633Y-106399101D01*
X145250897Y-106380534D01*
X145220452Y-106355548D01*
X145195466Y-106325103D01*
X145176899Y-106290367D01*
X145165465Y-106252674D01*
X145161000Y-106207339D01*
X145161000Y-105120661D01*
X145165465Y-105075326D01*
X145176899Y-105037633D01*
X145195466Y-105002897D01*
X145220452Y-104972452D01*
X145250897Y-104947466D01*
X145285633Y-104928899D01*
X145323326Y-104917465D01*
X145368661Y-104913000D01*
X146205339Y-104913000D01*
X146250674Y-104917465D01*
G37*
G36*
X148300674Y-104917465D02*
G01*
X148338367Y-104928899D01*
X148373103Y-104947466D01*
X148403548Y-104972452D01*
X148428534Y-105002897D01*
X148447101Y-105037633D01*
X148458535Y-105075326D01*
X148463000Y-105120661D01*
X148463000Y-106207339D01*
X148458535Y-106252674D01*
X148447101Y-106290367D01*
X148428534Y-106325103D01*
X148403548Y-106355548D01*
X148373103Y-106380534D01*
X148338367Y-106399101D01*
X148300674Y-106410535D01*
X148255339Y-106415000D01*
X147418661Y-106415000D01*
X147373326Y-106410535D01*
X147335633Y-106399101D01*
X147300897Y-106380534D01*
X147270452Y-106355548D01*
X147245466Y-106325103D01*
X147226899Y-106290367D01*
X147215465Y-106252674D01*
X147211000Y-106207339D01*
X147211000Y-105120661D01*
X147215465Y-105075326D01*
X147226899Y-105037633D01*
X147245466Y-105002897D01*
X147270452Y-104972452D01*
X147300897Y-104947466D01*
X147335633Y-104928899D01*
X147373326Y-104917465D01*
X147418661Y-104913000D01*
X148255339Y-104913000D01*
X148300674Y-104917465D01*
G37*
G36*
X151108429Y-99562020D02*
G01*
X151151539Y-99575097D01*
X151191268Y-99596333D01*
X151226090Y-99624910D01*
X151254667Y-99659732D01*
X151275903Y-99699461D01*
X151288980Y-99742571D01*
X151294000Y-99793540D01*
X151294000Y-100847460D01*
X151288980Y-100898429D01*
X151275903Y-100941539D01*
X151254667Y-100981268D01*
X151226090Y-101016090D01*
X151191266Y-101044668D01*
X151149903Y-101066777D01*
X151129529Y-101080390D01*
X151112202Y-101097717D01*
X151098588Y-101118091D01*
X151089211Y-101140730D01*
X151084430Y-101164764D01*
X151084430Y-101189268D01*
X151089210Y-101213301D01*
X151098588Y-101235940D01*
X151112201Y-101256314D01*
X151129528Y-101273641D01*
X151149903Y-101287255D01*
X151198902Y-101313446D01*
X151343712Y-101432288D01*
X151462554Y-101577097D01*
X151533057Y-101709000D01*
X151550860Y-101742307D01*
X151564244Y-101786429D01*
X151605240Y-101921575D01*
X151623601Y-102108000D01*
X151605240Y-102294425D01*
X151605239Y-102294428D01*
X151605239Y-102294429D01*
X151550860Y-102473693D01*
X151550858Y-102473696D01*
X151550858Y-102473697D01*
X151462554Y-102638903D01*
X151343712Y-102783712D01*
X151198902Y-102902554D01*
X151149903Y-102928745D01*
X151129528Y-102942359D01*
X151112201Y-102959686D01*
X151098588Y-102980060D01*
X151089210Y-103002699D01*
X151084430Y-103026732D01*
X151084430Y-103051236D01*
X151089211Y-103075270D01*
X151098588Y-103097908D01*
X151112202Y-103118283D01*
X151129529Y-103135610D01*
X151149903Y-103149223D01*
X151191266Y-103171332D01*
X151226090Y-103199910D01*
X151254667Y-103234732D01*
X151275903Y-103274461D01*
X151288980Y-103317571D01*
X151294000Y-103368540D01*
X151294000Y-104422460D01*
X151288980Y-104473429D01*
X151275903Y-104516539D01*
X151254667Y-104556268D01*
X151226090Y-104591090D01*
X151191268Y-104619667D01*
X151151539Y-104640903D01*
X151108429Y-104653980D01*
X151057460Y-104659000D01*
X149678540Y-104659000D01*
X149627571Y-104653980D01*
X149584461Y-104640903D01*
X149544732Y-104619667D01*
X149509910Y-104591090D01*
X149481333Y-104556268D01*
X149460097Y-104516539D01*
X149447020Y-104473429D01*
X149442000Y-104422460D01*
X149442000Y-103368540D01*
X149447020Y-103317571D01*
X149460097Y-103274461D01*
X149481333Y-103234732D01*
X149509910Y-103199910D01*
X149544734Y-103171332D01*
X149586097Y-103149223D01*
X149606471Y-103135610D01*
X149623798Y-103118283D01*
X149637412Y-103097909D01*
X149646789Y-103075270D01*
X149651570Y-103051236D01*
X149651570Y-103026732D01*
X149646790Y-103002699D01*
X149637412Y-102980060D01*
X149623799Y-102959686D01*
X149606472Y-102942359D01*
X149586097Y-102928745D01*
X149537098Y-102902554D01*
X149392288Y-102783712D01*
X149273446Y-102638903D01*
X149185142Y-102473697D01*
X149185142Y-102473696D01*
X149185140Y-102473693D01*
X149130761Y-102294429D01*
X149130761Y-102294428D01*
X149130760Y-102294425D01*
X149112399Y-102108000D01*
X149130760Y-101921575D01*
X149171756Y-101786429D01*
X149185140Y-101742307D01*
X149202943Y-101709000D01*
X149273446Y-101577097D01*
X149392288Y-101432288D01*
X149537098Y-101313446D01*
X149586097Y-101287255D01*
X149606472Y-101273641D01*
X149623799Y-101256314D01*
X149637412Y-101235940D01*
X149646790Y-101213301D01*
X149651570Y-101189268D01*
X149651570Y-101164764D01*
X149646789Y-101140730D01*
X149637412Y-101118092D01*
X149623798Y-101097717D01*
X149606471Y-101080390D01*
X149586097Y-101066777D01*
X149544734Y-101044668D01*
X149509910Y-101016090D01*
X149481333Y-100981268D01*
X149460097Y-100941539D01*
X149447020Y-100898429D01*
X149442000Y-100847460D01*
X149442000Y-99793540D01*
X149447020Y-99742571D01*
X149460097Y-99699461D01*
X149481333Y-99659732D01*
X149509910Y-99624910D01*
X149544732Y-99596333D01*
X149584461Y-99575097D01*
X149627571Y-99562020D01*
X149678540Y-99557000D01*
X151057460Y-99557000D01*
X151108429Y-99562020D01*
G37*
G36*
X155172429Y-99562020D02*
G01*
X155215539Y-99575097D01*
X155255268Y-99596333D01*
X155290090Y-99624910D01*
X155318667Y-99659732D01*
X155339903Y-99699461D01*
X155352980Y-99742571D01*
X155358000Y-99793540D01*
X155358000Y-100847460D01*
X155352980Y-100898429D01*
X155339903Y-100941539D01*
X155318667Y-100981268D01*
X155290090Y-101016090D01*
X155255266Y-101044668D01*
X155213903Y-101066777D01*
X155193529Y-101080390D01*
X155176202Y-101097717D01*
X155162588Y-101118091D01*
X155153211Y-101140730D01*
X155148430Y-101164764D01*
X155148430Y-101189268D01*
X155153210Y-101213301D01*
X155162588Y-101235940D01*
X155176201Y-101256314D01*
X155193528Y-101273641D01*
X155213903Y-101287255D01*
X155262902Y-101313446D01*
X155407712Y-101432288D01*
X155526554Y-101577097D01*
X155597057Y-101709000D01*
X155614860Y-101742307D01*
X155628244Y-101786429D01*
X155669240Y-101921575D01*
X155687601Y-102108000D01*
X155669240Y-102294425D01*
X155669239Y-102294428D01*
X155669239Y-102294429D01*
X155614860Y-102473693D01*
X155614858Y-102473696D01*
X155614858Y-102473697D01*
X155526554Y-102638903D01*
X155407712Y-102783712D01*
X155262902Y-102902554D01*
X155213903Y-102928745D01*
X155193528Y-102942359D01*
X155176201Y-102959686D01*
X155162588Y-102980060D01*
X155153210Y-103002699D01*
X155148430Y-103026732D01*
X155148430Y-103051236D01*
X155153211Y-103075270D01*
X155162588Y-103097908D01*
X155176202Y-103118283D01*
X155193529Y-103135610D01*
X155213903Y-103149223D01*
X155255266Y-103171332D01*
X155290090Y-103199910D01*
X155318667Y-103234732D01*
X155339903Y-103274461D01*
X155352980Y-103317571D01*
X155358000Y-103368540D01*
X155358000Y-104422460D01*
X155352980Y-104473429D01*
X155339903Y-104516539D01*
X155318667Y-104556268D01*
X155290090Y-104591090D01*
X155255268Y-104619667D01*
X155215539Y-104640903D01*
X155172429Y-104653980D01*
X155121460Y-104659000D01*
X153742540Y-104659000D01*
X153691571Y-104653980D01*
X153648461Y-104640903D01*
X153608732Y-104619667D01*
X153573910Y-104591090D01*
X153545333Y-104556268D01*
X153524097Y-104516539D01*
X153511020Y-104473429D01*
X153506000Y-104422460D01*
X153506000Y-103368540D01*
X153511020Y-103317571D01*
X153524097Y-103274461D01*
X153545333Y-103234732D01*
X153573910Y-103199910D01*
X153608734Y-103171332D01*
X153650097Y-103149223D01*
X153670471Y-103135610D01*
X153687798Y-103118283D01*
X153701412Y-103097909D01*
X153710789Y-103075270D01*
X153715570Y-103051236D01*
X153715570Y-103026732D01*
X153710790Y-103002699D01*
X153701412Y-102980060D01*
X153687799Y-102959686D01*
X153670472Y-102942359D01*
X153650097Y-102928745D01*
X153601098Y-102902554D01*
X153456288Y-102783712D01*
X153337446Y-102638903D01*
X153249142Y-102473697D01*
X153249142Y-102473696D01*
X153249140Y-102473693D01*
X153194761Y-102294429D01*
X153194761Y-102294428D01*
X153194760Y-102294425D01*
X153176399Y-102108000D01*
X153194760Y-101921575D01*
X153235756Y-101786429D01*
X153249140Y-101742307D01*
X153266943Y-101709000D01*
X153337446Y-101577097D01*
X153456288Y-101432288D01*
X153601098Y-101313446D01*
X153650097Y-101287255D01*
X153670472Y-101273641D01*
X153687799Y-101256314D01*
X153701412Y-101235940D01*
X153710790Y-101213301D01*
X153715570Y-101189268D01*
X153715570Y-101164764D01*
X153710789Y-101140730D01*
X153701412Y-101118092D01*
X153687798Y-101097717D01*
X153670471Y-101080390D01*
X153650097Y-101066777D01*
X153608734Y-101044668D01*
X153573910Y-101016090D01*
X153545333Y-100981268D01*
X153524097Y-100941539D01*
X153511020Y-100898429D01*
X153506000Y-100847460D01*
X153506000Y-99793540D01*
X153511020Y-99742571D01*
X153524097Y-99699461D01*
X153545333Y-99659732D01*
X153573910Y-99624910D01*
X153608732Y-99596333D01*
X153648461Y-99575097D01*
X153691571Y-99562020D01*
X153742540Y-99557000D01*
X155121460Y-99557000D01*
X155172429Y-99562020D01*
G37*
G36*
X166585000Y-104271000D02*
G01*
X164583000Y-104271000D01*
X164583000Y-103369000D01*
X166585000Y-103369000D01*
X166585000Y-104271000D01*
G37*
G36*
X176000429Y-99054020D02*
G01*
X176043539Y-99067097D01*
X176083268Y-99088333D01*
X176118090Y-99116910D01*
X176146667Y-99151732D01*
X176167903Y-99191461D01*
X176180980Y-99234571D01*
X176186000Y-99285540D01*
X176186000Y-100339460D01*
X176180980Y-100390429D01*
X176167903Y-100433539D01*
X176146667Y-100473268D01*
X176118090Y-100508090D01*
X176083266Y-100536668D01*
X176041903Y-100558777D01*
X176021529Y-100572390D01*
X176004202Y-100589717D01*
X175990588Y-100610091D01*
X175981211Y-100632730D01*
X175976430Y-100656764D01*
X175976430Y-100681268D01*
X175981210Y-100705301D01*
X175990588Y-100727940D01*
X176004201Y-100748314D01*
X176021528Y-100765641D01*
X176041903Y-100779255D01*
X176090902Y-100805446D01*
X176235712Y-100924288D01*
X176354554Y-101069097D01*
X176408894Y-101170761D01*
X176442860Y-101234307D01*
X176497239Y-101413571D01*
X176497240Y-101413575D01*
X176515601Y-101600000D01*
X176497240Y-101786425D01*
X176497239Y-101786428D01*
X176497239Y-101786429D01*
X176442860Y-101965693D01*
X176442858Y-101965696D01*
X176442858Y-101965697D01*
X176354554Y-102130903D01*
X176235712Y-102275712D01*
X176090902Y-102394554D01*
X176041903Y-102420745D01*
X176021528Y-102434359D01*
X176004201Y-102451686D01*
X175990588Y-102472060D01*
X175981210Y-102494699D01*
X175976430Y-102518732D01*
X175976430Y-102543236D01*
X175981211Y-102567270D01*
X175990588Y-102589908D01*
X176004202Y-102610283D01*
X176021529Y-102627610D01*
X176041903Y-102641223D01*
X176083266Y-102663332D01*
X176118090Y-102691910D01*
X176146667Y-102726732D01*
X176167903Y-102766461D01*
X176180980Y-102809571D01*
X176186000Y-102860540D01*
X176186000Y-103914460D01*
X176180980Y-103965429D01*
X176167903Y-104008539D01*
X176146667Y-104048268D01*
X176118090Y-104083090D01*
X176083268Y-104111667D01*
X176043539Y-104132903D01*
X176000429Y-104145980D01*
X175949460Y-104151000D01*
X174570540Y-104151000D01*
X174519571Y-104145980D01*
X174476461Y-104132903D01*
X174436732Y-104111667D01*
X174401910Y-104083090D01*
X174373333Y-104048268D01*
X174352097Y-104008539D01*
X174339020Y-103965429D01*
X174334000Y-103914460D01*
X174334000Y-102860540D01*
X174339020Y-102809571D01*
X174352097Y-102766461D01*
X174373333Y-102726732D01*
X174401910Y-102691910D01*
X174436734Y-102663332D01*
X174478097Y-102641223D01*
X174498471Y-102627610D01*
X174515798Y-102610283D01*
X174529412Y-102589909D01*
X174538789Y-102567270D01*
X174543570Y-102543236D01*
X174543570Y-102518732D01*
X174538790Y-102494699D01*
X174529412Y-102472060D01*
X174515799Y-102451686D01*
X174498472Y-102434359D01*
X174478097Y-102420745D01*
X174429098Y-102394554D01*
X174284288Y-102275712D01*
X174165446Y-102130903D01*
X174077142Y-101965697D01*
X174077142Y-101965696D01*
X174077140Y-101965693D01*
X174022761Y-101786429D01*
X174022761Y-101786428D01*
X174022760Y-101786425D01*
X174004399Y-101600000D01*
X174022760Y-101413575D01*
X174022761Y-101413571D01*
X174077140Y-101234307D01*
X174111106Y-101170761D01*
X174165446Y-101069097D01*
X174284288Y-100924288D01*
X174429098Y-100805446D01*
X174478097Y-100779255D01*
X174498472Y-100765641D01*
X174515799Y-100748314D01*
X174529412Y-100727940D01*
X174538790Y-100705301D01*
X174543570Y-100681268D01*
X174543570Y-100656764D01*
X174538789Y-100632730D01*
X174529412Y-100610092D01*
X174515798Y-100589717D01*
X174498471Y-100572390D01*
X174478097Y-100558777D01*
X174436734Y-100536668D01*
X174401910Y-100508090D01*
X174373333Y-100473268D01*
X174352097Y-100433539D01*
X174339020Y-100390429D01*
X174334000Y-100339460D01*
X174334000Y-99285540D01*
X174339020Y-99234571D01*
X174352097Y-99191461D01*
X174373333Y-99151732D01*
X174401910Y-99116910D01*
X174436732Y-99088333D01*
X174476461Y-99067097D01*
X174519571Y-99054020D01*
X174570540Y-99049000D01*
X175949460Y-99049000D01*
X176000429Y-99054020D01*
G37*
G36*
X130280429Y-99054020D02*
G01*
X130323539Y-99067097D01*
X130363268Y-99088333D01*
X130398090Y-99116910D01*
X130426667Y-99151732D01*
X130447903Y-99191461D01*
X130460980Y-99234571D01*
X130466000Y-99285540D01*
X130466000Y-100339460D01*
X130460980Y-100390429D01*
X130447903Y-100433539D01*
X130426667Y-100473268D01*
X130398090Y-100508090D01*
X130363266Y-100536668D01*
X130321903Y-100558777D01*
X130301529Y-100572390D01*
X130284202Y-100589717D01*
X130270588Y-100610091D01*
X130261211Y-100632730D01*
X130256430Y-100656764D01*
X130256430Y-100681268D01*
X130261210Y-100705301D01*
X130270588Y-100727940D01*
X130284201Y-100748314D01*
X130301528Y-100765641D01*
X130321903Y-100779255D01*
X130370902Y-100805446D01*
X130515712Y-100924288D01*
X130634554Y-101069097D01*
X130688894Y-101170761D01*
X130722860Y-101234307D01*
X130777239Y-101413571D01*
X130777240Y-101413575D01*
X130795601Y-101600000D01*
X130777240Y-101786425D01*
X130777239Y-101786428D01*
X130777239Y-101786429D01*
X130722860Y-101965693D01*
X130722858Y-101965696D01*
X130722858Y-101965697D01*
X130634554Y-102130903D01*
X130515712Y-102275712D01*
X130370902Y-102394554D01*
X130321903Y-102420745D01*
X130301528Y-102434359D01*
X130284201Y-102451686D01*
X130270588Y-102472060D01*
X130261210Y-102494699D01*
X130256430Y-102518732D01*
X130256430Y-102543236D01*
X130261211Y-102567270D01*
X130270588Y-102589908D01*
X130284202Y-102610283D01*
X130301529Y-102627610D01*
X130321903Y-102641223D01*
X130363266Y-102663332D01*
X130398090Y-102691910D01*
X130426667Y-102726732D01*
X130447903Y-102766461D01*
X130460980Y-102809571D01*
X130466000Y-102860540D01*
X130466000Y-103914460D01*
X130460980Y-103965429D01*
X130447903Y-104008539D01*
X130426667Y-104048268D01*
X130398090Y-104083090D01*
X130363268Y-104111667D01*
X130323539Y-104132903D01*
X130280429Y-104145980D01*
X130229460Y-104151000D01*
X128850540Y-104151000D01*
X128799571Y-104145980D01*
X128756461Y-104132903D01*
X128716732Y-104111667D01*
X128681910Y-104083090D01*
X128653333Y-104048268D01*
X128632097Y-104008539D01*
X128619020Y-103965429D01*
X128614000Y-103914460D01*
X128614000Y-102860540D01*
X128619020Y-102809571D01*
X128632097Y-102766461D01*
X128653333Y-102726732D01*
X128681910Y-102691910D01*
X128716734Y-102663332D01*
X128758097Y-102641223D01*
X128778471Y-102627610D01*
X128795798Y-102610283D01*
X128809412Y-102589909D01*
X128818789Y-102567270D01*
X128823570Y-102543236D01*
X128823570Y-102518732D01*
X128818790Y-102494699D01*
X128809412Y-102472060D01*
X128795799Y-102451686D01*
X128778472Y-102434359D01*
X128758097Y-102420745D01*
X128709098Y-102394554D01*
X128564288Y-102275712D01*
X128445446Y-102130903D01*
X128357142Y-101965697D01*
X128357142Y-101965696D01*
X128357140Y-101965693D01*
X128302761Y-101786429D01*
X128302761Y-101786428D01*
X128302760Y-101786425D01*
X128284399Y-101600000D01*
X128302760Y-101413575D01*
X128302761Y-101413571D01*
X128357140Y-101234307D01*
X128391106Y-101170761D01*
X128445446Y-101069097D01*
X128564288Y-100924288D01*
X128709098Y-100805446D01*
X128758097Y-100779255D01*
X128778472Y-100765641D01*
X128795799Y-100748314D01*
X128809412Y-100727940D01*
X128818790Y-100705301D01*
X128823570Y-100681268D01*
X128823570Y-100656764D01*
X128818789Y-100632730D01*
X128809412Y-100610092D01*
X128795798Y-100589717D01*
X128778471Y-100572390D01*
X128758097Y-100558777D01*
X128716734Y-100536668D01*
X128681910Y-100508090D01*
X128653333Y-100473268D01*
X128632097Y-100433539D01*
X128619020Y-100390429D01*
X128614000Y-100339460D01*
X128614000Y-99285540D01*
X128619020Y-99234571D01*
X128632097Y-99191461D01*
X128653333Y-99151732D01*
X128681910Y-99116910D01*
X128716732Y-99088333D01*
X128756461Y-99067097D01*
X128799571Y-99054020D01*
X128850540Y-99049000D01*
X130229460Y-99049000D01*
X130280429Y-99054020D01*
G37*
G36*
X147908674Y-102511465D02*
G01*
X147946367Y-102522899D01*
X147981103Y-102541466D01*
X148011548Y-102566452D01*
X148036534Y-102596897D01*
X148055101Y-102631633D01*
X148066535Y-102669326D01*
X148071000Y-102714661D01*
X148071000Y-103551339D01*
X148066535Y-103596674D01*
X148055101Y-103634367D01*
X148036534Y-103669103D01*
X148011548Y-103699548D01*
X147981103Y-103724534D01*
X147946367Y-103743101D01*
X147908674Y-103754535D01*
X147863339Y-103759000D01*
X146776661Y-103759000D01*
X146731326Y-103754535D01*
X146693633Y-103743101D01*
X146658897Y-103724534D01*
X146628452Y-103699548D01*
X146603466Y-103669103D01*
X146584899Y-103634367D01*
X146573465Y-103596674D01*
X146569000Y-103551339D01*
X146569000Y-102714661D01*
X146573465Y-102669326D01*
X146584899Y-102631633D01*
X146603466Y-102596897D01*
X146628452Y-102566452D01*
X146658897Y-102541466D01*
X146693633Y-102522899D01*
X146731326Y-102511465D01*
X146776661Y-102507000D01*
X147863339Y-102507000D01*
X147908674Y-102511465D01*
G37*
G36*
X158068674Y-102511465D02*
G01*
X158106367Y-102522899D01*
X158141103Y-102541466D01*
X158171548Y-102566452D01*
X158196534Y-102596897D01*
X158215101Y-102631633D01*
X158226535Y-102669326D01*
X158231000Y-102714661D01*
X158231000Y-103551339D01*
X158226535Y-103596674D01*
X158215101Y-103634367D01*
X158196534Y-103669103D01*
X158171548Y-103699548D01*
X158141103Y-103724534D01*
X158106367Y-103743101D01*
X158068674Y-103754535D01*
X158023339Y-103759000D01*
X156936661Y-103759000D01*
X156891326Y-103754535D01*
X156853633Y-103743101D01*
X156818897Y-103724534D01*
X156788452Y-103699548D01*
X156763466Y-103669103D01*
X156744899Y-103634367D01*
X156733465Y-103596674D01*
X156729000Y-103551339D01*
X156729000Y-102714661D01*
X156733465Y-102669326D01*
X156744899Y-102631633D01*
X156763466Y-102596897D01*
X156788452Y-102566452D01*
X156818897Y-102541466D01*
X156853633Y-102522899D01*
X156891326Y-102511465D01*
X156936661Y-102507000D01*
X158023339Y-102507000D01*
X158068674Y-102511465D01*
G37*
G36*
X163585000Y-103321000D02*
G01*
X161583000Y-103321000D01*
X161583000Y-102419000D01*
X163585000Y-102419000D01*
X163585000Y-103321000D01*
G37*
G36*
X166585000Y-102371000D02*
G01*
X164583000Y-102371000D01*
X164583000Y-101469000D01*
X166585000Y-101469000D01*
X166585000Y-102371000D01*
G37*
G36*
X158068674Y-100461465D02*
G01*
X158106367Y-100472899D01*
X158141103Y-100491466D01*
X158171548Y-100516452D01*
X158196534Y-100546897D01*
X158215101Y-100581633D01*
X158226535Y-100619326D01*
X158231000Y-100664661D01*
X158231000Y-101501339D01*
X158226535Y-101546674D01*
X158215101Y-101584367D01*
X158196534Y-101619103D01*
X158171548Y-101649548D01*
X158141103Y-101674534D01*
X158106367Y-101693101D01*
X158068674Y-101704535D01*
X158023339Y-101709000D01*
X156936661Y-101709000D01*
X156891326Y-101704535D01*
X156853633Y-101693101D01*
X156818897Y-101674534D01*
X156788452Y-101649548D01*
X156763466Y-101619103D01*
X156744899Y-101584367D01*
X156733465Y-101546674D01*
X156729000Y-101501339D01*
X156729000Y-100664661D01*
X156733465Y-100619326D01*
X156744899Y-100581633D01*
X156763466Y-100546897D01*
X156788452Y-100516452D01*
X156818897Y-100491466D01*
X156853633Y-100472899D01*
X156891326Y-100461465D01*
X156936661Y-100457000D01*
X158023339Y-100457000D01*
X158068674Y-100461465D01*
G37*
G36*
X147908674Y-100461465D02*
G01*
X147946367Y-100472899D01*
X147981103Y-100491466D01*
X148011548Y-100516452D01*
X148036534Y-100546897D01*
X148055101Y-100581633D01*
X148066535Y-100619326D01*
X148071000Y-100664661D01*
X148071000Y-101501339D01*
X148066535Y-101546674D01*
X148055101Y-101584367D01*
X148036534Y-101619103D01*
X148011548Y-101649548D01*
X147981103Y-101674534D01*
X147946367Y-101693101D01*
X147908674Y-101704535D01*
X147863339Y-101709000D01*
X146776661Y-101709000D01*
X146731326Y-101704535D01*
X146693633Y-101693101D01*
X146658897Y-101674534D01*
X146628452Y-101649548D01*
X146603466Y-101619103D01*
X146584899Y-101584367D01*
X146573465Y-101546674D01*
X146569000Y-101501339D01*
X146569000Y-100664661D01*
X146573465Y-100619326D01*
X146584899Y-100581633D01*
X146603466Y-100546897D01*
X146628452Y-100516452D01*
X146658897Y-100491466D01*
X146693633Y-100472899D01*
X146731326Y-100461465D01*
X146776661Y-100457000D01*
X147863339Y-100457000D01*
X147908674Y-100461465D01*
G37*
G36*
X135360429Y-93974020D02*
G01*
X135403539Y-93987097D01*
X135443268Y-94008333D01*
X135478090Y-94036910D01*
X135506667Y-94071732D01*
X135527903Y-94111461D01*
X135540980Y-94154571D01*
X135546000Y-94205540D01*
X135546000Y-95259460D01*
X135540980Y-95310429D01*
X135527903Y-95353539D01*
X135506667Y-95393268D01*
X135478090Y-95428090D01*
X135443266Y-95456668D01*
X135401903Y-95478777D01*
X135381529Y-95492390D01*
X135364202Y-95509717D01*
X135350588Y-95530091D01*
X135341211Y-95552730D01*
X135336430Y-95576764D01*
X135336430Y-95601268D01*
X135341210Y-95625301D01*
X135350588Y-95647940D01*
X135364201Y-95668314D01*
X135381528Y-95685641D01*
X135401903Y-95699255D01*
X135450902Y-95725446D01*
X135595712Y-95844288D01*
X135714554Y-95989097D01*
X135785057Y-96121000D01*
X135802860Y-96154307D01*
X135857239Y-96333571D01*
X135857240Y-96333575D01*
X135875601Y-96520000D01*
X135857240Y-96706425D01*
X135857239Y-96706428D01*
X135857239Y-96706429D01*
X135802860Y-96885693D01*
X135802858Y-96885696D01*
X135802858Y-96885697D01*
X135714554Y-97050903D01*
X135595712Y-97195712D01*
X135450902Y-97314554D01*
X135401903Y-97340745D01*
X135381528Y-97354359D01*
X135364201Y-97371686D01*
X135350588Y-97392060D01*
X135341210Y-97414699D01*
X135336430Y-97438732D01*
X135336430Y-97463236D01*
X135341211Y-97487270D01*
X135350588Y-97509908D01*
X135364202Y-97530283D01*
X135381529Y-97547610D01*
X135401903Y-97561223D01*
X135443266Y-97583332D01*
X135478090Y-97611910D01*
X135506667Y-97646732D01*
X135527903Y-97686461D01*
X135540980Y-97729571D01*
X135546000Y-97780540D01*
X135546000Y-98834460D01*
X135540980Y-98885429D01*
X135527903Y-98928539D01*
X135506667Y-98968268D01*
X135478090Y-99003090D01*
X135443268Y-99031667D01*
X135403539Y-99052903D01*
X135360429Y-99065980D01*
X135309460Y-99071000D01*
X133930540Y-99071000D01*
X133879571Y-99065980D01*
X133836461Y-99052903D01*
X133796732Y-99031667D01*
X133761910Y-99003090D01*
X133733333Y-98968268D01*
X133712097Y-98928539D01*
X133699020Y-98885429D01*
X133694000Y-98834460D01*
X133694000Y-97780540D01*
X133699020Y-97729571D01*
X133712097Y-97686461D01*
X133733333Y-97646732D01*
X133761910Y-97611910D01*
X133796734Y-97583332D01*
X133838097Y-97561223D01*
X133858471Y-97547610D01*
X133875798Y-97530283D01*
X133889412Y-97509909D01*
X133898789Y-97487270D01*
X133903570Y-97463236D01*
X133903570Y-97438732D01*
X133898790Y-97414699D01*
X133889412Y-97392060D01*
X133875799Y-97371686D01*
X133858472Y-97354359D01*
X133838097Y-97340745D01*
X133789098Y-97314554D01*
X133644288Y-97195712D01*
X133525446Y-97050903D01*
X133437142Y-96885697D01*
X133437142Y-96885696D01*
X133437140Y-96885693D01*
X133382761Y-96706429D01*
X133382761Y-96706428D01*
X133382760Y-96706425D01*
X133364399Y-96520000D01*
X133382760Y-96333575D01*
X133382761Y-96333571D01*
X133437140Y-96154307D01*
X133454943Y-96121000D01*
X133525446Y-95989097D01*
X133644288Y-95844288D01*
X133789098Y-95725446D01*
X133838097Y-95699255D01*
X133858472Y-95685641D01*
X133875799Y-95668314D01*
X133889412Y-95647940D01*
X133898790Y-95625301D01*
X133903570Y-95601268D01*
X133903570Y-95576764D01*
X133898789Y-95552730D01*
X133889412Y-95530092D01*
X133875798Y-95509717D01*
X133858471Y-95492390D01*
X133838097Y-95478777D01*
X133796734Y-95456668D01*
X133761910Y-95428090D01*
X133733333Y-95393268D01*
X133712097Y-95353539D01*
X133699020Y-95310429D01*
X133694000Y-95259460D01*
X133694000Y-94205540D01*
X133699020Y-94154571D01*
X133712097Y-94111461D01*
X133733333Y-94071732D01*
X133761910Y-94036910D01*
X133796732Y-94008333D01*
X133836461Y-93987097D01*
X133879571Y-93974020D01*
X133930540Y-93969000D01*
X135309460Y-93969000D01*
X135360429Y-93974020D01*
G37*
G36*
X170920429Y-93974020D02*
G01*
X170963539Y-93987097D01*
X171003268Y-94008333D01*
X171038090Y-94036910D01*
X171066667Y-94071732D01*
X171087903Y-94111461D01*
X171100980Y-94154571D01*
X171106000Y-94205540D01*
X171106000Y-95259460D01*
X171100980Y-95310429D01*
X171087903Y-95353539D01*
X171066667Y-95393268D01*
X171038090Y-95428090D01*
X171003266Y-95456668D01*
X170961903Y-95478777D01*
X170941529Y-95492390D01*
X170924202Y-95509717D01*
X170910588Y-95530091D01*
X170901211Y-95552730D01*
X170896430Y-95576764D01*
X170896430Y-95601268D01*
X170901210Y-95625301D01*
X170910588Y-95647940D01*
X170924201Y-95668314D01*
X170941528Y-95685641D01*
X170961903Y-95699255D01*
X171010902Y-95725446D01*
X171155712Y-95844288D01*
X171274554Y-95989097D01*
X171345057Y-96121000D01*
X171362860Y-96154307D01*
X171417239Y-96333571D01*
X171417240Y-96333575D01*
X171435601Y-96520000D01*
X171417240Y-96706425D01*
X171417239Y-96706428D01*
X171417239Y-96706429D01*
X171362860Y-96885693D01*
X171362858Y-96885696D01*
X171362858Y-96885697D01*
X171274554Y-97050903D01*
X171155712Y-97195712D01*
X171010902Y-97314554D01*
X170961903Y-97340745D01*
X170941528Y-97354359D01*
X170924201Y-97371686D01*
X170910588Y-97392060D01*
X170901210Y-97414699D01*
X170896430Y-97438732D01*
X170896430Y-97463236D01*
X170901211Y-97487270D01*
X170910588Y-97509908D01*
X170924202Y-97530283D01*
X170941529Y-97547610D01*
X170961903Y-97561223D01*
X171003266Y-97583332D01*
X171038090Y-97611910D01*
X171066667Y-97646732D01*
X171087903Y-97686461D01*
X171100980Y-97729571D01*
X171106000Y-97780540D01*
X171106000Y-98834460D01*
X171100980Y-98885429D01*
X171087903Y-98928539D01*
X171066667Y-98968268D01*
X171038090Y-99003090D01*
X171003268Y-99031667D01*
X170963539Y-99052903D01*
X170920429Y-99065980D01*
X170869460Y-99071000D01*
X169490540Y-99071000D01*
X169439571Y-99065980D01*
X169396461Y-99052903D01*
X169356732Y-99031667D01*
X169321910Y-99003090D01*
X169293333Y-98968268D01*
X169272097Y-98928539D01*
X169259020Y-98885429D01*
X169254000Y-98834460D01*
X169254000Y-97780540D01*
X169259020Y-97729571D01*
X169272097Y-97686461D01*
X169293333Y-97646732D01*
X169321910Y-97611910D01*
X169356734Y-97583332D01*
X169398097Y-97561223D01*
X169418471Y-97547610D01*
X169435798Y-97530283D01*
X169449412Y-97509909D01*
X169458789Y-97487270D01*
X169463570Y-97463236D01*
X169463570Y-97438732D01*
X169458790Y-97414699D01*
X169449412Y-97392060D01*
X169435799Y-97371686D01*
X169418472Y-97354359D01*
X169398097Y-97340745D01*
X169349098Y-97314554D01*
X169204288Y-97195712D01*
X169085446Y-97050903D01*
X168997142Y-96885697D01*
X168997142Y-96885696D01*
X168997140Y-96885693D01*
X168942761Y-96706429D01*
X168942761Y-96706428D01*
X168942760Y-96706425D01*
X168924399Y-96520000D01*
X168942760Y-96333575D01*
X168942761Y-96333571D01*
X168997140Y-96154307D01*
X169014943Y-96121000D01*
X169085446Y-95989097D01*
X169204288Y-95844288D01*
X169349098Y-95725446D01*
X169398097Y-95699255D01*
X169418472Y-95685641D01*
X169435799Y-95668314D01*
X169449412Y-95647940D01*
X169458790Y-95625301D01*
X169463570Y-95601268D01*
X169463570Y-95576764D01*
X169458789Y-95552730D01*
X169449412Y-95530092D01*
X169435798Y-95509717D01*
X169418471Y-95492390D01*
X169398097Y-95478777D01*
X169356734Y-95456668D01*
X169321910Y-95428090D01*
X169293333Y-95393268D01*
X169272097Y-95353539D01*
X169259020Y-95310429D01*
X169254000Y-95259460D01*
X169254000Y-94205540D01*
X169259020Y-94154571D01*
X169272097Y-94111461D01*
X169293333Y-94071732D01*
X169321910Y-94036910D01*
X169356732Y-94008333D01*
X169396461Y-93987097D01*
X169439571Y-93974020D01*
X169490540Y-93969000D01*
X170869460Y-93969000D01*
X170920429Y-93974020D01*
G37*
G36*
X138256674Y-96923465D02*
G01*
X138294367Y-96934899D01*
X138329103Y-96953466D01*
X138359548Y-96978452D01*
X138384534Y-97008897D01*
X138403101Y-97043633D01*
X138414535Y-97081326D01*
X138419000Y-97126661D01*
X138419000Y-97963339D01*
X138414535Y-98008674D01*
X138403101Y-98046367D01*
X138384534Y-98081103D01*
X138359548Y-98111548D01*
X138329103Y-98136534D01*
X138294367Y-98155101D01*
X138256674Y-98166535D01*
X138211339Y-98171000D01*
X137124661Y-98171000D01*
X137079326Y-98166535D01*
X137041633Y-98155101D01*
X137006897Y-98136534D01*
X136976452Y-98111548D01*
X136951466Y-98081103D01*
X136932899Y-98046367D01*
X136921465Y-98008674D01*
X136917000Y-97963339D01*
X136917000Y-97126661D01*
X136921465Y-97081326D01*
X136932899Y-97043633D01*
X136951466Y-97008897D01*
X136976452Y-96978452D01*
X137006897Y-96953466D01*
X137041633Y-96934899D01*
X137079326Y-96923465D01*
X137124661Y-96919000D01*
X138211339Y-96919000D01*
X138256674Y-96923465D01*
G37*
G36*
X167720674Y-96923465D02*
G01*
X167758367Y-96934899D01*
X167793103Y-96953466D01*
X167823548Y-96978452D01*
X167848534Y-97008897D01*
X167867101Y-97043633D01*
X167878535Y-97081326D01*
X167883000Y-97126661D01*
X167883000Y-97963339D01*
X167878535Y-98008674D01*
X167867101Y-98046367D01*
X167848534Y-98081103D01*
X167823548Y-98111548D01*
X167793103Y-98136534D01*
X167758367Y-98155101D01*
X167720674Y-98166535D01*
X167675339Y-98171000D01*
X166588661Y-98171000D01*
X166543326Y-98166535D01*
X166505633Y-98155101D01*
X166470897Y-98136534D01*
X166440452Y-98111548D01*
X166415466Y-98081103D01*
X166396899Y-98046367D01*
X166385465Y-98008674D01*
X166381000Y-97963339D01*
X166381000Y-97126661D01*
X166385465Y-97081326D01*
X166396899Y-97043633D01*
X166415466Y-97008897D01*
X166440452Y-96978452D01*
X166470897Y-96953466D01*
X166505633Y-96934899D01*
X166543326Y-96923465D01*
X166588661Y-96919000D01*
X167675339Y-96919000D01*
X167720674Y-96923465D01*
G37*
G36*
X167720674Y-94873465D02*
G01*
X167758367Y-94884899D01*
X167793103Y-94903466D01*
X167823548Y-94928452D01*
X167848534Y-94958897D01*
X167867101Y-94993633D01*
X167878535Y-95031326D01*
X167883000Y-95076661D01*
X167883000Y-95913339D01*
X167878535Y-95958674D01*
X167867101Y-95996367D01*
X167848534Y-96031103D01*
X167823548Y-96061548D01*
X167793103Y-96086534D01*
X167758367Y-96105101D01*
X167720674Y-96116535D01*
X167675339Y-96121000D01*
X166588661Y-96121000D01*
X166543326Y-96116535D01*
X166505633Y-96105101D01*
X166470897Y-96086534D01*
X166440452Y-96061548D01*
X166415466Y-96031103D01*
X166396899Y-95996367D01*
X166385465Y-95958674D01*
X166381000Y-95913339D01*
X166381000Y-95076661D01*
X166385465Y-95031326D01*
X166396899Y-94993633D01*
X166415466Y-94958897D01*
X166440452Y-94928452D01*
X166470897Y-94903466D01*
X166505633Y-94884899D01*
X166543326Y-94873465D01*
X166588661Y-94869000D01*
X167675339Y-94869000D01*
X167720674Y-94873465D01*
G37*
G36*
X138256674Y-94873465D02*
G01*
X138294367Y-94884899D01*
X138329103Y-94903466D01*
X138359548Y-94928452D01*
X138384534Y-94958897D01*
X138403101Y-94993633D01*
X138414535Y-95031326D01*
X138419000Y-95076661D01*
X138419000Y-95913339D01*
X138414535Y-95958674D01*
X138403101Y-95996367D01*
X138384534Y-96031103D01*
X138359548Y-96061548D01*
X138329103Y-96086534D01*
X138294367Y-96105101D01*
X138256674Y-96116535D01*
X138211339Y-96121000D01*
X137124661Y-96121000D01*
X137079326Y-96116535D01*
X137041633Y-96105101D01*
X137006897Y-96086534D01*
X136976452Y-96061548D01*
X136951466Y-96031103D01*
X136932899Y-95996367D01*
X136921465Y-95958674D01*
X136917000Y-95913339D01*
X136917000Y-95076661D01*
X136921465Y-95031326D01*
X136932899Y-94993633D01*
X136951466Y-94958897D01*
X136976452Y-94928452D01*
X137006897Y-94903466D01*
X137041633Y-94884899D01*
X137079326Y-94873465D01*
X137124661Y-94869000D01*
X138211339Y-94869000D01*
X138256674Y-94873465D01*
G37*
G36*
X149361000Y-92925000D02*
G01*
X148459000Y-92925000D01*
X148459000Y-90923000D01*
X149361000Y-90923000D01*
X149361000Y-92925000D01*
G37*
G36*
X151261000Y-92925000D02*
G01*
X150359000Y-92925000D01*
X150359000Y-90923000D01*
X151261000Y-90923000D01*
X151261000Y-92925000D01*
G37*
G36*
X175848674Y-89811465D02*
G01*
X175886367Y-89822899D01*
X175921103Y-89841466D01*
X175951548Y-89866452D01*
X175976534Y-89896897D01*
X175995101Y-89931633D01*
X176006535Y-89969326D01*
X176011000Y-90014661D01*
X176011000Y-90851339D01*
X176006535Y-90896674D01*
X175995101Y-90934367D01*
X175976534Y-90969103D01*
X175951548Y-90999548D01*
X175921103Y-91024534D01*
X175886367Y-91043101D01*
X175848674Y-91054535D01*
X175803339Y-91059000D01*
X174716661Y-91059000D01*
X174671326Y-91054535D01*
X174633633Y-91043101D01*
X174598897Y-91024534D01*
X174568452Y-90999548D01*
X174543466Y-90969103D01*
X174524899Y-90934367D01*
X174513465Y-90896674D01*
X174509000Y-90851339D01*
X174509000Y-90014661D01*
X174513465Y-89969326D01*
X174524899Y-89931633D01*
X174543466Y-89896897D01*
X174568452Y-89866452D01*
X174598897Y-89841466D01*
X174633633Y-89822899D01*
X174671326Y-89811465D01*
X174716661Y-89807000D01*
X175803339Y-89807000D01*
X175848674Y-89811465D01*
G37*
G36*
X130128674Y-89811465D02*
G01*
X130166367Y-89822899D01*
X130201103Y-89841466D01*
X130231548Y-89866452D01*
X130256534Y-89896897D01*
X130275101Y-89931633D01*
X130286535Y-89969326D01*
X130291000Y-90014661D01*
X130291000Y-90851339D01*
X130286535Y-90896674D01*
X130275101Y-90934367D01*
X130256534Y-90969103D01*
X130231548Y-90999548D01*
X130201103Y-91024534D01*
X130166367Y-91043101D01*
X130128674Y-91054535D01*
X130083339Y-91059000D01*
X128996661Y-91059000D01*
X128951326Y-91054535D01*
X128913633Y-91043101D01*
X128878897Y-91024534D01*
X128848452Y-90999548D01*
X128823466Y-90969103D01*
X128804899Y-90934367D01*
X128793465Y-90896674D01*
X128789000Y-90851339D01*
X128789000Y-90014661D01*
X128793465Y-89969326D01*
X128804899Y-89931633D01*
X128823466Y-89896897D01*
X128848452Y-89866452D01*
X128878897Y-89841466D01*
X128913633Y-89822899D01*
X128951326Y-89811465D01*
X128996661Y-89807000D01*
X130083339Y-89807000D01*
X130128674Y-89811465D01*
G37*
G36*
X160714424Y-87662760D02*
G01*
X160714427Y-87662761D01*
X160714428Y-87662761D01*
X160893692Y-87717140D01*
X160893695Y-87717142D01*
X160893696Y-87717142D01*
X161058903Y-87805446D01*
X161203712Y-87924288D01*
X161322554Y-88069098D01*
X161348745Y-88118097D01*
X161362359Y-88138472D01*
X161379686Y-88155799D01*
X161400060Y-88169412D01*
X161422699Y-88178790D01*
X161446732Y-88183570D01*
X161471236Y-88183570D01*
X161495270Y-88178789D01*
X161517908Y-88169412D01*
X161538283Y-88155798D01*
X161555610Y-88138471D01*
X161569223Y-88118097D01*
X161591332Y-88076734D01*
X161619910Y-88041910D01*
X161654732Y-88013333D01*
X161694461Y-87992097D01*
X161737571Y-87979020D01*
X161788540Y-87974000D01*
X162842460Y-87974000D01*
X162893429Y-87979020D01*
X162936539Y-87992097D01*
X162976268Y-88013333D01*
X163011090Y-88041910D01*
X163039667Y-88076732D01*
X163060903Y-88116461D01*
X163073980Y-88159571D01*
X163079000Y-88210540D01*
X163079000Y-89589460D01*
X163073980Y-89640429D01*
X163060903Y-89683539D01*
X163039667Y-89723268D01*
X163011090Y-89758090D01*
X162976268Y-89786667D01*
X162936539Y-89807903D01*
X162893429Y-89820980D01*
X162842460Y-89826000D01*
X161788540Y-89826000D01*
X161737571Y-89820980D01*
X161694461Y-89807903D01*
X161654732Y-89786667D01*
X161619910Y-89758090D01*
X161591333Y-89723268D01*
X161569222Y-89681902D01*
X161555608Y-89661527D01*
X161538280Y-89644201D01*
X161517906Y-89630587D01*
X161495267Y-89621210D01*
X161471234Y-89616430D01*
X161446730Y-89616430D01*
X161422696Y-89621211D01*
X161400058Y-89630588D01*
X161379683Y-89644202D01*
X161362357Y-89661530D01*
X161348746Y-89681899D01*
X161344271Y-89690271D01*
X161322552Y-89730905D01*
X161203712Y-89875712D01*
X161058903Y-89994554D01*
X160900591Y-90079173D01*
X160893693Y-90082860D01*
X160714429Y-90137239D01*
X160714428Y-90137239D01*
X160714425Y-90137240D01*
X160528000Y-90155601D01*
X160341576Y-90137240D01*
X160341573Y-90137239D01*
X160341572Y-90137239D01*
X160162308Y-90082860D01*
X160155410Y-90079173D01*
X159997098Y-89994554D01*
X159852289Y-89875712D01*
X159733450Y-89730906D01*
X159711730Y-89690271D01*
X159707253Y-89681897D01*
X159693643Y-89661528D01*
X159676316Y-89644201D01*
X159655942Y-89630587D01*
X159633303Y-89621210D01*
X159609270Y-89616429D01*
X159584765Y-89616429D01*
X159560732Y-89621209D01*
X159538093Y-89630586D01*
X159517719Y-89644200D01*
X159500392Y-89661527D01*
X159486778Y-89681902D01*
X159464668Y-89723266D01*
X159436090Y-89758090D01*
X159401268Y-89786667D01*
X159361539Y-89807903D01*
X159318429Y-89820980D01*
X159267460Y-89826000D01*
X158213540Y-89826000D01*
X158162571Y-89820980D01*
X158119461Y-89807903D01*
X158079732Y-89786667D01*
X158044910Y-89758090D01*
X158016333Y-89723268D01*
X157995097Y-89683539D01*
X157982020Y-89640429D01*
X157977000Y-89589460D01*
X157977000Y-88210540D01*
X157982020Y-88159571D01*
X157995097Y-88116461D01*
X158016333Y-88076732D01*
X158044910Y-88041910D01*
X158079732Y-88013333D01*
X158119461Y-87992097D01*
X158162571Y-87979020D01*
X158213540Y-87974000D01*
X159267460Y-87974000D01*
X159318429Y-87979020D01*
X159361539Y-87992097D01*
X159401268Y-88013333D01*
X159436090Y-88041910D01*
X159464667Y-88076732D01*
X159486778Y-88118098D01*
X159500392Y-88138473D01*
X159517720Y-88155799D01*
X159538094Y-88169413D01*
X159560733Y-88178790D01*
X159584766Y-88183570D01*
X159609270Y-88183570D01*
X159633304Y-88178789D01*
X159655942Y-88169412D01*
X159676317Y-88155798D01*
X159693643Y-88138470D01*
X159707255Y-88118100D01*
X159733447Y-88069097D01*
X159733448Y-88069095D01*
X159852288Y-87924288D01*
X159997097Y-87805446D01*
X160162303Y-87717142D01*
X160162304Y-87717142D01*
X160162307Y-87717140D01*
X160341571Y-87662761D01*
X160341572Y-87662761D01*
X160341575Y-87662760D01*
X160528000Y-87644399D01*
X160714424Y-87662760D01*
G37*
G36*
X144458424Y-87662760D02*
G01*
X144458427Y-87662761D01*
X144458428Y-87662761D01*
X144637692Y-87717140D01*
X144637695Y-87717142D01*
X144637696Y-87717142D01*
X144802903Y-87805446D01*
X144947712Y-87924288D01*
X145066554Y-88069098D01*
X145092745Y-88118097D01*
X145106359Y-88138472D01*
X145123686Y-88155799D01*
X145144060Y-88169412D01*
X145166699Y-88178790D01*
X145190732Y-88183570D01*
X145215236Y-88183570D01*
X145239270Y-88178789D01*
X145261908Y-88169412D01*
X145282283Y-88155798D01*
X145299610Y-88138471D01*
X145313223Y-88118097D01*
X145335332Y-88076734D01*
X145363910Y-88041910D01*
X145398732Y-88013333D01*
X145438461Y-87992097D01*
X145481571Y-87979020D01*
X145532540Y-87974000D01*
X146586460Y-87974000D01*
X146637429Y-87979020D01*
X146680539Y-87992097D01*
X146720268Y-88013333D01*
X146755090Y-88041910D01*
X146783667Y-88076732D01*
X146804903Y-88116461D01*
X146817980Y-88159571D01*
X146823000Y-88210540D01*
X146823000Y-89589460D01*
X146817980Y-89640429D01*
X146804903Y-89683539D01*
X146783667Y-89723268D01*
X146755090Y-89758090D01*
X146720268Y-89786667D01*
X146680539Y-89807903D01*
X146637429Y-89820980D01*
X146586460Y-89826000D01*
X145532540Y-89826000D01*
X145481571Y-89820980D01*
X145438461Y-89807903D01*
X145398732Y-89786667D01*
X145363910Y-89758090D01*
X145335333Y-89723268D01*
X145313222Y-89681902D01*
X145299608Y-89661527D01*
X145282280Y-89644201D01*
X145261906Y-89630587D01*
X145239267Y-89621210D01*
X145215234Y-89616430D01*
X145190730Y-89616430D01*
X145166696Y-89621211D01*
X145144058Y-89630588D01*
X145123683Y-89644202D01*
X145106357Y-89661530D01*
X145092746Y-89681899D01*
X145088271Y-89690271D01*
X145066552Y-89730905D01*
X144947712Y-89875712D01*
X144802903Y-89994554D01*
X144644591Y-90079173D01*
X144637693Y-90082860D01*
X144458429Y-90137239D01*
X144458428Y-90137239D01*
X144458425Y-90137240D01*
X144272000Y-90155601D01*
X144085576Y-90137240D01*
X144085573Y-90137239D01*
X144085572Y-90137239D01*
X143906308Y-90082860D01*
X143899410Y-90079173D01*
X143741098Y-89994554D01*
X143596289Y-89875712D01*
X143477450Y-89730906D01*
X143455730Y-89690271D01*
X143451253Y-89681897D01*
X143437643Y-89661528D01*
X143420316Y-89644201D01*
X143399942Y-89630587D01*
X143377303Y-89621210D01*
X143353270Y-89616429D01*
X143328765Y-89616429D01*
X143304732Y-89621209D01*
X143282093Y-89630586D01*
X143261719Y-89644200D01*
X143244392Y-89661527D01*
X143230778Y-89681902D01*
X143208668Y-89723266D01*
X143180090Y-89758090D01*
X143145268Y-89786667D01*
X143105539Y-89807903D01*
X143062429Y-89820980D01*
X143011460Y-89826000D01*
X141957540Y-89826000D01*
X141906571Y-89820980D01*
X141863461Y-89807903D01*
X141823732Y-89786667D01*
X141788910Y-89758090D01*
X141760333Y-89723268D01*
X141739097Y-89683539D01*
X141726020Y-89640429D01*
X141721000Y-89589460D01*
X141721000Y-88210540D01*
X141726020Y-88159571D01*
X141739097Y-88116461D01*
X141760333Y-88076732D01*
X141788910Y-88041910D01*
X141823732Y-88013333D01*
X141863461Y-87992097D01*
X141906571Y-87979020D01*
X141957540Y-87974000D01*
X143011460Y-87974000D01*
X143062429Y-87979020D01*
X143105539Y-87992097D01*
X143145268Y-88013333D01*
X143180090Y-88041910D01*
X143208667Y-88076732D01*
X143230778Y-88118098D01*
X143244392Y-88138473D01*
X143261720Y-88155799D01*
X143282094Y-88169413D01*
X143304733Y-88178790D01*
X143328766Y-88183570D01*
X143353270Y-88183570D01*
X143377304Y-88178789D01*
X143399942Y-88169412D01*
X143420317Y-88155798D01*
X143437643Y-88138470D01*
X143451255Y-88118100D01*
X143477447Y-88069097D01*
X143477448Y-88069095D01*
X143596288Y-87924288D01*
X143741097Y-87805446D01*
X143906303Y-87717142D01*
X143906304Y-87717142D01*
X143906307Y-87717140D01*
X144085571Y-87662761D01*
X144085572Y-87662761D01*
X144085575Y-87662760D01*
X144272000Y-87644399D01*
X144458424Y-87662760D01*
G37*
G36*
X150311000Y-89925000D02*
G01*
X149409000Y-89925000D01*
X149409000Y-87923000D01*
X150311000Y-87923000D01*
X150311000Y-89925000D01*
G37*
G36*
X154378674Y-88153465D02*
G01*
X154416367Y-88164899D01*
X154451103Y-88183466D01*
X154481548Y-88208452D01*
X154506534Y-88238897D01*
X154525101Y-88273633D01*
X154536535Y-88311326D01*
X154541000Y-88356661D01*
X154541000Y-89443339D01*
X154536535Y-89488674D01*
X154525101Y-89526367D01*
X154506534Y-89561103D01*
X154481548Y-89591548D01*
X154451103Y-89616534D01*
X154416367Y-89635101D01*
X154378674Y-89646535D01*
X154333339Y-89651000D01*
X153496661Y-89651000D01*
X153451326Y-89646535D01*
X153413633Y-89635101D01*
X153378897Y-89616534D01*
X153348452Y-89591548D01*
X153323466Y-89561103D01*
X153304899Y-89526367D01*
X153293465Y-89488674D01*
X153289000Y-89443339D01*
X153289000Y-88356661D01*
X153293465Y-88311326D01*
X153304899Y-88273633D01*
X153323466Y-88238897D01*
X153348452Y-88208452D01*
X153378897Y-88183466D01*
X153413633Y-88164899D01*
X153451326Y-88153465D01*
X153496661Y-88149000D01*
X154333339Y-88149000D01*
X154378674Y-88153465D01*
G37*
G36*
X156428674Y-88153465D02*
G01*
X156466367Y-88164899D01*
X156501103Y-88183466D01*
X156531548Y-88208452D01*
X156556534Y-88238897D01*
X156575101Y-88273633D01*
X156586535Y-88311326D01*
X156591000Y-88356661D01*
X156591000Y-89443339D01*
X156586535Y-89488674D01*
X156575101Y-89526367D01*
X156556534Y-89561103D01*
X156531548Y-89591548D01*
X156501103Y-89616534D01*
X156466367Y-89635101D01*
X156428674Y-89646535D01*
X156383339Y-89651000D01*
X155546661Y-89651000D01*
X155501326Y-89646535D01*
X155463633Y-89635101D01*
X155428897Y-89616534D01*
X155398452Y-89591548D01*
X155373466Y-89561103D01*
X155354899Y-89526367D01*
X155343465Y-89488674D01*
X155339000Y-89443339D01*
X155339000Y-88356661D01*
X155343465Y-88311326D01*
X155354899Y-88273633D01*
X155373466Y-88238897D01*
X155398452Y-88208452D01*
X155428897Y-88183466D01*
X155463633Y-88164899D01*
X155501326Y-88153465D01*
X155546661Y-88149000D01*
X156383339Y-88149000D01*
X156428674Y-88153465D01*
G37*
G36*
X140172674Y-88153465D02*
G01*
X140210367Y-88164899D01*
X140245103Y-88183466D01*
X140275548Y-88208452D01*
X140300534Y-88238897D01*
X140319101Y-88273633D01*
X140330535Y-88311326D01*
X140335000Y-88356661D01*
X140335000Y-89443339D01*
X140330535Y-89488674D01*
X140319101Y-89526367D01*
X140300534Y-89561103D01*
X140275548Y-89591548D01*
X140245103Y-89616534D01*
X140210367Y-89635101D01*
X140172674Y-89646535D01*
X140127339Y-89651000D01*
X139290661Y-89651000D01*
X139245326Y-89646535D01*
X139207633Y-89635101D01*
X139172897Y-89616534D01*
X139142452Y-89591548D01*
X139117466Y-89561103D01*
X139098899Y-89526367D01*
X139087465Y-89488674D01*
X139083000Y-89443339D01*
X139083000Y-88356661D01*
X139087465Y-88311326D01*
X139098899Y-88273633D01*
X139117466Y-88238897D01*
X139142452Y-88208452D01*
X139172897Y-88183466D01*
X139207633Y-88164899D01*
X139245326Y-88153465D01*
X139290661Y-88149000D01*
X140127339Y-88149000D01*
X140172674Y-88153465D01*
G37*
G36*
X138122674Y-88153465D02*
G01*
X138160367Y-88164899D01*
X138195103Y-88183466D01*
X138225548Y-88208452D01*
X138250534Y-88238897D01*
X138269101Y-88273633D01*
X138280535Y-88311326D01*
X138285000Y-88356661D01*
X138285000Y-89443339D01*
X138280535Y-89488674D01*
X138269101Y-89526367D01*
X138250534Y-89561103D01*
X138225548Y-89591548D01*
X138195103Y-89616534D01*
X138160367Y-89635101D01*
X138122674Y-89646535D01*
X138077339Y-89651000D01*
X137240661Y-89651000D01*
X137195326Y-89646535D01*
X137157633Y-89635101D01*
X137122897Y-89616534D01*
X137092452Y-89591548D01*
X137067466Y-89561103D01*
X137048899Y-89526367D01*
X137037465Y-89488674D01*
X137033000Y-89443339D01*
X137033000Y-88356661D01*
X137037465Y-88311326D01*
X137048899Y-88273633D01*
X137067466Y-88238897D01*
X137092452Y-88208452D01*
X137122897Y-88183466D01*
X137157633Y-88164899D01*
X137195326Y-88153465D01*
X137240661Y-88149000D01*
X138077339Y-88149000D01*
X138122674Y-88153465D01*
G37*
G36*
X130128674Y-87761465D02*
G01*
X130166367Y-87772899D01*
X130201103Y-87791466D01*
X130231548Y-87816452D01*
X130256534Y-87846897D01*
X130275101Y-87881633D01*
X130286535Y-87919326D01*
X130291000Y-87964661D01*
X130291000Y-88801339D01*
X130286535Y-88846674D01*
X130275101Y-88884367D01*
X130256534Y-88919103D01*
X130231548Y-88949548D01*
X130201103Y-88974534D01*
X130166367Y-88993101D01*
X130128674Y-89004535D01*
X130083339Y-89009000D01*
X128996661Y-89009000D01*
X128951326Y-89004535D01*
X128913633Y-88993101D01*
X128878897Y-88974534D01*
X128848452Y-88949548D01*
X128823466Y-88919103D01*
X128804899Y-88884367D01*
X128793465Y-88846674D01*
X128789000Y-88801339D01*
X128789000Y-87964661D01*
X128793465Y-87919326D01*
X128804899Y-87881633D01*
X128823466Y-87846897D01*
X128848452Y-87816452D01*
X128878897Y-87791466D01*
X128913633Y-87772899D01*
X128951326Y-87761465D01*
X128996661Y-87757000D01*
X130083339Y-87757000D01*
X130128674Y-87761465D01*
G37*
G36*
X175848674Y-87761465D02*
G01*
X175886367Y-87772899D01*
X175921103Y-87791466D01*
X175951548Y-87816452D01*
X175976534Y-87846897D01*
X175995101Y-87881633D01*
X176006535Y-87919326D01*
X176011000Y-87964661D01*
X176011000Y-88801339D01*
X176006535Y-88846674D01*
X175995101Y-88884367D01*
X175976534Y-88919103D01*
X175951548Y-88949548D01*
X175921103Y-88974534D01*
X175886367Y-88993101D01*
X175848674Y-89004535D01*
X175803339Y-89009000D01*
X174716661Y-89009000D01*
X174671326Y-89004535D01*
X174633633Y-88993101D01*
X174598897Y-88974534D01*
X174568452Y-88949548D01*
X174543466Y-88919103D01*
X174524899Y-88884367D01*
X174513465Y-88846674D01*
X174509000Y-88801339D01*
X174509000Y-87964661D01*
X174513465Y-87919326D01*
X174524899Y-87881633D01*
X174543466Y-87846897D01*
X174568452Y-87816452D01*
X174598897Y-87791466D01*
X174633633Y-87772899D01*
X174671326Y-87761465D01*
X174716661Y-87757000D01*
X175803339Y-87757000D01*
X175848674Y-87761465D01*
G37*
G36*
X167438564Y-84333389D02*
G01*
X167629833Y-84412615D01*
X167629835Y-84412616D01*
X167801973Y-84527635D01*
X167948365Y-84674027D01*
X168039159Y-84809909D01*
X168063385Y-84846167D01*
X168142611Y-85037436D01*
X168183000Y-85240484D01*
X168183000Y-85447516D01*
X168142611Y-85650564D01*
X168114583Y-85718229D01*
X168063384Y-85841835D01*
X167948365Y-86013973D01*
X167801973Y-86160365D01*
X167629835Y-86275384D01*
X167629834Y-86275385D01*
X167629833Y-86275385D01*
X167438564Y-86354611D01*
X167235516Y-86395000D01*
X167028484Y-86395000D01*
X166825436Y-86354611D01*
X166634167Y-86275385D01*
X166634166Y-86275385D01*
X166634165Y-86275384D01*
X166462027Y-86160365D01*
X166315635Y-86013973D01*
X166200616Y-85841835D01*
X166149417Y-85718229D01*
X166121389Y-85650564D01*
X166081000Y-85447516D01*
X166081000Y-85240484D01*
X166121389Y-85037436D01*
X166200615Y-84846167D01*
X166224842Y-84809909D01*
X166315635Y-84674027D01*
X166462027Y-84527635D01*
X166634165Y-84412616D01*
X166634167Y-84412615D01*
X166825436Y-84333389D01*
X167028484Y-84293000D01*
X167235516Y-84293000D01*
X167438564Y-84333389D01*
G37*
G36*
X171938564Y-84333389D02*
G01*
X172129833Y-84412615D01*
X172129835Y-84412616D01*
X172301973Y-84527635D01*
X172448365Y-84674027D01*
X172539159Y-84809909D01*
X172563385Y-84846167D01*
X172642611Y-85037436D01*
X172683000Y-85240484D01*
X172683000Y-85447516D01*
X172642611Y-85650564D01*
X172614583Y-85718229D01*
X172563384Y-85841835D01*
X172448365Y-86013973D01*
X172301973Y-86160365D01*
X172129835Y-86275384D01*
X172129834Y-86275385D01*
X172129833Y-86275385D01*
X171938564Y-86354611D01*
X171735516Y-86395000D01*
X171528484Y-86395000D01*
X171325436Y-86354611D01*
X171134167Y-86275385D01*
X171134166Y-86275385D01*
X171134165Y-86275384D01*
X170962027Y-86160365D01*
X170815635Y-86013973D01*
X170700616Y-85841835D01*
X170649417Y-85718229D01*
X170621389Y-85650564D01*
X170581000Y-85447516D01*
X170581000Y-85240484D01*
X170621389Y-85037436D01*
X170700615Y-84846167D01*
X170724842Y-84809909D01*
X170815635Y-84674027D01*
X170962027Y-84527635D01*
X171134165Y-84412616D01*
X171134167Y-84412615D01*
X171325436Y-84333389D01*
X171528484Y-84293000D01*
X171735516Y-84293000D01*
X171938564Y-84333389D01*
G37*
G36*
X176000429Y-81274020D02*
G01*
X176043539Y-81287097D01*
X176083268Y-81308333D01*
X176118090Y-81336910D01*
X176146667Y-81371732D01*
X176167903Y-81411461D01*
X176180980Y-81454571D01*
X176186000Y-81505540D01*
X176186000Y-82559460D01*
X176180980Y-82610429D01*
X176167903Y-82653539D01*
X176146667Y-82693268D01*
X176118090Y-82728090D01*
X176083266Y-82756668D01*
X176041903Y-82778777D01*
X176021529Y-82792390D01*
X176004202Y-82809717D01*
X175990588Y-82830091D01*
X175981211Y-82852730D01*
X175976430Y-82876764D01*
X175976430Y-82901268D01*
X175981210Y-82925301D01*
X175990588Y-82947940D01*
X176004201Y-82968314D01*
X176021528Y-82985641D01*
X176041903Y-82999255D01*
X176090902Y-83025446D01*
X176235712Y-83144288D01*
X176354554Y-83289097D01*
X176442858Y-83454303D01*
X176442860Y-83454307D01*
X176459754Y-83510000D01*
X176497240Y-83633575D01*
X176515601Y-83820000D01*
X176497240Y-84006425D01*
X176497239Y-84006428D01*
X176497239Y-84006429D01*
X176442860Y-84185693D01*
X176442858Y-84185696D01*
X176442858Y-84185697D01*
X176354554Y-84350903D01*
X176235712Y-84495712D01*
X176090902Y-84614554D01*
X176041903Y-84640745D01*
X176021528Y-84654359D01*
X176004201Y-84671686D01*
X175990588Y-84692060D01*
X175981210Y-84714699D01*
X175976430Y-84738732D01*
X175976430Y-84763236D01*
X175981211Y-84787270D01*
X175990588Y-84809908D01*
X176004202Y-84830283D01*
X176021529Y-84847610D01*
X176041903Y-84861223D01*
X176083266Y-84883332D01*
X176118090Y-84911910D01*
X176146667Y-84946732D01*
X176167903Y-84986461D01*
X176180980Y-85029571D01*
X176186000Y-85080540D01*
X176186000Y-86134460D01*
X176180980Y-86185429D01*
X176167903Y-86228539D01*
X176146667Y-86268268D01*
X176118090Y-86303090D01*
X176083268Y-86331667D01*
X176043539Y-86352903D01*
X176000429Y-86365980D01*
X175949460Y-86371000D01*
X174570540Y-86371000D01*
X174519571Y-86365980D01*
X174476461Y-86352903D01*
X174436732Y-86331667D01*
X174401910Y-86303090D01*
X174373333Y-86268268D01*
X174352097Y-86228539D01*
X174339020Y-86185429D01*
X174334000Y-86134460D01*
X174334000Y-85080540D01*
X174339020Y-85029571D01*
X174352097Y-84986461D01*
X174373333Y-84946732D01*
X174401910Y-84911910D01*
X174436734Y-84883332D01*
X174478097Y-84861223D01*
X174498471Y-84847610D01*
X174515798Y-84830283D01*
X174529412Y-84809909D01*
X174538789Y-84787270D01*
X174543570Y-84763236D01*
X174543570Y-84738732D01*
X174538790Y-84714699D01*
X174529412Y-84692060D01*
X174515799Y-84671686D01*
X174498472Y-84654359D01*
X174478097Y-84640745D01*
X174429098Y-84614554D01*
X174284288Y-84495712D01*
X174165446Y-84350903D01*
X174077142Y-84185697D01*
X174077142Y-84185696D01*
X174077140Y-84185693D01*
X174022761Y-84006429D01*
X174022761Y-84006428D01*
X174022760Y-84006425D01*
X174004399Y-83820000D01*
X174022760Y-83633575D01*
X174060246Y-83510000D01*
X174077140Y-83454307D01*
X174077142Y-83454303D01*
X174165446Y-83289097D01*
X174284288Y-83144288D01*
X174429098Y-83025446D01*
X174478097Y-82999255D01*
X174498472Y-82985641D01*
X174515799Y-82968314D01*
X174529412Y-82947940D01*
X174538790Y-82925301D01*
X174543570Y-82901268D01*
X174543570Y-82876764D01*
X174538789Y-82852730D01*
X174529412Y-82830092D01*
X174515798Y-82809717D01*
X174498471Y-82792390D01*
X174478097Y-82778777D01*
X174436734Y-82756668D01*
X174401910Y-82728090D01*
X174373333Y-82693268D01*
X174352097Y-82653539D01*
X174339020Y-82610429D01*
X174334000Y-82559460D01*
X174334000Y-81505540D01*
X174339020Y-81454571D01*
X174352097Y-81411461D01*
X174373333Y-81371732D01*
X174401910Y-81336910D01*
X174436732Y-81308333D01*
X174476461Y-81287097D01*
X174519571Y-81274020D01*
X174570540Y-81269000D01*
X175949460Y-81269000D01*
X176000429Y-81274020D01*
G37*
G36*
X130280429Y-81274020D02*
G01*
X130323539Y-81287097D01*
X130363268Y-81308333D01*
X130398090Y-81336910D01*
X130426667Y-81371732D01*
X130447903Y-81411461D01*
X130460980Y-81454571D01*
X130466000Y-81505540D01*
X130466000Y-82559460D01*
X130460980Y-82610429D01*
X130447903Y-82653539D01*
X130426667Y-82693268D01*
X130398090Y-82728090D01*
X130363266Y-82756668D01*
X130321903Y-82778777D01*
X130301529Y-82792390D01*
X130284202Y-82809717D01*
X130270588Y-82830091D01*
X130261211Y-82852730D01*
X130256430Y-82876764D01*
X130256430Y-82901268D01*
X130261210Y-82925301D01*
X130270588Y-82947940D01*
X130284201Y-82968314D01*
X130301528Y-82985641D01*
X130321903Y-82999255D01*
X130370902Y-83025446D01*
X130515712Y-83144288D01*
X130634554Y-83289097D01*
X130722858Y-83454303D01*
X130722860Y-83454307D01*
X130739754Y-83510000D01*
X130777240Y-83633575D01*
X130795601Y-83820000D01*
X130777240Y-84006425D01*
X130777239Y-84006428D01*
X130777239Y-84006429D01*
X130722860Y-84185693D01*
X130722858Y-84185696D01*
X130722858Y-84185697D01*
X130634554Y-84350903D01*
X130515712Y-84495712D01*
X130370902Y-84614554D01*
X130321903Y-84640745D01*
X130301528Y-84654359D01*
X130284201Y-84671686D01*
X130270588Y-84692060D01*
X130261210Y-84714699D01*
X130256430Y-84738732D01*
X130256430Y-84763236D01*
X130261211Y-84787270D01*
X130270588Y-84809908D01*
X130284202Y-84830283D01*
X130301529Y-84847610D01*
X130321903Y-84861223D01*
X130363266Y-84883332D01*
X130398090Y-84911910D01*
X130426667Y-84946732D01*
X130447903Y-84986461D01*
X130460980Y-85029571D01*
X130466000Y-85080540D01*
X130466000Y-86134460D01*
X130460980Y-86185429D01*
X130447903Y-86228539D01*
X130426667Y-86268268D01*
X130398090Y-86303090D01*
X130363268Y-86331667D01*
X130323539Y-86352903D01*
X130280429Y-86365980D01*
X130229460Y-86371000D01*
X128850540Y-86371000D01*
X128799571Y-86365980D01*
X128756461Y-86352903D01*
X128716732Y-86331667D01*
X128681910Y-86303090D01*
X128653333Y-86268268D01*
X128632097Y-86228539D01*
X128619020Y-86185429D01*
X128614000Y-86134460D01*
X128614000Y-85080540D01*
X128619020Y-85029571D01*
X128632097Y-84986461D01*
X128653333Y-84946732D01*
X128681910Y-84911910D01*
X128716734Y-84883332D01*
X128758097Y-84861223D01*
X128778471Y-84847610D01*
X128795798Y-84830283D01*
X128809412Y-84809909D01*
X128818789Y-84787270D01*
X128823570Y-84763236D01*
X128823570Y-84738732D01*
X128818790Y-84714699D01*
X128809412Y-84692060D01*
X128795799Y-84671686D01*
X128778472Y-84654359D01*
X128758097Y-84640745D01*
X128709098Y-84614554D01*
X128564288Y-84495712D01*
X128445446Y-84350903D01*
X128357142Y-84185697D01*
X128357142Y-84185696D01*
X128357140Y-84185693D01*
X128302761Y-84006429D01*
X128302761Y-84006428D01*
X128302760Y-84006425D01*
X128284399Y-83820000D01*
X128302760Y-83633575D01*
X128340246Y-83510000D01*
X128357140Y-83454307D01*
X128357142Y-83454303D01*
X128445446Y-83289097D01*
X128564288Y-83144288D01*
X128709098Y-83025446D01*
X128758097Y-82999255D01*
X128778472Y-82985641D01*
X128795799Y-82968314D01*
X128809412Y-82947940D01*
X128818790Y-82925301D01*
X128823570Y-82901268D01*
X128823570Y-82876764D01*
X128818789Y-82852730D01*
X128809412Y-82830092D01*
X128795798Y-82809717D01*
X128778471Y-82792390D01*
X128758097Y-82778777D01*
X128716734Y-82756668D01*
X128681910Y-82728090D01*
X128653333Y-82693268D01*
X128632097Y-82653539D01*
X128619020Y-82610429D01*
X128614000Y-82559460D01*
X128614000Y-81505540D01*
X128619020Y-81454571D01*
X128632097Y-81411461D01*
X128653333Y-81371732D01*
X128681910Y-81336910D01*
X128716732Y-81308333D01*
X128756461Y-81287097D01*
X128799571Y-81274020D01*
X128850540Y-81269000D01*
X130229460Y-81269000D01*
X130280429Y-81274020D01*
G37*
G36*
X157768228Y-84651703D02*
G01*
X157923100Y-84715853D01*
X158062481Y-84808985D01*
X158181015Y-84927519D01*
X158274147Y-85066900D01*
X158338297Y-85221772D01*
X158371000Y-85386184D01*
X158371000Y-85553816D01*
X158338297Y-85718228D01*
X158274147Y-85873100D01*
X158181015Y-86012481D01*
X158062481Y-86131015D01*
X157923100Y-86224147D01*
X157768228Y-86288297D01*
X157603816Y-86321000D01*
X157436184Y-86321000D01*
X157271772Y-86288297D01*
X157116900Y-86224147D01*
X156977519Y-86131015D01*
X156858985Y-86012481D01*
X156765853Y-85873100D01*
X156701703Y-85718228D01*
X156669000Y-85553816D01*
X156669000Y-85386184D01*
X156701703Y-85221772D01*
X156765853Y-85066900D01*
X156858985Y-84927519D01*
X156977519Y-84808985D01*
X157116900Y-84715853D01*
X157271772Y-84651703D01*
X157436184Y-84619000D01*
X157603816Y-84619000D01*
X157768228Y-84651703D01*
G37*
G36*
X160268228Y-84651703D02*
G01*
X160423100Y-84715853D01*
X160562481Y-84808985D01*
X160681015Y-84927519D01*
X160774147Y-85066900D01*
X160838297Y-85221772D01*
X160871000Y-85386184D01*
X160871000Y-85553816D01*
X160838297Y-85718228D01*
X160774147Y-85873100D01*
X160681015Y-86012481D01*
X160562481Y-86131015D01*
X160423100Y-86224147D01*
X160268228Y-86288297D01*
X160103816Y-86321000D01*
X159936184Y-86321000D01*
X159771772Y-86288297D01*
X159616900Y-86224147D01*
X159477519Y-86131015D01*
X159358985Y-86012481D01*
X159265853Y-85873100D01*
X159201703Y-85718228D01*
X159169000Y-85553816D01*
X159169000Y-85386184D01*
X159201703Y-85221772D01*
X159265853Y-85066900D01*
X159358985Y-84927519D01*
X159477519Y-84808985D01*
X159616900Y-84715853D01*
X159771772Y-84651703D01*
X159936184Y-84619000D01*
X160103816Y-84619000D01*
X160268228Y-84651703D01*
G37*
G36*
X162768228Y-84651703D02*
G01*
X162923100Y-84715853D01*
X163062481Y-84808985D01*
X163181015Y-84927519D01*
X163274147Y-85066900D01*
X163338297Y-85221772D01*
X163371000Y-85386184D01*
X163371000Y-85553816D01*
X163338297Y-85718228D01*
X163274147Y-85873100D01*
X163181015Y-86012481D01*
X163062481Y-86131015D01*
X162923100Y-86224147D01*
X162768228Y-86288297D01*
X162603816Y-86321000D01*
X162436184Y-86321000D01*
X162271772Y-86288297D01*
X162116900Y-86224147D01*
X161977519Y-86131015D01*
X161858985Y-86012481D01*
X161765853Y-85873100D01*
X161701703Y-85718228D01*
X161669000Y-85553816D01*
X161669000Y-85386184D01*
X161701703Y-85221772D01*
X161765853Y-85066900D01*
X161858985Y-84927519D01*
X161977519Y-84808985D01*
X162116900Y-84715853D01*
X162271772Y-84651703D01*
X162436184Y-84619000D01*
X162603816Y-84619000D01*
X162768228Y-84651703D01*
G37*
G36*
X142528228Y-84651703D02*
G01*
X142683100Y-84715853D01*
X142822481Y-84808985D01*
X142941015Y-84927519D01*
X143034147Y-85066900D01*
X143098297Y-85221772D01*
X143131000Y-85386184D01*
X143131000Y-85553816D01*
X143098297Y-85718228D01*
X143034147Y-85873100D01*
X142941015Y-86012481D01*
X142822481Y-86131015D01*
X142683100Y-86224147D01*
X142528228Y-86288297D01*
X142363816Y-86321000D01*
X142196184Y-86321000D01*
X142031772Y-86288297D01*
X141876900Y-86224147D01*
X141737519Y-86131015D01*
X141618985Y-86012481D01*
X141525853Y-85873100D01*
X141461703Y-85718228D01*
X141429000Y-85553816D01*
X141429000Y-85386184D01*
X141461703Y-85221772D01*
X141525853Y-85066900D01*
X141618985Y-84927519D01*
X141737519Y-84808985D01*
X141876900Y-84715853D01*
X142031772Y-84651703D01*
X142196184Y-84619000D01*
X142363816Y-84619000D01*
X142528228Y-84651703D01*
G37*
G36*
X147528228Y-84651703D02*
G01*
X147683100Y-84715853D01*
X147822481Y-84808985D01*
X147941015Y-84927519D01*
X148034147Y-85066900D01*
X148098297Y-85221772D01*
X148131000Y-85386184D01*
X148131000Y-85553816D01*
X148098297Y-85718228D01*
X148034147Y-85873100D01*
X147941015Y-86012481D01*
X147822481Y-86131015D01*
X147683100Y-86224147D01*
X147528228Y-86288297D01*
X147363816Y-86321000D01*
X147196184Y-86321000D01*
X147031772Y-86288297D01*
X146876900Y-86224147D01*
X146737519Y-86131015D01*
X146618985Y-86012481D01*
X146525853Y-85873100D01*
X146461703Y-85718228D01*
X146429000Y-85553816D01*
X146429000Y-85386184D01*
X146461703Y-85221772D01*
X146525853Y-85066900D01*
X146618985Y-84927519D01*
X146737519Y-84808985D01*
X146876900Y-84715853D01*
X147031772Y-84651703D01*
X147196184Y-84619000D01*
X147363816Y-84619000D01*
X147528228Y-84651703D01*
G37*
G36*
X145028228Y-84651703D02*
G01*
X145183100Y-84715853D01*
X145322481Y-84808985D01*
X145441015Y-84927519D01*
X145534147Y-85066900D01*
X145598297Y-85221772D01*
X145631000Y-85386184D01*
X145631000Y-85553816D01*
X145598297Y-85718228D01*
X145534147Y-85873100D01*
X145441015Y-86012481D01*
X145322481Y-86131015D01*
X145183100Y-86224147D01*
X145028228Y-86288297D01*
X144863816Y-86321000D01*
X144696184Y-86321000D01*
X144531772Y-86288297D01*
X144376900Y-86224147D01*
X144237519Y-86131015D01*
X144118985Y-86012481D01*
X144025853Y-85873100D01*
X143961703Y-85718228D01*
X143929000Y-85553816D01*
X143929000Y-85386184D01*
X143961703Y-85221772D01*
X144025853Y-85066900D01*
X144118985Y-84927519D01*
X144237519Y-84808985D01*
X144376900Y-84715853D01*
X144531772Y-84651703D01*
X144696184Y-84619000D01*
X144863816Y-84619000D01*
X145028228Y-84651703D01*
G37*
G36*
X151881000Y-86162000D02*
G01*
X150719000Y-86162000D01*
X150719000Y-83510000D01*
X151881000Y-83510000D01*
X151881000Y-86162000D01*
G37*
G36*
X154081000Y-86162000D02*
G01*
X152919000Y-86162000D01*
X152919000Y-85410000D01*
X154081000Y-85410000D01*
X154081000Y-86162000D01*
G37*
G36*
X154081000Y-84262000D02*
G01*
X152919000Y-84262000D01*
X152919000Y-83510000D01*
X154081000Y-83510000D01*
X154081000Y-84262000D01*
G37*
G36*
X136192202Y-77467782D02*
G01*
X136467606Y-77522563D01*
X136986455Y-77737477D01*
X137453406Y-78049484D01*
X137850516Y-78446594D01*
X138162523Y-78913545D01*
X138162524Y-78913547D01*
X138176594Y-78947516D01*
X138355735Y-79380000D01*
X138377437Y-79432395D01*
X138446148Y-79777826D01*
X138486999Y-79983201D01*
X138486999Y-80544799D01*
X138377437Y-81095606D01*
X138162523Y-81614455D01*
X137850516Y-82081406D01*
X137453406Y-82478516D01*
X136986455Y-82790523D01*
X136986454Y-82790524D01*
X136986453Y-82790524D01*
X136940117Y-82809717D01*
X136467606Y-83005437D01*
X136192202Y-83060218D01*
X135916800Y-83114999D01*
X135355200Y-83114999D01*
X135079798Y-83060218D01*
X134804394Y-83005437D01*
X134331883Y-82809717D01*
X134285547Y-82790524D01*
X134285546Y-82790524D01*
X134285545Y-82790523D01*
X133818594Y-82478516D01*
X133421484Y-82081406D01*
X133109477Y-81614455D01*
X132894563Y-81095606D01*
X132785001Y-80544799D01*
X132785001Y-79983201D01*
X132825853Y-79777826D01*
X132894563Y-79432395D01*
X132916266Y-79380000D01*
X133095406Y-78947516D01*
X133109476Y-78913547D01*
X133109477Y-78913545D01*
X133421484Y-78446594D01*
X133818594Y-78049484D01*
X134285545Y-77737477D01*
X134804394Y-77522563D01*
X135079798Y-77467782D01*
X135355200Y-77413001D01*
X135916800Y-77413001D01*
X136192202Y-77467782D01*
G37*
G36*
X145028228Y-81351703D02*
G01*
X145183100Y-81415853D01*
X145322481Y-81508985D01*
X145441015Y-81627519D01*
X145534147Y-81766900D01*
X145598297Y-81921772D01*
X145631000Y-82086184D01*
X145631000Y-82253816D01*
X145598297Y-82418228D01*
X145534147Y-82573100D01*
X145441015Y-82712481D01*
X145322481Y-82831015D01*
X145183100Y-82924147D01*
X145028228Y-82988297D01*
X144863816Y-83021000D01*
X144696184Y-83021000D01*
X144531772Y-82988297D01*
X144376900Y-82924147D01*
X144237519Y-82831015D01*
X144118985Y-82712481D01*
X144025853Y-82573100D01*
X143961703Y-82418228D01*
X143929000Y-82253816D01*
X143929000Y-82086184D01*
X143961703Y-81921772D01*
X144025853Y-81766900D01*
X144118985Y-81627519D01*
X144237519Y-81508985D01*
X144376900Y-81415853D01*
X144531772Y-81351703D01*
X144696184Y-81319000D01*
X144863816Y-81319000D01*
X145028228Y-81351703D01*
G37*
G36*
X160268228Y-81351703D02*
G01*
X160423100Y-81415853D01*
X160562481Y-81508985D01*
X160681015Y-81627519D01*
X160774147Y-81766900D01*
X160838297Y-81921772D01*
X160871000Y-82086184D01*
X160871000Y-82253816D01*
X160838297Y-82418228D01*
X160774147Y-82573100D01*
X160681015Y-82712481D01*
X160562481Y-82831015D01*
X160423100Y-82924147D01*
X160268228Y-82988297D01*
X160103816Y-83021000D01*
X159936184Y-83021000D01*
X159771772Y-82988297D01*
X159616900Y-82924147D01*
X159477519Y-82831015D01*
X159358985Y-82712481D01*
X159265853Y-82573100D01*
X159201703Y-82418228D01*
X159169000Y-82253816D01*
X159169000Y-82086184D01*
X159201703Y-81921772D01*
X159265853Y-81766900D01*
X159358985Y-81627519D01*
X159477519Y-81508985D01*
X159616900Y-81415853D01*
X159771772Y-81351703D01*
X159936184Y-81319000D01*
X160103816Y-81319000D01*
X160268228Y-81351703D01*
G37*
G36*
X142528228Y-81351703D02*
G01*
X142683100Y-81415853D01*
X142822481Y-81508985D01*
X142941015Y-81627519D01*
X143034147Y-81766900D01*
X143098297Y-81921772D01*
X143131000Y-82086184D01*
X143131000Y-82253816D01*
X143098297Y-82418228D01*
X143034147Y-82573100D01*
X142941015Y-82712481D01*
X142822481Y-82831015D01*
X142683100Y-82924147D01*
X142528228Y-82988297D01*
X142363816Y-83021000D01*
X142196184Y-83021000D01*
X142031772Y-82988297D01*
X141876900Y-82924147D01*
X141737519Y-82831015D01*
X141618985Y-82712481D01*
X141525853Y-82573100D01*
X141461703Y-82418228D01*
X141429000Y-82253816D01*
X141429000Y-82086184D01*
X141461703Y-81921772D01*
X141525853Y-81766900D01*
X141618985Y-81627519D01*
X141737519Y-81508985D01*
X141876900Y-81415853D01*
X142031772Y-81351703D01*
X142196184Y-81319000D01*
X142363816Y-81319000D01*
X142528228Y-81351703D01*
G37*
G36*
X147528228Y-81351703D02*
G01*
X147683100Y-81415853D01*
X147822481Y-81508985D01*
X147941015Y-81627519D01*
X148034147Y-81766900D01*
X148098297Y-81921772D01*
X148131000Y-82086184D01*
X148131000Y-82253816D01*
X148098297Y-82418228D01*
X148034147Y-82573100D01*
X147941015Y-82712481D01*
X147822481Y-82831015D01*
X147683100Y-82924147D01*
X147528228Y-82988297D01*
X147363816Y-83021000D01*
X147196184Y-83021000D01*
X147031772Y-82988297D01*
X146876900Y-82924147D01*
X146737519Y-82831015D01*
X146618985Y-82712481D01*
X146525853Y-82573100D01*
X146461703Y-82418228D01*
X146429000Y-82253816D01*
X146429000Y-82086184D01*
X146461703Y-81921772D01*
X146525853Y-81766900D01*
X146618985Y-81627519D01*
X146737519Y-81508985D01*
X146876900Y-81415853D01*
X147031772Y-81351703D01*
X147196184Y-81319000D01*
X147363816Y-81319000D01*
X147528228Y-81351703D01*
G37*
G36*
X157768228Y-81351703D02*
G01*
X157923100Y-81415853D01*
X158062481Y-81508985D01*
X158181015Y-81627519D01*
X158274147Y-81766900D01*
X158338297Y-81921772D01*
X158371000Y-82086184D01*
X158371000Y-82253816D01*
X158338297Y-82418228D01*
X158274147Y-82573100D01*
X158181015Y-82712481D01*
X158062481Y-82831015D01*
X157923100Y-82924147D01*
X157768228Y-82988297D01*
X157603816Y-83021000D01*
X157436184Y-83021000D01*
X157271772Y-82988297D01*
X157116900Y-82924147D01*
X156977519Y-82831015D01*
X156858985Y-82712481D01*
X156765853Y-82573100D01*
X156701703Y-82418228D01*
X156669000Y-82253816D01*
X156669000Y-82086184D01*
X156701703Y-81921772D01*
X156765853Y-81766900D01*
X156858985Y-81627519D01*
X156977519Y-81508985D01*
X157116900Y-81415853D01*
X157271772Y-81351703D01*
X157436184Y-81319000D01*
X157603816Y-81319000D01*
X157768228Y-81351703D01*
G37*
G36*
X162768228Y-81351703D02*
G01*
X162923100Y-81415853D01*
X163062481Y-81508985D01*
X163181015Y-81627519D01*
X163274147Y-81766900D01*
X163338297Y-81921772D01*
X163371000Y-82086184D01*
X163371000Y-82253816D01*
X163338297Y-82418228D01*
X163274147Y-82573100D01*
X163181015Y-82712481D01*
X163062481Y-82831015D01*
X162923100Y-82924147D01*
X162768228Y-82988297D01*
X162603816Y-83021000D01*
X162436184Y-83021000D01*
X162271772Y-82988297D01*
X162116900Y-82924147D01*
X161977519Y-82831015D01*
X161858985Y-82712481D01*
X161765853Y-82573100D01*
X161701703Y-82418228D01*
X161669000Y-82253816D01*
X161669000Y-82086184D01*
X161701703Y-81921772D01*
X161765853Y-81766900D01*
X161858985Y-81627519D01*
X161977519Y-81508985D01*
X162116900Y-81415853D01*
X162271772Y-81351703D01*
X162436184Y-81319000D01*
X162603816Y-81319000D01*
X162768228Y-81351703D01*
G37*
G36*
X151881000Y-81082000D02*
G01*
X150719000Y-81082000D01*
X150719000Y-78430000D01*
X151881000Y-78430000D01*
X151881000Y-81082000D01*
G37*
G36*
X154081000Y-81082000D02*
G01*
X152919000Y-81082000D01*
X152919000Y-80330000D01*
X154081000Y-80330000D01*
X154081000Y-81082000D01*
G37*
G36*
X158068674Y-79143465D02*
G01*
X158106367Y-79154899D01*
X158141103Y-79173466D01*
X158171548Y-79198452D01*
X158196534Y-79228897D01*
X158215101Y-79263633D01*
X158226535Y-79301326D01*
X158231000Y-79346661D01*
X158231000Y-80183339D01*
X158226535Y-80228674D01*
X158215101Y-80266367D01*
X158196534Y-80301103D01*
X158171548Y-80331548D01*
X158141103Y-80356534D01*
X158106367Y-80375101D01*
X158068674Y-80386535D01*
X158023339Y-80391000D01*
X156936661Y-80391000D01*
X156891326Y-80386535D01*
X156853633Y-80375101D01*
X156818897Y-80356534D01*
X156788452Y-80331548D01*
X156763466Y-80301103D01*
X156744899Y-80266367D01*
X156733465Y-80228674D01*
X156729000Y-80183339D01*
X156729000Y-79346661D01*
X156733465Y-79301326D01*
X156744899Y-79263633D01*
X156763466Y-79228897D01*
X156788452Y-79198452D01*
X156818897Y-79173466D01*
X156853633Y-79154899D01*
X156891326Y-79143465D01*
X156936661Y-79139000D01*
X158023339Y-79139000D01*
X158068674Y-79143465D01*
G37*
G36*
X167438564Y-77833389D02*
G01*
X167629833Y-77912615D01*
X167629835Y-77912616D01*
X167801973Y-78027635D01*
X167948365Y-78174027D01*
X168046090Y-78320282D01*
X168063385Y-78346167D01*
X168142611Y-78537436D01*
X168183000Y-78740484D01*
X168183000Y-78947516D01*
X168142611Y-79150564D01*
X168079773Y-79302269D01*
X168063384Y-79341835D01*
X167948365Y-79513973D01*
X167801973Y-79660365D01*
X167629835Y-79775384D01*
X167629834Y-79775385D01*
X167629833Y-79775385D01*
X167438564Y-79854611D01*
X167235516Y-79895000D01*
X167028484Y-79895000D01*
X166825436Y-79854611D01*
X166634167Y-79775385D01*
X166634166Y-79775385D01*
X166634165Y-79775384D01*
X166462027Y-79660365D01*
X166315635Y-79513973D01*
X166200616Y-79341835D01*
X166184227Y-79302269D01*
X166121389Y-79150564D01*
X166081000Y-78947516D01*
X166081000Y-78740484D01*
X166121389Y-78537436D01*
X166200615Y-78346167D01*
X166217911Y-78320282D01*
X166315635Y-78174027D01*
X166462027Y-78027635D01*
X166634165Y-77912616D01*
X166634167Y-77912615D01*
X166825436Y-77833389D01*
X167028484Y-77793000D01*
X167235516Y-77793000D01*
X167438564Y-77833389D01*
G37*
G36*
X171938564Y-77833389D02*
G01*
X172129833Y-77912615D01*
X172129835Y-77912616D01*
X172301973Y-78027635D01*
X172448365Y-78174027D01*
X172546090Y-78320282D01*
X172563385Y-78346167D01*
X172642611Y-78537436D01*
X172683000Y-78740484D01*
X172683000Y-78947516D01*
X172642611Y-79150564D01*
X172579773Y-79302269D01*
X172563384Y-79341835D01*
X172448365Y-79513973D01*
X172301973Y-79660365D01*
X172129835Y-79775384D01*
X172129834Y-79775385D01*
X172129833Y-79775385D01*
X171938564Y-79854611D01*
X171735516Y-79895000D01*
X171528484Y-79895000D01*
X171325436Y-79854611D01*
X171134167Y-79775385D01*
X171134166Y-79775385D01*
X171134165Y-79775384D01*
X170962027Y-79660365D01*
X170815635Y-79513973D01*
X170700616Y-79341835D01*
X170684227Y-79302269D01*
X170621389Y-79150564D01*
X170581000Y-78947516D01*
X170581000Y-78740484D01*
X170621389Y-78537436D01*
X170700615Y-78346167D01*
X170717911Y-78320282D01*
X170815635Y-78174027D01*
X170962027Y-78027635D01*
X171134165Y-77912616D01*
X171134167Y-77912615D01*
X171325436Y-77833389D01*
X171528484Y-77793000D01*
X171735516Y-77793000D01*
X171938564Y-77833389D01*
G37*
G36*
X162720721Y-77448174D02*
G01*
X162820995Y-77489709D01*
X162820996Y-77489710D01*
X162911242Y-77550010D01*
X162987990Y-77626758D01*
X162987991Y-77626760D01*
X163048291Y-77717005D01*
X163089826Y-77817279D01*
X163111000Y-77923730D01*
X163111000Y-78032270D01*
X163089826Y-78138721D01*
X163048291Y-78238995D01*
X163033399Y-78261282D01*
X162987990Y-78329242D01*
X162911242Y-78405990D01*
X162875308Y-78430000D01*
X162820995Y-78466291D01*
X162745611Y-78497516D01*
X162724000Y-78509067D01*
X162705059Y-78524612D01*
X162689513Y-78543554D01*
X162677962Y-78565165D01*
X162670849Y-78588614D01*
X162668447Y-78613000D01*
X162670849Y-78637386D01*
X162677962Y-78660835D01*
X162689513Y-78682446D01*
X162705058Y-78701387D01*
X162724000Y-78716933D01*
X162745611Y-78728484D01*
X162820995Y-78759709D01*
X162820996Y-78759710D01*
X162911242Y-78820010D01*
X162987990Y-78896758D01*
X162999208Y-78913547D01*
X163048291Y-78987005D01*
X163089826Y-79087279D01*
X163111000Y-79193730D01*
X163111000Y-79302270D01*
X163089826Y-79408721D01*
X163048291Y-79508995D01*
X163018345Y-79553812D01*
X162987990Y-79599242D01*
X162911242Y-79675990D01*
X162865812Y-79706345D01*
X162820995Y-79736291D01*
X162720721Y-79777826D01*
X162614270Y-79799000D01*
X162505730Y-79799000D01*
X162399279Y-79777826D01*
X162299005Y-79736291D01*
X162254188Y-79706345D01*
X162208758Y-79675990D01*
X162132010Y-79599242D01*
X162101655Y-79553812D01*
X162071709Y-79508995D01*
X162030174Y-79408721D01*
X162009000Y-79302270D01*
X162009000Y-79193730D01*
X162030174Y-79087279D01*
X162071709Y-78987005D01*
X162120792Y-78913547D01*
X162132010Y-78896758D01*
X162208758Y-78820010D01*
X162299004Y-78759710D01*
X162299005Y-78759709D01*
X162374389Y-78728484D01*
X162396000Y-78716933D01*
X162414941Y-78701388D01*
X162430487Y-78682446D01*
X162442038Y-78660835D01*
X162449151Y-78637386D01*
X162451553Y-78613000D01*
X162449151Y-78588614D01*
X162442038Y-78565165D01*
X162430487Y-78543554D01*
X162414942Y-78524613D01*
X162396000Y-78509067D01*
X162374389Y-78497516D01*
X162299005Y-78466291D01*
X162244692Y-78430000D01*
X162208758Y-78405990D01*
X162132010Y-78329242D01*
X162086601Y-78261282D01*
X162071709Y-78238995D01*
X162030174Y-78138721D01*
X162009000Y-78032270D01*
X162009000Y-77923730D01*
X162030174Y-77817279D01*
X162071709Y-77717005D01*
X162132009Y-77626760D01*
X162132010Y-77626758D01*
X162208758Y-77550010D01*
X162299004Y-77489710D01*
X162299005Y-77489709D01*
X162399279Y-77448174D01*
X162505730Y-77427000D01*
X162614270Y-77427000D01*
X162720721Y-77448174D01*
G37*
G36*
X142400721Y-77448174D02*
G01*
X142500995Y-77489709D01*
X142500996Y-77489710D01*
X142591242Y-77550010D01*
X142667990Y-77626758D01*
X142667991Y-77626760D01*
X142728291Y-77717005D01*
X142769826Y-77817279D01*
X142791000Y-77923730D01*
X142791000Y-78032270D01*
X142769826Y-78138721D01*
X142728291Y-78238995D01*
X142713399Y-78261282D01*
X142667990Y-78329242D01*
X142591242Y-78405990D01*
X142555308Y-78430000D01*
X142500995Y-78466291D01*
X142425611Y-78497516D01*
X142404000Y-78509067D01*
X142385059Y-78524612D01*
X142369513Y-78543554D01*
X142357962Y-78565165D01*
X142350849Y-78588614D01*
X142348447Y-78613000D01*
X142350849Y-78637386D01*
X142357962Y-78660835D01*
X142369513Y-78682446D01*
X142385058Y-78701387D01*
X142404000Y-78716933D01*
X142425611Y-78728484D01*
X142500995Y-78759709D01*
X142500996Y-78759710D01*
X142591242Y-78820010D01*
X142667990Y-78896758D01*
X142679208Y-78913547D01*
X142728291Y-78987005D01*
X142769826Y-79087279D01*
X142791000Y-79193730D01*
X142791000Y-79302270D01*
X142769826Y-79408721D01*
X142728291Y-79508995D01*
X142698345Y-79553812D01*
X142667990Y-79599242D01*
X142591242Y-79675990D01*
X142545812Y-79706345D01*
X142500995Y-79736291D01*
X142400721Y-79777826D01*
X142294270Y-79799000D01*
X142185730Y-79799000D01*
X142079279Y-79777826D01*
X141979005Y-79736291D01*
X141934188Y-79706345D01*
X141888758Y-79675990D01*
X141812010Y-79599242D01*
X141781655Y-79553812D01*
X141751709Y-79508995D01*
X141710174Y-79408721D01*
X141689000Y-79302270D01*
X141689000Y-79193730D01*
X141710174Y-79087279D01*
X141751709Y-78987005D01*
X141800792Y-78913547D01*
X141812010Y-78896758D01*
X141888758Y-78820010D01*
X141979004Y-78759710D01*
X141979005Y-78759709D01*
X142054389Y-78728484D01*
X142076000Y-78716933D01*
X142094941Y-78701388D01*
X142110487Y-78682446D01*
X142122038Y-78660835D01*
X142129151Y-78637386D01*
X142131553Y-78613000D01*
X142129151Y-78588614D01*
X142122038Y-78565165D01*
X142110487Y-78543554D01*
X142094942Y-78524613D01*
X142076000Y-78509067D01*
X142054389Y-78497516D01*
X141979005Y-78466291D01*
X141924692Y-78430000D01*
X141888758Y-78405990D01*
X141812010Y-78329242D01*
X141766601Y-78261282D01*
X141751709Y-78238995D01*
X141710174Y-78138721D01*
X141689000Y-78032270D01*
X141689000Y-77923730D01*
X141710174Y-77817279D01*
X141751709Y-77717005D01*
X141812009Y-77626760D01*
X141812010Y-77626758D01*
X141888758Y-77550010D01*
X141979004Y-77489710D01*
X141979005Y-77489709D01*
X142079279Y-77448174D01*
X142185730Y-77427000D01*
X142294270Y-77427000D01*
X142400721Y-77448174D01*
G37*
G36*
X154081000Y-79182000D02*
G01*
X152919000Y-79182000D01*
X152919000Y-78430000D01*
X154081000Y-78430000D01*
X154081000Y-79182000D01*
G37*
G36*
X158068674Y-77093465D02*
G01*
X158106367Y-77104899D01*
X158141103Y-77123466D01*
X158171548Y-77148452D01*
X158196534Y-77178897D01*
X158215101Y-77213633D01*
X158226535Y-77251326D01*
X158231000Y-77296661D01*
X158231000Y-78133339D01*
X158226535Y-78178674D01*
X158215101Y-78216367D01*
X158196534Y-78251103D01*
X158171548Y-78281548D01*
X158141103Y-78306534D01*
X158106367Y-78325101D01*
X158068674Y-78336535D01*
X158023339Y-78341000D01*
X156936661Y-78341000D01*
X156891326Y-78336535D01*
X156853633Y-78325101D01*
X156818897Y-78306534D01*
X156788452Y-78281548D01*
X156763466Y-78251103D01*
X156744899Y-78216367D01*
X156733465Y-78178674D01*
X156729000Y-78133339D01*
X156729000Y-77296661D01*
X156733465Y-77251326D01*
X156744899Y-77213633D01*
X156763466Y-77178897D01*
X156788452Y-77148452D01*
X156818897Y-77123466D01*
X156853633Y-77104899D01*
X156891326Y-77093465D01*
X156936661Y-77089000D01*
X158023339Y-77089000D01*
X158068674Y-77093465D01*
G37*
M02*
