G04 #@! TF.GenerationSoftware,KiCad,Pcbnew,5.1.5+dfsg1-2build2*
G04 #@! TF.CreationDate,2020-06-02T19:47:54-07:00*
G04 #@! TF.ProjectId,sram-cell,7372616d-2d63-4656-9c6c-2e6b69636164,rev?*
G04 #@! TF.SameCoordinates,Original*
G04 #@! TF.FileFunction,Soldermask,Top*
G04 #@! TF.FilePolarity,Negative*
%FSLAX46Y46*%
G04 Gerber Fmt 4.6, Leading zero omitted, Abs format (unit mm)*
G04 Created by KiCad (PCBNEW 5.1.5+dfsg1-2build2) date 2020-06-02 19:47:54*
%MOMM*%
%LPD*%
G04 APERTURE LIST*
%ADD10C,0.100000*%
G04 APERTURE END LIST*
D10*
G36*
X164267618Y-124578920D02*
G01*
X164358404Y-124606460D01*
X164390336Y-124616146D01*
X164503425Y-124676594D01*
X164602554Y-124757946D01*
X164683906Y-124857075D01*
X164744354Y-124970164D01*
X164754040Y-125002096D01*
X164781580Y-125092882D01*
X164791000Y-125188527D01*
X164791000Y-125952473D01*
X164781580Y-126048118D01*
X164754040Y-126138904D01*
X164744354Y-126170836D01*
X164683906Y-126283925D01*
X164602554Y-126383053D01*
X164503424Y-126464406D01*
X164390335Y-126524854D01*
X164358403Y-126534540D01*
X164267617Y-126562080D01*
X164140000Y-126574649D01*
X164012382Y-126562080D01*
X163921596Y-126534540D01*
X163889664Y-126524854D01*
X163776575Y-126464406D01*
X163677447Y-126383054D01*
X163596094Y-126283924D01*
X163535646Y-126170835D01*
X163525960Y-126138903D01*
X163498420Y-126048117D01*
X163489000Y-125952472D01*
X163489000Y-125188527D01*
X163498420Y-125092882D01*
X163535645Y-124970168D01*
X163560608Y-124923466D01*
X163596095Y-124857075D01*
X163677447Y-124757946D01*
X163776576Y-124676594D01*
X163889665Y-124616146D01*
X163921597Y-124606460D01*
X164012383Y-124578920D01*
X164140000Y-124566351D01*
X164267618Y-124578920D01*
G37*
G36*
X171267617Y-124578920D02*
G01*
X171358403Y-124606460D01*
X171390335Y-124616146D01*
X171503424Y-124676594D01*
X171602554Y-124757947D01*
X171683906Y-124857075D01*
X171744354Y-124970164D01*
X171754040Y-125002096D01*
X171781580Y-125092882D01*
X171791000Y-125188527D01*
X171791000Y-125952473D01*
X171781580Y-126048118D01*
X171754040Y-126138904D01*
X171744354Y-126170836D01*
X171683906Y-126283925D01*
X171602554Y-126383054D01*
X171503425Y-126464406D01*
X171390336Y-126524854D01*
X171358404Y-126534540D01*
X171267618Y-126562080D01*
X171140000Y-126574649D01*
X171012383Y-126562080D01*
X170921597Y-126534540D01*
X170889665Y-126524854D01*
X170776576Y-126464406D01*
X170677447Y-126383054D01*
X170596095Y-126283925D01*
X170535648Y-126170837D01*
X170535645Y-126170832D01*
X170498420Y-126048118D01*
X170489000Y-125952473D01*
X170489000Y-125188528D01*
X170498420Y-125092883D01*
X170535645Y-124970169D01*
X170535646Y-124970165D01*
X170596094Y-124857076D01*
X170677447Y-124757946D01*
X170776575Y-124676594D01*
X170889664Y-124616146D01*
X170921596Y-124606460D01*
X171012382Y-124578920D01*
X171140000Y-124566351D01*
X171267617Y-124578920D01*
G37*
G36*
X137273512Y-123055927D02*
G01*
X137422812Y-123085624D01*
X137586784Y-123153544D01*
X137734354Y-123252147D01*
X137859853Y-123377646D01*
X137958456Y-123525216D01*
X138026376Y-123689188D01*
X138061000Y-123863259D01*
X138061000Y-124040741D01*
X138026376Y-124214812D01*
X137958456Y-124378784D01*
X137859853Y-124526354D01*
X137734354Y-124651853D01*
X137586784Y-124750456D01*
X137422812Y-124818376D01*
X137273512Y-124848073D01*
X137248742Y-124853000D01*
X137071258Y-124853000D01*
X137046488Y-124848073D01*
X136897188Y-124818376D01*
X136733216Y-124750456D01*
X136585646Y-124651853D01*
X136460147Y-124526354D01*
X136361544Y-124378784D01*
X136293624Y-124214812D01*
X136259000Y-124040741D01*
X136259000Y-123863259D01*
X136293624Y-123689188D01*
X136361544Y-123525216D01*
X136460147Y-123377646D01*
X136585646Y-123252147D01*
X136733216Y-123153544D01*
X136897188Y-123085624D01*
X137046488Y-123055927D01*
X137071258Y-123051000D01*
X137248742Y-123051000D01*
X137273512Y-123055927D01*
G37*
G36*
X134733512Y-123055927D02*
G01*
X134882812Y-123085624D01*
X135046784Y-123153544D01*
X135194354Y-123252147D01*
X135319853Y-123377646D01*
X135418456Y-123525216D01*
X135486376Y-123689188D01*
X135521000Y-123863259D01*
X135521000Y-124040741D01*
X135486376Y-124214812D01*
X135418456Y-124378784D01*
X135319853Y-124526354D01*
X135194354Y-124651853D01*
X135046784Y-124750456D01*
X134882812Y-124818376D01*
X134733512Y-124848073D01*
X134708742Y-124853000D01*
X134531258Y-124853000D01*
X134506488Y-124848073D01*
X134357188Y-124818376D01*
X134193216Y-124750456D01*
X134045646Y-124651853D01*
X133920147Y-124526354D01*
X133821544Y-124378784D01*
X133753624Y-124214812D01*
X133719000Y-124040741D01*
X133719000Y-123863259D01*
X133753624Y-123689188D01*
X133821544Y-123525216D01*
X133920147Y-123377646D01*
X134045646Y-123252147D01*
X134193216Y-123153544D01*
X134357188Y-123085624D01*
X134506488Y-123055927D01*
X134531258Y-123051000D01*
X134708742Y-123051000D01*
X134733512Y-123055927D01*
G37*
G36*
X132193512Y-123055927D02*
G01*
X132342812Y-123085624D01*
X132506784Y-123153544D01*
X132654354Y-123252147D01*
X132779853Y-123377646D01*
X132878456Y-123525216D01*
X132946376Y-123689188D01*
X132981000Y-123863259D01*
X132981000Y-124040741D01*
X132946376Y-124214812D01*
X132878456Y-124378784D01*
X132779853Y-124526354D01*
X132654354Y-124651853D01*
X132506784Y-124750456D01*
X132342812Y-124818376D01*
X132193512Y-124848073D01*
X132168742Y-124853000D01*
X131991258Y-124853000D01*
X131966488Y-124848073D01*
X131817188Y-124818376D01*
X131653216Y-124750456D01*
X131505646Y-124651853D01*
X131380147Y-124526354D01*
X131281544Y-124378784D01*
X131213624Y-124214812D01*
X131179000Y-124040741D01*
X131179000Y-123863259D01*
X131213624Y-123689188D01*
X131281544Y-123525216D01*
X131380147Y-123377646D01*
X131505646Y-123252147D01*
X131653216Y-123153544D01*
X131817188Y-123085624D01*
X131966488Y-123055927D01*
X131991258Y-123051000D01*
X132168742Y-123051000D01*
X132193512Y-123055927D01*
G37*
G36*
X170366348Y-122124320D02*
G01*
X170366350Y-122124321D01*
X170366351Y-122124321D01*
X170507574Y-122182817D01*
X170507577Y-122182819D01*
X170634669Y-122267739D01*
X170742761Y-122375831D01*
X170827681Y-122502923D01*
X170827683Y-122502926D01*
X170886179Y-122644149D01*
X170886180Y-122644152D01*
X170916000Y-122794069D01*
X170916000Y-122946931D01*
X170888413Y-123085624D01*
X170886179Y-123096851D01*
X170827683Y-123238074D01*
X170827681Y-123238077D01*
X170742761Y-123365169D01*
X170634669Y-123473261D01*
X170507577Y-123558181D01*
X170507574Y-123558183D01*
X170366351Y-123616679D01*
X170366350Y-123616679D01*
X170366348Y-123616680D01*
X170216431Y-123646500D01*
X170063569Y-123646500D01*
X169913652Y-123616680D01*
X169913650Y-123616679D01*
X169913649Y-123616679D01*
X169772426Y-123558183D01*
X169772423Y-123558181D01*
X169645331Y-123473261D01*
X169537239Y-123365169D01*
X169452319Y-123238077D01*
X169452317Y-123238074D01*
X169393821Y-123096851D01*
X169391588Y-123085624D01*
X169364000Y-122946931D01*
X169364000Y-122794069D01*
X169393820Y-122644152D01*
X169393821Y-122644149D01*
X169452317Y-122502926D01*
X169452319Y-122502923D01*
X169537239Y-122375831D01*
X169645331Y-122267739D01*
X169772423Y-122182819D01*
X169772426Y-122182817D01*
X169913649Y-122124321D01*
X169913650Y-122124321D01*
X169913652Y-122124320D01*
X170063569Y-122094500D01*
X170216431Y-122094500D01*
X170366348Y-122124320D01*
G37*
G36*
X165366348Y-122124320D02*
G01*
X165366350Y-122124321D01*
X165366351Y-122124321D01*
X165507574Y-122182817D01*
X165507577Y-122182819D01*
X165634669Y-122267739D01*
X165742761Y-122375831D01*
X165827681Y-122502923D01*
X165827683Y-122502926D01*
X165886179Y-122644149D01*
X165886180Y-122644152D01*
X165916000Y-122794069D01*
X165916000Y-122946931D01*
X165888413Y-123085624D01*
X165886179Y-123096851D01*
X165827683Y-123238074D01*
X165827681Y-123238077D01*
X165742761Y-123365169D01*
X165634669Y-123473261D01*
X165507577Y-123558181D01*
X165507574Y-123558183D01*
X165366351Y-123616679D01*
X165366350Y-123616679D01*
X165366348Y-123616680D01*
X165216431Y-123646500D01*
X165063569Y-123646500D01*
X164913652Y-123616680D01*
X164913650Y-123616679D01*
X164913649Y-123616679D01*
X164772426Y-123558183D01*
X164772423Y-123558181D01*
X164645331Y-123473261D01*
X164537239Y-123365169D01*
X164452319Y-123238077D01*
X164452317Y-123238074D01*
X164393821Y-123096851D01*
X164391588Y-123085624D01*
X164364000Y-122946931D01*
X164364000Y-122794069D01*
X164393820Y-122644152D01*
X164393821Y-122644149D01*
X164452317Y-122502926D01*
X164452319Y-122502923D01*
X164537239Y-122375831D01*
X164645331Y-122267739D01*
X164772423Y-122182819D01*
X164772426Y-122182817D01*
X164913649Y-122124321D01*
X164913650Y-122124321D01*
X164913652Y-122124320D01*
X165063569Y-122094500D01*
X165216431Y-122094500D01*
X165366348Y-122124320D01*
G37*
G36*
X175746425Y-118442760D02*
G01*
X175746428Y-118442761D01*
X175746429Y-118442761D01*
X175925693Y-118497140D01*
X175925696Y-118497142D01*
X175925697Y-118497142D01*
X176090903Y-118585446D01*
X176235712Y-118704288D01*
X176354554Y-118849097D01*
X176442858Y-119014303D01*
X176442860Y-119014307D01*
X176497239Y-119193571D01*
X176497240Y-119193575D01*
X176515601Y-119380000D01*
X176497240Y-119566425D01*
X176497239Y-119566428D01*
X176497239Y-119566429D01*
X176442860Y-119745693D01*
X176442858Y-119745696D01*
X176442858Y-119745697D01*
X176354554Y-119910903D01*
X176235712Y-120055712D01*
X176090903Y-120174554D01*
X175925697Y-120262858D01*
X175925693Y-120262860D01*
X175746429Y-120317239D01*
X175746428Y-120317239D01*
X175746425Y-120317240D01*
X175606718Y-120331000D01*
X174913282Y-120331000D01*
X174773575Y-120317240D01*
X174773572Y-120317239D01*
X174773571Y-120317239D01*
X174594307Y-120262860D01*
X174594303Y-120262858D01*
X174429097Y-120174554D01*
X174284288Y-120055712D01*
X174165446Y-119910903D01*
X174077142Y-119745697D01*
X174077142Y-119745696D01*
X174077140Y-119745693D01*
X174022761Y-119566429D01*
X174022761Y-119566428D01*
X174022760Y-119566425D01*
X174004399Y-119380000D01*
X174022760Y-119193575D01*
X174022761Y-119193571D01*
X174077140Y-119014307D01*
X174077142Y-119014303D01*
X174165446Y-118849097D01*
X174284288Y-118704288D01*
X174429097Y-118585446D01*
X174594303Y-118497142D01*
X174594304Y-118497142D01*
X174594307Y-118497140D01*
X174773571Y-118442761D01*
X174773572Y-118442761D01*
X174773575Y-118442760D01*
X174913282Y-118429000D01*
X175606718Y-118429000D01*
X175746425Y-118442760D01*
G37*
G36*
X130026425Y-118442760D02*
G01*
X130026428Y-118442761D01*
X130026429Y-118442761D01*
X130205693Y-118497140D01*
X130205696Y-118497142D01*
X130205697Y-118497142D01*
X130370903Y-118585446D01*
X130515712Y-118704288D01*
X130634554Y-118849097D01*
X130722858Y-119014303D01*
X130722860Y-119014307D01*
X130777239Y-119193571D01*
X130777240Y-119193575D01*
X130795601Y-119380000D01*
X130777240Y-119566425D01*
X130777239Y-119566428D01*
X130777239Y-119566429D01*
X130722860Y-119745693D01*
X130722858Y-119745696D01*
X130722858Y-119745697D01*
X130634554Y-119910903D01*
X130515712Y-120055712D01*
X130370903Y-120174554D01*
X130205697Y-120262858D01*
X130205693Y-120262860D01*
X130026429Y-120317239D01*
X130026428Y-120317239D01*
X130026425Y-120317240D01*
X129886718Y-120331000D01*
X129193282Y-120331000D01*
X129053575Y-120317240D01*
X129053572Y-120317239D01*
X129053571Y-120317239D01*
X128874307Y-120262860D01*
X128874303Y-120262858D01*
X128709097Y-120174554D01*
X128564288Y-120055712D01*
X128445446Y-119910903D01*
X128357142Y-119745697D01*
X128357142Y-119745696D01*
X128357140Y-119745693D01*
X128302761Y-119566429D01*
X128302761Y-119566428D01*
X128302760Y-119566425D01*
X128284399Y-119380000D01*
X128302760Y-119193575D01*
X128302761Y-119193571D01*
X128357140Y-119014307D01*
X128357142Y-119014303D01*
X128445446Y-118849097D01*
X128564288Y-118704288D01*
X128709097Y-118585446D01*
X128874303Y-118497142D01*
X128874304Y-118497142D01*
X128874307Y-118497140D01*
X129053571Y-118442761D01*
X129053572Y-118442761D01*
X129053575Y-118442760D01*
X129193282Y-118429000D01*
X129886718Y-118429000D01*
X130026425Y-118442760D01*
G37*
G36*
X164577000Y-116275000D02*
G01*
X162575000Y-116275000D01*
X162575000Y-115373000D01*
X164577000Y-115373000D01*
X164577000Y-116275000D01*
G37*
G36*
X142249000Y-116209000D02*
G01*
X140247000Y-116209000D01*
X140247000Y-115307000D01*
X142249000Y-115307000D01*
X142249000Y-116209000D01*
G37*
G36*
X161577000Y-115325000D02*
G01*
X159575000Y-115325000D01*
X159575000Y-114423000D01*
X161577000Y-114423000D01*
X161577000Y-115325000D01*
G37*
G36*
X145249000Y-115259000D02*
G01*
X143247000Y-115259000D01*
X143247000Y-114357000D01*
X145249000Y-114357000D01*
X145249000Y-115259000D01*
G37*
G36*
X164577000Y-114375000D02*
G01*
X162575000Y-114375000D01*
X162575000Y-113473000D01*
X164577000Y-113473000D01*
X164577000Y-114375000D01*
G37*
G36*
X142249000Y-114309000D02*
G01*
X140247000Y-114309000D01*
X140247000Y-113407000D01*
X142249000Y-113407000D01*
X142249000Y-114309000D01*
G37*
G36*
X154918425Y-112346760D02*
G01*
X154918428Y-112346761D01*
X154918429Y-112346761D01*
X155097693Y-112401140D01*
X155097696Y-112401142D01*
X155097697Y-112401142D01*
X155262903Y-112489446D01*
X155407712Y-112608288D01*
X155526554Y-112753097D01*
X155614858Y-112918303D01*
X155614860Y-112918307D01*
X155669239Y-113097571D01*
X155669240Y-113097575D01*
X155687601Y-113284000D01*
X155669240Y-113470425D01*
X155669239Y-113470428D01*
X155669239Y-113470429D01*
X155614860Y-113649693D01*
X155614858Y-113649696D01*
X155614858Y-113649697D01*
X155526554Y-113814903D01*
X155407712Y-113959712D01*
X155262903Y-114078554D01*
X155097697Y-114166858D01*
X155097693Y-114166860D01*
X154918429Y-114221239D01*
X154918428Y-114221239D01*
X154918425Y-114221240D01*
X154778718Y-114235000D01*
X154085282Y-114235000D01*
X153945575Y-114221240D01*
X153945572Y-114221239D01*
X153945571Y-114221239D01*
X153766307Y-114166860D01*
X153766303Y-114166858D01*
X153601097Y-114078554D01*
X153456288Y-113959712D01*
X153337446Y-113814903D01*
X153249142Y-113649697D01*
X153249142Y-113649696D01*
X153249140Y-113649693D01*
X153194761Y-113470429D01*
X153194761Y-113470428D01*
X153194760Y-113470425D01*
X153176399Y-113284000D01*
X153194760Y-113097575D01*
X153194761Y-113097571D01*
X153249140Y-112918307D01*
X153249142Y-112918303D01*
X153337446Y-112753097D01*
X153456288Y-112608288D01*
X153601097Y-112489446D01*
X153766303Y-112401142D01*
X153766304Y-112401142D01*
X153766307Y-112401140D01*
X153945571Y-112346761D01*
X153945572Y-112346761D01*
X153945575Y-112346760D01*
X154085282Y-112333000D01*
X154778718Y-112333000D01*
X154918425Y-112346760D01*
G37*
G36*
X150854425Y-112346760D02*
G01*
X150854428Y-112346761D01*
X150854429Y-112346761D01*
X151033693Y-112401140D01*
X151033696Y-112401142D01*
X151033697Y-112401142D01*
X151198903Y-112489446D01*
X151343712Y-112608288D01*
X151462554Y-112753097D01*
X151550858Y-112918303D01*
X151550860Y-112918307D01*
X151605239Y-113097571D01*
X151605240Y-113097575D01*
X151623601Y-113284000D01*
X151605240Y-113470425D01*
X151605239Y-113470428D01*
X151605239Y-113470429D01*
X151550860Y-113649693D01*
X151550858Y-113649696D01*
X151550858Y-113649697D01*
X151462554Y-113814903D01*
X151343712Y-113959712D01*
X151198903Y-114078554D01*
X151033697Y-114166858D01*
X151033693Y-114166860D01*
X150854429Y-114221239D01*
X150854428Y-114221239D01*
X150854425Y-114221240D01*
X150714718Y-114235000D01*
X150021282Y-114235000D01*
X149881575Y-114221240D01*
X149881572Y-114221239D01*
X149881571Y-114221239D01*
X149702307Y-114166860D01*
X149702303Y-114166858D01*
X149537097Y-114078554D01*
X149392288Y-113959712D01*
X149273446Y-113814903D01*
X149185142Y-113649697D01*
X149185142Y-113649696D01*
X149185140Y-113649693D01*
X149130761Y-113470429D01*
X149130761Y-113470428D01*
X149130760Y-113470425D01*
X149112399Y-113284000D01*
X149130760Y-113097575D01*
X149130761Y-113097571D01*
X149185140Y-112918307D01*
X149185142Y-112918303D01*
X149273446Y-112753097D01*
X149392288Y-112608288D01*
X149537097Y-112489446D01*
X149702303Y-112401142D01*
X149702304Y-112401142D01*
X149702307Y-112401140D01*
X149881571Y-112346761D01*
X149881572Y-112346761D01*
X149881575Y-112346760D01*
X150021282Y-112333000D01*
X150714718Y-112333000D01*
X150854425Y-112346760D01*
G37*
G36*
X136021000Y-112737000D02*
G01*
X135119000Y-112737000D01*
X135119000Y-110735000D01*
X136021000Y-110735000D01*
X136021000Y-112737000D01*
G37*
G36*
X134121000Y-112737000D02*
G01*
X133219000Y-112737000D01*
X133219000Y-110735000D01*
X134121000Y-110735000D01*
X134121000Y-112737000D01*
G37*
G36*
X169681000Y-110705000D02*
G01*
X168779000Y-110705000D01*
X168779000Y-108703000D01*
X169681000Y-108703000D01*
X169681000Y-110705000D01*
G37*
G36*
X171581000Y-110705000D02*
G01*
X170679000Y-110705000D01*
X170679000Y-108703000D01*
X171581000Y-108703000D01*
X171581000Y-110705000D01*
G37*
G36*
X140902424Y-107474760D02*
G01*
X140902427Y-107474761D01*
X140902428Y-107474761D01*
X141081692Y-107529140D01*
X141081695Y-107529142D01*
X141081696Y-107529142D01*
X141246903Y-107617446D01*
X141391712Y-107736288D01*
X141510554Y-107881097D01*
X141598858Y-108046303D01*
X141598860Y-108046307D01*
X141598860Y-108046308D01*
X141653240Y-108225575D01*
X141667000Y-108365282D01*
X141667000Y-109058717D01*
X141653240Y-109198424D01*
X141653239Y-109198426D01*
X141653239Y-109198429D01*
X141598860Y-109377693D01*
X141598858Y-109377696D01*
X141510554Y-109542903D01*
X141391712Y-109687712D01*
X141246903Y-109806554D01*
X141081697Y-109894858D01*
X141081693Y-109894860D01*
X140902429Y-109949239D01*
X140902428Y-109949239D01*
X140902425Y-109949240D01*
X140716000Y-109967601D01*
X140529576Y-109949240D01*
X140529573Y-109949239D01*
X140529572Y-109949239D01*
X140350308Y-109894860D01*
X140350304Y-109894858D01*
X140185098Y-109806554D01*
X140040289Y-109687712D01*
X139921447Y-109542903D01*
X139833140Y-109377692D01*
X139778760Y-109198430D01*
X139765000Y-109058718D01*
X139765000Y-108365283D01*
X139778760Y-108225576D01*
X139778761Y-108225572D01*
X139833140Y-108046308D01*
X139833143Y-108046303D01*
X139921446Y-107881097D01*
X140040288Y-107736288D01*
X140185097Y-107617446D01*
X140350303Y-107529142D01*
X140350304Y-107529142D01*
X140350307Y-107529140D01*
X140529571Y-107474761D01*
X140529572Y-107474761D01*
X140529575Y-107474760D01*
X140716000Y-107456399D01*
X140902424Y-107474760D01*
G37*
G36*
X148014424Y-107474760D02*
G01*
X148014427Y-107474761D01*
X148014428Y-107474761D01*
X148193692Y-107529140D01*
X148193695Y-107529142D01*
X148193696Y-107529142D01*
X148358903Y-107617446D01*
X148503712Y-107736288D01*
X148622554Y-107881097D01*
X148710858Y-108046303D01*
X148710860Y-108046307D01*
X148710860Y-108046308D01*
X148765240Y-108225575D01*
X148779000Y-108365282D01*
X148779000Y-109058717D01*
X148765240Y-109198424D01*
X148765239Y-109198426D01*
X148765239Y-109198429D01*
X148710860Y-109377693D01*
X148710858Y-109377696D01*
X148622554Y-109542903D01*
X148503712Y-109687712D01*
X148358903Y-109806554D01*
X148193697Y-109894858D01*
X148193693Y-109894860D01*
X148014429Y-109949239D01*
X148014428Y-109949239D01*
X148014425Y-109949240D01*
X147828000Y-109967601D01*
X147641576Y-109949240D01*
X147641573Y-109949239D01*
X147641572Y-109949239D01*
X147462308Y-109894860D01*
X147462304Y-109894858D01*
X147297098Y-109806554D01*
X147152289Y-109687712D01*
X147033447Y-109542903D01*
X146945140Y-109377692D01*
X146890760Y-109198430D01*
X146877000Y-109058718D01*
X146877000Y-108365283D01*
X146890760Y-108225576D01*
X146890761Y-108225572D01*
X146945140Y-108046308D01*
X146945143Y-108046303D01*
X147033446Y-107881097D01*
X147152288Y-107736288D01*
X147297097Y-107617446D01*
X147462303Y-107529142D01*
X147462304Y-107529142D01*
X147462307Y-107529140D01*
X147641571Y-107474761D01*
X147641572Y-107474761D01*
X147641575Y-107474760D01*
X147828000Y-107456399D01*
X148014424Y-107474760D01*
G37*
G36*
X135071000Y-109737000D02*
G01*
X134169000Y-109737000D01*
X134169000Y-107735000D01*
X135071000Y-107735000D01*
X135071000Y-109737000D01*
G37*
G36*
X157158424Y-105442760D02*
G01*
X157158427Y-105442761D01*
X157158428Y-105442761D01*
X157337692Y-105497140D01*
X157337695Y-105497142D01*
X157337696Y-105497142D01*
X157502903Y-105585446D01*
X157647712Y-105704288D01*
X157766554Y-105849097D01*
X157854858Y-106014303D01*
X157854860Y-106014307D01*
X157854860Y-106014308D01*
X157909240Y-106193575D01*
X157923000Y-106333282D01*
X157923000Y-107026717D01*
X157909240Y-107166424D01*
X157909239Y-107166426D01*
X157909239Y-107166429D01*
X157854860Y-107345693D01*
X157854858Y-107345696D01*
X157766554Y-107510903D01*
X157647712Y-107655712D01*
X157502903Y-107774554D01*
X157337697Y-107862858D01*
X157337693Y-107862860D01*
X157158429Y-107917239D01*
X157158428Y-107917239D01*
X157158425Y-107917240D01*
X156972000Y-107935601D01*
X156785576Y-107917240D01*
X156785573Y-107917239D01*
X156785572Y-107917239D01*
X156606308Y-107862860D01*
X156606304Y-107862858D01*
X156441098Y-107774554D01*
X156296289Y-107655712D01*
X156177447Y-107510903D01*
X156089140Y-107345692D01*
X156034760Y-107166430D01*
X156021000Y-107026718D01*
X156021000Y-106333283D01*
X156034760Y-106193576D01*
X156034761Y-106193572D01*
X156089140Y-106014308D01*
X156089143Y-106014303D01*
X156177446Y-105849097D01*
X156296288Y-105704288D01*
X156441097Y-105585446D01*
X156606303Y-105497142D01*
X156606304Y-105497142D01*
X156606307Y-105497140D01*
X156785571Y-105442761D01*
X156785572Y-105442761D01*
X156785575Y-105442760D01*
X156972000Y-105424399D01*
X157158424Y-105442760D01*
G37*
G36*
X164270424Y-105442760D02*
G01*
X164270427Y-105442761D01*
X164270428Y-105442761D01*
X164449692Y-105497140D01*
X164449695Y-105497142D01*
X164449696Y-105497142D01*
X164614903Y-105585446D01*
X164759712Y-105704288D01*
X164878554Y-105849097D01*
X164966858Y-106014303D01*
X164966860Y-106014307D01*
X164966860Y-106014308D01*
X165021240Y-106193575D01*
X165035000Y-106333282D01*
X165035000Y-107026717D01*
X165021240Y-107166424D01*
X165021239Y-107166426D01*
X165021239Y-107166429D01*
X164966860Y-107345693D01*
X164966858Y-107345696D01*
X164878554Y-107510903D01*
X164759712Y-107655712D01*
X164614903Y-107774554D01*
X164449697Y-107862858D01*
X164449693Y-107862860D01*
X164270429Y-107917239D01*
X164270428Y-107917239D01*
X164270425Y-107917240D01*
X164084000Y-107935601D01*
X163897576Y-107917240D01*
X163897573Y-107917239D01*
X163897572Y-107917239D01*
X163718308Y-107862860D01*
X163718304Y-107862858D01*
X163553098Y-107774554D01*
X163408289Y-107655712D01*
X163289447Y-107510903D01*
X163201140Y-107345692D01*
X163146760Y-107166430D01*
X163133000Y-107026718D01*
X163133000Y-106333283D01*
X163146760Y-106193576D01*
X163146761Y-106193572D01*
X163201140Y-106014308D01*
X163201143Y-106014303D01*
X163289446Y-105849097D01*
X163408288Y-105704288D01*
X163553097Y-105585446D01*
X163718303Y-105497142D01*
X163718304Y-105497142D01*
X163718307Y-105497140D01*
X163897571Y-105442761D01*
X163897572Y-105442761D01*
X163897575Y-105442760D01*
X164084000Y-105424399D01*
X164270424Y-105442760D01*
G37*
G36*
X170631000Y-107705000D02*
G01*
X169729000Y-107705000D01*
X169729000Y-105703000D01*
X170631000Y-105703000D01*
X170631000Y-107705000D01*
G37*
G36*
X154918425Y-101170760D02*
G01*
X154918428Y-101170761D01*
X154918429Y-101170761D01*
X155097693Y-101225140D01*
X155097696Y-101225142D01*
X155097697Y-101225142D01*
X155262903Y-101313446D01*
X155407712Y-101432288D01*
X155526554Y-101577097D01*
X155614858Y-101742303D01*
X155614860Y-101742307D01*
X155628244Y-101786429D01*
X155669240Y-101921575D01*
X155687601Y-102108000D01*
X155669240Y-102294425D01*
X155669239Y-102294428D01*
X155669239Y-102294429D01*
X155614860Y-102473693D01*
X155614858Y-102473696D01*
X155614858Y-102473697D01*
X155526554Y-102638903D01*
X155407712Y-102783712D01*
X155262903Y-102902554D01*
X155097697Y-102990858D01*
X155097693Y-102990860D01*
X154918429Y-103045239D01*
X154918428Y-103045239D01*
X154918425Y-103045240D01*
X154778718Y-103059000D01*
X154085282Y-103059000D01*
X153945575Y-103045240D01*
X153945572Y-103045239D01*
X153945571Y-103045239D01*
X153766307Y-102990860D01*
X153766303Y-102990858D01*
X153601097Y-102902554D01*
X153456288Y-102783712D01*
X153337446Y-102638903D01*
X153249142Y-102473697D01*
X153249142Y-102473696D01*
X153249140Y-102473693D01*
X153194761Y-102294429D01*
X153194761Y-102294428D01*
X153194760Y-102294425D01*
X153176399Y-102108000D01*
X153194760Y-101921575D01*
X153235756Y-101786429D01*
X153249140Y-101742307D01*
X153249142Y-101742303D01*
X153337446Y-101577097D01*
X153456288Y-101432288D01*
X153601097Y-101313446D01*
X153766303Y-101225142D01*
X153766304Y-101225142D01*
X153766307Y-101225140D01*
X153945571Y-101170761D01*
X153945572Y-101170761D01*
X153945575Y-101170760D01*
X154085282Y-101157000D01*
X154778718Y-101157000D01*
X154918425Y-101170760D01*
G37*
G36*
X150854425Y-101170760D02*
G01*
X150854428Y-101170761D01*
X150854429Y-101170761D01*
X151033693Y-101225140D01*
X151033696Y-101225142D01*
X151033697Y-101225142D01*
X151198903Y-101313446D01*
X151343712Y-101432288D01*
X151462554Y-101577097D01*
X151550858Y-101742303D01*
X151550860Y-101742307D01*
X151564244Y-101786429D01*
X151605240Y-101921575D01*
X151623601Y-102108000D01*
X151605240Y-102294425D01*
X151605239Y-102294428D01*
X151605239Y-102294429D01*
X151550860Y-102473693D01*
X151550858Y-102473696D01*
X151550858Y-102473697D01*
X151462554Y-102638903D01*
X151343712Y-102783712D01*
X151198903Y-102902554D01*
X151033697Y-102990858D01*
X151033693Y-102990860D01*
X150854429Y-103045239D01*
X150854428Y-103045239D01*
X150854425Y-103045240D01*
X150714718Y-103059000D01*
X150021282Y-103059000D01*
X149881575Y-103045240D01*
X149881572Y-103045239D01*
X149881571Y-103045239D01*
X149702307Y-102990860D01*
X149702303Y-102990858D01*
X149537097Y-102902554D01*
X149392288Y-102783712D01*
X149273446Y-102638903D01*
X149185142Y-102473697D01*
X149185142Y-102473696D01*
X149185140Y-102473693D01*
X149130761Y-102294429D01*
X149130761Y-102294428D01*
X149130760Y-102294425D01*
X149112399Y-102108000D01*
X149130760Y-101921575D01*
X149171756Y-101786429D01*
X149185140Y-101742307D01*
X149185142Y-101742303D01*
X149273446Y-101577097D01*
X149392288Y-101432288D01*
X149537097Y-101313446D01*
X149702303Y-101225142D01*
X149702304Y-101225142D01*
X149702307Y-101225140D01*
X149881571Y-101170761D01*
X149881572Y-101170761D01*
X149881575Y-101170760D01*
X150021282Y-101157000D01*
X150714718Y-101157000D01*
X150854425Y-101170760D01*
G37*
G36*
X175746425Y-100662760D02*
G01*
X175746428Y-100662761D01*
X175746429Y-100662761D01*
X175925693Y-100717140D01*
X175925696Y-100717142D01*
X175925697Y-100717142D01*
X176090903Y-100805446D01*
X176235712Y-100924288D01*
X176354554Y-101069097D01*
X176408894Y-101170761D01*
X176442860Y-101234307D01*
X176497239Y-101413571D01*
X176497240Y-101413575D01*
X176515601Y-101600000D01*
X176497240Y-101786425D01*
X176497239Y-101786428D01*
X176497239Y-101786429D01*
X176442860Y-101965693D01*
X176442858Y-101965696D01*
X176442858Y-101965697D01*
X176354554Y-102130903D01*
X176235712Y-102275712D01*
X176090903Y-102394554D01*
X175942836Y-102473697D01*
X175925693Y-102482860D01*
X175746429Y-102537239D01*
X175746428Y-102537239D01*
X175746425Y-102537240D01*
X175606718Y-102551000D01*
X174913282Y-102551000D01*
X174773575Y-102537240D01*
X174773572Y-102537239D01*
X174773571Y-102537239D01*
X174594307Y-102482860D01*
X174577164Y-102473697D01*
X174429097Y-102394554D01*
X174284288Y-102275712D01*
X174165446Y-102130903D01*
X174077142Y-101965697D01*
X174077142Y-101965696D01*
X174077140Y-101965693D01*
X174022761Y-101786429D01*
X174022761Y-101786428D01*
X174022760Y-101786425D01*
X174004399Y-101600000D01*
X174022760Y-101413575D01*
X174022761Y-101413571D01*
X174077140Y-101234307D01*
X174111106Y-101170761D01*
X174165446Y-101069097D01*
X174284288Y-100924288D01*
X174429097Y-100805446D01*
X174594303Y-100717142D01*
X174594304Y-100717142D01*
X174594307Y-100717140D01*
X174773571Y-100662761D01*
X174773572Y-100662761D01*
X174773575Y-100662760D01*
X174913282Y-100649000D01*
X175606718Y-100649000D01*
X175746425Y-100662760D01*
G37*
G36*
X130026425Y-100662760D02*
G01*
X130026428Y-100662761D01*
X130026429Y-100662761D01*
X130205693Y-100717140D01*
X130205696Y-100717142D01*
X130205697Y-100717142D01*
X130370903Y-100805446D01*
X130515712Y-100924288D01*
X130634554Y-101069097D01*
X130688894Y-101170761D01*
X130722860Y-101234307D01*
X130777239Y-101413571D01*
X130777240Y-101413575D01*
X130795601Y-101600000D01*
X130777240Y-101786425D01*
X130777239Y-101786428D01*
X130777239Y-101786429D01*
X130722860Y-101965693D01*
X130722858Y-101965696D01*
X130722858Y-101965697D01*
X130634554Y-102130903D01*
X130515712Y-102275712D01*
X130370903Y-102394554D01*
X130222836Y-102473697D01*
X130205693Y-102482860D01*
X130026429Y-102537239D01*
X130026428Y-102537239D01*
X130026425Y-102537240D01*
X129886718Y-102551000D01*
X129193282Y-102551000D01*
X129053575Y-102537240D01*
X129053572Y-102537239D01*
X129053571Y-102537239D01*
X128874307Y-102482860D01*
X128857164Y-102473697D01*
X128709097Y-102394554D01*
X128564288Y-102275712D01*
X128445446Y-102130903D01*
X128357142Y-101965697D01*
X128357142Y-101965696D01*
X128357140Y-101965693D01*
X128302761Y-101786429D01*
X128302761Y-101786428D01*
X128302760Y-101786425D01*
X128284399Y-101600000D01*
X128302760Y-101413575D01*
X128302761Y-101413571D01*
X128357140Y-101234307D01*
X128391106Y-101170761D01*
X128445446Y-101069097D01*
X128564288Y-100924288D01*
X128709097Y-100805446D01*
X128874303Y-100717142D01*
X128874304Y-100717142D01*
X128874307Y-100717140D01*
X129053571Y-100662761D01*
X129053572Y-100662761D01*
X129053575Y-100662760D01*
X129193282Y-100649000D01*
X129886718Y-100649000D01*
X130026425Y-100662760D01*
G37*
G36*
X142249000Y-101985000D02*
G01*
X140247000Y-101985000D01*
X140247000Y-101083000D01*
X142249000Y-101083000D01*
X142249000Y-101985000D01*
G37*
G36*
X164553000Y-101985000D02*
G01*
X162551000Y-101985000D01*
X162551000Y-101083000D01*
X164553000Y-101083000D01*
X164553000Y-101985000D01*
G37*
G36*
X161553000Y-101035000D02*
G01*
X159551000Y-101035000D01*
X159551000Y-100133000D01*
X161553000Y-100133000D01*
X161553000Y-101035000D01*
G37*
G36*
X145249000Y-101035000D02*
G01*
X143247000Y-101035000D01*
X143247000Y-100133000D01*
X145249000Y-100133000D01*
X145249000Y-101035000D01*
G37*
G36*
X142249000Y-100085000D02*
G01*
X140247000Y-100085000D01*
X140247000Y-99183000D01*
X142249000Y-99183000D01*
X142249000Y-100085000D01*
G37*
G36*
X164553000Y-100085000D02*
G01*
X162551000Y-100085000D01*
X162551000Y-99183000D01*
X164553000Y-99183000D01*
X164553000Y-100085000D01*
G37*
G36*
X135106425Y-95582760D02*
G01*
X135106428Y-95582761D01*
X135106429Y-95582761D01*
X135285693Y-95637140D01*
X135285696Y-95637142D01*
X135285697Y-95637142D01*
X135450903Y-95725446D01*
X135595712Y-95844288D01*
X135714554Y-95989097D01*
X135802858Y-96154303D01*
X135802860Y-96154307D01*
X135857239Y-96333571D01*
X135857240Y-96333575D01*
X135875601Y-96520000D01*
X135857240Y-96706425D01*
X135857239Y-96706428D01*
X135857239Y-96706429D01*
X135802860Y-96885693D01*
X135802858Y-96885696D01*
X135802858Y-96885697D01*
X135714554Y-97050903D01*
X135595712Y-97195712D01*
X135450903Y-97314554D01*
X135285697Y-97402858D01*
X135285693Y-97402860D01*
X135106429Y-97457239D01*
X135106428Y-97457239D01*
X135106425Y-97457240D01*
X134966718Y-97471000D01*
X134273282Y-97471000D01*
X134133575Y-97457240D01*
X134133572Y-97457239D01*
X134133571Y-97457239D01*
X133954307Y-97402860D01*
X133954303Y-97402858D01*
X133789097Y-97314554D01*
X133644288Y-97195712D01*
X133525446Y-97050903D01*
X133437142Y-96885697D01*
X133437142Y-96885696D01*
X133437140Y-96885693D01*
X133382761Y-96706429D01*
X133382761Y-96706428D01*
X133382760Y-96706425D01*
X133364399Y-96520000D01*
X133382760Y-96333575D01*
X133382761Y-96333571D01*
X133437140Y-96154307D01*
X133437142Y-96154303D01*
X133525446Y-95989097D01*
X133644288Y-95844288D01*
X133789097Y-95725446D01*
X133954303Y-95637142D01*
X133954304Y-95637142D01*
X133954307Y-95637140D01*
X134133571Y-95582761D01*
X134133572Y-95582761D01*
X134133575Y-95582760D01*
X134273282Y-95569000D01*
X134966718Y-95569000D01*
X135106425Y-95582760D01*
G37*
G36*
X170666425Y-95582760D02*
G01*
X170666428Y-95582761D01*
X170666429Y-95582761D01*
X170845693Y-95637140D01*
X170845696Y-95637142D01*
X170845697Y-95637142D01*
X171010903Y-95725446D01*
X171155712Y-95844288D01*
X171274554Y-95989097D01*
X171362858Y-96154303D01*
X171362860Y-96154307D01*
X171417239Y-96333571D01*
X171417240Y-96333575D01*
X171435601Y-96520000D01*
X171417240Y-96706425D01*
X171417239Y-96706428D01*
X171417239Y-96706429D01*
X171362860Y-96885693D01*
X171362858Y-96885696D01*
X171362858Y-96885697D01*
X171274554Y-97050903D01*
X171155712Y-97195712D01*
X171010903Y-97314554D01*
X170845697Y-97402858D01*
X170845693Y-97402860D01*
X170666429Y-97457239D01*
X170666428Y-97457239D01*
X170666425Y-97457240D01*
X170526718Y-97471000D01*
X169833282Y-97471000D01*
X169693575Y-97457240D01*
X169693572Y-97457239D01*
X169693571Y-97457239D01*
X169514307Y-97402860D01*
X169514303Y-97402858D01*
X169349097Y-97314554D01*
X169204288Y-97195712D01*
X169085446Y-97050903D01*
X168997142Y-96885697D01*
X168997142Y-96885696D01*
X168997140Y-96885693D01*
X168942761Y-96706429D01*
X168942761Y-96706428D01*
X168942760Y-96706425D01*
X168924399Y-96520000D01*
X168942760Y-96333575D01*
X168942761Y-96333571D01*
X168997140Y-96154307D01*
X168997142Y-96154303D01*
X169085446Y-95989097D01*
X169204288Y-95844288D01*
X169349097Y-95725446D01*
X169514303Y-95637142D01*
X169514304Y-95637142D01*
X169514307Y-95637140D01*
X169693571Y-95582761D01*
X169693572Y-95582761D01*
X169693575Y-95582760D01*
X169833282Y-95569000D01*
X170526718Y-95569000D01*
X170666425Y-95582760D01*
G37*
G36*
X144458424Y-87662760D02*
G01*
X144458427Y-87662761D01*
X144458428Y-87662761D01*
X144637692Y-87717140D01*
X144637695Y-87717142D01*
X144637696Y-87717142D01*
X144802903Y-87805446D01*
X144947712Y-87924288D01*
X145066554Y-88069097D01*
X145154858Y-88234303D01*
X145154860Y-88234307D01*
X145154860Y-88234308D01*
X145209240Y-88413575D01*
X145223000Y-88553282D01*
X145223000Y-89246717D01*
X145209240Y-89386424D01*
X145209239Y-89386426D01*
X145209239Y-89386429D01*
X145154860Y-89565693D01*
X145154858Y-89565696D01*
X145066554Y-89730903D01*
X144947712Y-89875712D01*
X144802903Y-89994554D01*
X144637697Y-90082858D01*
X144637693Y-90082860D01*
X144458429Y-90137239D01*
X144458428Y-90137239D01*
X144458425Y-90137240D01*
X144272000Y-90155601D01*
X144085576Y-90137240D01*
X144085573Y-90137239D01*
X144085572Y-90137239D01*
X143906308Y-90082860D01*
X143906304Y-90082858D01*
X143741098Y-89994554D01*
X143596289Y-89875712D01*
X143477447Y-89730903D01*
X143389140Y-89565692D01*
X143334760Y-89386430D01*
X143321000Y-89246718D01*
X143321000Y-88553283D01*
X143334760Y-88413576D01*
X143334761Y-88413572D01*
X143389140Y-88234308D01*
X143389143Y-88234303D01*
X143477446Y-88069097D01*
X143596288Y-87924288D01*
X143741097Y-87805446D01*
X143906303Y-87717142D01*
X143906304Y-87717142D01*
X143906307Y-87717140D01*
X144085571Y-87662761D01*
X144085572Y-87662761D01*
X144085575Y-87662760D01*
X144272000Y-87644399D01*
X144458424Y-87662760D01*
G37*
G36*
X160714424Y-87662760D02*
G01*
X160714427Y-87662761D01*
X160714428Y-87662761D01*
X160893692Y-87717140D01*
X160893695Y-87717142D01*
X160893696Y-87717142D01*
X161058903Y-87805446D01*
X161203712Y-87924288D01*
X161322554Y-88069097D01*
X161410858Y-88234303D01*
X161410860Y-88234307D01*
X161410860Y-88234308D01*
X161465240Y-88413575D01*
X161479000Y-88553282D01*
X161479000Y-89246717D01*
X161465240Y-89386424D01*
X161465239Y-89386426D01*
X161465239Y-89386429D01*
X161410860Y-89565693D01*
X161410858Y-89565696D01*
X161322554Y-89730903D01*
X161203712Y-89875712D01*
X161058903Y-89994554D01*
X160893697Y-90082858D01*
X160893693Y-90082860D01*
X160714429Y-90137239D01*
X160714428Y-90137239D01*
X160714425Y-90137240D01*
X160528000Y-90155601D01*
X160341576Y-90137240D01*
X160341573Y-90137239D01*
X160341572Y-90137239D01*
X160162308Y-90082860D01*
X160162304Y-90082858D01*
X159997098Y-89994554D01*
X159852289Y-89875712D01*
X159733447Y-89730903D01*
X159645140Y-89565692D01*
X159590760Y-89386430D01*
X159577000Y-89246718D01*
X159577000Y-88553283D01*
X159590760Y-88413576D01*
X159590761Y-88413572D01*
X159645140Y-88234308D01*
X159645143Y-88234303D01*
X159733446Y-88069097D01*
X159852288Y-87924288D01*
X159997097Y-87805446D01*
X160162303Y-87717142D01*
X160162304Y-87717142D01*
X160162307Y-87717140D01*
X160341571Y-87662761D01*
X160341572Y-87662761D01*
X160341575Y-87662760D01*
X160528000Y-87644399D01*
X160714424Y-87662760D01*
G37*
G36*
X167438564Y-84333389D02*
G01*
X167629833Y-84412615D01*
X167629835Y-84412616D01*
X167801973Y-84527635D01*
X167948365Y-84674027D01*
X168003966Y-84757239D01*
X168063385Y-84846167D01*
X168142611Y-85037436D01*
X168183000Y-85240484D01*
X168183000Y-85447516D01*
X168142611Y-85650564D01*
X168114583Y-85718229D01*
X168063384Y-85841835D01*
X167948365Y-86013973D01*
X167801973Y-86160365D01*
X167629835Y-86275384D01*
X167629834Y-86275385D01*
X167629833Y-86275385D01*
X167438564Y-86354611D01*
X167235516Y-86395000D01*
X167028484Y-86395000D01*
X166825436Y-86354611D01*
X166634167Y-86275385D01*
X166634166Y-86275385D01*
X166634165Y-86275384D01*
X166462027Y-86160365D01*
X166315635Y-86013973D01*
X166200616Y-85841835D01*
X166149417Y-85718229D01*
X166121389Y-85650564D01*
X166081000Y-85447516D01*
X166081000Y-85240484D01*
X166121389Y-85037436D01*
X166200615Y-84846167D01*
X166260035Y-84757239D01*
X166315635Y-84674027D01*
X166462027Y-84527635D01*
X166634165Y-84412616D01*
X166634167Y-84412615D01*
X166825436Y-84333389D01*
X167028484Y-84293000D01*
X167235516Y-84293000D01*
X167438564Y-84333389D01*
G37*
G36*
X171938564Y-84333389D02*
G01*
X172129833Y-84412615D01*
X172129835Y-84412616D01*
X172301973Y-84527635D01*
X172448365Y-84674027D01*
X172503966Y-84757239D01*
X172563385Y-84846167D01*
X172642611Y-85037436D01*
X172683000Y-85240484D01*
X172683000Y-85447516D01*
X172642611Y-85650564D01*
X172614583Y-85718229D01*
X172563384Y-85841835D01*
X172448365Y-86013973D01*
X172301973Y-86160365D01*
X172129835Y-86275384D01*
X172129834Y-86275385D01*
X172129833Y-86275385D01*
X171938564Y-86354611D01*
X171735516Y-86395000D01*
X171528484Y-86395000D01*
X171325436Y-86354611D01*
X171134167Y-86275385D01*
X171134166Y-86275385D01*
X171134165Y-86275384D01*
X170962027Y-86160365D01*
X170815635Y-86013973D01*
X170700616Y-85841835D01*
X170649417Y-85718229D01*
X170621389Y-85650564D01*
X170581000Y-85447516D01*
X170581000Y-85240484D01*
X170621389Y-85037436D01*
X170700615Y-84846167D01*
X170760035Y-84757239D01*
X170815635Y-84674027D01*
X170962027Y-84527635D01*
X171134165Y-84412616D01*
X171134167Y-84412615D01*
X171325436Y-84333389D01*
X171528484Y-84293000D01*
X171735516Y-84293000D01*
X171938564Y-84333389D01*
G37*
G36*
X145028228Y-84651703D02*
G01*
X145183100Y-84715853D01*
X145322481Y-84808985D01*
X145441015Y-84927519D01*
X145534147Y-85066900D01*
X145598297Y-85221772D01*
X145631000Y-85386184D01*
X145631000Y-85553816D01*
X145598297Y-85718228D01*
X145534147Y-85873100D01*
X145441015Y-86012481D01*
X145322481Y-86131015D01*
X145183100Y-86224147D01*
X145028228Y-86288297D01*
X144863816Y-86321000D01*
X144696184Y-86321000D01*
X144531772Y-86288297D01*
X144376900Y-86224147D01*
X144237519Y-86131015D01*
X144118985Y-86012481D01*
X144025853Y-85873100D01*
X143961703Y-85718228D01*
X143929000Y-85553816D01*
X143929000Y-85386184D01*
X143961703Y-85221772D01*
X144025853Y-85066900D01*
X144118985Y-84927519D01*
X144237519Y-84808985D01*
X144376900Y-84715853D01*
X144531772Y-84651703D01*
X144696184Y-84619000D01*
X144863816Y-84619000D01*
X145028228Y-84651703D01*
G37*
G36*
X160268228Y-84651703D02*
G01*
X160423100Y-84715853D01*
X160562481Y-84808985D01*
X160681015Y-84927519D01*
X160774147Y-85066900D01*
X160838297Y-85221772D01*
X160871000Y-85386184D01*
X160871000Y-85553816D01*
X160838297Y-85718228D01*
X160774147Y-85873100D01*
X160681015Y-86012481D01*
X160562481Y-86131015D01*
X160423100Y-86224147D01*
X160268228Y-86288297D01*
X160103816Y-86321000D01*
X159936184Y-86321000D01*
X159771772Y-86288297D01*
X159616900Y-86224147D01*
X159477519Y-86131015D01*
X159358985Y-86012481D01*
X159265853Y-85873100D01*
X159201703Y-85718228D01*
X159169000Y-85553816D01*
X159169000Y-85386184D01*
X159201703Y-85221772D01*
X159265853Y-85066900D01*
X159358985Y-84927519D01*
X159477519Y-84808985D01*
X159616900Y-84715853D01*
X159771772Y-84651703D01*
X159936184Y-84619000D01*
X160103816Y-84619000D01*
X160268228Y-84651703D01*
G37*
G36*
X147528228Y-84651703D02*
G01*
X147683100Y-84715853D01*
X147822481Y-84808985D01*
X147941015Y-84927519D01*
X148034147Y-85066900D01*
X148098297Y-85221772D01*
X148131000Y-85386184D01*
X148131000Y-85553816D01*
X148098297Y-85718228D01*
X148034147Y-85873100D01*
X147941015Y-86012481D01*
X147822481Y-86131015D01*
X147683100Y-86224147D01*
X147528228Y-86288297D01*
X147363816Y-86321000D01*
X147196184Y-86321000D01*
X147031772Y-86288297D01*
X146876900Y-86224147D01*
X146737519Y-86131015D01*
X146618985Y-86012481D01*
X146525853Y-85873100D01*
X146461703Y-85718228D01*
X146429000Y-85553816D01*
X146429000Y-85386184D01*
X146461703Y-85221772D01*
X146525853Y-85066900D01*
X146618985Y-84927519D01*
X146737519Y-84808985D01*
X146876900Y-84715853D01*
X147031772Y-84651703D01*
X147196184Y-84619000D01*
X147363816Y-84619000D01*
X147528228Y-84651703D01*
G37*
G36*
X142528228Y-84651703D02*
G01*
X142683100Y-84715853D01*
X142822481Y-84808985D01*
X142941015Y-84927519D01*
X143034147Y-85066900D01*
X143098297Y-85221772D01*
X143131000Y-85386184D01*
X143131000Y-85553816D01*
X143098297Y-85718228D01*
X143034147Y-85873100D01*
X142941015Y-86012481D01*
X142822481Y-86131015D01*
X142683100Y-86224147D01*
X142528228Y-86288297D01*
X142363816Y-86321000D01*
X142196184Y-86321000D01*
X142031772Y-86288297D01*
X141876900Y-86224147D01*
X141737519Y-86131015D01*
X141618985Y-86012481D01*
X141525853Y-85873100D01*
X141461703Y-85718228D01*
X141429000Y-85553816D01*
X141429000Y-85386184D01*
X141461703Y-85221772D01*
X141525853Y-85066900D01*
X141618985Y-84927519D01*
X141737519Y-84808985D01*
X141876900Y-84715853D01*
X142031772Y-84651703D01*
X142196184Y-84619000D01*
X142363816Y-84619000D01*
X142528228Y-84651703D01*
G37*
G36*
X157768228Y-84651703D02*
G01*
X157923100Y-84715853D01*
X158062481Y-84808985D01*
X158181015Y-84927519D01*
X158274147Y-85066900D01*
X158338297Y-85221772D01*
X158371000Y-85386184D01*
X158371000Y-85553816D01*
X158338297Y-85718228D01*
X158274147Y-85873100D01*
X158181015Y-86012481D01*
X158062481Y-86131015D01*
X157923100Y-86224147D01*
X157768228Y-86288297D01*
X157603816Y-86321000D01*
X157436184Y-86321000D01*
X157271772Y-86288297D01*
X157116900Y-86224147D01*
X156977519Y-86131015D01*
X156858985Y-86012481D01*
X156765853Y-85873100D01*
X156701703Y-85718228D01*
X156669000Y-85553816D01*
X156669000Y-85386184D01*
X156701703Y-85221772D01*
X156765853Y-85066900D01*
X156858985Y-84927519D01*
X156977519Y-84808985D01*
X157116900Y-84715853D01*
X157271772Y-84651703D01*
X157436184Y-84619000D01*
X157603816Y-84619000D01*
X157768228Y-84651703D01*
G37*
G36*
X162768228Y-84651703D02*
G01*
X162923100Y-84715853D01*
X163062481Y-84808985D01*
X163181015Y-84927519D01*
X163274147Y-85066900D01*
X163338297Y-85221772D01*
X163371000Y-85386184D01*
X163371000Y-85553816D01*
X163338297Y-85718228D01*
X163274147Y-85873100D01*
X163181015Y-86012481D01*
X163062481Y-86131015D01*
X162923100Y-86224147D01*
X162768228Y-86288297D01*
X162603816Y-86321000D01*
X162436184Y-86321000D01*
X162271772Y-86288297D01*
X162116900Y-86224147D01*
X161977519Y-86131015D01*
X161858985Y-86012481D01*
X161765853Y-85873100D01*
X161701703Y-85718228D01*
X161669000Y-85553816D01*
X161669000Y-85386184D01*
X161701703Y-85221772D01*
X161765853Y-85066900D01*
X161858985Y-84927519D01*
X161977519Y-84808985D01*
X162116900Y-84715853D01*
X162271772Y-84651703D01*
X162436184Y-84619000D01*
X162603816Y-84619000D01*
X162768228Y-84651703D01*
G37*
G36*
X175746425Y-82882760D02*
G01*
X175746428Y-82882761D01*
X175746429Y-82882761D01*
X175925693Y-82937140D01*
X175925696Y-82937142D01*
X175925697Y-82937142D01*
X176090903Y-83025446D01*
X176235712Y-83144288D01*
X176354554Y-83289097D01*
X176442858Y-83454303D01*
X176442860Y-83454307D01*
X176497239Y-83633571D01*
X176497240Y-83633575D01*
X176515601Y-83820000D01*
X176497240Y-84006425D01*
X176497239Y-84006428D01*
X176497239Y-84006429D01*
X176442860Y-84185693D01*
X176442858Y-84185696D01*
X176442858Y-84185697D01*
X176354554Y-84350903D01*
X176235712Y-84495712D01*
X176090903Y-84614554D01*
X175925697Y-84702858D01*
X175925693Y-84702860D01*
X175746429Y-84757239D01*
X175746428Y-84757239D01*
X175746425Y-84757240D01*
X175606718Y-84771000D01*
X174913282Y-84771000D01*
X174773575Y-84757240D01*
X174773572Y-84757239D01*
X174773571Y-84757239D01*
X174594307Y-84702860D01*
X174594303Y-84702858D01*
X174429097Y-84614554D01*
X174284288Y-84495712D01*
X174165446Y-84350903D01*
X174077142Y-84185697D01*
X174077142Y-84185696D01*
X174077140Y-84185693D01*
X174022761Y-84006429D01*
X174022761Y-84006428D01*
X174022760Y-84006425D01*
X174004399Y-83820000D01*
X174022760Y-83633575D01*
X174022761Y-83633571D01*
X174077140Y-83454307D01*
X174077142Y-83454303D01*
X174165446Y-83289097D01*
X174284288Y-83144288D01*
X174429097Y-83025446D01*
X174594303Y-82937142D01*
X174594304Y-82937142D01*
X174594307Y-82937140D01*
X174773571Y-82882761D01*
X174773572Y-82882761D01*
X174773575Y-82882760D01*
X174913282Y-82869000D01*
X175606718Y-82869000D01*
X175746425Y-82882760D01*
G37*
G36*
X130026425Y-82882760D02*
G01*
X130026428Y-82882761D01*
X130026429Y-82882761D01*
X130205693Y-82937140D01*
X130205696Y-82937142D01*
X130205697Y-82937142D01*
X130370903Y-83025446D01*
X130515712Y-83144288D01*
X130634554Y-83289097D01*
X130722858Y-83454303D01*
X130722860Y-83454307D01*
X130777239Y-83633571D01*
X130777240Y-83633575D01*
X130795601Y-83820000D01*
X130777240Y-84006425D01*
X130777239Y-84006428D01*
X130777239Y-84006429D01*
X130722860Y-84185693D01*
X130722858Y-84185696D01*
X130722858Y-84185697D01*
X130634554Y-84350903D01*
X130515712Y-84495712D01*
X130370903Y-84614554D01*
X130205697Y-84702858D01*
X130205693Y-84702860D01*
X130026429Y-84757239D01*
X130026428Y-84757239D01*
X130026425Y-84757240D01*
X129886718Y-84771000D01*
X129193282Y-84771000D01*
X129053575Y-84757240D01*
X129053572Y-84757239D01*
X129053571Y-84757239D01*
X128874307Y-84702860D01*
X128874303Y-84702858D01*
X128709097Y-84614554D01*
X128564288Y-84495712D01*
X128445446Y-84350903D01*
X128357142Y-84185697D01*
X128357142Y-84185696D01*
X128357140Y-84185693D01*
X128302761Y-84006429D01*
X128302761Y-84006428D01*
X128302760Y-84006425D01*
X128284399Y-83820000D01*
X128302760Y-83633575D01*
X128302761Y-83633571D01*
X128357140Y-83454307D01*
X128357142Y-83454303D01*
X128445446Y-83289097D01*
X128564288Y-83144288D01*
X128709097Y-83025446D01*
X128874303Y-82937142D01*
X128874304Y-82937142D01*
X128874307Y-82937140D01*
X129053571Y-82882761D01*
X129053572Y-82882761D01*
X129053575Y-82882760D01*
X129193282Y-82869000D01*
X129886718Y-82869000D01*
X130026425Y-82882760D01*
G37*
G36*
X136192202Y-77467782D02*
G01*
X136467606Y-77522563D01*
X136986455Y-77737477D01*
X137453406Y-78049484D01*
X137850516Y-78446594D01*
X138162523Y-78913545D01*
X138162524Y-78913547D01*
X138176594Y-78947516D01*
X138323538Y-79302269D01*
X138377437Y-79432395D01*
X138446148Y-79777826D01*
X138486999Y-79983201D01*
X138486999Y-80544799D01*
X138377437Y-81095606D01*
X138162523Y-81614455D01*
X137850516Y-82081406D01*
X137453406Y-82478516D01*
X136986455Y-82790523D01*
X136467606Y-83005437D01*
X136192202Y-83060218D01*
X135916800Y-83114999D01*
X135355200Y-83114999D01*
X135079798Y-83060218D01*
X134804394Y-83005437D01*
X134285545Y-82790523D01*
X133818594Y-82478516D01*
X133421484Y-82081406D01*
X133109477Y-81614455D01*
X132894563Y-81095606D01*
X132785001Y-80544799D01*
X132785001Y-79983201D01*
X132825853Y-79777826D01*
X132894563Y-79432395D01*
X132948463Y-79302269D01*
X133095406Y-78947516D01*
X133109476Y-78913547D01*
X133109477Y-78913545D01*
X133421484Y-78446594D01*
X133818594Y-78049484D01*
X134285545Y-77737477D01*
X134804394Y-77522563D01*
X135079798Y-77467782D01*
X135355200Y-77413001D01*
X135916800Y-77413001D01*
X136192202Y-77467782D01*
G37*
G36*
X160268228Y-81351703D02*
G01*
X160423100Y-81415853D01*
X160562481Y-81508985D01*
X160681015Y-81627519D01*
X160774147Y-81766900D01*
X160838297Y-81921772D01*
X160871000Y-82086184D01*
X160871000Y-82253816D01*
X160838297Y-82418228D01*
X160774147Y-82573100D01*
X160681015Y-82712481D01*
X160562481Y-82831015D01*
X160423100Y-82924147D01*
X160268228Y-82988297D01*
X160103816Y-83021000D01*
X159936184Y-83021000D01*
X159771772Y-82988297D01*
X159616900Y-82924147D01*
X159477519Y-82831015D01*
X159358985Y-82712481D01*
X159265853Y-82573100D01*
X159201703Y-82418228D01*
X159169000Y-82253816D01*
X159169000Y-82086184D01*
X159201703Y-81921772D01*
X159265853Y-81766900D01*
X159358985Y-81627519D01*
X159477519Y-81508985D01*
X159616900Y-81415853D01*
X159771772Y-81351703D01*
X159936184Y-81319000D01*
X160103816Y-81319000D01*
X160268228Y-81351703D01*
G37*
G36*
X157768228Y-81351703D02*
G01*
X157923100Y-81415853D01*
X158062481Y-81508985D01*
X158181015Y-81627519D01*
X158274147Y-81766900D01*
X158338297Y-81921772D01*
X158371000Y-82086184D01*
X158371000Y-82253816D01*
X158338297Y-82418228D01*
X158274147Y-82573100D01*
X158181015Y-82712481D01*
X158062481Y-82831015D01*
X157923100Y-82924147D01*
X157768228Y-82988297D01*
X157603816Y-83021000D01*
X157436184Y-83021000D01*
X157271772Y-82988297D01*
X157116900Y-82924147D01*
X156977519Y-82831015D01*
X156858985Y-82712481D01*
X156765853Y-82573100D01*
X156701703Y-82418228D01*
X156669000Y-82253816D01*
X156669000Y-82086184D01*
X156701703Y-81921772D01*
X156765853Y-81766900D01*
X156858985Y-81627519D01*
X156977519Y-81508985D01*
X157116900Y-81415853D01*
X157271772Y-81351703D01*
X157436184Y-81319000D01*
X157603816Y-81319000D01*
X157768228Y-81351703D01*
G37*
G36*
X147528228Y-81351703D02*
G01*
X147683100Y-81415853D01*
X147822481Y-81508985D01*
X147941015Y-81627519D01*
X148034147Y-81766900D01*
X148098297Y-81921772D01*
X148131000Y-82086184D01*
X148131000Y-82253816D01*
X148098297Y-82418228D01*
X148034147Y-82573100D01*
X147941015Y-82712481D01*
X147822481Y-82831015D01*
X147683100Y-82924147D01*
X147528228Y-82988297D01*
X147363816Y-83021000D01*
X147196184Y-83021000D01*
X147031772Y-82988297D01*
X146876900Y-82924147D01*
X146737519Y-82831015D01*
X146618985Y-82712481D01*
X146525853Y-82573100D01*
X146461703Y-82418228D01*
X146429000Y-82253816D01*
X146429000Y-82086184D01*
X146461703Y-81921772D01*
X146525853Y-81766900D01*
X146618985Y-81627519D01*
X146737519Y-81508985D01*
X146876900Y-81415853D01*
X147031772Y-81351703D01*
X147196184Y-81319000D01*
X147363816Y-81319000D01*
X147528228Y-81351703D01*
G37*
G36*
X145028228Y-81351703D02*
G01*
X145183100Y-81415853D01*
X145322481Y-81508985D01*
X145441015Y-81627519D01*
X145534147Y-81766900D01*
X145598297Y-81921772D01*
X145631000Y-82086184D01*
X145631000Y-82253816D01*
X145598297Y-82418228D01*
X145534147Y-82573100D01*
X145441015Y-82712481D01*
X145322481Y-82831015D01*
X145183100Y-82924147D01*
X145028228Y-82988297D01*
X144863816Y-83021000D01*
X144696184Y-83021000D01*
X144531772Y-82988297D01*
X144376900Y-82924147D01*
X144237519Y-82831015D01*
X144118985Y-82712481D01*
X144025853Y-82573100D01*
X143961703Y-82418228D01*
X143929000Y-82253816D01*
X143929000Y-82086184D01*
X143961703Y-81921772D01*
X144025853Y-81766900D01*
X144118985Y-81627519D01*
X144237519Y-81508985D01*
X144376900Y-81415853D01*
X144531772Y-81351703D01*
X144696184Y-81319000D01*
X144863816Y-81319000D01*
X145028228Y-81351703D01*
G37*
G36*
X142528228Y-81351703D02*
G01*
X142683100Y-81415853D01*
X142822481Y-81508985D01*
X142941015Y-81627519D01*
X143034147Y-81766900D01*
X143098297Y-81921772D01*
X143131000Y-82086184D01*
X143131000Y-82253816D01*
X143098297Y-82418228D01*
X143034147Y-82573100D01*
X142941015Y-82712481D01*
X142822481Y-82831015D01*
X142683100Y-82924147D01*
X142528228Y-82988297D01*
X142363816Y-83021000D01*
X142196184Y-83021000D01*
X142031772Y-82988297D01*
X141876900Y-82924147D01*
X141737519Y-82831015D01*
X141618985Y-82712481D01*
X141525853Y-82573100D01*
X141461703Y-82418228D01*
X141429000Y-82253816D01*
X141429000Y-82086184D01*
X141461703Y-81921772D01*
X141525853Y-81766900D01*
X141618985Y-81627519D01*
X141737519Y-81508985D01*
X141876900Y-81415853D01*
X142031772Y-81351703D01*
X142196184Y-81319000D01*
X142363816Y-81319000D01*
X142528228Y-81351703D01*
G37*
G36*
X162768228Y-81351703D02*
G01*
X162923100Y-81415853D01*
X163062481Y-81508985D01*
X163181015Y-81627519D01*
X163274147Y-81766900D01*
X163338297Y-81921772D01*
X163371000Y-82086184D01*
X163371000Y-82253816D01*
X163338297Y-82418228D01*
X163274147Y-82573100D01*
X163181015Y-82712481D01*
X163062481Y-82831015D01*
X162923100Y-82924147D01*
X162768228Y-82988297D01*
X162603816Y-83021000D01*
X162436184Y-83021000D01*
X162271772Y-82988297D01*
X162116900Y-82924147D01*
X161977519Y-82831015D01*
X161858985Y-82712481D01*
X161765853Y-82573100D01*
X161701703Y-82418228D01*
X161669000Y-82253816D01*
X161669000Y-82086184D01*
X161701703Y-81921772D01*
X161765853Y-81766900D01*
X161858985Y-81627519D01*
X161977519Y-81508985D01*
X162116900Y-81415853D01*
X162271772Y-81351703D01*
X162436184Y-81319000D01*
X162603816Y-81319000D01*
X162768228Y-81351703D01*
G37*
G36*
X167438564Y-77833389D02*
G01*
X167629833Y-77912615D01*
X167629835Y-77912616D01*
X167801973Y-78027635D01*
X167948365Y-78174027D01*
X168063385Y-78346167D01*
X168142611Y-78537436D01*
X168183000Y-78740484D01*
X168183000Y-78947516D01*
X168142611Y-79150564D01*
X168079773Y-79302269D01*
X168063384Y-79341835D01*
X167948365Y-79513973D01*
X167801973Y-79660365D01*
X167629835Y-79775384D01*
X167629834Y-79775385D01*
X167629833Y-79775385D01*
X167438564Y-79854611D01*
X167235516Y-79895000D01*
X167028484Y-79895000D01*
X166825436Y-79854611D01*
X166634167Y-79775385D01*
X166634166Y-79775385D01*
X166634165Y-79775384D01*
X166462027Y-79660365D01*
X166315635Y-79513973D01*
X166200616Y-79341835D01*
X166184227Y-79302269D01*
X166121389Y-79150564D01*
X166081000Y-78947516D01*
X166081000Y-78740484D01*
X166121389Y-78537436D01*
X166200615Y-78346167D01*
X166315635Y-78174027D01*
X166462027Y-78027635D01*
X166634165Y-77912616D01*
X166634167Y-77912615D01*
X166825436Y-77833389D01*
X167028484Y-77793000D01*
X167235516Y-77793000D01*
X167438564Y-77833389D01*
G37*
G36*
X171938564Y-77833389D02*
G01*
X172129833Y-77912615D01*
X172129835Y-77912616D01*
X172301973Y-78027635D01*
X172448365Y-78174027D01*
X172563385Y-78346167D01*
X172642611Y-78537436D01*
X172683000Y-78740484D01*
X172683000Y-78947516D01*
X172642611Y-79150564D01*
X172579773Y-79302269D01*
X172563384Y-79341835D01*
X172448365Y-79513973D01*
X172301973Y-79660365D01*
X172129835Y-79775384D01*
X172129834Y-79775385D01*
X172129833Y-79775385D01*
X171938564Y-79854611D01*
X171735516Y-79895000D01*
X171528484Y-79895000D01*
X171325436Y-79854611D01*
X171134167Y-79775385D01*
X171134166Y-79775385D01*
X171134165Y-79775384D01*
X170962027Y-79660365D01*
X170815635Y-79513973D01*
X170700616Y-79341835D01*
X170684227Y-79302269D01*
X170621389Y-79150564D01*
X170581000Y-78947516D01*
X170581000Y-78740484D01*
X170621389Y-78537436D01*
X170700615Y-78346167D01*
X170815635Y-78174027D01*
X170962027Y-78027635D01*
X171134165Y-77912616D01*
X171134167Y-77912615D01*
X171325436Y-77833389D01*
X171528484Y-77793000D01*
X171735516Y-77793000D01*
X171938564Y-77833389D01*
G37*
G36*
X162720721Y-77448174D02*
G01*
X162820995Y-77489709D01*
X162820996Y-77489710D01*
X162911242Y-77550010D01*
X162987990Y-77626758D01*
X162987991Y-77626760D01*
X163048291Y-77717005D01*
X163089826Y-77817279D01*
X163111000Y-77923730D01*
X163111000Y-78032270D01*
X163089826Y-78138721D01*
X163048291Y-78238995D01*
X163048290Y-78238996D01*
X162987990Y-78329242D01*
X162911242Y-78405990D01*
X162865812Y-78436345D01*
X162820995Y-78466291D01*
X162745611Y-78497516D01*
X162724000Y-78509067D01*
X162705059Y-78524612D01*
X162689513Y-78543554D01*
X162677962Y-78565165D01*
X162670849Y-78588614D01*
X162668447Y-78613000D01*
X162670849Y-78637386D01*
X162677962Y-78660835D01*
X162689513Y-78682446D01*
X162705058Y-78701387D01*
X162724000Y-78716933D01*
X162745611Y-78728484D01*
X162820995Y-78759709D01*
X162820996Y-78759710D01*
X162911242Y-78820010D01*
X162987990Y-78896758D01*
X162999208Y-78913547D01*
X163048291Y-78987005D01*
X163089826Y-79087279D01*
X163111000Y-79193730D01*
X163111000Y-79302270D01*
X163089826Y-79408721D01*
X163048291Y-79508995D01*
X163018345Y-79553812D01*
X162987990Y-79599242D01*
X162911242Y-79675990D01*
X162865812Y-79706345D01*
X162820995Y-79736291D01*
X162720721Y-79777826D01*
X162614270Y-79799000D01*
X162505730Y-79799000D01*
X162399279Y-79777826D01*
X162299005Y-79736291D01*
X162254188Y-79706345D01*
X162208758Y-79675990D01*
X162132010Y-79599242D01*
X162101655Y-79553812D01*
X162071709Y-79508995D01*
X162030174Y-79408721D01*
X162009000Y-79302270D01*
X162009000Y-79193730D01*
X162030174Y-79087279D01*
X162071709Y-78987005D01*
X162120792Y-78913547D01*
X162132010Y-78896758D01*
X162208758Y-78820010D01*
X162299004Y-78759710D01*
X162299005Y-78759709D01*
X162374389Y-78728484D01*
X162396000Y-78716933D01*
X162414941Y-78701388D01*
X162430487Y-78682446D01*
X162442038Y-78660835D01*
X162449151Y-78637386D01*
X162451553Y-78613000D01*
X162449151Y-78588614D01*
X162442038Y-78565165D01*
X162430487Y-78543554D01*
X162414942Y-78524613D01*
X162396000Y-78509067D01*
X162374389Y-78497516D01*
X162299005Y-78466291D01*
X162254188Y-78436345D01*
X162208758Y-78405990D01*
X162132010Y-78329242D01*
X162071710Y-78238996D01*
X162071709Y-78238995D01*
X162030174Y-78138721D01*
X162009000Y-78032270D01*
X162009000Y-77923730D01*
X162030174Y-77817279D01*
X162071709Y-77717005D01*
X162132009Y-77626760D01*
X162132010Y-77626758D01*
X162208758Y-77550010D01*
X162299004Y-77489710D01*
X162299005Y-77489709D01*
X162399279Y-77448174D01*
X162505730Y-77427000D01*
X162614270Y-77427000D01*
X162720721Y-77448174D01*
G37*
G36*
X142400721Y-77448174D02*
G01*
X142500995Y-77489709D01*
X142500996Y-77489710D01*
X142591242Y-77550010D01*
X142667990Y-77626758D01*
X142667991Y-77626760D01*
X142728291Y-77717005D01*
X142769826Y-77817279D01*
X142791000Y-77923730D01*
X142791000Y-78032270D01*
X142769826Y-78138721D01*
X142728291Y-78238995D01*
X142728290Y-78238996D01*
X142667990Y-78329242D01*
X142591242Y-78405990D01*
X142545812Y-78436345D01*
X142500995Y-78466291D01*
X142425611Y-78497516D01*
X142404000Y-78509067D01*
X142385059Y-78524612D01*
X142369513Y-78543554D01*
X142357962Y-78565165D01*
X142350849Y-78588614D01*
X142348447Y-78613000D01*
X142350849Y-78637386D01*
X142357962Y-78660835D01*
X142369513Y-78682446D01*
X142385058Y-78701387D01*
X142404000Y-78716933D01*
X142425611Y-78728484D01*
X142500995Y-78759709D01*
X142500996Y-78759710D01*
X142591242Y-78820010D01*
X142667990Y-78896758D01*
X142679208Y-78913547D01*
X142728291Y-78987005D01*
X142769826Y-79087279D01*
X142791000Y-79193730D01*
X142791000Y-79302270D01*
X142769826Y-79408721D01*
X142728291Y-79508995D01*
X142698345Y-79553812D01*
X142667990Y-79599242D01*
X142591242Y-79675990D01*
X142545812Y-79706345D01*
X142500995Y-79736291D01*
X142400721Y-79777826D01*
X142294270Y-79799000D01*
X142185730Y-79799000D01*
X142079279Y-79777826D01*
X141979005Y-79736291D01*
X141934188Y-79706345D01*
X141888758Y-79675990D01*
X141812010Y-79599242D01*
X141781655Y-79553812D01*
X141751709Y-79508995D01*
X141710174Y-79408721D01*
X141689000Y-79302270D01*
X141689000Y-79193730D01*
X141710174Y-79087279D01*
X141751709Y-78987005D01*
X141800792Y-78913547D01*
X141812010Y-78896758D01*
X141888758Y-78820010D01*
X141979004Y-78759710D01*
X141979005Y-78759709D01*
X142054389Y-78728484D01*
X142076000Y-78716933D01*
X142094941Y-78701388D01*
X142110487Y-78682446D01*
X142122038Y-78660835D01*
X142129151Y-78637386D01*
X142131553Y-78613000D01*
X142129151Y-78588614D01*
X142122038Y-78565165D01*
X142110487Y-78543554D01*
X142094942Y-78524613D01*
X142076000Y-78509067D01*
X142054389Y-78497516D01*
X141979005Y-78466291D01*
X141934188Y-78436345D01*
X141888758Y-78405990D01*
X141812010Y-78329242D01*
X141751710Y-78238996D01*
X141751709Y-78238995D01*
X141710174Y-78138721D01*
X141689000Y-78032270D01*
X141689000Y-77923730D01*
X141710174Y-77817279D01*
X141751709Y-77717005D01*
X141812009Y-77626760D01*
X141812010Y-77626758D01*
X141888758Y-77550010D01*
X141979004Y-77489710D01*
X141979005Y-77489709D01*
X142079279Y-77448174D01*
X142185730Y-77427000D01*
X142294270Y-77427000D01*
X142400721Y-77448174D01*
G37*
M02*
