G04 #@! TF.GenerationSoftware,KiCad,Pcbnew,5.1.5+dfsg1-2build2*
G04 #@! TF.CreationDate,2020-06-02T19:47:54-07:00*
G04 #@! TF.ProjectId,sram-cell,7372616d-2d63-4656-9c6c-2e6b69636164,rev?*
G04 #@! TF.SameCoordinates,Original*
G04 #@! TF.FileFunction,Legend,Top*
G04 #@! TF.FilePolarity,Positive*
%FSLAX46Y46*%
G04 Gerber Fmt 4.6, Leading zero omitted, Abs format (unit mm)*
G04 Created by KiCad (PCBNEW 5.1.5+dfsg1-2build2) date 2020-06-02 19:47:54*
%MOMM*%
%LPD*%
G04 APERTURE LIST*
%ADD10C,0.150000*%
%ADD11C,0.406400*%
%ADD12C,1.016000*%
%ADD13C,0.254000*%
%ADD14C,0.120000*%
G04 APERTURE END LIST*
D10*
X131072380Y-87082380D02*
X131310476Y-88082380D01*
X131500952Y-87368095D01*
X131691428Y-88082380D01*
X131929523Y-87082380D01*
X132453333Y-88082380D02*
X132358095Y-88034761D01*
X132310476Y-87987142D01*
X132262857Y-87891904D01*
X132262857Y-87606190D01*
X132310476Y-87510952D01*
X132358095Y-87463333D01*
X132453333Y-87415714D01*
X132596190Y-87415714D01*
X132691428Y-87463333D01*
X132739047Y-87510952D01*
X132786666Y-87606190D01*
X132786666Y-87891904D01*
X132739047Y-87987142D01*
X132691428Y-88034761D01*
X132596190Y-88082380D01*
X132453333Y-88082380D01*
X133215238Y-88082380D02*
X133215238Y-87415714D01*
X133215238Y-87606190D02*
X133262857Y-87510952D01*
X133310476Y-87463333D01*
X133405714Y-87415714D01*
X133500952Y-87415714D01*
X134262857Y-88082380D02*
X134262857Y-87082380D01*
X134262857Y-88034761D02*
X134167619Y-88082380D01*
X133977142Y-88082380D01*
X133881904Y-88034761D01*
X133834285Y-87987142D01*
X133786666Y-87891904D01*
X133786666Y-87606190D01*
X133834285Y-87510952D01*
X133881904Y-87463333D01*
X133977142Y-87415714D01*
X134167619Y-87415714D01*
X134262857Y-87463333D01*
X135977142Y-88082380D02*
X135500952Y-88082380D01*
X135500952Y-87082380D01*
X136310476Y-88082380D02*
X136310476Y-87415714D01*
X136310476Y-87082380D02*
X136262857Y-87130000D01*
X136310476Y-87177619D01*
X136358095Y-87130000D01*
X136310476Y-87082380D01*
X136310476Y-87177619D01*
X136786666Y-87415714D02*
X136786666Y-88082380D01*
X136786666Y-87510952D02*
X136834285Y-87463333D01*
X136929523Y-87415714D01*
X137072380Y-87415714D01*
X137167619Y-87463333D01*
X137215238Y-87558571D01*
X137215238Y-88082380D01*
X138072380Y-88034761D02*
X137977142Y-88082380D01*
X137786666Y-88082380D01*
X137691428Y-88034761D01*
X137643809Y-87939523D01*
X137643809Y-87558571D01*
X137691428Y-87463333D01*
X137786666Y-87415714D01*
X137977142Y-87415714D01*
X138072380Y-87463333D01*
X138120000Y-87558571D01*
X138120000Y-87653809D01*
X137643809Y-87749047D01*
X173075000Y-96422500D02*
X173075000Y-95422500D01*
X173918571Y-95851071D02*
X173966190Y-95708214D01*
X174013809Y-95660595D01*
X174109047Y-95612976D01*
X174251904Y-95612976D01*
X174347142Y-95660595D01*
X174394761Y-95708214D01*
X174442380Y-95803452D01*
X174442380Y-96184404D01*
X173442380Y-96184404D01*
X173442380Y-95851071D01*
X173490000Y-95755833D01*
X173537619Y-95708214D01*
X173632857Y-95660595D01*
X173728095Y-95660595D01*
X173823333Y-95708214D01*
X173870952Y-95755833D01*
X173918571Y-95851071D01*
X173918571Y-96184404D01*
X173075000Y-95422500D02*
X173075000Y-94946309D01*
X174442380Y-95184404D02*
X173775714Y-95184404D01*
X173442380Y-95184404D02*
X173490000Y-95232023D01*
X173537619Y-95184404D01*
X173490000Y-95136785D01*
X173442380Y-95184404D01*
X173537619Y-95184404D01*
X173075000Y-94946309D02*
X173075000Y-94374880D01*
X173775714Y-94851071D02*
X173775714Y-94470119D01*
X173442380Y-94708214D02*
X174299523Y-94708214D01*
X174394761Y-94660595D01*
X174442380Y-94565357D01*
X174442380Y-94470119D01*
X173075000Y-94374880D02*
X173075000Y-93612976D01*
X173075000Y-93612976D02*
X173075000Y-92803452D01*
X174442380Y-92898690D02*
X174442380Y-93374880D01*
X173442380Y-93374880D01*
X173075000Y-92803452D02*
X173075000Y-92327261D01*
X174442380Y-92565357D02*
X173775714Y-92565357D01*
X173442380Y-92565357D02*
X173490000Y-92612976D01*
X173537619Y-92565357D01*
X173490000Y-92517738D01*
X173442380Y-92565357D01*
X173537619Y-92565357D01*
X173075000Y-92327261D02*
X173075000Y-91422500D01*
X173775714Y-92089166D02*
X174442380Y-92089166D01*
X173870952Y-92089166D02*
X173823333Y-92041547D01*
X173775714Y-91946309D01*
X173775714Y-91803452D01*
X173823333Y-91708214D01*
X173918571Y-91660595D01*
X174442380Y-91660595D01*
X173075000Y-91422500D02*
X173075000Y-90565357D01*
X174394761Y-90803452D02*
X174442380Y-90898690D01*
X174442380Y-91089166D01*
X174394761Y-91184404D01*
X174299523Y-91232023D01*
X173918571Y-91232023D01*
X173823333Y-91184404D01*
X173775714Y-91089166D01*
X173775714Y-90898690D01*
X173823333Y-90803452D01*
X173918571Y-90755833D01*
X174013809Y-90755833D01*
X174109047Y-91232023D01*
X130738571Y-95851071D02*
X130786190Y-95708214D01*
X130833809Y-95660595D01*
X130929047Y-95612976D01*
X131071904Y-95612976D01*
X131167142Y-95660595D01*
X131214761Y-95708214D01*
X131262380Y-95803452D01*
X131262380Y-96184404D01*
X130262380Y-96184404D01*
X130262380Y-95851071D01*
X130310000Y-95755833D01*
X130357619Y-95708214D01*
X130452857Y-95660595D01*
X130548095Y-95660595D01*
X130643333Y-95708214D01*
X130690952Y-95755833D01*
X130738571Y-95851071D01*
X130738571Y-96184404D01*
X131262380Y-95184404D02*
X130595714Y-95184404D01*
X130262380Y-95184404D02*
X130310000Y-95232023D01*
X130357619Y-95184404D01*
X130310000Y-95136785D01*
X130262380Y-95184404D01*
X130357619Y-95184404D01*
X130595714Y-94851071D02*
X130595714Y-94470119D01*
X130262380Y-94708214D02*
X131119523Y-94708214D01*
X131214761Y-94660595D01*
X131262380Y-94565357D01*
X131262380Y-94470119D01*
X131262380Y-92898690D02*
X131262380Y-93374880D01*
X130262380Y-93374880D01*
X131262380Y-92565357D02*
X130595714Y-92565357D01*
X130262380Y-92565357D02*
X130310000Y-92612976D01*
X130357619Y-92565357D01*
X130310000Y-92517738D01*
X130262380Y-92565357D01*
X130357619Y-92565357D01*
X130595714Y-92089166D02*
X131262380Y-92089166D01*
X130690952Y-92089166D02*
X130643333Y-92041547D01*
X130595714Y-91946309D01*
X130595714Y-91803452D01*
X130643333Y-91708214D01*
X130738571Y-91660595D01*
X131262380Y-91660595D01*
X131214761Y-90803452D02*
X131262380Y-90898690D01*
X131262380Y-91089166D01*
X131214761Y-91184404D01*
X131119523Y-91232023D01*
X130738571Y-91232023D01*
X130643333Y-91184404D01*
X130595714Y-91089166D01*
X130595714Y-90898690D01*
X130643333Y-90803452D01*
X130738571Y-90755833D01*
X130833809Y-90755833D01*
X130929047Y-91232023D01*
X140607023Y-92496142D02*
X140559404Y-92543761D01*
X140416547Y-92591380D01*
X140321309Y-92591380D01*
X140178452Y-92543761D01*
X140083214Y-92448523D01*
X140035595Y-92353285D01*
X139987976Y-92162809D01*
X139987976Y-92019952D01*
X140035595Y-91829476D01*
X140083214Y-91734238D01*
X140178452Y-91639000D01*
X140321309Y-91591380D01*
X140416547Y-91591380D01*
X140559404Y-91639000D01*
X140607023Y-91686619D01*
X141178452Y-92591380D02*
X141083214Y-92543761D01*
X141035595Y-92496142D01*
X140987976Y-92400904D01*
X140987976Y-92115190D01*
X141035595Y-92019952D01*
X141083214Y-91972333D01*
X141178452Y-91924714D01*
X141321309Y-91924714D01*
X141416547Y-91972333D01*
X141464166Y-92019952D01*
X141511785Y-92115190D01*
X141511785Y-92400904D01*
X141464166Y-92496142D01*
X141416547Y-92543761D01*
X141321309Y-92591380D01*
X141178452Y-92591380D01*
X142368928Y-91924714D02*
X142368928Y-92591380D01*
X141940357Y-91924714D02*
X141940357Y-92448523D01*
X141987976Y-92543761D01*
X142083214Y-92591380D01*
X142226071Y-92591380D01*
X142321309Y-92543761D01*
X142368928Y-92496142D01*
X142845119Y-91924714D02*
X142845119Y-92924714D01*
X142845119Y-91972333D02*
X142940357Y-91924714D01*
X143130833Y-91924714D01*
X143226071Y-91972333D01*
X143273690Y-92019952D01*
X143321309Y-92115190D01*
X143321309Y-92400904D01*
X143273690Y-92496142D01*
X143226071Y-92543761D01*
X143130833Y-92591380D01*
X142940357Y-92591380D01*
X142845119Y-92543761D01*
X143892738Y-92591380D02*
X143797500Y-92543761D01*
X143749880Y-92448523D01*
X143749880Y-91591380D01*
X144654642Y-92543761D02*
X144559404Y-92591380D01*
X144368928Y-92591380D01*
X144273690Y-92543761D01*
X144226071Y-92448523D01*
X144226071Y-92067571D01*
X144273690Y-91972333D01*
X144368928Y-91924714D01*
X144559404Y-91924714D01*
X144654642Y-91972333D01*
X144702261Y-92067571D01*
X144702261Y-92162809D01*
X144226071Y-92258047D01*
X145559404Y-92591380D02*
X145559404Y-91591380D01*
X145559404Y-92543761D02*
X145464166Y-92591380D01*
X145273690Y-92591380D01*
X145178452Y-92543761D01*
X145130833Y-92496142D01*
X145083214Y-92400904D01*
X145083214Y-92115190D01*
X145130833Y-92019952D01*
X145178452Y-91972333D01*
X145273690Y-91924714D01*
X145464166Y-91924714D01*
X145559404Y-91972333D01*
X140035595Y-94241380D02*
X140035595Y-93241380D01*
X140511785Y-93574714D02*
X140511785Y-94241380D01*
X140511785Y-93669952D02*
X140559404Y-93622333D01*
X140654642Y-93574714D01*
X140797500Y-93574714D01*
X140892738Y-93622333D01*
X140940357Y-93717571D01*
X140940357Y-94241380D01*
X141321309Y-93574714D02*
X141559404Y-94241380D01*
X141797500Y-93574714D01*
X142559404Y-94193761D02*
X142464166Y-94241380D01*
X142273690Y-94241380D01*
X142178452Y-94193761D01*
X142130833Y-94098523D01*
X142130833Y-93717571D01*
X142178452Y-93622333D01*
X142273690Y-93574714D01*
X142464166Y-93574714D01*
X142559404Y-93622333D01*
X142607023Y-93717571D01*
X142607023Y-93812809D01*
X142130833Y-93908047D01*
X143035595Y-94241380D02*
X143035595Y-93574714D01*
X143035595Y-93765190D02*
X143083214Y-93669952D01*
X143130833Y-93622333D01*
X143226071Y-93574714D01*
X143321309Y-93574714D01*
X143511785Y-93574714D02*
X143892738Y-93574714D01*
X143654642Y-93241380D02*
X143654642Y-94098523D01*
X143702261Y-94193761D01*
X143797500Y-94241380D01*
X143892738Y-94241380D01*
X144607023Y-94193761D02*
X144511785Y-94241380D01*
X144321309Y-94241380D01*
X144226071Y-94193761D01*
X144178452Y-94098523D01*
X144178452Y-93717571D01*
X144226071Y-93622333D01*
X144321309Y-93574714D01*
X144511785Y-93574714D01*
X144607023Y-93622333D01*
X144654642Y-93717571D01*
X144654642Y-93812809D01*
X144178452Y-93908047D01*
X145083214Y-94241380D02*
X145083214Y-93574714D01*
X145083214Y-93765190D02*
X145130833Y-93669952D01*
X145178452Y-93622333D01*
X145273690Y-93574714D01*
X145368928Y-93574714D01*
X145654642Y-94193761D02*
X145749880Y-94241380D01*
X145940357Y-94241380D01*
X146035595Y-94193761D01*
X146083214Y-94098523D01*
X146083214Y-94050904D01*
X146035595Y-93955666D01*
X145940357Y-93908047D01*
X145797500Y-93908047D01*
X145702261Y-93860428D01*
X145654642Y-93765190D01*
X145654642Y-93717571D01*
X145702261Y-93622333D01*
X145797500Y-93574714D01*
X145940357Y-93574714D01*
X146035595Y-93622333D01*
X163607714Y-87828380D02*
X163036285Y-87828380D01*
X163322000Y-87828380D02*
X163322000Y-86828380D01*
X163226761Y-86971238D01*
X163131523Y-87066476D01*
X163036285Y-87114095D01*
X156670380Y-86828380D02*
X156765619Y-86828380D01*
X156860857Y-86876000D01*
X156908476Y-86923619D01*
X156956095Y-87018857D01*
X157003714Y-87209333D01*
X157003714Y-87447428D01*
X156956095Y-87637904D01*
X156908476Y-87733142D01*
X156860857Y-87780761D01*
X156765619Y-87828380D01*
X156670380Y-87828380D01*
X156575142Y-87780761D01*
X156527523Y-87733142D01*
X156479904Y-87637904D01*
X156432285Y-87447428D01*
X156432285Y-87209333D01*
X156479904Y-87018857D01*
X156527523Y-86923619D01*
X156575142Y-86876000D01*
X156670380Y-86828380D01*
X141430380Y-86828380D02*
X141525619Y-86828380D01*
X141620857Y-86876000D01*
X141668476Y-86923619D01*
X141716095Y-87018857D01*
X141763714Y-87209333D01*
X141763714Y-87447428D01*
X141716095Y-87637904D01*
X141668476Y-87733142D01*
X141620857Y-87780761D01*
X141525619Y-87828380D01*
X141430380Y-87828380D01*
X141335142Y-87780761D01*
X141287523Y-87733142D01*
X141239904Y-87637904D01*
X141192285Y-87447428D01*
X141192285Y-87209333D01*
X141239904Y-87018857D01*
X141287523Y-86923619D01*
X141335142Y-86876000D01*
X141430380Y-86828380D01*
X148367714Y-87828380D02*
X147796285Y-87828380D01*
X148082000Y-87828380D02*
X148082000Y-86828380D01*
X147986761Y-86971238D01*
X147891523Y-87066476D01*
X147796285Y-87114095D01*
X139390380Y-85462857D02*
X138390380Y-85462857D01*
X138723714Y-84986666D02*
X139390380Y-84986666D01*
X138818952Y-84986666D02*
X138771333Y-84939047D01*
X138723714Y-84843809D01*
X138723714Y-84700952D01*
X138771333Y-84605714D01*
X138866571Y-84558095D01*
X139390380Y-84558095D01*
X138723714Y-84081904D02*
X139723714Y-84081904D01*
X138771333Y-84081904D02*
X138723714Y-83986666D01*
X138723714Y-83796190D01*
X138771333Y-83700952D01*
X138818952Y-83653333D01*
X138914190Y-83605714D01*
X139199904Y-83605714D01*
X139295142Y-83653333D01*
X139342761Y-83700952D01*
X139390380Y-83796190D01*
X139390380Y-83986666D01*
X139342761Y-84081904D01*
X138723714Y-82748571D02*
X139390380Y-82748571D01*
X138723714Y-83177142D02*
X139247523Y-83177142D01*
X139342761Y-83129523D01*
X139390380Y-83034285D01*
X139390380Y-82891428D01*
X139342761Y-82796190D01*
X139295142Y-82748571D01*
X138723714Y-82415238D02*
X138723714Y-82034285D01*
X138390380Y-82272380D02*
X139247523Y-82272380D01*
X139342761Y-82224761D01*
X139390380Y-82129523D01*
X139390380Y-82034285D01*
X154106571Y-86081904D02*
X154106571Y-85748571D01*
X154630380Y-85605714D02*
X154630380Y-86081904D01*
X153630380Y-86081904D01*
X153630380Y-85605714D01*
X153963714Y-85177142D02*
X154630380Y-85177142D01*
X154058952Y-85177142D02*
X154011333Y-85129523D01*
X153963714Y-85034285D01*
X153963714Y-84891428D01*
X154011333Y-84796190D01*
X154106571Y-84748571D01*
X154630380Y-84748571D01*
X154630380Y-83843809D02*
X154106571Y-83843809D01*
X154011333Y-83891428D01*
X153963714Y-83986666D01*
X153963714Y-84177142D01*
X154011333Y-84272380D01*
X154582761Y-83843809D02*
X154630380Y-83939047D01*
X154630380Y-84177142D01*
X154582761Y-84272380D01*
X154487523Y-84320000D01*
X154392285Y-84320000D01*
X154297047Y-84272380D01*
X154249428Y-84177142D01*
X154249428Y-83939047D01*
X154201809Y-83843809D01*
X154630380Y-83367619D02*
X153630380Y-83367619D01*
X154011333Y-83367619D02*
X153963714Y-83272380D01*
X153963714Y-83081904D01*
X154011333Y-82986666D01*
X154058952Y-82939047D01*
X154154190Y-82891428D01*
X154439904Y-82891428D01*
X154535142Y-82939047D01*
X154582761Y-82986666D01*
X154630380Y-83081904D01*
X154630380Y-83272380D01*
X154582761Y-83367619D01*
X154630380Y-82320000D02*
X154582761Y-82415238D01*
X154487523Y-82462857D01*
X153630380Y-82462857D01*
X154582761Y-81558095D02*
X154630380Y-81653333D01*
X154630380Y-81843809D01*
X154582761Y-81939047D01*
X154487523Y-81986666D01*
X154106571Y-81986666D01*
X154011333Y-81939047D01*
X153963714Y-81843809D01*
X153963714Y-81653333D01*
X154011333Y-81558095D01*
X154106571Y-81510476D01*
X154201809Y-81510476D01*
X154297047Y-81986666D01*
X130691428Y-114181380D02*
X130691428Y-113181380D01*
X131881904Y-113133761D02*
X131024761Y-114419476D01*
X132405714Y-113181380D02*
X132596190Y-113181380D01*
X132691428Y-113229000D01*
X132786666Y-113324238D01*
X132834285Y-113514714D01*
X132834285Y-113848047D01*
X132786666Y-114038523D01*
X132691428Y-114133761D01*
X132596190Y-114181380D01*
X132405714Y-114181380D01*
X132310476Y-114133761D01*
X132215238Y-114038523D01*
X132167619Y-113848047D01*
X132167619Y-113514714D01*
X132215238Y-113324238D01*
X132310476Y-113229000D01*
X132405714Y-113181380D01*
X134024761Y-113657571D02*
X134358095Y-113657571D01*
X134500952Y-114181380D02*
X134024761Y-114181380D01*
X134024761Y-113181380D01*
X134500952Y-113181380D01*
X134929523Y-113514714D02*
X134929523Y-114181380D01*
X134929523Y-113609952D02*
X134977142Y-113562333D01*
X135072380Y-113514714D01*
X135215238Y-113514714D01*
X135310476Y-113562333D01*
X135358095Y-113657571D01*
X135358095Y-114181380D01*
X136262857Y-114181380D02*
X136262857Y-113657571D01*
X136215238Y-113562333D01*
X136120000Y-113514714D01*
X135929523Y-113514714D01*
X135834285Y-113562333D01*
X136262857Y-114133761D02*
X136167619Y-114181380D01*
X135929523Y-114181380D01*
X135834285Y-114133761D01*
X135786666Y-114038523D01*
X135786666Y-113943285D01*
X135834285Y-113848047D01*
X135929523Y-113800428D01*
X136167619Y-113800428D01*
X136262857Y-113752809D01*
X136739047Y-114181380D02*
X136739047Y-113181380D01*
X136739047Y-113562333D02*
X136834285Y-113514714D01*
X137024761Y-113514714D01*
X137120000Y-113562333D01*
X137167619Y-113609952D01*
X137215238Y-113705190D01*
X137215238Y-113990904D01*
X137167619Y-114086142D01*
X137120000Y-114133761D01*
X137024761Y-114181380D01*
X136834285Y-114181380D01*
X136739047Y-114133761D01*
X137786666Y-114181380D02*
X137691428Y-114133761D01*
X137643809Y-114038523D01*
X137643809Y-113181380D01*
X138548571Y-114133761D02*
X138453333Y-114181380D01*
X138262857Y-114181380D01*
X138167619Y-114133761D01*
X138120000Y-114038523D01*
X138120000Y-113657571D01*
X138167619Y-113562333D01*
X138262857Y-113514714D01*
X138453333Y-113514714D01*
X138548571Y-113562333D01*
X138596190Y-113657571D01*
X138596190Y-113752809D01*
X138120000Y-113848047D01*
X131024761Y-114831380D02*
X131596190Y-114831380D01*
X131310476Y-115831380D02*
X131310476Y-114831380D01*
X131929523Y-115831380D02*
X131929523Y-115164714D01*
X131929523Y-115355190D02*
X131977142Y-115259952D01*
X132024761Y-115212333D01*
X132120000Y-115164714D01*
X132215238Y-115164714D01*
X132977142Y-115831380D02*
X132977142Y-115307571D01*
X132929523Y-115212333D01*
X132834285Y-115164714D01*
X132643809Y-115164714D01*
X132548571Y-115212333D01*
X132977142Y-115783761D02*
X132881904Y-115831380D01*
X132643809Y-115831380D01*
X132548571Y-115783761D01*
X132500952Y-115688523D01*
X132500952Y-115593285D01*
X132548571Y-115498047D01*
X132643809Y-115450428D01*
X132881904Y-115450428D01*
X132977142Y-115402809D01*
X133453333Y-115164714D02*
X133453333Y-115831380D01*
X133453333Y-115259952D02*
X133500952Y-115212333D01*
X133596190Y-115164714D01*
X133739047Y-115164714D01*
X133834285Y-115212333D01*
X133881904Y-115307571D01*
X133881904Y-115831380D01*
X134310476Y-115783761D02*
X134405714Y-115831380D01*
X134596190Y-115831380D01*
X134691428Y-115783761D01*
X134739047Y-115688523D01*
X134739047Y-115640904D01*
X134691428Y-115545666D01*
X134596190Y-115498047D01*
X134453333Y-115498047D01*
X134358095Y-115450428D01*
X134310476Y-115355190D01*
X134310476Y-115307571D01*
X134358095Y-115212333D01*
X134453333Y-115164714D01*
X134596190Y-115164714D01*
X134691428Y-115212333D01*
X135167619Y-115831380D02*
X135167619Y-115164714D01*
X135167619Y-114831380D02*
X135120000Y-114879000D01*
X135167619Y-114926619D01*
X135215238Y-114879000D01*
X135167619Y-114831380D01*
X135167619Y-114926619D01*
X135596190Y-115783761D02*
X135691428Y-115831380D01*
X135881904Y-115831380D01*
X135977142Y-115783761D01*
X136024761Y-115688523D01*
X136024761Y-115640904D01*
X135977142Y-115545666D01*
X135881904Y-115498047D01*
X135739047Y-115498047D01*
X135643809Y-115450428D01*
X135596190Y-115355190D01*
X135596190Y-115307571D01*
X135643809Y-115212333D01*
X135739047Y-115164714D01*
X135881904Y-115164714D01*
X135977142Y-115212333D01*
X136310476Y-115164714D02*
X136691428Y-115164714D01*
X136453333Y-114831380D02*
X136453333Y-115688523D01*
X136500952Y-115783761D01*
X136596190Y-115831380D01*
X136691428Y-115831380D01*
X137167619Y-115831380D02*
X137072380Y-115783761D01*
X137024761Y-115736142D01*
X136977142Y-115640904D01*
X136977142Y-115355190D01*
X137024761Y-115259952D01*
X137072380Y-115212333D01*
X137167619Y-115164714D01*
X137310476Y-115164714D01*
X137405714Y-115212333D01*
X137453333Y-115259952D01*
X137500952Y-115355190D01*
X137500952Y-115640904D01*
X137453333Y-115736142D01*
X137405714Y-115783761D01*
X137310476Y-115831380D01*
X137167619Y-115831380D01*
X137929523Y-115831380D02*
X137929523Y-115164714D01*
X137929523Y-115355190D02*
X137977142Y-115259952D01*
X138024761Y-115212333D01*
X138120000Y-115164714D01*
X138215238Y-115164714D01*
X166251428Y-112149380D02*
X166251428Y-111149380D01*
X167441904Y-111101761D02*
X166584761Y-112387476D01*
X167965714Y-111149380D02*
X168156190Y-111149380D01*
X168251428Y-111197000D01*
X168346666Y-111292238D01*
X168394285Y-111482714D01*
X168394285Y-111816047D01*
X168346666Y-112006523D01*
X168251428Y-112101761D01*
X168156190Y-112149380D01*
X167965714Y-112149380D01*
X167870476Y-112101761D01*
X167775238Y-112006523D01*
X167727619Y-111816047D01*
X167727619Y-111482714D01*
X167775238Y-111292238D01*
X167870476Y-111197000D01*
X167965714Y-111149380D01*
X169584761Y-111625571D02*
X169918095Y-111625571D01*
X170060952Y-112149380D02*
X169584761Y-112149380D01*
X169584761Y-111149380D01*
X170060952Y-111149380D01*
X170489523Y-111482714D02*
X170489523Y-112149380D01*
X170489523Y-111577952D02*
X170537142Y-111530333D01*
X170632380Y-111482714D01*
X170775238Y-111482714D01*
X170870476Y-111530333D01*
X170918095Y-111625571D01*
X170918095Y-112149380D01*
X171822857Y-112149380D02*
X171822857Y-111625571D01*
X171775238Y-111530333D01*
X171680000Y-111482714D01*
X171489523Y-111482714D01*
X171394285Y-111530333D01*
X171822857Y-112101761D02*
X171727619Y-112149380D01*
X171489523Y-112149380D01*
X171394285Y-112101761D01*
X171346666Y-112006523D01*
X171346666Y-111911285D01*
X171394285Y-111816047D01*
X171489523Y-111768428D01*
X171727619Y-111768428D01*
X171822857Y-111720809D01*
X172299047Y-112149380D02*
X172299047Y-111149380D01*
X172299047Y-111530333D02*
X172394285Y-111482714D01*
X172584761Y-111482714D01*
X172680000Y-111530333D01*
X172727619Y-111577952D01*
X172775238Y-111673190D01*
X172775238Y-111958904D01*
X172727619Y-112054142D01*
X172680000Y-112101761D01*
X172584761Y-112149380D01*
X172394285Y-112149380D01*
X172299047Y-112101761D01*
X173346666Y-112149380D02*
X173251428Y-112101761D01*
X173203809Y-112006523D01*
X173203809Y-111149380D01*
X174108571Y-112101761D02*
X174013333Y-112149380D01*
X173822857Y-112149380D01*
X173727619Y-112101761D01*
X173680000Y-112006523D01*
X173680000Y-111625571D01*
X173727619Y-111530333D01*
X173822857Y-111482714D01*
X174013333Y-111482714D01*
X174108571Y-111530333D01*
X174156190Y-111625571D01*
X174156190Y-111720809D01*
X173680000Y-111816047D01*
X166584761Y-112799380D02*
X167156190Y-112799380D01*
X166870476Y-113799380D02*
X166870476Y-112799380D01*
X167489523Y-113799380D02*
X167489523Y-113132714D01*
X167489523Y-113323190D02*
X167537142Y-113227952D01*
X167584761Y-113180333D01*
X167680000Y-113132714D01*
X167775238Y-113132714D01*
X168537142Y-113799380D02*
X168537142Y-113275571D01*
X168489523Y-113180333D01*
X168394285Y-113132714D01*
X168203809Y-113132714D01*
X168108571Y-113180333D01*
X168537142Y-113751761D02*
X168441904Y-113799380D01*
X168203809Y-113799380D01*
X168108571Y-113751761D01*
X168060952Y-113656523D01*
X168060952Y-113561285D01*
X168108571Y-113466047D01*
X168203809Y-113418428D01*
X168441904Y-113418428D01*
X168537142Y-113370809D01*
X169013333Y-113132714D02*
X169013333Y-113799380D01*
X169013333Y-113227952D02*
X169060952Y-113180333D01*
X169156190Y-113132714D01*
X169299047Y-113132714D01*
X169394285Y-113180333D01*
X169441904Y-113275571D01*
X169441904Y-113799380D01*
X169870476Y-113751761D02*
X169965714Y-113799380D01*
X170156190Y-113799380D01*
X170251428Y-113751761D01*
X170299047Y-113656523D01*
X170299047Y-113608904D01*
X170251428Y-113513666D01*
X170156190Y-113466047D01*
X170013333Y-113466047D01*
X169918095Y-113418428D01*
X169870476Y-113323190D01*
X169870476Y-113275571D01*
X169918095Y-113180333D01*
X170013333Y-113132714D01*
X170156190Y-113132714D01*
X170251428Y-113180333D01*
X170727619Y-113799380D02*
X170727619Y-113132714D01*
X170727619Y-112799380D02*
X170680000Y-112847000D01*
X170727619Y-112894619D01*
X170775238Y-112847000D01*
X170727619Y-112799380D01*
X170727619Y-112894619D01*
X171156190Y-113751761D02*
X171251428Y-113799380D01*
X171441904Y-113799380D01*
X171537142Y-113751761D01*
X171584761Y-113656523D01*
X171584761Y-113608904D01*
X171537142Y-113513666D01*
X171441904Y-113466047D01*
X171299047Y-113466047D01*
X171203809Y-113418428D01*
X171156190Y-113323190D01*
X171156190Y-113275571D01*
X171203809Y-113180333D01*
X171299047Y-113132714D01*
X171441904Y-113132714D01*
X171537142Y-113180333D01*
X171870476Y-113132714D02*
X172251428Y-113132714D01*
X172013333Y-112799380D02*
X172013333Y-113656523D01*
X172060952Y-113751761D01*
X172156190Y-113799380D01*
X172251428Y-113799380D01*
X172727619Y-113799380D02*
X172632380Y-113751761D01*
X172584761Y-113704142D01*
X172537142Y-113608904D01*
X172537142Y-113323190D01*
X172584761Y-113227952D01*
X172632380Y-113180333D01*
X172727619Y-113132714D01*
X172870476Y-113132714D01*
X172965714Y-113180333D01*
X173013333Y-113227952D01*
X173060952Y-113323190D01*
X173060952Y-113608904D01*
X173013333Y-113704142D01*
X172965714Y-113751761D01*
X172870476Y-113799380D01*
X172727619Y-113799380D01*
X173489523Y-113799380D02*
X173489523Y-113132714D01*
X173489523Y-113323190D02*
X173537142Y-113227952D01*
X173584761Y-113180333D01*
X173680000Y-113132714D01*
X173775238Y-113132714D01*
X167981523Y-86574380D02*
X168219619Y-87574380D01*
X168410095Y-86860095D01*
X168600571Y-87574380D01*
X168838666Y-86574380D01*
X169219619Y-87574380D02*
X169219619Y-86907714D01*
X169219619Y-87098190D02*
X169267238Y-87002952D01*
X169314857Y-86955333D01*
X169410095Y-86907714D01*
X169505333Y-86907714D01*
X169838666Y-87574380D02*
X169838666Y-86907714D01*
X169838666Y-86574380D02*
X169791047Y-86622000D01*
X169838666Y-86669619D01*
X169886285Y-86622000D01*
X169838666Y-86574380D01*
X169838666Y-86669619D01*
X170172000Y-86907714D02*
X170552952Y-86907714D01*
X170314857Y-86574380D02*
X170314857Y-87431523D01*
X170362476Y-87526761D01*
X170457714Y-87574380D01*
X170552952Y-87574380D01*
X171267238Y-87526761D02*
X171172000Y-87574380D01*
X170981523Y-87574380D01*
X170886285Y-87526761D01*
X170838666Y-87431523D01*
X170838666Y-87050571D01*
X170886285Y-86955333D01*
X170981523Y-86907714D01*
X171172000Y-86907714D01*
X171267238Y-86955333D01*
X171314857Y-87050571D01*
X171314857Y-87145809D01*
X170838666Y-87241047D01*
D11*
X143788190Y-79768095D02*
X144078476Y-79889047D01*
X144562285Y-79889047D01*
X144755809Y-79768095D01*
X144852571Y-79647142D01*
X144949333Y-79405238D01*
X144949333Y-79163333D01*
X144852571Y-78921428D01*
X144755809Y-78800476D01*
X144562285Y-78679523D01*
X144175238Y-78558571D01*
X143981714Y-78437619D01*
X143884952Y-78316666D01*
X143788190Y-78074761D01*
X143788190Y-77832857D01*
X143884952Y-77590952D01*
X143981714Y-77470000D01*
X144175238Y-77349047D01*
X144659047Y-77349047D01*
X144949333Y-77470000D01*
X145820190Y-78921428D02*
X147368380Y-78921428D01*
X149497142Y-79889047D02*
X148819809Y-78679523D01*
X148336000Y-79889047D02*
X148336000Y-77349047D01*
X149110095Y-77349047D01*
X149303619Y-77470000D01*
X149400380Y-77590952D01*
X149497142Y-77832857D01*
X149497142Y-78195714D01*
X149400380Y-78437619D01*
X149303619Y-78558571D01*
X149110095Y-78679523D01*
X148336000Y-78679523D01*
X150271238Y-79163333D02*
X151238857Y-79163333D01*
X150077714Y-79889047D02*
X150755047Y-77349047D01*
X151432380Y-79889047D01*
X152109714Y-79889047D02*
X152109714Y-77349047D01*
X152787047Y-79163333D01*
X153464380Y-77349047D01*
X153464380Y-79889047D01*
X157141333Y-79647142D02*
X157044571Y-79768095D01*
X156754285Y-79889047D01*
X156560761Y-79889047D01*
X156270476Y-79768095D01*
X156076952Y-79526190D01*
X155980190Y-79284285D01*
X155883428Y-78800476D01*
X155883428Y-78437619D01*
X155980190Y-77953809D01*
X156076952Y-77711904D01*
X156270476Y-77470000D01*
X156560761Y-77349047D01*
X156754285Y-77349047D01*
X157044571Y-77470000D01*
X157141333Y-77590952D01*
X158786285Y-79768095D02*
X158592761Y-79889047D01*
X158205714Y-79889047D01*
X158012190Y-79768095D01*
X157915428Y-79526190D01*
X157915428Y-78558571D01*
X158012190Y-78316666D01*
X158205714Y-78195714D01*
X158592761Y-78195714D01*
X158786285Y-78316666D01*
X158883047Y-78558571D01*
X158883047Y-78800476D01*
X157915428Y-79042380D01*
X160044190Y-79889047D02*
X159850666Y-79768095D01*
X159753904Y-79526190D01*
X159753904Y-77349047D01*
X161108571Y-79889047D02*
X160915047Y-79768095D01*
X160818285Y-79526190D01*
X160818285Y-77349047D01*
D12*
X170180000Y-88900000D02*
G75*
G03X170180000Y-88900000I0J0D01*
G01*
X134620000Y-88900000D02*
G75*
G03X134620000Y-88900000I0J0D01*
G01*
D13*
X127000000Y-88900000D02*
X177800000Y-88900000D01*
X175260000Y-127000000D02*
X175260000Y-76200000D01*
X129540000Y-127000000D02*
X129540000Y-76200000D01*
D12*
X129540000Y-108712000D02*
G75*
G03X129540000Y-108712000I0J0D01*
G01*
X175260000Y-106680000D02*
G75*
G03X175260000Y-106680000I0J0D01*
G01*
D13*
X173228000Y-104140000D02*
X167132000Y-104140000D01*
X172212000Y-103124000D02*
X168148000Y-103124000D01*
X175260000Y-106680000D02*
X172212000Y-106680000D01*
X172212000Y-106680000D02*
X172720000Y-105664000D01*
X168148000Y-106680000D02*
X160528000Y-106680000D01*
X171704000Y-105664000D02*
X172212000Y-106680000D01*
X170180000Y-103124000D02*
X170180000Y-88900000D01*
X172212000Y-106680000D02*
X172212000Y-104140000D01*
X168148000Y-106680000D02*
X168148000Y-104140000D01*
X132080000Y-107696000D02*
X132588000Y-108712000D01*
X132588000Y-108712000D02*
X129540000Y-108712000D01*
X134620000Y-105156000D02*
X134620000Y-88900000D01*
X132588000Y-108712000D02*
X132588000Y-106172000D01*
X137668000Y-106172000D02*
X131572000Y-106172000D01*
X136652000Y-108712000D02*
X136652000Y-106172000D01*
X132588000Y-108712000D02*
X133096000Y-107696000D01*
X144272000Y-108712000D02*
X136652000Y-108712000D01*
X136652000Y-105156000D02*
X132588000Y-105156000D01*
X153924000Y-121920000D02*
X150876000Y-121920000D01*
X153416000Y-122428000D02*
X151384000Y-122428000D01*
X151892000Y-122936000D02*
X152908000Y-122936000D01*
X152400000Y-119888000D02*
X152400000Y-121920000D01*
X152400000Y-91948000D02*
X153416000Y-93980000D01*
X152400000Y-91948000D02*
X151384000Y-93980000D01*
X152400000Y-95504000D02*
X152400000Y-91948000D01*
X144272000Y-95504000D02*
X160528000Y-95504000D01*
X160528000Y-119888000D02*
X144272000Y-119888000D01*
D12*
X144272000Y-108712000D02*
G75*
G03X144272000Y-108712000I0J0D01*
G01*
X154432000Y-108712000D02*
G75*
G03X154432000Y-108712000I0J0D01*
G01*
X150368000Y-106680000D02*
G75*
G03X150368000Y-106680000I0J0D01*
G01*
X160528000Y-106680000D02*
G75*
G03X160528000Y-106680000I0J0D01*
G01*
D13*
X144272000Y-108712000D02*
X154432000Y-108712000D01*
X160528000Y-106680000D02*
X150368000Y-106680000D01*
X156972000Y-112776000D02*
X156972000Y-116840000D01*
X160528000Y-116840000D02*
X159512000Y-116332000D01*
X160528000Y-112776000D02*
X157988000Y-112776000D01*
X157988000Y-111760000D02*
X157988000Y-117856000D01*
X156972000Y-114808000D02*
X154432000Y-114808000D01*
X160528000Y-116840000D02*
X160528000Y-119888000D01*
X159512000Y-117348000D02*
X160528000Y-116840000D01*
X160528000Y-116840000D02*
X157988000Y-116840000D01*
X154432000Y-114808000D02*
X154432000Y-100584000D01*
X150368000Y-100584000D02*
X150368000Y-114808000D01*
X157988000Y-98552000D02*
X159004000Y-99060000D01*
X144272000Y-102616000D02*
X146812000Y-102616000D01*
X147828000Y-116840000D02*
X147828000Y-112776000D01*
X147828000Y-114808000D02*
X150368000Y-114808000D01*
X145288000Y-117348000D02*
X144272000Y-116840000D01*
X144272000Y-116840000D02*
X146812000Y-116840000D01*
X145288000Y-116332000D02*
X144272000Y-116840000D01*
X144272000Y-112776000D02*
X146812000Y-112776000D01*
X146812000Y-117856000D02*
X146812000Y-111760000D01*
X144272000Y-116840000D02*
X144272000Y-119888000D01*
X147828000Y-102616000D02*
X147828000Y-98552000D01*
X145796000Y-98044000D02*
X146812000Y-98552000D01*
X147828000Y-100584000D02*
X150368000Y-100584000D01*
X144272000Y-98552000D02*
X144272000Y-95504000D01*
X146812000Y-98552000D02*
X145796000Y-99060000D01*
X144272000Y-98552000D02*
X146812000Y-98552000D01*
X146812000Y-103632000D02*
X146812000Y-97536000D01*
X144272000Y-102616000D02*
X144272000Y-112776000D01*
X156972000Y-100584000D02*
X154432000Y-100584000D01*
X156972000Y-98552000D02*
X156972000Y-102616000D01*
X157988000Y-98552000D02*
X159004000Y-98044000D01*
X157988000Y-97536000D02*
X157988000Y-103632000D01*
X160528000Y-98552000D02*
X157988000Y-98552000D01*
X160528000Y-98552000D02*
X160528000Y-95504000D01*
X160528000Y-102616000D02*
X160528000Y-112776000D01*
X160528000Y-102616000D02*
X157988000Y-102616000D01*
D14*
X141030000Y-85620000D02*
X140280000Y-85620000D01*
X141030000Y-82020000D02*
X140280000Y-82020000D01*
X149280000Y-82020000D02*
X149280000Y-85620000D01*
X149280000Y-85620000D02*
X148530000Y-85620000D01*
X149280000Y-82020000D02*
X148530000Y-82020000D01*
X140280000Y-82020000D02*
X140280000Y-85620000D01*
X156270000Y-85620000D02*
X155520000Y-85620000D01*
X156270000Y-82020000D02*
X155520000Y-82020000D01*
X164520000Y-82020000D02*
X164520000Y-85620000D01*
X164520000Y-85620000D02*
X163770000Y-85620000D01*
X164520000Y-82020000D02*
X163770000Y-82020000D01*
X155520000Y-82020000D02*
X155520000Y-85620000D01*
X170132000Y-78594000D02*
X168632000Y-78594000D01*
X166132000Y-79844000D02*
X166132000Y-84344000D01*
X168632000Y-85594000D02*
X170132000Y-85594000D01*
X172632000Y-84344000D02*
X172632000Y-79844000D01*
X143508000Y-102164000D02*
X142048000Y-102164000D01*
X143508000Y-99004000D02*
X140348000Y-99004000D01*
X143508000Y-99004000D02*
X143508000Y-99934000D01*
X143508000Y-102164000D02*
X143508000Y-101234000D01*
X161292000Y-99004000D02*
X161292000Y-99934000D01*
X161292000Y-102164000D02*
X161292000Y-101234000D01*
X161292000Y-102164000D02*
X164452000Y-102164000D01*
X161292000Y-99004000D02*
X162752000Y-99004000D01*
X143508000Y-116388000D02*
X143508000Y-115458000D01*
X143508000Y-113228000D02*
X143508000Y-114158000D01*
X143508000Y-113228000D02*
X140348000Y-113228000D01*
X143508000Y-116388000D02*
X142048000Y-116388000D01*
X161316000Y-113294000D02*
X162776000Y-113294000D01*
X161316000Y-116454000D02*
X164476000Y-116454000D01*
X161316000Y-116454000D02*
X161316000Y-115524000D01*
X161316000Y-113294000D02*
X161316000Y-114224000D01*
X136200000Y-109476000D02*
X136200000Y-110936000D01*
X133040000Y-109476000D02*
X133040000Y-112636000D01*
X133040000Y-109476000D02*
X133970000Y-109476000D01*
X136200000Y-109476000D02*
X135270000Y-109476000D01*
X171760000Y-107444000D02*
X170830000Y-107444000D01*
X168600000Y-107444000D02*
X169530000Y-107444000D01*
X168600000Y-107444000D02*
X168600000Y-110604000D01*
X171760000Y-107444000D02*
X171760000Y-108904000D01*
M02*
