M48
; DRILL file {KiCad 5.1.5+dfsg1-2build2} date Tue 02 Jun 2020 11:51:47 PM PDT
; FORMAT={-:-/ absolute / inch / decimal}
; #@! TF.CreationDate,2020-06-02T23:51:47-07:00
; #@! TF.GenerationSoftware,Kicad,Pcbnew,5.1.5+dfsg1-2build2
; #@! TF.FileFunction,NonPlated,1,2,NPTH
FMAT,2
INCH
T1C0.0709
%
G90
G05
T1
G00X5.68Y-3.4882
M15
G01X5.68Y-3.5118
M16
G05
G00X5.54Y-4.2682
M15
G01X5.54Y-4.2918
M16
G05
G00X5.9082Y-4.02
M15
G01X5.9318Y-4.02
M16
G05
G00X5.0882Y-3.3
M15
G01X5.1118Y-3.3
M16
G05
G00X5.0882Y-4.0
M15
G01X5.1118Y-4.0
M16
G05
G00X6.8882Y-4.7
M15
G01X6.9118Y-4.7
M16
G05
G00X6.18Y-4.1882
M15
G01X6.18Y-4.2118
M16
G05
G00X6.6882Y-3.8
M15
G01X6.7118Y-3.8
M16
G05
G00X6.8882Y-3.3
M15
G01X6.9118Y-3.3
M16
G05
G00X5.9082Y-4.46
M15
G01X5.9318Y-4.46
M16
G05
G00X6.46Y-4.1882
M15
G01X6.46Y-4.2118
M16
G05
G00X6.8882Y-4.0
M15
G01X6.9118Y-4.0
M16
G05
G00X5.82Y-4.2682
M15
G01X5.82Y-4.2918
M16
G05
G00X5.2882Y-3.8
M15
G01X5.3118Y-3.8
M16
G05
G00X5.0882Y-4.7
M15
G01X5.1118Y-4.7
M16
G05
G00X6.32Y-3.4882
M15
G01X6.32Y-3.5118
M16
G05
G00X6.0682Y-4.02
M15
G01X6.0918Y-4.02
M16
G05
G00X6.0682Y-4.46
M15
G01X6.0918Y-4.46
M16
G05
T0
M30
