M48
; DRILL file {KiCad 5.1.5+dfsg1-2build2} date Tue 02 Jun 2020 11:51:47 PM PDT
; FORMAT={-:-/ absolute / inch / decimal}
; #@! TF.CreationDate,2020-06-02T23:51:47-07:00
; #@! TF.GenerationSoftware,Kicad,Pcbnew,5.1.5+dfsg1-2build2
; #@! TF.FileFunction,Plated,1,2,PTH
FMAT,2
INCH
T1C0.0157
T2C0.0236
T3C0.0256
T4C0.0335
T5C0.0354
T6C0.0394
T7C0.0433
T8C0.1260
%
G90
G05
T1
X5.23Y-4.0
X5.34Y-4.48
X5.42Y-4.1
X5.46Y-4.68
X5.48Y-4.52
X5.52Y-4.92
X5.56Y-4.06
X5.84Y-3.4685
X5.94Y-4.92
X6.0Y-3.27
X6.0Y-3.54
X6.09Y-3.07
X6.32Y-3.92
X6.44Y-4.42
X6.52Y-3.96
X6.55Y-4.72
X6.56Y-4.52
X6.59Y-4.13
X6.6Y-4.72
X6.64Y-3.99
X6.7Y-4.262
X6.7Y-4.44
T3
X5.6Y-3.07
X5.6Y-3.12
X6.4Y-3.07
X6.4Y-3.12
T4
X6.5016Y-4.8374
X6.6984Y-4.8374
T5
X5.6016Y-3.235
X5.6016Y-3.365
X5.7Y-3.235
X5.7Y-3.365
X5.7984Y-3.235
X5.7984Y-3.365
X6.2016Y-3.235
X6.2016Y-3.365
X6.3Y-3.235
X6.3Y-3.365
X6.3984Y-3.235
X6.3984Y-3.365
T6
X5.2Y-4.88
X5.3Y-4.88
X5.4Y-4.88
T7
X6.58Y-3.1041
X6.58Y-3.36
X6.7572Y-3.1041
X6.7572Y-3.36
T8
X5.34Y-3.16
T2
G00X6.4622Y-4.9575
M15
G01X6.4622Y-4.9299
M16
G05
G00X6.7378Y-4.9299
M15
G01X6.7378Y-4.9575
M16
G05
T0
M30
