<?xml version="1.0" encoding="UTF-8"?>
<svg id="VJ_iOD-XTz_-a8sbSLiE_top" class="w-100 h-100" width="400px" height="400px" clip-rule="evenodd" fill-rule="evenodd" stroke-linecap="round" stroke-linejoin="round" stroke-width="0" version="1.1" viewBox="127000 -127000 50800 50800" xmlns="http://www.w3.org/2000/svg" xmlns:cc="http://creativecommons.org/ns#" xmlns:dc="http://purl.org/dc/elements/1.1/" xmlns:rdf="http://www.w3.org/1999/02/22-rdf-syntax-ns#" xmlns:xlink="http://www.w3.org/1999/xlink">
  <metadata>
    <rdf:RDF>
      <cc:Work rdf:about="">
        <dc:format>image/svg+xml</dc:format>
        <dc:type rdf:resource="http://purl.org/dc/dcmitype/StillImage"/>
        <dc:title/>
      </cc:Work>
    </rdf:RDF>
  </metadata>
  <defs>
    <style>.VJ_iOD-XTz_-a8sbSLiE_fr4 {color: #666666;}
.VJ_iOD-XTz_-a8sbSLiE_cu {color: #cccccc;}
.VJ_iOD-XTz_-a8sbSLiE_cf {color: #cc9933;}
.VJ_iOD-XTz_-a8sbSLiE_sm {color: #4b0082; opacity: 0.75;}
.VJ_iOD-XTz_-a8sbSLiE_ss {color: #ffffff;}
.VJ_iOD-XTz_-a8sbSLiE_sp {color: #999999;}
.VJ_iOD-XTz_-a8sbSLiE_out {color: #000000;}</style>
    <circle id="POGXLcr4nFloyce2h4aj_pad-10" r="800"/>
    <rect id="POGXLcr4nFloyce2h4aj_pad-11" x="-600" y="-950" width="1200" height="1900" rx="600" ry="600"/>
    <circle id="POGXLcr4nFloyce2h4aj_pad-12" r="725"/>
    <circle id="POGXLcr4nFloyce2h4aj_pad-13" r="850"/>
    <rect id="POGXLcr4nFloyce2h4aj_pad-14" x="-850" y="-850" width="1700" height="1700" rx="850" ry="850"/>
    <circle id="POGXLcr4nFloyce2h4aj_pad-15" r="500"/>
    <rect id="POGXLcr4nFloyce2h4aj_pad-16" x="-500" y="-500" width="1e3" height="1e3" rx="500" ry="500"/>
    <circle id="POGXLcr4nFloyce2h4aj_pad-17" r="2800"/>
    <circle id="POGXLcr4nFloyce2h4aj_pad-18" r="1e3"/>
    <rect id="POGXLcr4nFloyce2h4aj_pad-19" x="-950" y="-400" width="1900" height="800"/>
    <rect id="POGXLcr4nFloyce2h4aj_pad-20" x="-400" y="-950" width="800" height="1900"/>
    <circle id="POGXLcr4nFloyce2h4aj_pad-21" r="400"/>
    <circle id="ePcopufPLei-O0ZSrdcM_pad-1" r="7.85"/>
    <circle id="ePcopufPLei-O0ZSrdcM_pad-3" r="12.8"/>
    <circle id="ePcopufPLei-O0ZSrdcM_pad-4" r="16.75"/>
    <circle id="ePcopufPLei-O0ZSrdcM_pad-5" r="17.7"/>
    <circle id="ePcopufPLei-O0ZSrdcM_pad-6" r="19.7"/>
    <circle id="ePcopufPLei-O0ZSrdcM_pad-7" r="21.65"/>
    <circle id="ePcopufPLei-O0ZSrdcM_pad-8" r="63"/>
    <g id="VJ_iOD-XTz_-a8sbSLiE_top_soldermask">
      <path d="m164268-124579 90.786-27.54 31.932-9.686 113.09-60.448 99.129-81.352 81.352-99.129 60.448-113.09 9.686-31.932 27.54-90.786 9.42-95.645v-763.95l-9.42-95.645-27.54-90.786-9.686-31.932-60.448-113.09-81.352-99.128-99.13-81.353-113.09-60.448-31.932-9.686-90.786-27.54-127.62-12.569-127.62 12.569-90.786 27.54-31.932 9.686-113.09 60.448-99.128 81.352-81.353 99.13-60.448 113.09-9.686 31.932-27.54 90.786-9.42 95.645v763.94l9.42 95.645 37.225 122.71 24.963 46.702 35.487 66.391 81.352 99.129 99.129 81.352 113.09 60.448 31.932 9.686 90.786 27.54 127.62 12.569 127.62-12.569"/>
      <path d="m171268-124579 90.786-27.54 31.932-9.686 113.09-60.448 99.13-81.353 81.352-99.128 60.448-113.09 9.686-31.932 27.54-90.786 9.42-95.645v-763.95l-9.42-95.645-27.54-90.786-9.686-31.932-60.448-113.09-81.352-99.129-99.129-81.352-113.09-60.448-31.932-9.686-90.786-27.54-127.62-12.569-127.62 12.569-90.786 27.54-31.932 9.686-113.09 60.448-99.129 81.352-81.352 99.129-60.447 113.09-3e-3 5e-3 -37.225 122.71-9.42 95.645v763.94l9.42 95.645 37.225 122.71 1e-3 4e-3 60.448 113.09 81.353 99.13 99.128 81.352 113.09 60.448 31.932 9.686 90.786 27.54 127.62 12.569 127.62-12.569"/>
      <path d="m137274-123056 149.3-29.697 163.97-67.92 147.57-98.603 125.5-125.5 98.603-147.57 67.92-163.97 34.624-174.07v-177.48l-34.624-174.07-67.92-163.97-98.603-147.57-125.5-125.5-147.57-98.603-163.97-67.92-174.07-34.624h-177.48l-174.07 34.624-163.97 67.92-147.57 98.603-125.5 125.5-98.603 147.57-67.92 163.97-34.624 174.07v177.48l34.624 174.07 67.92 163.97 98.603 147.57 125.5 125.5 147.57 98.603 163.97 67.92 174.07 34.624h177.48l24.77-4.927"/>
      <path d="m134734-123056 149.3-29.697 163.97-67.92 147.57-98.603 125.5-125.5 98.603-147.57 67.92-163.97 34.624-174.07v-177.48l-34.624-174.07-67.92-163.97-98.603-147.57-125.5-125.5-147.57-98.603-163.97-67.92-174.07-34.624h-177.48l-174.07 34.624-163.97 67.92-147.57 98.603-125.5 125.5-98.603 147.57-67.92 163.97-34.624 174.07v177.48l34.624 174.07 67.92 163.97 98.603 147.57 125.5 125.5 147.57 98.603 163.97 67.92 174.07 34.624h177.48l24.77-4.927"/>
      <path d="m132194-123056 149.3-29.697 163.97-67.92 147.57-98.603 125.5-125.5 98.603-147.57 67.92-163.97 34.624-174.07v-177.48l-34.624-174.07-67.92-163.97-98.603-147.57-125.5-125.5-147.57-98.603-163.97-67.92-174.07-34.624h-177.48l-174.07 34.624-163.97 67.92-147.57 98.603-125.5 125.5-98.603 147.57-67.92 163.97-34.624 174.07v177.48l34.624 174.07 67.92 163.97 98.603 147.57 125.5 125.5 147.57 98.603 163.97 67.92 174.07 34.624h177.48l24.77-4.927"/>
      <path d="m170366-122124 2e-3 -1e-3h1e-3l141.22-58.496 3e-3 -2e-3 127.09-84.92 108.09-108.09 84.92-127.09 2e-3 -3e-3 58.496-141.22 1e-3 -3e-3 29.82-149.92v-152.86l-27.587-138.69-2.234-11.227-58.496-141.22-2e-3 -3e-3 -84.92-127.09-108.09-108.09-127.09-84.92-3e-3 -2e-3 -141.22-58.496h-1e-3l-2e-3 -1e-3 -149.92-29.82h-152.86l-149.92 29.82-2e-3 1e-3h-1e-3l-141.22 58.496-3e-3 2e-3 -127.09 84.92-108.09 108.09-84.92 127.09-2e-3 3e-3 -58.496 141.22-2.233 11.227-27.588 138.69v152.86l29.82 149.92 1e-3 3e-3 58.496 141.22 2e-3 3e-3 84.92 127.09 108.09 108.09 127.09 84.92 3e-3 2e-3 141.22 58.496h1e-3l2e-3 1e-3 149.92 29.82h152.86l149.92-29.82"/>
      <path d="m165366-122124 2e-3 -1e-3h1e-3l141.22-58.496 3e-3 -2e-3 127.09-84.92 108.09-108.09 84.92-127.09 2e-3 -3e-3 58.496-141.22 1e-3 -3e-3 29.82-149.92v-152.86l-27.587-138.69-2.234-11.227-58.496-141.22-2e-3 -3e-3 -84.92-127.09-108.09-108.09-127.09-84.92-3e-3 -2e-3 -141.22-58.496h-1e-3l-2e-3 -1e-3 -149.92-29.82h-152.86l-149.92 29.82-2e-3 1e-3h-1e-3l-141.22 58.496-3e-3 2e-3 -127.09 84.92-108.09 108.09-84.92 127.09-2e-3 3e-3 -58.496 141.22-2.233 11.227-27.588 138.69v152.86l29.82 149.92 1e-3 3e-3 58.496 141.22 2e-3 3e-3 84.92 127.09 108.09 108.09 127.09 84.92 3e-3 2e-3 141.22 58.496h1e-3l2e-3 1e-3 149.92 29.82h152.86l149.92-29.82"/>
      <path d="m175746-118443 3e-3 -1e-3h1e-3l179.26-54.379 3e-3 -2e-3h1e-3l165.21-88.304 144.81-118.84 118.84-144.81 88.304-165.21 2e-3 -4e-3 54.379-179.26 1e-3 -4e-3 18.361-186.42-18.361-186.42-1e-3 -3e-3v-1e-3l-54.379-179.26-2e-3 -3e-3v-1e-3l-88.304-165.21-118.84-144.81-144.81-118.84-165.21-88.304-4e-3 -2e-3 -179.26-54.379h-1e-3l-3e-3 -1e-3 -139.71-13.76h-693.44l-139.71 13.76-3e-3 1e-3h-1e-3l-179.26 54.379-4e-3 2e-3 -165.21 88.304-144.81 118.84-118.84 144.81-88.304 165.21v1e-3l-2e-3 3e-3 -54.379 179.26v1e-3l-1e-3 3e-3 -18.361 186.42 18.361 186.42 1e-3 4e-3 54.379 179.26 2e-3 4e-3 88.304 165.21 118.84 144.81 144.81 118.84 165.21 88.304h1e-3l3e-3 2e-3 179.26 54.379h1e-3l3e-3 1e-3 139.71 13.76h693.44l139.71-13.76"/>
      <path d="m130026-118443 3e-3 -1e-3h1e-3l179.26-54.379 3e-3 -2e-3h1e-3l165.21-88.304 144.81-118.84 118.84-144.81 88.304-165.21 2e-3 -4e-3 54.379-179.26 1e-3 -4e-3 18.361-186.42-18.361-186.42-1e-3 -3e-3v-1e-3l-54.379-179.26-2e-3 -3e-3v-1e-3l-88.304-165.21-118.84-144.81-144.81-118.84-165.21-88.304-4e-3 -2e-3 -179.26-54.379h-1e-3l-3e-3 -1e-3 -139.71-13.76h-693.44l-139.71 13.76-3e-3 1e-3h-1e-3l-179.26 54.379-4e-3 2e-3 -165.21 88.304-144.81 118.84-118.84 144.81-88.304 165.21v1e-3l-2e-3 3e-3 -54.379 179.26v1e-3l-1e-3 3e-3 -18.361 186.42 18.361 186.42 1e-3 4e-3 54.379 179.26 2e-3 4e-3 88.304 165.21 118.84 144.81 144.81 118.84 165.21 88.304h1e-3l3e-3 2e-3 179.26 54.379h1e-3l3e-3 1e-3 139.71 13.76h693.44l139.71-13.76"/>
      <path d="m164577-116275h-2002v902h2002v-902"/>
      <path d="m142249-116209h-2002v902h2002v-902"/>
      <path d="m161577-115325h-2002v902h2002v-902"/>
      <path d="m145249-115259h-2002v902h2002v-902"/>
      <path d="m164577-114375h-2002v902h2002v-902"/>
      <path d="m142249-114309h-2002v902h2002v-902"/>
      <path d="m154918-112347 3e-3 -1e-3h1e-3l179.26-54.379 3e-3 -2e-3h1e-3l165.21-88.304 144.81-118.84 118.84-144.81 88.304-165.21 2e-3 -4e-3 54.379-179.26 1e-3 -4e-3 18.361-186.42-18.361-186.42-1e-3 -3e-3v-1e-3l-54.379-179.26-2e-3 -3e-3v-1e-3l-88.304-165.21-118.84-144.81-144.81-118.84-165.21-88.304-4e-3 -2e-3 -179.26-54.379h-1e-3l-3e-3 -1e-3 -139.71-13.76h-693.44l-139.71 13.76-3e-3 1e-3h-1e-3l-179.26 54.379-4e-3 2e-3 -165.21 88.304-144.81 118.84-118.84 144.81-88.304 165.21v1e-3l-2e-3 3e-3 -54.379 179.26v1e-3l-1e-3 3e-3 -18.361 186.42 18.361 186.42 1e-3 4e-3 54.379 179.26 2e-3 4e-3 88.304 165.21 118.84 144.81 144.81 118.84 165.21 88.304h1e-3l3e-3 2e-3 179.26 54.379h1e-3l3e-3 1e-3 139.71 13.76h693.44l139.71-13.76"/>
      <path d="m150854-112347 3e-3 -1e-3h1e-3l179.26-54.379 3e-3 -2e-3h1e-3l165.21-88.304 144.81-118.84 118.84-144.81 88.304-165.21 2e-3 -4e-3 54.379-179.26 1e-3 -4e-3 18.361-186.42-18.361-186.42-1e-3 -3e-3v-1e-3l-54.379-179.26-2e-3 -3e-3v-1e-3l-88.304-165.21-118.84-144.81-144.81-118.84-165.21-88.304-4e-3 -2e-3 -179.26-54.379h-1e-3l-3e-3 -1e-3 -139.71-13.76h-693.44l-139.71 13.76-3e-3 1e-3h-1e-3l-179.26 54.379-4e-3 2e-3 -165.21 88.304-144.81 118.84-118.84 144.81-88.304 165.21v1e-3l-2e-3 3e-3 -54.379 179.26v1e-3l-1e-3 3e-3 -18.361 186.42 18.361 186.42 1e-3 4e-3 54.379 179.26 2e-3 4e-3 88.304 165.21 118.84 144.81 144.81 118.84 165.21 88.304h1e-3l3e-3 2e-3 179.26 54.379h1e-3l3e-3 1e-3 139.71 13.76h693.44l139.71-13.76"/>
      <path d="m136021-112737h-902v2002h902v-2002"/>
      <path d="m134121-112737h-902v2002h902v-2002"/>
      <path d="m169681-110705h-902v2002h902v-2002"/>
      <path d="m171581-110705h-902v2002h902v-2002"/>
      <path d="m140902-107475 3e-3 -1e-3h1e-3l179.26-54.379 3e-3 -2e-3h1e-3l165.21-88.304 144.81-118.84 118.84-144.81 88.304-165.21 2e-3 -4e-3v-1e-3l54.38-179.27 13.76-139.71v-693.44l-13.76-139.71-1e-3 -2e-3v-3e-3l-54.379-179.26-2e-3 -3e-3 -88.304-165.21-118.84-144.81-144.81-118.84-165.21-88.304-4e-3 -2e-3 -179.26-54.379h-1e-3l-3e-3 -1e-3 -186.42-18.361-186.42 18.361-3e-3 1e-3h-1e-3l-179.26 54.379-4e-3 2e-3 -165.21 88.304-144.81 118.84-118.84 144.81-88.307 165.21-54.38 179.26-13.76 139.71v693.44l13.76 139.71 1e-3 4e-3 54.379 179.26 3e-3 5e-3 88.303 165.21 118.84 144.81 144.81 118.84 165.21 88.304h1e-3l3e-3 2e-3 179.26 54.379h1e-3l3e-3 1e-3 186.42 18.361 186.42-18.361"/>
      <path d="m148014-107475 3e-3 -1e-3h1e-3l179.26-54.379 3e-3 -2e-3h1e-3l165.21-88.304 144.81-118.84 118.84-144.81 88.304-165.21 2e-3 -4e-3v-1e-3l54.38-179.27 13.76-139.71v-693.44l-13.76-139.71-1e-3 -2e-3v-3e-3l-54.379-179.26-2e-3 -3e-3 -88.304-165.21-118.84-144.81-144.81-118.84-165.21-88.304-4e-3 -2e-3 -179.26-54.379h-1e-3l-3e-3 -1e-3 -186.42-18.361-186.42 18.361-3e-3 1e-3h-1e-3l-179.26 54.379-4e-3 2e-3 -165.21 88.304-144.81 118.84-118.84 144.81-88.307 165.21-54.38 179.26-13.76 139.71v693.44l13.76 139.71 1e-3 4e-3 54.379 179.26 3e-3 5e-3 88.303 165.21 118.84 144.81 144.81 118.84 165.21 88.304h1e-3l3e-3 2e-3 179.26 54.379h1e-3l3e-3 1e-3 186.42 18.361 186.42-18.361"/>
      <path d="m135071-109737h-902v2002h902v-2002"/>
      <path d="m157158-105443 3e-3 -1e-3h1e-3l179.26-54.379 3e-3 -2e-3h1e-3l165.21-88.304 144.81-118.84 118.84-144.81 88.304-165.21 2e-3 -4e-3v-1e-3l54.38-179.27 13.76-139.71v-693.44l-13.76-139.71-1e-3 -2e-3v-3e-3l-54.379-179.26-2e-3 -3e-3 -88.304-165.21-118.84-144.81-144.81-118.84-165.21-88.304-4e-3 -2e-3 -179.26-54.379h-1e-3l-3e-3 -1e-3 -186.42-18.361-186.42 18.361-3e-3 1e-3h-1e-3l-179.26 54.379-4e-3 2e-3 -165.21 88.304-144.81 118.84-118.84 144.81-88.307 165.21-54.38 179.26-13.76 139.71v693.44l13.76 139.71 1e-3 4e-3 54.379 179.26 3e-3 5e-3 88.303 165.21 118.84 144.81 144.81 118.84 165.21 88.304h1e-3l3e-3 2e-3 179.26 54.379h1e-3l3e-3 1e-3 186.42 18.361 186.42-18.361"/>
      <path d="m164270-105443 3e-3 -1e-3h1e-3l179.26-54.379 3e-3 -2e-3h1e-3l165.21-88.304 144.81-118.84 118.84-144.81 88.304-165.21 2e-3 -4e-3v-1e-3l54.38-179.27 13.76-139.71v-693.44l-13.76-139.71-1e-3 -2e-3v-3e-3l-54.379-179.26-2e-3 -3e-3 -88.304-165.21-118.84-144.81-144.81-118.84-165.21-88.304-4e-3 -2e-3 -179.26-54.379h-1e-3l-3e-3 -1e-3 -186.42-18.361-186.42 18.361-3e-3 1e-3h-1e-3l-179.26 54.379-4e-3 2e-3 -165.21 88.304-144.81 118.84-118.84 144.81-88.307 165.21-54.38 179.26-13.76 139.71v693.44l13.76 139.71 1e-3 4e-3 54.379 179.26 3e-3 5e-3 88.303 165.21 118.84 144.81 144.81 118.84 165.21 88.304h1e-3l3e-3 2e-3 179.26 54.379h1e-3l3e-3 1e-3 186.42 18.361 186.42-18.361"/>
      <path d="m170631-107705h-902v2002h902v-2002"/>
      <path d="m154918-101171 3e-3 -1e-3h1e-3l179.26-54.379 3e-3 -2e-3h1e-3l165.21-88.304 144.81-118.84 118.84-144.81 88.304-165.21 2e-3 -4e-3 13.384-44.122 40.996-135.15 18.361-186.42-18.361-186.42-1e-3 -3e-3v-1e-3l-54.379-179.26-2e-3 -3e-3v-1e-3l-88.304-165.21-118.84-144.81-144.81-118.84-165.21-88.304-4e-3 -2e-3 -179.26-54.379h-1e-3l-3e-3 -1e-3 -139.71-13.76h-693.44l-139.71 13.76-3e-3 1e-3h-1e-3l-179.26 54.379-4e-3 2e-3 -165.21 88.304-144.81 118.84-118.84 144.81-88.304 165.21v1e-3l-2e-3 3e-3 -54.379 179.26v1e-3l-1e-3 3e-3 -18.361 186.42 18.361 186.42 40.996 135.15 13.384 44.122 2e-3 4e-3 88.304 165.21 118.84 144.81 144.81 118.84 165.21 88.304h1e-3l3e-3 2e-3 179.26 54.379h1e-3l3e-3 1e-3 139.71 13.76h693.44l139.71-13.76"/>
      <path d="m150854-101171 3e-3 -1e-3h1e-3l179.26-54.379 3e-3 -2e-3h1e-3l165.21-88.304 144.81-118.84 118.84-144.81 88.304-165.21 2e-3 -4e-3 13.384-44.122 40.996-135.15 18.361-186.42-18.361-186.42-1e-3 -3e-3v-1e-3l-54.379-179.26-2e-3 -3e-3v-1e-3l-88.304-165.21-118.84-144.81-144.81-118.84-165.21-88.304-4e-3 -2e-3 -179.26-54.379h-1e-3l-3e-3 -1e-3 -139.71-13.76h-693.44l-139.71 13.76-3e-3 1e-3h-1e-3l-179.26 54.379-4e-3 2e-3 -165.21 88.304-144.81 118.84-118.84 144.81-88.304 165.21v1e-3l-2e-3 3e-3 -54.379 179.26v1e-3l-1e-3 3e-3 -18.361 186.42 18.361 186.42 40.996 135.15 13.384 44.122 2e-3 4e-3 88.304 165.21 118.84 144.81 144.81 118.84 165.21 88.304h1e-3l3e-3 2e-3 179.26 54.379h1e-3l3e-3 1e-3 139.71 13.76h693.44l139.71-13.76"/>
      <path d="m175746-100663 3e-3 -1e-3h1e-3l179.26-54.379 3e-3 -2e-3h1e-3l165.21-88.304 144.81-118.84 118.84-144.81 54.34-101.66 33.966-63.546 54.379-179.26 1e-3 -4e-3 18.361-186.42-18.361-186.42-1e-3 -3e-3v-1e-3l-54.379-179.26-2e-3 -3e-3v-1e-3l-88.304-165.21-118.84-144.81-144.81-118.84-165.21-88.306-179.26-54.379h-1e-3l-3e-3 -1e-3 -139.71-13.76h-693.44l-139.71 13.76-3e-3 1e-3h-1e-3l-179.26 54.379-165.21 88.306-144.81 118.84-118.84 144.81-88.304 165.21v1e-3l-2e-3 3e-3 -54.379 179.26v1e-3l-1e-3 3e-3 -18.361 186.42 18.361 186.42 1e-3 4e-3 54.379 179.26 33.966 63.546 54.34 101.66 118.84 144.81 144.81 118.84 165.21 88.304h1e-3l3e-3 2e-3 179.26 54.379h1e-3l3e-3 1e-3 139.71 13.76h693.44l139.71-13.76"/>
      <path d="m130026-100663 3e-3 -1e-3h1e-3l179.26-54.379 3e-3 -2e-3h1e-3l165.21-88.304 144.81-118.84 118.84-144.81 54.34-101.66 33.966-63.546 54.379-179.26 1e-3 -4e-3 18.361-186.42-18.361-186.42-1e-3 -3e-3v-1e-3l-54.379-179.26-2e-3 -3e-3v-1e-3l-88.304-165.21-118.84-144.81-144.81-118.84-165.21-88.306-179.26-54.379h-1e-3l-3e-3 -1e-3 -139.71-13.76h-693.44l-139.71 13.76-3e-3 1e-3h-1e-3l-179.26 54.379-165.21 88.306-144.81 118.84-118.84 144.81-88.304 165.21v1e-3l-2e-3 3e-3 -54.379 179.26v1e-3l-1e-3 3e-3 -18.361 186.42 18.361 186.42 1e-3 4e-3 54.379 179.26 33.966 63.546 54.34 101.66 118.84 144.81 144.81 118.84 165.21 88.304h1e-3l3e-3 2e-3 179.26 54.379h1e-3l3e-3 1e-3 139.71 13.76h693.44l139.71-13.76"/>
      <path d="m142249-101985h-2002v902h2002v-902"/>
      <path d="m164553-101985h-2002v902h2002v-902"/>
      <path d="m161553-101035h-2002v902h2002v-902"/>
      <path d="m145249-101035h-2002v902h2002v-902"/>
      <path d="m142249-100085h-2002v902h2002v-902"/>
      <path d="m164553-100085h-2002v902h2002v-902"/>
      <path d="m135106-95583 3e-3 -1e-3h1e-3l179.26-54.379 3e-3 -2e-3h1e-3l165.21-88.304 144.81-118.84 118.84-144.81 88.304-165.21 2e-3 -4e-3 54.379-179.26 1e-3 -4e-3 18.361-186.42-18.361-186.42-1e-3 -3e-3v-1e-3l-54.379-179.26-2e-3 -3e-3v-1e-3l-88.304-165.21-118.84-144.81-144.81-118.84-165.21-88.304-4e-3 -2e-3 -179.26-54.379h-1e-3l-3e-3 -1e-3 -139.71-13.76h-693.44l-139.71 13.76-3e-3 1e-3h-1e-3l-179.26 54.379-4e-3 2e-3 -165.21 88.304-144.81 118.84-118.84 144.81-88.304 165.21v1e-3l-2e-3 3e-3 -54.379 179.26v1e-3l-1e-3 3e-3 -18.361 186.42 18.361 186.42 1e-3 4e-3 54.379 179.26 2e-3 4e-3 88.304 165.21 118.84 144.81 144.81 118.84 165.21 88.304h1e-3l3e-3 2e-3 179.26 54.379h1e-3l3e-3 1e-3 139.71 13.76h693.44l139.71-13.76"/>
      <path d="m170666-95583 3e-3 -1e-3h1e-3l179.26-54.379 3e-3 -2e-3h1e-3l165.21-88.304 144.81-118.84 118.84-144.81 88.304-165.21 2e-3 -4e-3 54.379-179.26 1e-3 -4e-3 18.361-186.42-18.361-186.42-1e-3 -3e-3v-1e-3l-54.379-179.26-2e-3 -3e-3v-1e-3l-88.304-165.21-118.84-144.81-144.81-118.84-165.21-88.304-4e-3 -2e-3 -179.26-54.379h-1e-3l-3e-3 -1e-3 -139.71-13.76h-693.44l-139.71 13.76-3e-3 1e-3h-1e-3l-179.26 54.379-4e-3 2e-3 -165.21 88.304-144.81 118.84-118.84 144.81-88.304 165.21v1e-3l-2e-3 3e-3 -54.379 179.26v1e-3l-1e-3 3e-3 -18.361 186.42 18.361 186.42 1e-3 4e-3 54.379 179.26 2e-3 4e-3 88.304 165.21 118.84 144.81 144.81 118.84 165.21 88.304h1e-3l3e-3 2e-3 179.26 54.379h1e-3l3e-3 1e-3 139.71 13.76h693.44l139.71-13.76"/>
      <path d="m144458-87663 3e-3 -1e-3h1e-3l179.26-54.379 3e-3 -2e-3h1e-3l165.21-88.304 144.81-118.84 118.84-144.81 88.304-165.21 2e-3 -4e-3v-1e-3l54.38-179.27 13.76-139.71v-693.44l-13.76-139.71-1e-3 -2e-3v-3e-3l-54.379-179.26-2e-3 -3e-3 -88.304-165.21-118.84-144.81-144.81-118.84-165.21-88.304-4e-3 -2e-3 -179.26-54.379h-1e-3l-3e-3 -1e-3 -186.42-18.361-186.42 18.361-3e-3 1e-3h-1e-3l-179.26 54.379-4e-3 2e-3 -165.21 88.304-144.81 118.84-118.84 144.81-88.307 165.21-54.38 179.26-13.76 139.71v693.44l13.76 139.71 1e-3 4e-3 54.379 179.26 3e-3 5e-3 88.303 165.21 118.84 144.81 144.81 118.84 165.21 88.304h1e-3l3e-3 2e-3 179.26 54.379h1e-3l3e-3 1e-3 186.42 18.361 186.42-18.361"/>
      <path d="m160714-87663 3e-3 -1e-3h1e-3l179.26-54.379 3e-3 -2e-3h1e-3l165.21-88.304 144.81-118.84 118.84-144.81 88.304-165.21 2e-3 -4e-3v-1e-3l54.38-179.27 13.76-139.71v-693.44l-13.76-139.71-1e-3 -2e-3v-3e-3l-54.379-179.26-2e-3 -3e-3 -88.304-165.21-118.84-144.81-144.81-118.84-165.21-88.304-4e-3 -2e-3 -179.26-54.379h-1e-3l-3e-3 -1e-3 -186.42-18.361-186.42 18.361-3e-3 1e-3h-1e-3l-179.26 54.379-4e-3 2e-3 -165.21 88.304-144.81 118.84-118.84 144.81-88.307 165.21-54.38 179.26-13.76 139.71v693.44l13.76 139.71 1e-3 4e-3 54.379 179.26 3e-3 5e-3 88.303 165.21 118.84 144.81 144.81 118.84 165.21 88.304h1e-3l3e-3 2e-3 179.26 54.379h1e-3l3e-3 1e-3 186.42 18.361 186.42-18.361"/>
      <path d="m167439-84333 191.27-79.226 2e-3 -1e-3 172.14-115.02 146.39-146.39 115.02-172.14 79.226-191.27 40.389-203.05v-207.03l-40.389-203.05-28.028-67.665-51.199-123.61-115.02-172.14-146.39-146.39-172.14-115.02-1e-3 -1e-3h-1e-3l-191.27-79.226-203.05-40.389h-207.03l-203.05 40.389-191.27 79.226h-1e-3l-1e-3 1e-3 -172.14 115.02-146.39 146.39-115.02 172.14-51.199 123.61-28.028 67.665-40.389 203.05v207.03l40.389 203.05 79.226 191.27 59.42 88.928 55.6 83.212 146.39 146.39 172.14 115.02 2e-3 1e-3 191.27 79.226 203.05 40.389h207.03l203.05-40.389"/>
      <path d="m171939-84333 191.27-79.226 2e-3 -1e-3 172.14-115.02 146.39-146.39 115.02-172.14 79.226-191.27 40.389-203.05v-207.03l-40.389-203.05-28.028-67.665-51.199-123.61-115.02-172.14-146.39-146.39-172.14-115.02-1e-3 -1e-3h-1e-3l-191.27-79.226-203.05-40.389h-207.03l-203.05 40.389-191.27 79.226h-1e-3l-1e-3 1e-3 -172.14 115.02-146.39 146.39-115.02 172.14-51.199 123.61-28.028 67.665-40.389 203.05v207.03l40.389 203.05 79.226 191.27 59.42 88.928 55.6 83.212 146.39 146.39 172.14 115.02 2e-3 1e-3 191.27 79.226 203.05 40.389h207.03l203.05-40.389"/>
      <path d="m145028-84652 154.87-64.15 139.38-93.132 118.53-118.53 93.132-139.38 64.15-154.87 32.703-164.41v-167.63l-32.703-164.41-64.15-154.87-93.132-139.38-118.53-118.53-139.38-93.132-154.87-64.15-164.41-32.703h-167.63l-164.41 32.703-154.87 64.15-139.38 93.132-118.53 118.53-93.132 139.38-64.15 154.87-32.703 164.41v167.63l32.703 164.41 64.15 154.87 93.132 139.38 118.53 118.53 139.38 93.132 154.87 64.15 164.41 32.703h167.63l164.41-32.703"/>
      <path d="m160268-84652 154.87-64.15 139.38-93.132 118.53-118.53 93.132-139.38 64.15-154.87 32.703-164.41v-167.63l-32.703-164.41-64.15-154.87-93.132-139.38-118.53-118.53-139.38-93.132-154.87-64.15-164.41-32.703h-167.63l-164.41 32.703-154.87 64.15-139.38 93.132-118.53 118.53-93.132 139.38-64.15 154.87-32.703 164.41v167.63l32.703 164.41 64.15 154.87 93.132 139.38 118.53 118.53 139.38 93.132 154.87 64.15 164.41 32.703h167.63l164.41-32.703"/>
      <path d="m147528-84652 154.87-64.15 139.38-93.132 118.53-118.53 93.132-139.38 64.15-154.87 32.703-164.41v-167.63l-32.703-164.41-64.15-154.87-93.132-139.38-118.53-118.53-139.38-93.132-154.87-64.15-164.41-32.703h-167.63l-164.41 32.703-154.87 64.15-139.38 93.132-118.53 118.53-93.132 139.38-64.15 154.87-32.703 164.41v167.63l32.703 164.41 64.15 154.87 93.132 139.38 118.53 118.53 139.38 93.132 154.87 64.15 164.41 32.703h167.63l164.41-32.703"/>
      <path d="m142528-84652 154.87-64.15 139.38-93.132 118.53-118.53 93.132-139.38 64.15-154.87 32.703-164.41v-167.63l-32.703-164.41-64.15-154.87-93.132-139.38-118.53-118.53-139.38-93.132-154.87-64.15-164.41-32.703h-167.63l-164.41 32.703-154.87 64.15-139.38 93.132-118.53 118.53-93.132 139.38-64.15 154.87-32.703 164.41v167.63l32.703 164.41 64.15 154.87 93.132 139.38 118.53 118.53 139.38 93.132 154.87 64.15 164.41 32.703h167.63l164.41-32.703"/>
      <path d="m157768-84652 154.87-64.15 139.38-93.132 118.53-118.53 93.132-139.38 64.15-154.87 32.703-164.41v-167.63l-32.703-164.41-64.15-154.87-93.132-139.38-118.53-118.53-139.38-93.132-154.87-64.15-164.41-32.703h-167.63l-164.41 32.703-154.87 64.15-139.38 93.132-118.53 118.53-93.132 139.38-64.15 154.87-32.703 164.41v167.63l32.703 164.41 64.15 154.87 93.132 139.38 118.53 118.53 139.38 93.132 154.87 64.15 164.41 32.703h167.63l164.41-32.703"/>
      <path d="m162768-84652 154.87-64.15 139.38-93.132 118.53-118.53 93.132-139.38 64.15-154.87 32.703-164.41v-167.63l-32.703-164.41-64.15-154.87-93.132-139.38-118.53-118.53-139.38-93.132-154.87-64.15-164.41-32.703h-167.63l-164.41 32.703-154.87 64.15-139.38 93.132-118.53 118.53-93.132 139.38-64.15 154.87-32.703 164.41v167.63l32.703 164.41 64.15 154.87 93.132 139.38 118.53 118.53 139.38 93.132 154.87 64.15 164.41 32.703h167.63l164.41-32.703"/>
      <path d="m175746-82883 3e-3 -1e-3h1e-3l179.26-54.379 3e-3 -2e-3h1e-3l165.21-88.304 144.81-118.84 118.84-144.81 88.304-165.21 2e-3 -4e-3 54.379-179.26 1e-3 -4e-3 18.361-186.42-18.361-186.42-1e-3 -3e-3v-1e-3l-54.379-179.26-2e-3 -3e-3v-1e-3l-88.304-165.21-118.84-144.81-144.81-118.84-165.21-88.304-4e-3 -2e-3 -179.26-54.379h-1e-3l-3e-3 -1e-3 -139.71-13.76h-693.44l-139.71 13.76-3e-3 1e-3h-1e-3l-179.26 54.379-4e-3 2e-3 -165.21 88.304-144.81 118.84-118.84 144.81-88.304 165.21v1e-3l-2e-3 3e-3 -54.379 179.26v1e-3l-1e-3 3e-3 -18.361 186.42 18.361 186.42 1e-3 4e-3 54.379 179.26 2e-3 4e-3 88.304 165.21 118.84 144.81 144.81 118.84 165.21 88.304h1e-3l3e-3 2e-3 179.26 54.379h1e-3l3e-3 1e-3 139.71 13.76h693.44l139.71-13.76"/>
      <path d="m130026-82883 3e-3 -1e-3h1e-3l179.26-54.379 3e-3 -2e-3h1e-3l165.21-88.304 144.81-118.84 118.84-144.81 88.304-165.21 2e-3 -4e-3 54.379-179.26 1e-3 -4e-3 18.361-186.42-18.361-186.42-1e-3 -3e-3v-1e-3l-54.379-179.26-2e-3 -3e-3v-1e-3l-88.304-165.21-118.84-144.81-144.81-118.84-165.21-88.304-4e-3 -2e-3 -179.26-54.379h-1e-3l-3e-3 -1e-3 -139.71-13.76h-693.44l-139.71 13.76-3e-3 1e-3h-1e-3l-179.26 54.379-4e-3 2e-3 -165.21 88.304-144.81 118.84-118.84 144.81-88.304 165.21v1e-3l-2e-3 3e-3 -54.379 179.26v1e-3l-1e-3 3e-3 -18.361 186.42 18.361 186.42 1e-3 4e-3 54.379 179.26 2e-3 4e-3 88.304 165.21 118.84 144.81 144.81 118.84 165.21 88.304h1e-3l3e-3 2e-3 179.26 54.379h1e-3l3e-3 1e-3 139.71 13.76h693.44l139.71-13.76"/>
      <path d="m136192-77468 275.4-54.781 518.85-214.91 466.95-312.01 397.11-397.11 312.01-466.95 1e-3 -2e-3 14.07-33.969 146.94-354.75 53.899-130.13 68.711-345.43 40.851-205.38v-561.6l-109.56-550.81-214.91-518.85-312.01-466.95-397.11-397.11-466.95-312.01-518.85-214.91-550.81-109.56h-561.6l-550.81 109.56-518.85 214.91-466.95 312.01-397.11 397.11-312.01 466.95-214.91 518.85-109.56 550.81v561.6l40.852 205.38 68.71 345.43 53.9 130.13 146.94 354.75 14.07 33.969 1e-3 2e-3 312.01 466.95 397.11 397.11 466.95 312.01 518.85 214.91 550.81 109.56h561.6l275.4-54.781"/>
      <path d="m160268-81352 154.87-64.15 139.38-93.132 118.53-118.53 93.132-139.38 64.15-154.87 32.703-164.41v-167.63l-32.703-164.41-64.15-154.87-93.132-139.38-118.53-118.53-139.38-93.132-154.87-64.15-164.41-32.703h-167.63l-164.41 32.703-154.87 64.15-139.38 93.132-118.53 118.53-93.132 139.38-64.15 154.87-32.703 164.41v167.63l32.703 164.41 64.15 154.87 93.132 139.38 118.53 118.53 139.38 93.132 154.87 64.15 164.41 32.703h167.63l164.41-32.703"/>
      <path d="m157768-81352 154.87-64.15 139.38-93.132 118.53-118.53 93.132-139.38 64.15-154.87 32.703-164.41v-167.63l-32.703-164.41-64.15-154.87-93.132-139.38-118.53-118.53-139.38-93.132-154.87-64.15-164.41-32.703h-167.63l-164.41 32.703-154.87 64.15-139.38 93.132-118.53 118.53-93.132 139.38-64.15 154.87-32.703 164.41v167.63l32.703 164.41 64.15 154.87 93.132 139.38 118.53 118.53 139.38 93.132 154.87 64.15 164.41 32.703h167.63l164.41-32.703"/>
      <path d="m147528-81352 154.87-64.15 139.38-93.132 118.53-118.53 93.132-139.38 64.15-154.87 32.703-164.41v-167.63l-32.703-164.41-64.15-154.87-93.132-139.38-118.53-118.53-139.38-93.132-154.87-64.15-164.41-32.703h-167.63l-164.41 32.703-154.87 64.15-139.38 93.132-118.53 118.53-93.132 139.38-64.15 154.87-32.703 164.41v167.63l32.703 164.41 64.15 154.87 93.132 139.38 118.53 118.53 139.38 93.132 154.87 64.15 164.41 32.703h167.63l164.41-32.703"/>
      <path d="m145028-81352 154.87-64.15 139.38-93.132 118.53-118.53 93.132-139.38 64.15-154.87 32.703-164.41v-167.63l-32.703-164.41-64.15-154.87-93.132-139.38-118.53-118.53-139.38-93.132-154.87-64.15-164.41-32.703h-167.63l-164.41 32.703-154.87 64.15-139.38 93.132-118.53 118.53-93.132 139.38-64.15 154.87-32.703 164.41v167.63l32.703 164.41 64.15 154.87 93.132 139.38 118.53 118.53 139.38 93.132 154.87 64.15 164.41 32.703h167.63l164.41-32.703"/>
      <path d="m142528-81352 154.87-64.15 139.38-93.132 118.53-118.53 93.132-139.38 64.15-154.87 32.703-164.41v-167.63l-32.703-164.41-64.15-154.87-93.132-139.38-118.53-118.53-139.38-93.132-154.87-64.15-164.41-32.703h-167.63l-164.41 32.703-154.87 64.15-139.38 93.132-118.53 118.53-93.132 139.38-64.15 154.87-32.703 164.41v167.63l32.703 164.41 64.15 154.87 93.132 139.38 118.53 118.53 139.38 93.132 154.87 64.15 164.41 32.703h167.63l164.41-32.703"/>
      <path d="m162768-81352 154.87-64.15 139.38-93.132 118.53-118.53 93.132-139.38 64.15-154.87 32.703-164.41v-167.63l-32.703-164.41-64.15-154.87-93.132-139.38-118.53-118.53-139.38-93.132-154.87-64.15-164.41-32.703h-167.63l-164.41 32.703-154.87 64.15-139.38 93.132-118.53 118.53-93.132 139.38-64.15 154.87-32.703 164.41v167.63l32.703 164.41 64.15 154.87 93.132 139.38 118.53 118.53 139.38 93.132 154.87 64.15 164.41 32.703h167.63l164.41-32.703"/>
      <path d="m167439-77833 191.27-79.226 2e-3 -1e-3 172.14-115.02 146.39-146.39 115.02-172.14 79.226-191.27 40.389-203.05v-207.03l-40.389-203.05-79.227-191.27-115.02-172.14-146.39-146.39-172.14-115.02-1e-3 -1e-3h-1e-3l-191.27-79.226-203.05-40.389h-207.03l-203.05 40.389-191.27 79.226h-1e-3l-1e-3 1e-3 -172.14 115.02-146.39 146.39-115.02 172.14-79.227 191.27-40.389 203.05v207.03l40.389 203.05 79.226 191.27 115.02 172.14 146.39 146.39 172.14 115.02 2e-3 1e-3 191.27 79.226 203.05 40.389h207.03l203.05-40.389"/>
      <path d="m171939-77833 191.27-79.226 2e-3 -1e-3 172.14-115.02 146.39-146.39 115.02-172.14 79.226-191.27 40.389-203.05v-207.03l-40.389-203.05-79.227-191.27-115.02-172.14-146.39-146.39-172.14-115.02-1e-3 -1e-3h-1e-3l-191.27-79.226-203.05-40.389h-207.03l-203.05 40.389-191.27 79.226h-1e-3l-1e-3 1e-3 -172.14 115.02-146.39 146.39-115.02 172.14-79.227 191.27-40.389 203.05v207.03l40.389 203.05 79.226 191.27 115.02 172.14 146.39 146.39 172.14 115.02 2e-3 1e-3 191.27 79.226 203.05 40.389h207.03l203.05-40.389"/>
      <path d="m162721-77448 100.27-41.535 1e-3 -1e-3 90.246-60.3 76.748-76.748 1e-3 -2e-3 60.3-90.245 41.535-100.27 21.174-106.45v-108.54l-21.174-106.45-41.535-100.27-1e-3 -1e-3 -60.3-90.246-76.748-76.748-45.43-30.355-44.817-29.946-75.384-31.225-21.611-11.551-18.941-15.545-15.546-18.942-11.551-21.611-7.113-23.449-2.402-24.386 2.402-24.386 7.113-23.449 11.551-21.611 15.545-18.941 18.942-15.546 21.611-11.551 75.384-31.225 1e-3 -1e-3 90.246-60.3 76.748-76.748 60.301-90.247 41.535-100.27 21.174-106.45v-108.54l-21.174-106.45-41.535-100.27-29.946-44.817-30.355-45.43-76.748-76.748-45.43-30.355-44.817-29.946-100.27-41.535-106.45-21.174h-108.54l-106.45 21.174-100.27 41.535-44.817 29.946-45.43 30.355-76.748 76.748-30.355 45.43-29.946 44.817-41.535 100.27-21.174 106.45v108.54l21.174 106.45 41.535 100.27 60.301 90.247 76.748 76.748 90.246 60.3 1e-3 1e-3 75.384 31.225 21.611 11.551 18.941 15.545 15.546 18.942 11.551 21.611 7.113 23.449 2.402 24.386-2.402 24.386-7.113 23.449-11.551 21.611-15.545 18.941-18.942 15.546-21.611 11.551-75.384 31.225-44.817 29.946-45.43 30.355-76.748 76.748-60.3 90.246-1e-3 1e-3 -41.535 100.27-21.174 106.45v108.54l21.174 106.45 41.535 100.27 60.3 90.245 1e-3 2e-3 76.748 76.748 90.246 60.3 1e-3 1e-3 100.27 41.535 106.45 21.174h108.54l106.45-21.174"/>
      <path d="m142401-77448 100.27-41.535 1e-3 -1e-3 90.246-60.3 76.748-76.748 1e-3 -2e-3 60.3-90.245 41.535-100.27 21.174-106.45v-108.54l-21.174-106.45-41.535-100.27-1e-3 -1e-3 -60.3-90.246-76.748-76.748-45.43-30.355-44.817-29.946-75.384-31.225-21.611-11.551-18.941-15.545-15.546-18.942-11.551-21.611-7.113-23.449-2.402-24.386 2.402-24.386 7.113-23.449 11.551-21.611 15.545-18.941 18.942-15.546 21.611-11.551 75.384-31.225 1e-3 -1e-3 90.246-60.3 76.748-76.748 60.301-90.247 41.535-100.27 21.174-106.45v-108.54l-21.174-106.45-41.535-100.27-29.946-44.817-30.355-45.43-76.748-76.748-45.43-30.355-44.817-29.946-100.27-41.535-106.45-21.174h-108.54l-106.45 21.174-100.27 41.535-44.817 29.946-45.43 30.355-76.748 76.748-30.355 45.43-29.946 44.817-41.535 100.27-21.174 106.45v108.54l21.174 106.45 41.535 100.27 60.301 90.247 76.748 76.748 90.246 60.3 1e-3 1e-3 75.384 31.225 21.611 11.551 18.941 15.545 15.546 18.942 11.551 21.611 7.113 23.449 2.402 24.386-2.402 24.386-7.113 23.449-11.551 21.611-15.545 18.941-18.942 15.546-21.611 11.551-75.384 31.225-44.817 29.946-45.43 30.355-76.748 76.748-60.3 90.246-1e-3 1e-3 -41.535 100.27-21.174 106.45v108.54l21.174 106.45 41.535 100.27 60.3 90.245 1e-3 2e-3 76.748 76.748 90.246 60.3 1e-3 1e-3 100.27 41.535 106.45 21.174h108.54l106.45-21.174"/>
    </g>
    <g id="VJ_iOD-XTz_-a8sbSLiE_top_copper">
      <use x="147280" y="-82170" xlink:href="#POGXLcr4nFloyce2h4aj_pad-10"/>
      <use x="142280" y="-82170" xlink:href="#POGXLcr4nFloyce2h4aj_pad-10"/>
      <use x="144780" y="-82170" xlink:href="#POGXLcr4nFloyce2h4aj_pad-10"/>
      <use x="142280" y="-85470" xlink:href="#POGXLcr4nFloyce2h4aj_pad-10"/>
      <use x="144780" y="-85470" xlink:href="#POGXLcr4nFloyce2h4aj_pad-10"/>
      <use x="147280" y="-85470" xlink:href="#POGXLcr4nFloyce2h4aj_pad-10"/>
      <use x="164140" y="-125570.5" xlink:href="#POGXLcr4nFloyce2h4aj_pad-11"/>
      <use x="171140" y="-125570.5" xlink:href="#POGXLcr4nFloyce2h4aj_pad-11"/>
      <use x="165140" y="-122870.5" xlink:href="#POGXLcr4nFloyce2h4aj_pad-12"/>
      <use x="170140" y="-122870.5" xlink:href="#POGXLcr4nFloyce2h4aj_pad-12"/>
      <use x="137160" y="-123952" xlink:href="#POGXLcr4nFloyce2h4aj_pad-13"/>
      <use x="134620" y="-123952" xlink:href="#POGXLcr4nFloyce2h4aj_pad-14"/>
      <use x="132080" y="-123952" xlink:href="#POGXLcr4nFloyce2h4aj_pad-14"/>
      <use x="162560" y="-77978" xlink:href="#POGXLcr4nFloyce2h4aj_pad-15"/>
      <use x="162560" y="-79248" xlink:href="#POGXLcr4nFloyce2h4aj_pad-16"/>
      <use x="142240" y="-77978" xlink:href="#POGXLcr4nFloyce2h4aj_pad-15"/>
      <use x="142240" y="-79248" xlink:href="#POGXLcr4nFloyce2h4aj_pad-16"/>
      <use x="135636" y="-80264" xlink:href="#POGXLcr4nFloyce2h4aj_pad-17"/>
      <use x="162520" y="-82170" xlink:href="#POGXLcr4nFloyce2h4aj_pad-10"/>
      <use x="157520" y="-82170" xlink:href="#POGXLcr4nFloyce2h4aj_pad-10"/>
      <use x="160020" y="-82170" xlink:href="#POGXLcr4nFloyce2h4aj_pad-10"/>
      <use x="157520" y="-85470" xlink:href="#POGXLcr4nFloyce2h4aj_pad-10"/>
      <use x="160020" y="-85470" xlink:href="#POGXLcr4nFloyce2h4aj_pad-10"/>
      <use x="162520" y="-85470" xlink:href="#POGXLcr4nFloyce2h4aj_pad-10"/>
      <use x="167132" y="-78844" xlink:href="#POGXLcr4nFloyce2h4aj_pad-18"/>
      <use x="171632" y="-78844" xlink:href="#POGXLcr4nFloyce2h4aj_pad-18"/>
      <use x="167132" y="-85344" xlink:href="#POGXLcr4nFloyce2h4aj_pad-18"/>
      <use x="171632" y="-85344" xlink:href="#POGXLcr4nFloyce2h4aj_pad-18"/>
      <use x="144248" y="-100584" xlink:href="#POGXLcr4nFloyce2h4aj_pad-19"/>
      <use x="141248" y="-101534" xlink:href="#POGXLcr4nFloyce2h4aj_pad-19"/>
      <use x="141248" y="-99634" xlink:href="#POGXLcr4nFloyce2h4aj_pad-19"/>
      <use x="163552" y="-101534" xlink:href="#POGXLcr4nFloyce2h4aj_pad-19"/>
      <use x="163552" y="-99634" xlink:href="#POGXLcr4nFloyce2h4aj_pad-19"/>
      <use x="160552" y="-100584" xlink:href="#POGXLcr4nFloyce2h4aj_pad-19"/>
      <use x="141248" y="-113858" xlink:href="#POGXLcr4nFloyce2h4aj_pad-19"/>
      <use x="141248" y="-115758" xlink:href="#POGXLcr4nFloyce2h4aj_pad-19"/>
      <use x="144248" y="-114808" xlink:href="#POGXLcr4nFloyce2h4aj_pad-19"/>
      <use x="160576" y="-114874" xlink:href="#POGXLcr4nFloyce2h4aj_pad-19"/>
      <use x="163576" y="-113924" xlink:href="#POGXLcr4nFloyce2h4aj_pad-19"/>
      <use x="163576" y="-115824" xlink:href="#POGXLcr4nFloyce2h4aj_pad-19"/>
      <use x="134620" y="-108736" xlink:href="#POGXLcr4nFloyce2h4aj_pad-20"/>
      <use x="135570" y="-111736" xlink:href="#POGXLcr4nFloyce2h4aj_pad-20"/>
      <use x="133670" y="-111736" xlink:href="#POGXLcr4nFloyce2h4aj_pad-20"/>
      <use x="169230" y="-109704" xlink:href="#POGXLcr4nFloyce2h4aj_pad-20"/>
      <use x="171130" y="-109704" xlink:href="#POGXLcr4nFloyce2h4aj_pad-20"/>
      <use x="170180" y="-106704" xlink:href="#POGXLcr4nFloyce2h4aj_pad-20"/>
      <use x="170180" y="-112776" xlink:href="#POGXLcr4nFloyce2h4aj_pad-21"/>
      <use x="132842" y="-101600" xlink:href="#POGXLcr4nFloyce2h4aj_pad-21"/>
      <use x="152400" y="-89916" xlink:href="#POGXLcr4nFloyce2h4aj_pad-21"/>
      <use x="137668" y="-104140" xlink:href="#POGXLcr4nFloyce2h4aj_pad-21"/>
      <use x="167386" y="-104902" xlink:href="#POGXLcr4nFloyce2h4aj_pad-21"/>
      <use x="168656" y="-101346" xlink:href="#POGXLcr4nFloyce2h4aj_pad-21"/>
      <use x="140208" y="-124968" xlink:href="#POGXLcr4nFloyce2h4aj_pad-21"/>
      <use x="150876" y="-124968" xlink:href="#POGXLcr4nFloyce2h4aj_pad-21"/>
      <use x="163576" y="-112268" xlink:href="#POGXLcr4nFloyce2h4aj_pad-21"/>
      <use x="138684" y="-118872" xlink:href="#POGXLcr4nFloyce2h4aj_pad-21"/>
      <use x="166624" y="-114808" xlink:href="#POGXLcr4nFloyce2h4aj_pad-21"/>
      <use x="166370" y="-119888" xlink:href="#POGXLcr4nFloyce2h4aj_pad-21"/>
      <use x="167640" y="-119888" xlink:href="#POGXLcr4nFloyce2h4aj_pad-21"/>
      <use x="160528" y="-99568" xlink:href="#POGXLcr4nFloyce2h4aj_pad-21"/>
      <use x="141224" y="-103124" xlink:href="#POGXLcr4nFloyce2h4aj_pad-21"/>
      <use x="165608" y="-100584" xlink:href="#POGXLcr4nFloyce2h4aj_pad-21"/>
      <use x="139192" y="-114808" xlink:href="#POGXLcr4nFloyce2h4aj_pad-21"/>
      <use x="170180" y="-108254.002" xlink:href="#POGXLcr4nFloyce2h4aj_pad-21"/>
      <use x="152400" y="-83058" xlink:href="#POGXLcr4nFloyce2h4aj_pad-21"/>
      <use x="148336" y="-88099.99" xlink:href="#POGXLcr4nFloyce2h4aj_pad-21"/>
      <use x="135636" y="-113792" xlink:href="#POGXLcr4nFloyce2h4aj_pad-21"/>
      <use x="154686" y="-77978" xlink:href="#POGXLcr4nFloyce2h4aj_pad-21"/>
      <path d="m163576-113924v1656m-22328-3490h-3006" fill="none" stroke-width="250"/>
      <path d="m142240-77978v-1270m20320 1270v-1270" fill="none" stroke-width="508"/>
      <path d="m142280-85470 1650 1650m1700 0 1650 1650m-3350-1650h1700m14964-15814-66 66m3024-66h-2958m-19346-3466v1566m-24-1590 24 24m19304 2449v66.998m24-90.998-24 24m24-14223v14199m5032 90.998h-5056m9628-4572v-1548m-4572 6120 4572-4572m-27732 5522h-1200m10710 0h-9510m10460-950-950 950m8594-950h-7644m-12860-13274h1200m-1757 557.01 557.01-557.01m-557.01 13667v-13110m557.01 13667-557.01-557.01m1757 557.01h-1200m4200-15174v14224m-8529-8152h-1099m2540-1441-1441 1441m1441-4040v2599m2032-4631-2032 2032m2032-2032h5056m18128-1016h1200m-10668 0h9468m-10484 1016 1016-1016m-8660 1016h7644m13417 12717-557.01 557.01h-1200m1757-13757v13200m-533.01-13733 533.01 533.01m-1733-533.01h1200m6354 6620-950 950m950-1450v500m-11110 21828h-3301.6m3302.6 1.01-1.01-1.01m1015.8 1.01h-1014.8m1015.8-1.01-1.01 1.01m1270.6-1.01h-1269.6m4825.6-3556-3556 3556m3556-9144v5588m5268-10856-5268 5268m-9144 9144-4318 4318m18730-26646v7916m-37460-4064v-5884m5268 11152-5268-5268m5268 15682v-10414m2795 13209-2795-2795m8673 2795h-5878m6603-725-725 725m1741 291-1016-1016m1016 3214.7v-2198.7m3359 4788h-769.75m5087.8-4318-4318 4318m6165-4318h-1847m-5087.8 4318-2589.2-2589.2m10668-584.75-1144-1144m10354-24290v1200m348-1548-348 348m2287-348h-1939m2277 338-338-338m-4893 14986 5231-5231m-5231 10819v-5588m5231-5231v-9417m-9314 24319 4083-4083m-5479 4083h1396m-2521 1125 1125-1125m-25575-27131 66-66m-66 2056v-1990m-1779-66h1845m-2691 8231v-7385l846-846m4385 13462-5231-5231m11862 27583-6631-6631v-15721m16510 22352h-9879" fill="none" stroke-width="250"/>
      <path d="m134971-76877-647.98-194.82-597.52-317.49-14.162-9.462-312.18-448.7 2236.9-2236.9 2236.9 2236.9-312.18 448.7-595.95 320.44-647.01 198.01-323.57 32.675h6121.6l-178.45-30.723-208.7-80.19-52.01-27.799-35.111-213.42 598.56-598.56 598.56 598.56-35.111 213.42-204.28 90.87-211.74 47.842h20048l-178.45-30.723-208.7-80.19-52.01-27.799-35.111-213.42 598.56-598.56 598.56 598.56-35.111 213.42-204.28 90.87-211.74 47.842h13537l201.28-19.736 163.15-49.257 150.47-80.007 132.06-107.71 108.63-131.31 81.055-149.91 50.393-162.79 20.941-199.24 1e-3 -47697-19.737-201.29-49.256-163.14-80.007-150.47-107.71-132.06-131.31-108.63-149.91-81.055-162.79-50.394-199.24-20.941h-3952.8l57.544 189.7 17.87 181.44v821.33l-17.87 181.44-70.619 232.8-114.68 214.55-154.33 188.05-188.05 154.33-214.55 114.68-232.8 70.619-242.1 23.845-242.1-23.845-9.933-3.013 118.98 79.502 189.43 189.43 148.84 222.75 102.52 247.5 52.264 262.75v267.9l-52.264 262.75-102.52 247.5-148.84 222.75-189.43 189.43-222.75 148.84-247.5 102.52-262.75 52.264h-267.9l-262.75-52.264-247.5-102.52-222.75-148.84-189.43-189.43-148.84-222.75-102.52-247.5-52.264-262.75v-267.9l52.264-262.75 102.52-247.5 148.84-222.75 189.43-189.43 222.75-148.84 247.5-102.52 262.75-52.264h267.9l165.82 32.984-177.27-145.48-154.33-188.05-114.68-214.55-70.619-232.8-17.87-181.44v-821.33l17.87-181.44 57.544-189.7h-4680.8l57.544 189.7 17.87 181.44v821.33l-17.87 181.44-70.619 232.8-114.68 214.55-154.33 188.05-177.27 145.48 165.82-32.984h267.9l262.75 52.264 247.5 102.52 222.75 148.84 189.43 189.43 148.84 222.75 102.52 247.5 52.264 262.75v267.9l-52.264 262.75-102.52 247.5-148.84 222.75-189.43 189.43-222.75 148.84-49.201 20.38v2264.9h7682.6l29.637-300.91 87.773-289.35 142.54-266.67 191.82-233.73 233.73-191.82 266.67-142.54 289.35-87.773 225.5-22.21h750.82l225.5 22.21 289.35 87.773 266.67 142.54 233.73 191.82 191.82 233.73 142.54 266.67 87.773 289.35 29.637 300.91-29.637 300.91-87.773 289.35-142.54 266.67-191.82 233.73-233.73 191.82-266.67 142.54-289.35 87.773-225.5 22.21h-750.82l-225.5-22.21-289.35-87.773-266.67-142.54-233.73-191.82-191.82-233.73-142.54-266.67-87.773-289.35-29.637-300.91h-7682.6v3440.2l85.013 85.014 28.998 23.797 94.973 115.72 70.572 132.03 43.457 143.26 10.997 111.65v0.01l3.676 37.323-3.676 37.323v13125l0.764 7.757 3224.4-3224.4-44.733-54.507-58.965-110.31-36.31-119.7-12.26-124.48v-1900l12.26-124.48 36.31-119.7 9.359-17.51-15.083-36.414-32.586-163.82h-322.19l-124.48-12.26-119.7-36.31-110.31-58.965-96.691-79.352-79.352-96.691-58.965-110.31-36.31-119.7-12.26-124.48v-1900l12.26-124.48 36.31-119.7 58.965-110.31 79.352-96.691 96.691-79.352 59.765-31.945 59.755-111.79 8.208-10.001 86.765-105.72 29.004-23.803 295.19-295.19 23.803-29.004 115.72-94.973 132.03-70.572 143.26-43.457 111.65-10.997h9e-3l37.323-3.676 37.323 3.676h1864.4l37.322-3.676 37.322 3.676h0.011l111.65 10.997 143.26 43.457 132.03 70.572 115.72 94.973 23.803 29.004 285.19 285.19 29.004 23.803 94.973 115.72 70.572 132.03 43.457 143.26 10.997 111.65v8e-3l3.676 37.325-3.676 37.325v9276.7h802.57l29.637-300.91 87.773-289.35 142.54-266.67 191.82-233.73 233.73-191.82 266.67-142.54 289.35-87.773 225.5-22.21h750.82l225.5 22.21 289.35 87.773 266.67 142.54 233.73 191.82 191.82 233.73 142.54 266.67 87.773 289.35 29.637 300.91-29.637 300.91-87.773 289.35-142.54 266.67-191.82 233.73-233.73 191.82-266.67 142.54-289.35 87.773-225.5 22.21h-750.82l-225.5-22.21-289.35-87.773-266.67-142.54-233.73-191.82-191.82-233.73-142.54-266.67-87.773-289.35-29.637-300.91h-802.57v65.666l3.677 37.333-14.674 148.99-43.457 143.26-70.572 132.03-94.973 115.72-28.997 23.797-2949.8 2949.8 162.92-49.42 225.5-22.21h750.82l225.5 22.21 289.35 87.773 266.67 142.54 233.73 191.82 191.82 233.73 142.54 266.67 87.773 289.35 29.637 300.91-29.637 300.91-87.773 289.35-142.54 266.67-191.82 233.73-233.73 191.82-266.67 142.54-289.35 87.773-225.5 22.21h-750.82l-225.5-22.21-289.35-87.773-266.67-142.54-233.73-191.82-191.82-233.73-142.54-266.67-87.773-289.35-29.637-300.91 29.637-300.91 49.42-162.92-1032.6 1032.6v5235.9l3.677 37.333-14.674 148.99-43.457 143.26-70.572 132.03-58.044 70.727-36.929 44.998-28.997 23.797-3614.9 3614.9 19.884 19.884h2636.2l95.764-264.4 289.62-140.89 311.54-81.68 321.49-19.334 319.08 43.757 304.41 105.17 173.96 92.981 95.764 264.4-955.81 955.81-955.81-955.81h-2636.2l94.654 94.654 157.04 235.03 108.17 261.15 55.147 277.24v204.74h1535.3l43.757-319.08 105.17-304.41 92.981-173.96 264.4-95.764 955.81 955.81h359.21l955.81-955.81 264.4 95.764 140.89 289.62 81.68 311.54 19.334 321.49-13.499 98.438h1236.8v-322.07l62.832-315.88 123.25-297.55 178.93-267.79 227.74-227.74 267.79-178.93 297.55-123.25 315.88-62.832h322.07l315.88 62.832 297.55 123.25 267.79 178.93 227.74 227.74 178.93 267.79 123.25 297.55 62.832 315.88v322.07l-62.832 315.88-123.25 297.55-178.93 267.79-227.74 227.74-267.79 178.93-181.26 75.082h1192.4l29.637-300.91 87.773-289.35 142.54-266.67 191.82-233.73 233.73-191.82 266.67-142.54 289.35-87.773 225.5-22.21h750.82l225.5 22.21 289.35 87.773 266.67 142.54 233.73 191.82 191.82 233.73 142.54 266.67 87.773 289.35 29.637 300.91-29.637 300.91-87.773 289.35-142.54 266.67-191.82 233.73-233.73 191.82-266.67 142.54-289.35 87.773-225.5 22.21h-750.82l-225.5-22.21-289.35-87.773-266.67-142.54-233.73-191.82-191.82-233.73-142.54-266.67-87.773-289.35-29.637-300.91h-1192.4l-116.29 48.168-315.88 62.832h-322.07l-315.88-62.832-297.55-123.25-267.79-178.93-227.74-227.74-178.93-267.79-123.25-297.55-62.832-315.88h-1236.8l-30.258 220.64-105.17 304.41-92.981 173.96-264.4 95.764-955.81-955.81h-359.21l-955.81 955.81-264.4-95.764-140.89-289.62-81.68-311.54-19.334-321.49h-1535.3v77.93l-55.147 277.24-108.17 261.15-157.04 235.03-199.88 199.88-219.67 146.78h2961.1l955.81-955.81 955.81 955.81-95.764 264.4-289.62 140.89-311.54 81.68-321.49 19.334-319.08-43.757-304.41-105.17-173.96-92.981-95.764-264.4h-2961.1l-15.366 10.267-261.15 108.17-277.24 55.147h-282.67l-277.24-55.147-261.15-108.17-235.03-157.04-199.88-199.88-135.36-202.59-135.36 202.59-199.88 199.88-235.03 157.04-261.15 108.17-277.24 55.147h-282.67l-277.24-55.147-261.15-108.17-235.03-157.04-199.88-199.88-134.06-200.63-14.637 27.383-243.97 71.583-813.1-813.1 14.143-14.143-179.6-179.6-14.143 14.143-14.142-14.143-179.6 179.6 14.142 14.143-813.1 813.1-243.97-71.583-20.89-44.149-295.34 295.34h739.8l813.1-813.1 813.1 813.1-71.583 243.97-255.51 120.9-274.19 68.729-282.33 13.917-279.62-41.43-266.16-95.184-125.22-66.932-71.583-243.97h-739.8l-2448.6 2448.6h2566.5v-282.67l55.147-277.24 108.17-261.15 157.04-235.03 199.88-199.88 235.03-157.04 261.15-108.17 277.24-55.147h282.67l277.24 55.147 261.15 108.17 235.03 157.04 199.88 199.88 135.36 202.59 135.36-202.59 199.88-199.88 235.03-157.04 261.15-108.17 277.24-55.147h282.67l277.24 55.147 261.15 108.17 235.03 157.04 199.88 199.88 135.36 202.59 135.36-202.59 199.88-199.88 235.03-157.04 261.15-108.17 277.24-55.147h282.67l277.24 55.147 261.15 108.17 235.03 157.04 199.88 199.88 157.04 235.03 108.17 261.15 55.147 277.24v282.67l-55.147 277.24-108.17 261.15-157.04 235.03-199.88 199.88-235.03 157.04-261.15 108.17-277.24 55.147h-282.67l-277.24-55.147-261.15-108.17-235.03-157.04-199.88-199.88-135.36-202.59-135.36 202.59-199.88 199.88-235.03 157.04-261.15 108.17-277.24 55.147h-282.67l-277.24-55.147-261.15-108.17-235.03-157.04-199.88-199.88-135.36-202.59-135.36 202.59-199.88 199.88-235.03 157.04-261.15 108.17-277.24 55.147h-282.67l-277.24-55.147-261.15-108.17-235.03-157.04-199.88-199.88-157.04-235.03-108.17-261.15-55.147-277.24h-2566.5l-243.66 243.66-23.803 29.004-115.72 94.973-132.03 70.572-143.26 43.457-111.65 10.997h-0.011l-37.322 3.676-37.322-3.676h-695.11l-37.323 3.676-37.323-3.676h-9e-3l-111.65-10.997-143.26-43.457-132.03-70.572-83.64-68.642-32.084-26.331-23.798-28.998-2536.4-2536.4-29.004-23.803-94.973-115.72-70.572-132.03-43.457-143.26-10.997-111.65v-0.01l-2.26-22.943-6.137 17.162-66.932 125.22-243.97 71.583-813.1-813.1 813.1-813.1 243.97 71.583 75.33 159.2v-716.87l-256-256-161.2 161.2-23.802 29.003-115.72 94.973-38.073 20.351 24.311 12.994 71.583 243.97-813.1 813.1-813.1-813.1 44.683-152.29h-862.25l45.427 30.353 199.88 199.88 134.06 200.63 14.637-27.383 243.97-71.583 813.1 813.1-813.1 813.1-243.97-71.583-13.653-28.855-135.04 202.1-16.358 16.358 43.968 13.337 90.264 48.248h454.39l813.1-813.1 813.1 813.1-71.583 243.97-255.51 120.9-274.19 68.729-282.33 13.917-279.62-41.43-266.16-95.184-125.22-66.932-71.583-243.97h-454.39l41.765 22.324 115.72 94.973 23.802 29.003 762.31 762.31 182.55-36.312h282.67l277.24 55.147 261.15 108.17 235.03 157.04 199.88 199.88 157.04 235.03 108.17 261.15 55.147 277.24v282.67l-55.147 277.24-108.17 261.15-157.04 235.03-199.88 199.88-235.03 157.04-261.15 108.17-277.24 55.147h-282.67l-277.24-55.147-261.15-108.17-235.03-157.04-199.88-199.88-135.36-202.59-135.36 202.59-199.88 199.88-235.03 157.04-261.15 108.17-277.24 55.147h-282.67l-277.24-55.147-261.15-108.17-235.03-157.04-199.88-199.88-134.06-200.63-14.637 27.383-243.97 71.583-813.1-813.1 813.1-813.1 243.97 71.583 13.653 28.855 135.04-202.1 16.358-16.358-43.968-13.337-132.03-70.572-2e-3 -1e-3h1e-3l-86.727-71.174-4e-3 -4e-3 -28.993-23.794-23.794-28.993-762.32-762.32-182.55 36.312h-282.67l-277.24-55.147-261.15-108.17-235.03-157.04-199.88-199.88-157.04-235.03-108.17-261.15-55.147-277.24v-282.67l55.147-277.24 108.17-261.15 157.04-235.03 199.88-199.88 110.87-74.083-35.352-10.724-132.03-70.572-83.64-68.642-32.084-26.331-23.798-28.998-2233.2-2233.2v4173.4l1761.1 1761.1h769.81l71.583-243.97 255.51-120.9 274.19-68.729 282.33-13.917 279.62 41.43 266.16 95.184 125.22 66.932 71.583 243.97-813.1 813.1-813.1-813.1h-769.81l313.13 313.13 33.106-61.938 243.97-71.583 813.1 813.1-14.142 14.142 179.6 179.6 14.142-14.142 813.1 813.1-71.583 243.97-64.516 30.527 1352.9 1352.9h17156l16.673-54.99 90.323-203.34 128.26-181.81 161.26-153.3 188.07-118.89 207.65-79.916 174.88 125v842.13h254v-842.13l174.88-125 207.65 79.916 188.07 118.89 161.26 153.3 7.482 10.607h2749.8l95.764-264.4 289.62-140.89 311.54-81.68 321.49-19.334 319.08 43.757 304.41 105.17 173.96 92.981 95.764 264.4-955.81 955.81-955.81-955.81h-2749.8l120.78 171.21 90.323 203.34 16.673 54.99-126.16 174.87h-840.95-254-840.95l-126.16-174.87h-17156l811.87 811.87h8860.5l43.937-43.937 169.52-113.27 188.36-78.021 199.96-39.774h203.88l199.96 39.774 188.36 78.021 169.52 113.27 144.16 144.16 113.27 169.52 78.021 188.36 39.774 199.96v19.533h5701.5l37.934-220.33 80.19-208.7 27.799-52.01 96.502-15.876-92.037-130.47-90.323-203.34-16.673-54.99 126.16-174.87h840.95v10.904l209.41-5.415 44.594 7.678v-13.167h840.95l126.16 174.87-11.985 39.531h1848.1l43.757-319.08 105.17-304.41 92.981-173.96 264.4-95.764 955.81 955.81h359.21l955.81-955.81 264.4 95.764 140.89 289.62 81.68 311.54 19.334 321.49-13.499 98.438h1236.8v-322.07l62.832-315.88 123.25-297.55 178.93-267.79 227.74-227.74 267.79-178.93 297.55-123.25 315.88-62.832h322.07l315.88 62.832 297.55 123.25 267.79 178.93 227.74 227.74 178.93 267.79 123.25 297.55 62.832 315.88v322.07l-62.832 315.88-123.25 297.55-178.93 267.79-227.74 227.74-267.79 178.93-297.55 123.25-315.88 62.832h-322.07l-315.88-62.832-297.55-123.25-267.79-178.93-227.74-227.74-178.93-267.79-123.25-297.55-62.832-315.88h-1236.8l-30.258 220.64-105.17 304.41-92.981 173.96-264.4 95.764-955.81-955.81h-359.21l-955.81 955.81-264.4-95.764-140.89-289.62-81.68-311.54-19.334-321.49h-1848.1l-4.688 15.459-90.323 203.34-92.037 130.47 96.502 15.876 90.87 204.28 49.273 218.08 5.78 223.5-32.196 187.01h2510.9l955.81-955.81 955.81 955.81-95.764 264.4-289.62 140.89-311.54 81.68-321.49 19.334-319.08-43.757-304.41-105.17-173.96-92.981-95.764-264.4h-2510.9l-5.738 33.327-80.19 208.7-27.799 52.01-213.42 35.111-598.56-598.56 14.143-14.143-179.6-179.6-14.143 14.143-14.142-14.143-179.6 179.6 14.142 14.143-598.56 598.56-213.42-35.111-90.87-204.28-49.273-218.08-5.78-223.5h-5701.5v184.34l-39.774 199.96-78.021 188.36-113.27 169.52-144.16 144.16-169.52 113.27-188.36 78.021-199.96 39.774h-203.88l-199.96-39.774-188.36-78.021-169.52-113.27-43.937-43.937h-9138l-37.323 3.676-37.323-3.676h-9e-3l-111.65-10.997-143.26-43.457-132.03-70.572-115.72-94.973-23.798-28.998-961.26-961.26 40.516 91.08 49.273 218.08 5.78 223.5-37.934 220.33-80.19 208.7-27.799 52.01-213.42 35.111-598.56-598.56 14.143-14.143-179.6-179.6-14.143 14.143-14.142-14.143-179.6 179.6 14.142 14.143-598.56 598.56-213.42-35.111-90.87-204.28-49.273-218.08-5.78-223.5 37.934-220.33 80.19-208.7 27.799-52.01 96.502-15.876-92.037-130.47-90.323-203.34-16.673-54.99 126.16-174.87h840.95v10.904l209.41-5.415 44.594 7.678v-13.167h20v-202.2l-71.804-71.804h-202.2v20h-840.95l-126.16-174.87 16.673-54.99 90.323-203.34 128.26-181.81 161.26-153.3 14.998-9.481-3892.4-3892.4-29.004-23.803-94.973-115.72-7.268-13.598-63.304-118.43-43.457-143.26-10.997-111.65v-0.01l-3.676-37.322 3.676-37.322 1e-3 -15369-4982-4982-29.004-23.803-55.128-67.175-39.845-48.55-5.2-9.729-65.372-122.3-43.457-143.26-10.997-111.65v-0.01l-3.676-37.322 3.676-37.322 1e-3 -7310.3-3.677-37.332 14.674-148.98 43.456-143.26 70.572-132.03 94.974-115.72 28.998-23.798 793.2-793.2 23.798-28.998 115.72-94.973 132.03-70.572 143.26-43.457 111.65-10.997h9e-3l37.323-3.676 37.323 3.676h1104l43.937-43.937 169.52-113.27 188.36-78.021 199.96-39.774h203.88l199.96 39.774 188.36 78.021 169.52 113.27 144.16 144.16 113.27 169.52 78.021 188.36 39.774 199.96v203.88l-39.774 199.96-78.021 188.36-113.27 169.52-8.064 8.064 31.774 38.717 61.379-114.83 94.973-115.72 29.004-23.803 1508-1508v-62.137l39.774-199.96 78.021-188.36 113.27-169.52 144.16-144.16 169.52-113.27 188.36-78.021 174.9-34.789v-8114l2.44-24.776 7.227-23.825 11.736-21.956 15.794-19.246 19.246-15.794 21.956-11.736 23.825-7.227 24.776-2.44h24464l-205.17-109.67-188.05-154.33-154.33-188.05-114.68-214.55-70.619-232.8-17.87-181.44v-821.33l17.87-181.44 57.545-189.7h-34425l-201.28 19.736-163.14 49.256-150.47 80.008-132.06 107.71-108.63 131.31-81.055 149.91-50.394 162.79-20.941 199.24v1646.6h2947.3v-292.52l57.068-286.9 111.94-270.25 162.52-243.22 206.84-206.84 243.22-162.52 270.25-111.94 286.9-57.068h292.52l286.9 57.068 270.25 111.94 243.22 162.52 206.84 206.84 121.72 182.17 69.627-116.89 194.91-216.23 233.35-174.05 262.82-125.18 147.21-44.651 229.89 121.32v1193.2h-20v254h20v1193.2h254v-1193.2h20v-254h-20v-1193.2l229.89-121.32 147.21 44.651 262.82 125.18 233.35 174.05 194.91 216.23 69.627 116.89 121.72-182.17 206.84-206.84 243.22-162.52 270.25-111.94 286.9-57.068h292.52l286.9 57.068 270.25 111.94 243.22 162.52 206.84 206.84 162.52 243.22 111.94 270.25 57.068 286.9v292.52l-57.068 286.9-111.94 270.25-162.52 243.22-206.84 206.84-243.22 162.52-270.25 111.94-286.9 57.068h-292.52l-286.9-57.068-270.25-111.94-243.22-162.52-206.84-206.84-121.72-182.17-69.627 116.89-194.91 216.23-233.35 174.05-262.82 125.18-147.21 44.651-229.89-121.32h-254l-229.89 121.32-147.21-44.651-262.82-125.18-233.35-174.05-194.91-216.23-69.627-116.89-121.72 182.17-206.84 206.84-243.22 162.52-270.25 111.94-286.9 57.068h-292.52l-286.9-57.068-270.25-111.94-243.22-162.52-206.84-206.84-162.52-243.22-111.94-270.25-57.068-286.9h-2947.3v4425.7h49.873l29.637-300.91 87.773-289.35 142.54-266.67 191.82-233.73 233.73-191.82 266.67-142.54 289.35-87.773 225.5-22.21h750.82l225.5 22.21 289.35 87.773 266.67 142.54 233.73 191.82 191.82 233.73 142.54 266.67 87.773 289.35 29.637 300.91-29.637 300.91-87.773 289.35-142.54 266.67-191.82 233.73-233.73 191.82-266.67 142.54-289.35 87.773-225.5 22.21h-750.82l-225.5-22.21-289.35-87.773-266.67-142.54-233.73-191.82-191.82-233.73-142.54-266.67-87.773-289.35-29.637-300.91h-49.873v17780h49.873l29.637-300.91 87.773-289.35 142.54-266.67 191.82-233.73 233.73-191.82 266.67-142.54 289.35-87.773 225.5-22.21h750.82l225.5 22.21 289.35 87.773 266.67 142.54 233.73 191.82 191.82 233.73 142.54 266.67 87.773 289.35 29.637 300.91-29.637 300.91-87.773 289.35-142.54 266.67-191.82 233.73-233.73 191.82-266.67 142.54-289.35 87.773-225.5 22.21h-750.82l-225.5-22.21-289.35-87.773-266.67-142.54-233.73-191.82-191.82-233.73-142.54-266.67-87.773-289.35-29.637-300.91h-49.873v5080h5129.9l29.637-300.91 87.773-289.35 142.54-266.67 191.82-233.73 233.73-191.82 266.67-142.54 289.35-87.773 225.5-22.21h750.82l225.5 22.21 289.35 87.773 266.67 142.54 233.73 191.82 191.82 233.73 142.54 266.67 87.773 289.35 29.637 300.91-29.637 300.91-87.773 289.35-142.54 266.67-191.82 233.73-233.73 191.82-266.67 142.54-289.35 87.773-225.5 22.21h-750.82l-225.5-22.21-289.35-87.773-266.67-142.54-233.73-191.82-191.82-233.73-142.54-266.67-87.773-289.35-29.637-300.91h-5129.9v12700h49.873l29.637-300.91 87.773-289.35 142.54-266.67 191.82-233.73 233.73-191.82 266.67-142.54 289.35-87.773 225.5-22.21h750.82l225.5 22.21 289.35 87.773 266.67 142.54 233.73 191.82 191.82 233.73 142.54 266.67 87.773 289.35 29.637 300.91-29.637 300.91-87.773 289.35-142.54 266.67-191.82 233.73-59.535 48.859h2528l312.18-448.7 595.95-320.44 647.01-198.01 673.21-67.983 673.54 64.661 647.98 194.82 597.52 317.49 14.162 9.462 312.18 448.7-2236.9 2236.9-2236.9-2236.9h-2528l-174.2 142.96-266.67 142.54-289.35 87.773-225.5 22.21h-750.82l-225.5-22.21-289.35-87.773-266.67-142.54-233.73-191.82-191.82-233.73-142.54-266.67-87.773-289.35-29.637-300.91h-49.873v3564.5h4536.7l64.661-673.54 194.82-647.98 317.49-597.52 9.462-14.162 448.7-312.18 2236.9 2236.9h359.21l2236.9-2236.9 448.7 312.18 320.44 595.95 198.01 647.01 67.983 673.21-64.661 673.54-194.82 647.98-317.49 597.52-9.462 14.162-448.7 312.18-2236.9-2236.9h-359.21l-2236.9 2236.9-448.7-312.18-320.44-595.95-198.01-647.01-67.983-673.21h-4536.7v2499.8l19.736 201.28 49.257 163.15 80.007 150.47 107.71 132.06 131.31 108.63 149.91 81.055 162.79 50.393 199.24 20.941h6729.1l-305.75-29.353"/>
      <path d="m134971-76877-647.98-194.82-597.52-317.49-14.162-9.462-312.18-448.7 2236.9-2236.9 2236.9 2236.9-312.18 448.7-595.95 320.44-647.01 198.01-323.57 32.675h6121.6l-178.45-30.723-208.7-80.19-52.01-27.799-35.111-213.42 598.56-598.56 598.56 598.56-35.111 213.42-204.28 90.87-211.74 47.842h20048l-178.45-30.723-208.7-80.19-52.01-27.799-35.111-213.42 598.56-598.56 598.56 598.56-35.111 213.42-204.28 90.87-211.74 47.842h13537l201.28-19.736 163.15-49.257 150.47-80.007 132.06-107.71 108.63-131.31 81.055-149.91 50.393-162.79 20.941-199.24 1e-3 -47697-19.737-201.29-49.256-163.14-80.007-150.47-107.71-132.06-131.31-108.63-149.91-81.055-162.79-50.394-199.24-20.941h-3952.8l57.544 189.7 17.87 181.44v821.33l-17.87 181.44-70.619 232.8-114.68 214.55-154.33 188.05-188.05 154.33-214.55 114.68-232.8 70.619-242.1 23.845-242.1-23.845-9.933-3.013 118.98 79.502 189.43 189.43 148.84 222.75 102.52 247.5 52.264 262.75v267.9l-52.264 262.75-102.52 247.5-148.84 222.75-189.43 189.43-222.75 148.84-247.5 102.52-262.75 52.264h-267.9l-262.75-52.264-247.5-102.52-222.75-148.84-189.43-189.43-148.84-222.75-102.52-247.5-52.264-262.75v-267.9l52.264-262.75 102.52-247.5 148.84-222.75 189.43-189.43 222.75-148.84 247.5-102.52 262.75-52.264h267.9l165.82 32.984-177.27-145.48-154.33-188.05-114.68-214.55-70.619-232.8-17.87-181.44v-821.33l17.87-181.44 57.544-189.7h-4680.8l57.544 189.7 17.87 181.44v821.33l-17.87 181.44-70.619 232.8-114.68 214.55-154.33 188.05-177.27 145.48 165.82-32.984h267.9l262.75 52.264 247.5 102.52 222.75 148.84 189.43 189.43 148.84 222.75 102.52 247.5 52.264 262.75v267.9l-52.264 262.75-102.52 247.5-148.84 222.75-189.43 189.43-222.75 148.84-49.201 20.38v2264.9h7682.6l29.637-300.91 87.773-289.35 142.54-266.67 191.82-233.73 233.73-191.82 266.67-142.54 289.35-87.773 225.5-22.21h750.82l225.5 22.21 289.35 87.773 266.67 142.54 233.73 191.82 191.82 233.73 142.54 266.67 87.773 289.35 29.637 300.91-29.637 300.91-87.773 289.35-142.54 266.67-191.82 233.73-233.73 191.82-266.67 142.54-289.35 87.773-225.5 22.21h-750.82l-225.5-22.21-289.35-87.773-266.67-142.54-233.73-191.82-191.82-233.73-142.54-266.67-87.773-289.35-29.637-300.91h-7682.6v3440.2l85.013 85.014 28.998 23.797 94.973 115.72 70.572 132.03 43.457 143.26 10.997 111.65v0.01l3.676 37.323-3.676 37.323v13125l0.764 7.757 3224.4-3224.4-44.733-54.507-58.965-110.31-36.31-119.7-12.26-124.48v-1900l12.26-124.48 36.31-119.7 9.359-17.51-15.083-36.414-32.586-163.82h-322.19l-124.48-12.26-119.7-36.31-110.31-58.965-96.691-79.352-79.352-96.691-58.965-110.31-36.31-119.7-12.26-124.48v-1900l12.26-124.48 36.31-119.7 58.965-110.31 79.352-96.691 96.691-79.352 59.765-31.945 59.755-111.79 8.208-10.001 86.765-105.72 29.004-23.803 295.19-295.19 23.803-29.004 115.72-94.973 132.03-70.572 143.26-43.457 111.65-10.997h9e-3l37.323-3.676 37.323 3.676h1864.4l37.322-3.676 37.322 3.676h0.011l111.65 10.997 143.26 43.457 132.03 70.572 115.72 94.973 23.803 29.004 285.19 285.19 29.004 23.803 94.973 115.72 70.572 132.03 43.457 143.26 10.997 111.65v8e-3l3.676 37.325-3.676 37.325v9276.7h802.57l29.637-300.91 87.773-289.35 142.54-266.67 191.82-233.73 233.73-191.82 266.67-142.54 289.35-87.773 225.5-22.21h750.82l225.5 22.21 289.35 87.773 266.67 142.54 233.73 191.82 191.82 233.73 142.54 266.67 87.773 289.35 29.637 300.91-29.637 300.91-87.773 289.35-142.54 266.67-191.82 233.73-233.73 191.82-266.67 142.54-289.35 87.773-225.5 22.21h-750.82l-225.5-22.21-289.35-87.773-266.67-142.54-233.73-191.82-191.82-233.73-142.54-266.67-87.773-289.35-29.637-300.91h-802.57v65.666l3.677 37.333-14.674 148.99-43.457 143.26-70.572 132.03-94.973 115.72-28.997 23.797-2949.8 2949.8 162.92-49.42 225.5-22.21h750.82l225.5 22.21 289.35 87.773 266.67 142.54 233.73 191.82 191.82 233.73 142.54 266.67 87.773 289.35 29.637 300.91-29.637 300.91-87.773 289.35-142.54 266.67-191.82 233.73-233.73 191.82-266.67 142.54-289.35 87.773-225.5 22.21h-750.82l-225.5-22.21-289.35-87.773-266.67-142.54-233.73-191.82-191.82-233.73-142.54-266.67-87.773-289.35-29.637-300.91 29.637-300.91 49.42-162.92-1032.6 1032.6v5235.9l3.677 37.333-14.674 148.99-43.457 143.26-70.572 132.03-58.044 70.727-36.929 44.998-28.997 23.797-3614.9 3614.9 19.884 19.884h2636.2l95.764-264.4 289.62-140.89 311.54-81.68 321.49-19.334 319.08 43.757 304.41 105.17 173.96 92.981 95.764 264.4-955.81 955.81-955.81-955.81h-2636.2l94.654 94.654 157.04 235.03 108.17 261.15 55.147 277.24v204.74h1535.3l43.757-319.08 105.17-304.41 92.981-173.96 264.4-95.764 955.81 955.81h359.21l955.81-955.81 264.4 95.764 140.89 289.62 81.68 311.54 19.334 321.49-13.499 98.438h1236.8v-322.07l62.832-315.88 123.25-297.55 178.93-267.79 227.74-227.74 267.79-178.93 297.55-123.25 315.88-62.832h322.07l315.88 62.832 297.55 123.25 267.79 178.93 227.74 227.74 178.93 267.79 123.25 297.55 62.832 315.88v322.07l-62.832 315.88-123.25 297.55-178.93 267.79-227.74 227.74-267.79 178.93-181.26 75.082h1192.4l29.637-300.91 87.773-289.35 142.54-266.67 191.82-233.73 233.73-191.82 266.67-142.54 289.35-87.773 225.5-22.21h750.82l225.5 22.21 289.35 87.773 266.67 142.54 233.73 191.82 191.82 233.73 142.54 266.67 87.773 289.35 29.637 300.91-29.637 300.91-87.773 289.35-142.54 266.67-191.82 233.73-233.73 191.82-266.67 142.54-289.35 87.773-225.5 22.21h-750.82l-225.5-22.21-289.35-87.773-266.67-142.54-233.73-191.82-191.82-233.73-142.54-266.67-87.773-289.35-29.637-300.91h-1192.4l-116.29 48.168-315.88 62.832h-322.07l-315.88-62.832-297.55-123.25-267.79-178.93-227.74-227.74-178.93-267.79-123.25-297.55-62.832-315.88h-1236.8l-30.258 220.64-105.17 304.41-92.981 173.96-264.4 95.764-955.81-955.81h-359.21l-955.81 955.81-264.4-95.764-140.89-289.62-81.68-311.54-19.334-321.49h-1535.3v77.93l-55.147 277.24-108.17 261.15-157.04 235.03-199.88 199.88-219.67 146.78h2961.1l955.81-955.81 955.81 955.81-95.764 264.4-289.62 140.89-311.54 81.68-321.49 19.334-319.08-43.757-304.41-105.17-173.96-92.981-95.764-264.4h-2961.1l-15.366 10.267-261.15 108.17-277.24 55.147h-282.67l-277.24-55.147-261.15-108.17-235.03-157.04-199.88-199.88-135.36-202.59-135.36 202.59-199.88 199.88-235.03 157.04-261.15 108.17-277.24 55.147h-282.67l-277.24-55.147-261.15-108.17-235.03-157.04-199.88-199.88-134.06-200.63-14.637 27.383-243.97 71.583-813.1-813.1 14.143-14.143-179.6-179.6-14.143 14.143-14.142-14.143-179.6 179.6 14.142 14.143-813.1 813.1-243.97-71.583-20.89-44.149-295.34 295.34h739.8l813.1-813.1 813.1 813.1-71.583 243.97-255.51 120.9-274.19 68.729-282.33 13.917-279.62-41.43-266.16-95.184-125.22-66.932-71.583-243.97h-739.8l-2448.6 2448.6h2566.5v-282.67l55.147-277.24 108.17-261.15 157.04-235.03 199.88-199.88 235.03-157.04 261.15-108.17 277.24-55.147h282.67l277.24 55.147 261.15 108.17 235.03 157.04 199.88 199.88 135.36 202.59 135.36-202.59 199.88-199.88 235.03-157.04 261.15-108.17 277.24-55.147h282.67l277.24 55.147 261.15 108.17 235.03 157.04 199.88 199.88 135.36 202.59 135.36-202.59 199.88-199.88 235.03-157.04 261.15-108.17 277.24-55.147h282.67l277.24 55.147 261.15 108.17 235.03 157.04 199.88 199.88 157.04 235.03 108.17 261.15 55.147 277.24v282.67l-55.147 277.24-108.17 261.15-157.04 235.03-199.88 199.88-235.03 157.04-261.15 108.17-277.24 55.147h-282.67l-277.24-55.147-261.15-108.17-235.03-157.04-199.88-199.88-135.36-202.59-135.36 202.59-199.88 199.88-235.03 157.04-261.15 108.17-277.24 55.147h-282.67l-277.24-55.147-261.15-108.17-235.03-157.04-199.88-199.88-135.36-202.59-135.36 202.59-199.88 199.88-235.03 157.04-261.15 108.17-277.24 55.147h-282.67l-277.24-55.147-261.15-108.17-235.03-157.04-199.88-199.88-157.04-235.03-108.17-261.15-55.147-277.24h-2566.5l-243.66 243.66-23.803 29.004-115.72 94.973-132.03 70.572-143.26 43.457-111.65 10.997h-0.011l-37.322 3.676-37.322-3.676h-695.11l-37.323 3.676-37.323-3.676h-9e-3l-111.65-10.997-143.26-43.457-132.03-70.572-83.64-68.642-32.084-26.331-23.798-28.998-2536.4-2536.4-29.004-23.803-94.973-115.72-70.572-132.03-43.457-143.26-10.997-111.65v-0.01l-2.26-22.943-6.137 17.162-66.932 125.22-243.97 71.583-813.1-813.1 813.1-813.1 243.97 71.583 75.33 159.2v-716.87l-256-256-161.2 161.2-23.802 29.003-115.72 94.973-38.073 20.351 24.311 12.994 71.583 243.97-813.1 813.1-813.1-813.1 44.683-152.29h-862.25l45.427 30.353 199.88 199.88 134.06 200.63 14.637-27.383 243.97-71.583 813.1 813.1-813.1 813.1-243.97-71.583-13.653-28.855-135.04 202.1-16.358 16.358 43.968 13.337 90.264 48.248h454.39l813.1-813.1 813.1 813.1-71.583 243.97-255.51 120.9-274.19 68.729-282.33 13.917-279.62-41.43-266.16-95.184-125.22-66.932-71.583-243.97h-454.39l41.765 22.324 115.72 94.973 23.802 29.003 762.31 762.31 182.55-36.312h282.67l277.24 55.147 261.15 108.17 235.03 157.04 199.88 199.88 157.04 235.03 108.17 261.15 55.147 277.24v282.67l-55.147 277.24-108.17 261.15-157.04 235.03-199.88 199.88-235.03 157.04-261.15 108.17-277.24 55.147h-282.67l-277.24-55.147-261.15-108.17-235.03-157.04-199.88-199.88-135.36-202.59-135.36 202.59-199.88 199.88-235.03 157.04-261.15 108.17-277.24 55.147h-282.67l-277.24-55.147-261.15-108.17-235.03-157.04-199.88-199.88-134.06-200.63-14.637 27.383-243.97 71.583-813.1-813.1 813.1-813.1 243.97 71.583 13.653 28.855 135.04-202.1 16.358-16.358-43.968-13.337-132.03-70.572-2e-3 -1e-3h1e-3l-86.727-71.174-4e-3 -4e-3 -28.993-23.794-23.794-28.993-762.32-762.32-182.55 36.312h-282.67l-277.24-55.147-261.15-108.17-235.03-157.04-199.88-199.88-157.04-235.03-108.17-261.15-55.147-277.24v-282.67l55.147-277.24 108.17-261.15 157.04-235.03 199.88-199.88 110.87-74.083-35.352-10.724-132.03-70.572-83.64-68.642-32.084-26.331-23.798-28.998-2233.2-2233.2v4173.4l1761.1 1761.1h769.81l71.583-243.97 255.51-120.9 274.19-68.729 282.33-13.917 279.62 41.43 266.16 95.184 125.22 66.932 71.583 243.97-813.1 813.1-813.1-813.1h-769.81l313.13 313.13 33.106-61.938 243.97-71.583 813.1 813.1-14.142 14.142 179.6 179.6 14.142-14.142 813.1 813.1-71.583 243.97-64.516 30.527 1352.9 1352.9h17156l16.673-54.99 90.323-203.34 128.26-181.81 161.26-153.3 188.07-118.89 207.65-79.916 174.88 125v842.13h254v-842.13l174.88-125 207.65 79.916 188.07 118.89 161.26 153.3 7.482 10.607h2749.8l95.764-264.4 289.62-140.89 311.54-81.68 321.49-19.334 319.08 43.757 304.41 105.17 173.96 92.981 95.764 264.4-955.81 955.81-955.81-955.81h-2749.8l120.78 171.21 90.323 203.34 16.673 54.99-126.16 174.87h-840.95-254-840.95l-126.16-174.87h-17156l811.87 811.87h8860.5l43.937-43.937 169.52-113.27 188.36-78.021 199.96-39.774h203.88l199.96 39.774 188.36 78.021 169.52 113.27 144.16 144.16 113.27 169.52 78.021 188.36 39.774 199.96v19.533h5701.5l37.934-220.33 80.19-208.7 27.799-52.01 96.502-15.876-92.037-130.47-90.323-203.34-16.673-54.99 126.16-174.87h840.95v10.904l209.41-5.415 44.594 7.678v-13.167h840.95l126.16 174.87-11.985 39.531h1848.1l43.757-319.08 105.17-304.41 92.981-173.96 264.4-95.764 955.81 955.81h359.21l955.81-955.81 264.4 95.764 140.89 289.62 81.68 311.54 19.334 321.49-13.499 98.438h1236.8v-322.07l62.832-315.88 123.25-297.55 178.93-267.79 227.74-227.74 267.79-178.93 297.55-123.25 315.88-62.832h322.07l315.88 62.832 297.55 123.25 267.79 178.93 227.74 227.74 178.93 267.79 123.25 297.55 62.832 315.88v322.07l-62.832 315.88-123.25 297.55-178.93 267.79-227.74 227.74-267.79 178.93-297.55 123.25-315.88 62.832h-322.07l-315.88-62.832-297.55-123.25-267.79-178.93-227.74-227.74-178.93-267.79-123.25-297.55-62.832-315.88h-1236.8l-30.258 220.64-105.17 304.41-92.981 173.96-264.4 95.764-955.81-955.81h-359.21l-955.81 955.81-264.4-95.764-140.89-289.62-81.68-311.54-19.334-321.49h-1848.1l-4.688 15.459-90.323 203.34-92.037 130.47 96.502 15.876 90.87 204.28 49.273 218.08 5.78 223.5-32.196 187.01h2510.9l955.81-955.81 955.81 955.81-95.764 264.4-289.62 140.89-311.54 81.68-321.49 19.334-319.08-43.757-304.41-105.17-173.96-92.981-95.764-264.4h-2510.9l-5.738 33.327-80.19 208.7-27.799 52.01-213.42 35.111-598.56-598.56 14.143-14.143-179.6-179.6-14.143 14.143-14.142-14.143-179.6 179.6 14.142 14.143-598.56 598.56-213.42-35.111-90.87-204.28-49.273-218.08-5.78-223.5h-5701.5v184.34l-39.774 199.96-78.021 188.36-113.27 169.52-144.16 144.16-169.52 113.27-188.36 78.021-199.96 39.774h-203.88l-199.96-39.774-188.36-78.021-169.52-113.27-43.937-43.937h-9138l-37.323 3.676-37.323-3.676h-9e-3l-111.65-10.997-143.26-43.457-132.03-70.572-115.72-94.973-23.798-28.998-961.26-961.26 40.516 91.08 49.273 218.08 5.78 223.5-37.934 220.33-80.19 208.7-27.799 52.01-213.42 35.111-598.56-598.56 14.143-14.143-179.6-179.6-14.143 14.143-14.142-14.143-179.6 179.6 14.142 14.143-598.56 598.56-213.42-35.111-90.87-204.28-49.273-218.08-5.78-223.5 37.934-220.33 80.19-208.7 27.799-52.01 96.502-15.876-92.037-130.47-90.323-203.34-16.673-54.99 126.16-174.87h840.95v10.904l209.41-5.415 44.594 7.678v-13.167h20v-202.2l-71.804-71.804h-202.2v20h-840.95l-126.16-174.87 16.673-54.99 90.323-203.34 128.26-181.81 161.26-153.3 14.998-9.481-3892.4-3892.4-29.004-23.803-94.973-115.72-7.268-13.598-63.304-118.43-43.457-143.26-10.997-111.65v-0.01l-3.676-37.322 3.676-37.322 1e-3 -15369-4982-4982-29.004-23.803-55.128-67.175-39.845-48.55-5.2-9.729-65.372-122.3-43.457-143.26-10.997-111.65v-0.01l-3.676-37.322 3.676-37.322 1e-3 -7310.3-3.677-37.332 14.674-148.98 43.456-143.26 70.572-132.03 94.974-115.72 28.998-23.798 793.2-793.2 23.798-28.998 115.72-94.973 132.03-70.572 143.26-43.457 111.65-10.997h9e-3l37.323-3.676 37.323 3.676h1104l43.937-43.937 169.52-113.27 188.36-78.021 199.96-39.774h203.88l199.96 39.774 188.36 78.021 169.52 113.27 144.16 144.16 113.27 169.52 78.021 188.36 39.774 199.96v203.88l-39.774 199.96-78.021 188.36-113.27 169.52-8.064 8.064 31.774 38.717 61.379-114.83 94.973-115.72 29.004-23.803 1508-1508v-62.137l39.774-199.96 78.021-188.36 113.27-169.52 144.16-144.16 169.52-113.27 188.36-78.021 174.9-34.789v-8114l2.44-24.776 7.227-23.825 11.736-21.956 15.794-19.246 19.246-15.794 21.956-11.736 23.825-7.227 24.776-2.44h24464l-205.17-109.67-188.05-154.33-154.33-188.05-114.68-214.55-70.619-232.8-17.87-181.44v-821.33l17.87-181.44 57.545-189.7h-34425l-201.28 19.736-163.14 49.256-150.47 80.008-132.06 107.71-108.63 131.31-81.055 149.91-50.394 162.79-20.941 199.24v1646.6h2947.3v-292.52l57.068-286.9 111.94-270.25 162.52-243.22 206.84-206.84 243.22-162.52 270.25-111.94 286.9-57.068h292.52l286.9 57.068 270.25 111.94 243.22 162.52 206.84 206.84 121.72 182.17 69.627-116.89 194.91-216.23 233.35-174.05 262.82-125.18 147.21-44.651 229.89 121.32v1193.2h-20v254h20v1193.2h254v-1193.2h20v-254h-20v-1193.2l229.89-121.32 147.21 44.651 262.82 125.18 233.35 174.05 194.91 216.23 69.627 116.89 121.72-182.17 206.84-206.84 243.22-162.52 270.25-111.94 286.9-57.068h292.52l286.9 57.068 270.25 111.94 243.22 162.52 206.84 206.84 162.52 243.22 111.94 270.25 57.068 286.9v292.52l-57.068 286.9-111.94 270.25-162.52 243.22-206.84 206.84-243.22 162.52-270.25 111.94-286.9 57.068h-292.52l-286.9-57.068-270.25-111.94-243.22-162.52-206.84-206.84-121.72-182.17-69.627 116.89-194.91 216.23-233.35 174.05-262.82 125.18-147.21 44.651-229.89-121.32h-254l-229.89 121.32-147.21-44.651-262.82-125.18-233.35-174.05-194.91-216.23-69.627-116.89-121.72 182.17-206.84 206.84-243.22 162.52-270.25 111.94-286.9 57.068h-292.52l-286.9-57.068-270.25-111.94-243.22-162.52-206.84-206.84-162.52-243.22-111.94-270.25-57.068-286.9h-2947.3v4425.7h49.873l29.637-300.91 87.773-289.35 142.54-266.67 191.82-233.73 233.73-191.82 266.67-142.54 289.35-87.773 225.5-22.21h750.82l225.5 22.21 289.35 87.773 266.67 142.54 233.73 191.82 191.82 233.73 142.54 266.67 87.773 289.35 29.637 300.91-29.637 300.91-87.773 289.35-142.54 266.67-191.82 233.73-233.73 191.82-266.67 142.54-289.35 87.773-225.5 22.21h-750.82l-225.5-22.21-289.35-87.773-266.67-142.54-233.73-191.82-191.82-233.73-142.54-266.67-87.773-289.35-29.637-300.91h-49.873v17780h49.873l29.637-300.91 87.773-289.35 142.54-266.67 191.82-233.73 233.73-191.82 266.67-142.54 289.35-87.773 225.5-22.21h750.82l225.5 22.21 289.35 87.773 266.67 142.54 233.73 191.82 191.82 233.73 142.54 266.67 87.773 289.35 29.637 300.91-29.637 300.91-87.773 289.35-142.54 266.67-191.82 233.73-233.73 191.82-266.67 142.54-289.35 87.773-225.5 22.21h-750.82l-225.5-22.21-289.35-87.773-266.67-142.54-233.73-191.82-191.82-233.73-142.54-266.67-87.773-289.35-29.637-300.91h-49.873v5080h5129.9l29.637-300.91 87.773-289.35 142.54-266.67 191.82-233.73 233.73-191.82 266.67-142.54 289.35-87.773 225.5-22.21h750.82l225.5 22.21 289.35 87.773 266.67 142.54 233.73 191.82 191.82 233.73 142.54 266.67 87.773 289.35 29.637 300.91-29.637 300.91-87.773 289.35-142.54 266.67-191.82 233.73-233.73 191.82-266.67 142.54-289.35 87.773-225.5 22.21h-750.82l-225.5-22.21-289.35-87.773-266.67-142.54-233.73-191.82-191.82-233.73-142.54-266.67-87.773-289.35-29.637-300.91h-5129.9v12700h49.873l29.637-300.91 87.773-289.35 142.54-266.67 191.82-233.73 233.73-191.82 266.67-142.54 289.35-87.773 225.5-22.21h750.82l225.5 22.21 289.35 87.773 266.67 142.54 233.73 191.82 191.82 233.73 142.54 266.67 87.773 289.35 29.637 300.91-29.637 300.91-87.773 289.35-142.54 266.67-191.82 233.73-59.535 48.859h2528l312.18-448.7 595.95-320.44 647.01-198.01 673.21-67.983 673.54 64.661 647.98 194.82 597.52 317.49 14.162 9.462 312.18 448.7-2236.9 2236.9-2236.9-2236.9h-2528l-174.2 142.96-266.67 142.54-289.35 87.773-225.5 22.21h-750.82l-225.5-22.21-289.35-87.773-266.67-142.54-233.73-191.82-191.82-233.73-142.54-266.67-87.773-289.35-29.637-300.91h-49.873v3564.5h4536.7l64.661-673.54 194.82-647.98 317.49-597.52 9.462-14.162 448.7-312.18 2236.9 2236.9h359.21l2236.9-2236.9 448.7 312.18 320.44 595.95 198.01 647.01 67.983 673.21-64.661 673.54-194.82 647.98-317.49 597.52-9.462 14.162-448.7 312.18-2236.9-2236.9h-359.21l-2236.9 2236.9-448.7-312.18-320.44-595.95-198.01-647.01-67.983-673.21h-4536.7v2499.8l19.736 201.28 49.257 163.15 80.007 150.47 107.71 132.06 131.31 108.63 149.91 81.055 162.79 50.393 199.24 20.941h6729.1l-305.75-29.353" fill="none" stroke-width="254"/>
      <path d="m138731-113264-0.765-7.766-810.23 810.22v2246.9l3.676 37.325-3.676 37.325v8e-3l-10.997 111.65-43.457 143.26-70.572 132.03-94.973 115.72-28.998 23.798-1388.2 1388.2-23.803 29.004-115.72 94.973-132.03 70.572-143.26 43.457-111.65 10.997h-0.011l-37.322 3.676-37.322-3.676h-23.606v190l-12.26 124.48-36.31 119.7-58.965 110.31-79.352 96.691-96.691 79.352-110.31 58.965-119.7 36.31-124.48 12.26h-590v981.13l4301 4301 1e-3 -11398"/>
      <path d="m138731-113264-0.765-7.766-810.23 810.22v2246.9l3.676 37.325-3.676 37.325v8e-3l-10.997 111.65-43.457 143.26-70.572 132.03-94.973 115.72-28.998 23.798-1388.2 1388.2-23.803 29.004-115.72 94.973-132.03 70.572-143.26 43.457-111.65 10.997h-0.011l-37.322 3.676-37.322-3.676h-23.606v190l-12.26 124.48-36.31 119.7-58.965 110.31-79.352 96.691-96.691 79.352-110.31 58.965-119.7 36.31-124.48 12.26h-590v981.13l4301 4301 1e-3 -11398" fill="none" stroke-width="254"/>
      <path d="m170370-102103v-2168.4l-3727 3727v62.138l-39.774 199.96-78.021 188.36-113.27 169.52-144.16 144.16-169.52 113.27-188.36 78.021-174.9 34.789v2086.2l4635-4635"/>
      <path d="m170370-102103v-2168.4l-3727 3727v62.138l-39.774 199.96-78.021 188.36-113.27 169.52-144.16 144.16-169.52 113.27-188.36 78.021-174.9 34.789v2086.2l4635-4635" fill="none" stroke-width="254"/>
      <path d="m151596-83718 144.16-144.16 169.52-113.27 188.36-78.021 199.96-39.774h62.138l3794-3794 23.799-28.999 115.72-94.973 132.03-70.572 143.26-43.457 111.65-10.997h9e-3l37.323-3.676 37.323 3.676h2309.4l-49.472-163.09-22.21-225.5v-750.82l22.21-225.5 87.773-289.35 142.54-266.67 191.82-233.73 233.74-191.82 266.67-142.54 289.35-87.773 300.91-29.637 300.91 29.637 289.35 87.773 266.67 142.54 233.73 191.82 191.82 233.73 142.54 266.67 87.773 289.35 22.21 225.5v750.82l-22.21 225.5-49.42 162.92 2668.8-2668.8h-24962v320.2l2349.8 2349.8h761.18l-49.779-164.1-22.21-225.5v-750.82l22.21-225.5 87.773-289.35 142.54-266.67 191.82-233.73 233.74-191.82 266.67-142.54 289.35-87.773 300.91-29.637 300.91 29.637 289.35 87.773 266.67 142.54 233.73 191.82 191.82 233.73 142.54 266.67 87.773 289.35 22.21 225.5v750.82l-22.21 225.5-49.778 164.1h1561.2l4.801-4.801v-62.138l39.774-199.96 78.021-188.36 113.27-169.52 144.16-144.16 169.52-113.27 188.36-78.021 199.96-39.774h203.88l199.96 39.774 188.36 78.021 169.52 113.27 144.16 144.16 113.27 169.52 78.021 188.36 39.774 199.96v62.138l492 492 28.998 23.798 94.973 115.72 70.572 132.03 6.442 21.236 37.015 122.02 10.997 111.65v0.01l3.676 37.323-3.676 37.322v1846.6l1483.3 1483.3 0.716-1.071"/>
      <path d="m151596-83718 144.16-144.16 169.52-113.27 188.36-78.021 199.96-39.774h62.138l3794-3794 23.799-28.999 115.72-94.973 132.03-70.572 143.26-43.457 111.65-10.997h9e-3l37.323-3.676 37.323 3.676h2309.4l-49.472-163.09-22.21-225.5v-750.82l22.21-225.5 87.773-289.35 142.54-266.67 191.82-233.73 233.74-191.82 266.67-142.54 289.35-87.773 300.91-29.637 300.91 29.637 289.35 87.773 266.67 142.54 233.73 191.82 191.82 233.73 142.54 266.67 87.773 289.35 22.21 225.5v750.82l-22.21 225.5-49.42 162.92 2668.8-2668.8h-24962v320.2l2349.8 2349.8h761.18l-49.779-164.1-22.21-225.5v-750.82l22.21-225.5 87.773-289.35 142.54-266.67 191.82-233.73 233.74-191.82 266.67-142.54 289.35-87.773 300.91-29.637 300.91 29.637 289.35 87.773 266.67 142.54 233.73 191.82 191.82 233.73 142.54 266.67 87.773 289.35 22.21 225.5v750.82l-22.21 225.5-49.778 164.1h1561.2l4.801-4.801v-62.138l39.774-199.96 78.021-188.36 113.27-169.52 144.16-144.16 169.52-113.27 188.36-78.021 199.96-39.774h203.88l199.96 39.774 188.36 78.021 169.52 113.27 144.16 144.16 113.27 169.52 78.021 188.36 39.774 199.96v62.138l492 492 28.998 23.798 94.973 115.72 70.572 132.03 6.442 21.236 37.015 122.02 10.997 111.65v0.01l3.676 37.323-3.676 37.322v1846.6l1483.3 1483.3 0.716-1.071" fill="none" stroke-width="254"/>
    </g>
    <g id="VJ_iOD-XTz_-a8sbSLiE_top_silkscreen">
      <path d="m170434-88900a254 254 0 0 1-508 0 254 254 0 0 1 508 0m-35560 0a254 254 0 0 1-508 0 254 254 0 0 1 508 0m-5080-19812a254 254 0 0 1-508 0 254 254 0 0 1 508 0m45720 2032a254 254 0 0 1-508 0 254 254 0 0 1 508 0m-30988-2032a254 254 0 0 1-508 0 254 254 0 0 1 508 0m16256 2032a254 254 0 0 1-508 0 254 254 0 0 1 508 0m-6096-2032a254 254 0 0 1-508 0 254 254 0 0 1 508 0m-4064 2032a254 254 0 0 1-508 0 254 254 0 0 1 508 0" fill="none" stroke-width="508"/>
      <path d="m131072-87082 238.1-1e3 190.48 714.28 190.48-714.28 238.1 1e3m523.81-1e3 -95.238 47.619-47.619 47.619-47.619 95.238v285.71l47.619 95.238 47.619 47.619 95.238 47.619h142.86l95.238-47.619 47.619-47.619 47.619-95.238v-285.71l-47.619-95.238-47.619-47.619-95.238-47.619h-142.86m761.9 0v666.67m0-190.48 47.619 95.238 47.619 47.619 95.238 47.619h95.238m761.9-666.67v1e3m0-952.38-95.238-47.619h-190.48l-95.238 47.619-47.619 47.619-47.619 95.238v285.71l47.619 95.238 47.619 47.619 95.238 47.619h190.48l95.238-47.619m1714.3-619.05h-476.19v1e3m809.52-1e3v666.67m0 333.33-47.619-47.62 47.619-47.619 47.619 47.619-47.619 47.62v-95.239m476.19-238.1v-666.67m0 571.43 47.619 47.619 95.238 47.619h142.86l95.239-47.619 47.619-95.238v-523.81m857.14 47.619-95.238-47.619h-190.48l-95.238 47.619-47.619 95.238v380.95l47.619 95.238 95.238 47.619h190.48l95.238-47.619 47.62-95.238v-95.238l-476.19-95.238m35431-8673.5v1e3m843.57-428.57 47.619 142.86 47.619 47.619 95.238 47.619h142.86l95.238-47.619 47.619-47.619 47.619-95.238v-380.95h-1e3v333.33l47.62 95.238 47.619 47.619 95.238 47.619h95.238l95.238-47.619 47.619-47.619 47.619-95.238v-333.33m-843.57 761.9v476.19m1367.4-238.1h-666.67m-333.33 0 47.62-47.619 47.619 47.619-47.619 47.619-47.62-47.619h95.239m-462.62 238.1v571.43m700.71-476.19v380.95m-333.33-238.1h857.14l95.238 47.619 47.619 95.238v95.238m-1367.4 95.239v761.9 809.52m1367.4-95.238v-476.19h-1e3m-367.38 571.43v476.19m1367.4-238.1h-666.67m-333.33 0 47.62-47.619 47.619 47.619-47.619 47.619-47.62-47.619h95.239m-462.62 238.1v904.76m700.71-666.67h666.67m-571.43 0-47.619 47.619-47.619 95.238v142.86l47.619 95.238 95.238 47.619h523.81m-1367.4 238.1v857.14m1319.8-238.1 47.619-95.238v-190.48l-47.619-95.238-95.238-47.619h-380.95l-95.238 47.619-47.619 95.238v190.48l47.619 95.238 95.238 47.619h95.238l95.238-476.19m-43370-4619 47.619 142.86 47.619 47.619 95.238 47.619h142.86l95.238-47.619 47.619-47.619 47.619-95.238v-380.95h-1e3v333.33l47.62 95.238 47.619 47.619 95.238 47.619h95.238l95.238-47.619 47.619-47.619 47.619-95.238v-333.33m523.81 1e3h-666.67m-333.33 0 47.62-47.619 47.619 47.619-47.619 47.619-47.62-47.619h95.239m238.1 333.33v380.95m-333.33-238.1h857.14l95.238 47.619 47.619 95.238v95.238m0 1571.4v-476.19h-1e3m1e3 809.52h-666.67m-333.33 0 47.62-47.619 47.619 47.619-47.619 47.619-47.62-47.619h95.239m238.1 476.19h666.67m-571.43 0-47.619 47.619-47.619 95.238v142.86l47.619 95.238 95.238 47.619h523.81m-47.619 857.14 47.619-95.238v-190.48l-47.619-95.238-95.238-47.619h-380.95l-95.238 47.619-47.619 95.238v190.48l47.619 95.238 95.238 47.619h95.238l95.238-476.19m9678-1264.1-47.619-47.619-142.86-47.619h-95.238l-142.86 47.619-95.238 95.238-47.619 95.238-47.619 190.48v142.86l47.619 190.48 47.619 95.238 95.238 95.238 142.86 47.62h95.238l142.86-47.62 47.619-47.619m571.43-904.76-95.238 47.619-47.619 47.619-47.619 95.238v285.71l47.619 95.238 47.619 47.619 95.238 47.619h142.86l95.238-47.619 47.619-47.619 47.619-95.238v-285.71l-47.619-95.238-47.619-47.619-95.238-47.619h-142.86m1190.5 666.67v-666.67m-428.57 666.67v-523.81l47.619-95.238 95.238-47.619h142.86l95.238 47.619 47.619 47.619m476.19 571.43v-1e3m0 952.38 95.238 47.619h190.48l95.238-47.619 47.619-47.619 47.619-95.238v-285.71l-47.619-95.238-47.619-47.619-95.238-47.619h-190.48l-95.238 47.619m1047.6-47.619-95.238 47.619-47.62 95.238v857.14m904.76-952.38-95.238-47.619h-190.48l-95.238 47.619-47.619 95.238v380.95l47.619 95.238 95.238 47.619h190.48l95.238-47.619 47.619-95.238v-95.238l-476.19-95.238m1333.3-333.33v1e3m0-952.38-95.238-47.619h-190.48l-95.238 47.619-47.619 47.619-47.619 95.238v285.71l47.619 95.238 47.619 47.619 95.238 47.619h190.48l95.238-47.619m-5523.8-2269v1e3m476.19-333.33v-666.67m0 571.43 47.619 47.619 95.238 47.619h142.86l95.238-47.619 47.619-95.238v-523.81m380.95 666.67 238.1-666.67 238.1 666.67m761.9-619.05-95.238-47.619h-190.48l-95.238 47.619-47.619 95.238v380.95l47.619 95.238 95.238 47.619h190.48l95.238-47.619 47.619-95.238v-95.238l-476.19-95.238m904.76-333.33v666.67m0-190.48 47.619 95.238 47.619 47.619 95.238 47.619h95.238m190.48 0h380.95m-238.1 333.33v-857.14l47.619-95.238 95.239-47.619h95.238m714.28 47.619-95.238-47.619h-190.48l-95.238 47.619-47.619 95.238v380.95l47.619 95.238 95.238 47.619h190.48l95.238-47.619 47.619-95.238v-95.238l-476.19-95.238m904.76-333.33v666.67m0-190.48 47.619 95.238 47.619 47.619 95.238 47.619h95.238m285.71-619.05 95.238-47.619h190.48l95.238 47.619 47.619 95.238v47.619l-47.619 95.238-95.238 47.619h-142.86l-95.239 47.619-47.619 95.238v47.619l47.619 95.238 95.239 47.619h142.86l95.238-47.619m17572 5794h-571.43m285.72 0v1e3l-95.239-142.86-95.238-95.238-95.238-47.619m-6365.9 285.72h95.239l95.238-47.62 47.619-47.619 47.619-95.238 47.619-190.48v-238.1l-47.619-190.48-47.619-95.238-47.619-47.619-95.238-47.619h-95.239l-95.238 47.619-47.619 47.619-47.619 95.238-47.619 190.48v238.1l47.619 190.48 47.619 95.238 47.619 47.619 95.238 47.62m-15240 0h95.239l95.238-47.62 47.619-47.619 47.619-95.238 47.619-190.48v-238.1l-47.619-190.48-47.619-95.238-47.619-47.619-95.238-47.619h-95.239l-95.238 47.619-47.619 47.619-47.619 95.238-47.619 190.48v238.1l47.619 190.48 47.619 95.238 47.619 47.619 95.238 47.62m6937.3-1e3h-571.43m285.72 0v1e3l-95.239-142.86-95.238-95.238-95.238-47.619m-8405.9 1651.2h-1e3m333.33 476.19h666.67m-571.43 0-47.619 47.619-47.619 95.238v142.86l47.619 95.238 95.238 47.619h523.81m-666.67 476.19h1e3m-952.38 0-47.619 95.238v190.48l47.619 95.238 47.619 47.619 95.238 47.619h285.71l95.238-47.619 47.619-47.619 47.619-95.238v-190.48l-47.619-95.238m-619.05 1333.3h666.67m-666.67-428.57h523.81l95.238 47.619 47.619 95.238v142.86l-47.619 95.238-47.619 47.619m-571.43 333.33v380.95m-333.33-238.1h857.14l95.238 47.619 47.619 95.238v95.238m14716-4047.6v333.33m523.81 142.86v-476.19h-1e3v476.19m333.33 428.57h666.67m-571.43 0-47.619 47.619-47.619 95.238v142.86l47.619 95.238 95.238 47.619h523.81m0 904.76h-523.81l-95.238-47.619-47.619-95.238v-190.48l47.619-95.238m571.43 428.57 47.619-95.238v-238.1l-47.619-95.238-95.238-47.62h-95.238l-95.238 47.62-47.619 95.238v238.1l-47.619 95.238m428.57 476.19h-1e3m380.95 0-47.619 95.239v190.48l47.619 95.238 47.619 47.619 95.238 47.619h285.71l95.238-47.619 47.619-47.619 47.619-95.238v-190.48l-47.619-95.239m47.619 1047.6-47.619-95.238-95.238-47.619h-857.14m952.38 904.76 47.619-95.238v-190.48l-47.619-95.238-95.238-47.619h-380.95l-95.238 47.619-47.619 95.238v190.48l47.619 95.238 95.238 47.619h95.238l95.238-476.19m-23606-32195v1e3m1190.5 47.619-857.14-1285.7m1381 1238.1h190.48l95.238-47.62 95.238-95.238 47.619-190.48v-333.33l-47.619-190.48-95.238-95.238-95.238-47.619h-190.48l-95.238 47.619-95.238 95.238-47.619 190.48v333.33l47.619 190.48 95.238 95.238 95.238 47.62m1619-476.19h333.33m142.86-523.81h-476.19v1e3h476.19m428.57-333.33v-666.67m0 571.43 47.619 47.619 95.238 47.619h142.86l95.238-47.619 47.619-95.238v-523.81m904.76 0v523.81l-47.619 95.238-95.238 47.619h-190.48l-95.238-47.619m428.57-571.43-95.238-47.619h-238.1l-95.238 47.619-47.619 95.238v95.238l47.619 95.238 95.238 47.619h238.1l95.238 47.619m476.19-428.57v1e3m0-380.95 95.238 47.619h190.48l95.239-47.619 47.619-47.619 47.619-95.238v-285.71l-47.619-95.238-47.619-47.619-95.239-47.619h-190.48l-95.238 47.619m1047.6-47.619-95.238 47.619-47.619 95.238v857.14m904.76-952.38-95.238-47.619h-190.48l-95.238 47.619-47.619 95.238v380.95l47.619 95.238 95.238 47.619h190.48l95.238-47.619 47.619-95.238v-95.238l-476.19-95.238m-7095.2-983.33h571.43m-285.71-1e3v1e3m619.05-1e3v666.67m0-190.48 47.619 95.238 47.619 47.619 95.239 47.619h95.238m761.9-666.67v523.81l-47.619 95.238-95.238 47.619h-190.48l-95.238-47.619m428.57-571.43-95.238-47.619h-238.1l-95.238 47.619-47.619 95.238v95.238l47.619 95.238 95.238 47.619h238.1l95.238 47.619m476.19 238.1v-666.67m0 571.43 47.619 47.619 95.238 47.619h142.86l95.238-47.619 47.619-95.238v-523.81m428.57 47.619 95.238-47.619h190.48l95.238 47.619 47.619 95.238v47.619l-47.619 95.238-95.238 47.619h-142.86l-95.238 47.619-47.619 95.238v47.619l47.619 95.238 95.238 47.619h142.86l95.238-47.619m476.19-619.05v666.67m0 333.33-47.619-47.62 47.619-47.619 47.619 47.619-47.619 47.62v-95.239m428.57-857.14 95.238-47.619h190.48l95.238 47.619 47.619 95.238v47.619l-47.619 95.238-95.238 47.619h-142.86l-95.238 47.619-47.619 95.238v47.619l47.619 95.238 95.238 47.619h142.86l95.238-47.619m333.33 47.619h380.95m-238.1 333.33v-857.14l47.619-95.238 95.238-47.619h95.238m476.19 0-95.239 47.619-47.619 47.619-47.619 95.238v285.71l47.619 95.238 47.619 47.619 95.239 47.619h142.86l95.238-47.619 47.619-47.619 47.619-95.238v-285.71l-47.619-95.238-47.619-47.619-95.238-47.619h-142.86m761.9 0v666.67m0-190.48 47.619 95.238 47.619 47.619 95.239 47.619h95.238m28036 3015.3v1e3m1190.5 47.619-857.14-1285.7m1381 1238.1h190.48l95.238-47.62 95.238-95.238 47.619-190.48v-333.33l-47.619-190.48-95.238-95.238-95.238-47.619h-190.48l-95.238 47.619-95.238 95.238-47.619 190.48v333.33l47.619 190.48 95.238 95.238 95.238 47.62m1619-476.19h333.33m142.86-523.81h-476.19v1e3h476.19m428.57-333.33v-666.67m0 571.43 47.619 47.619 95.238 47.619h142.86l95.238-47.619 47.619-95.238v-523.81m904.76 0v523.81l-47.619 95.238-95.238 47.619h-190.48l-95.238-47.619m428.57-571.43-95.238-47.619h-238.1l-95.238 47.619-47.619 95.238v95.238l47.619 95.238 95.238 47.619h238.1l95.238 47.619m476.19-428.57v1e3m0-380.95 95.238 47.619h190.48l95.239-47.619 47.619-47.619 47.619-95.238v-285.71l-47.619-95.238-47.619-47.619-95.239-47.619h-190.48l-95.238 47.619m1047.6-47.619-95.238 47.619-47.619 95.238v857.14m904.76-952.38-95.238-47.619h-190.48l-95.238 47.619-47.619 95.238v380.95l47.619 95.238 95.238 47.619h190.48l95.238-47.619 47.619-95.238v-95.238l-476.19-95.238m-7095.2-983.33h571.43m-285.71-1e3v1e3m619.05-1e3v666.67m0-190.48 47.619 95.238 47.619 47.619 95.239 47.619h95.238m761.9-666.67v523.81l-47.619 95.238-95.238 47.619h-190.48l-95.238-47.619m428.57-571.43-95.238-47.619h-238.1l-95.238 47.619-47.619 95.238v95.238l47.619 95.238 95.238 47.619h238.1l95.238 47.619m476.19 238.1v-666.67m0 571.43 47.619 47.619 95.238 47.619h142.86l95.238-47.619 47.619-95.238v-523.81m428.57 47.619 95.238-47.619h190.48l95.238 47.619 47.619 95.238v47.619l-47.619 95.238-95.238 47.619h-142.86l-95.238 47.619-47.619 95.238v47.619l47.619 95.238 95.238 47.619h142.86l95.238-47.619m476.19-619.05v666.67m0 333.33-47.619-47.62 47.619-47.619 47.619 47.619-47.619 47.62v-95.239m428.57-857.14 95.238-47.619h190.48l95.238 47.619 47.619 95.238v47.619l-47.619 95.238-95.238 47.619h-142.86l-95.238 47.619-47.619 95.238v47.619l47.619 95.238 95.238 47.619h142.86l95.238-47.619m333.33 47.619h380.95m-238.1 333.33v-857.14l47.619-95.238 95.238-47.619h95.238m476.19 0-95.239 47.619-47.619 47.619-47.619 95.238v285.71l47.619 95.238 47.619 47.619 95.239 47.619h142.86l95.238-47.619 47.619-47.619 47.619-95.238v-285.71l-47.619-95.238-47.619-47.619-95.238-47.619h-142.86m761.9 0v666.67m0-190.48 47.619 95.238 47.619 47.619 95.239 47.619h95.238m-5793.7 26558 238.1-1e3 190.48 714.28 190.48-714.28 238.1 1e3m380.95-1e3v666.67m0-190.48 47.619 95.238 47.619 47.619 95.238 47.619h95.238m333.33-666.67v666.67m0 333.33-47.619-47.62 47.619-47.619 47.619 47.619-47.619 47.62v-95.239m333.33-238.1h380.95m-238.1 333.33v-857.14l47.619-95.238 95.238-47.619h95.238m714.29 47.619-95.238-47.619h-190.48l-95.238 47.619-47.619 95.238v380.95l47.619 95.238 95.238 47.619h190.48l95.238-47.619 47.619-95.238v-95.238l-476.19-95.238" fill="none" stroke-width="150"/>
      <path d="m143788-79768 290.29-120.95h483.81l193.52 120.95 96.762 120.95 96.762 241.9v241.9l-96.762 241.9-96.762 120.95-193.52 120.95-387.05 120.95-193.52 120.95-96.762 120.95-96.762 241.9v241.9l96.762 241.9 96.762 120.95 193.52 120.95h483.81l290.29-120.95m870.86-1451.4h1548.2m2128.8-967.62-677.33 1209.5m-483.81-1209.5v2540h774.1l193.52-120.95 96.761-120.95 96.762-241.9v-362.86l-96.762-241.9-96.761-120.95-193.52-120.95h-774.1m1935.2-483.81h967.62m-1161.1-725.71 677.33 2540 677.33-2540m677.33 0v2540l677.33-1814.3 677.33 1814.3v-2540m3677 241.9-96.762-120.95-290.29-120.95h-193.52l-290.28 120.95-193.52 241.9-96.762 241.9-96.762 483.81v362.86l96.762 483.81 96.762 241.9 193.52 241.9 290.28 120.95h193.52l290.29-120.95 96.762-120.95m1645-2177.1-193.52-120.95h-387.05l-193.52 120.95-96.762 241.9v967.62l96.762 241.9 193.52 120.95h387.05l193.52-120.95 96.762-241.9v-241.9l-967.62-241.9m2128.8-846.67-193.52 120.95-96.762 241.9v2177.1m1354.7-2540-193.52 120.95-96.762 241.9v2177.1" fill="none" stroke-width="406.4"/>
      <path d="m127000-88900h50800m-2540-38100v50800m-45720-50800v50800m43688-27940h-6096m5080 1016h-4064m7112-3556h-3048l508 1016m-4572-1016h-7620m11176 1016 508-1016m-2032 3556v14224m2032-17780v2540m-4064-2540v2540m-36068-3556 508-1016h-3048m5080 3556v16256m-2032-19812v2540m5080 0h-6096m5080-2540v2540m-4064-2540 508 1016m11176-1016h-7620m0 3556h-4064m21336-16764h-3048m2540-508h-2032m508-508h1016m-508 3048v-2032m0 29972 1016-2032m-1016 2032-1016-2032m1016-1524v3556m-8128-3556h16256m0-24384h-16256m0 11176h10160m6096 2032h-10160m6604-6096v-4064m3556 0-1016 508m1016 3556h-2540m0 1016v-6096m-1016 3048h-2540m6096-2032v-3048m-1016 2540 1016 508h-2540m-3556 2032v14224m-4064 0v-14224m7620 16256 1016-508m-14732-3556h2540m1016-14224v4064m0-2032h2540m-5080-2540-1016 508h2540m-1524 508-1016-508m0 4064h2540m0-5080v6096m-2540-5080v-3048m3556 17272v4064m-2032 508 1016-508m1016-2032h2540m-6096 2032v3048m2540-3048-1016-508m-1524 508h2540m0-5080v6096m-2540-5080v-10160m12700 12192h-2540m2540 2032v-4064m1016 4064 1016 508m-1016 508v-6096m2540 5080h-2540m2540 0v3048m0-7112v-10160m0 10160h-2540" fill="none" stroke-width="254"/>
      <path d="m141030-85620h-750m750 3600h-750m9e3 0v-3600h-750m750 3600h-750m-8250 0v-3600m15990 0h-750m750 3600h-750m9e3 0v-3600h-750m750 3600h-750m-8250 0v-3600m14612 7026h-1500m-2500-1250v-4500m2500-1250h1500m2500 1250v4500m-29124-22320h-1460m1460 3160h-3160m3160 0v-930m0-2230v930m17784 2230v-930m0-2230v930m0-930h3160m-3160 3160h1460m-19244-17384v930m0 2230v-930m0 930h-3160m3160-3160h-1460m19268 3094h1460m-1460-3160h3160m-3160 0v930m0 2230v-930m-25116 4748v-1460m-3160 1460v-3160m0 3160h930m2230 0h-930m36490 2032h-930m-2230 0h930m-930 0v-3160m3160 3160v-1460" fill="none" stroke-width="120"/>
    </g>
    <g id="VJ_iOD-XTz_-a8sbSLiE_top_drill1" transform="scale(25.4)">
      <path d="m5680-3488.2v-23.6m-140-756.4v-23.6m368.2 271.8h23.6m-843.6 720h23.6m-23.6-700h23.6m1776.4-700h23.6m-731.8 511.8v-23.6m508.2 411.8h23.6m176.4 500h23.6m-1003.6-1160h23.6m528.2 271.8v-23.6m428.2 211.8h23.6m-1091.8-268.2v-23.6m-531.8 491.8h23.6m-223.6-900h23.6m1208.2 1211.8v-23.6m-251.8-508.2h23.6m-23.6-440h23.6" fill="none" stroke-width="70.9"/>
    </g>
    <g id="VJ_iOD-XTz_-a8sbSLiE_top_drill2" transform="scale(25.4)">
      <use x="5230" y="-4000" xlink:href="#ePcopufPLei-O0ZSrdcM_pad-1"/>
      <use x="5340" y="-4480" xlink:href="#ePcopufPLei-O0ZSrdcM_pad-1"/>
      <use x="5420" y="-4100" xlink:href="#ePcopufPLei-O0ZSrdcM_pad-1"/>
      <use x="5460" y="-4680" xlink:href="#ePcopufPLei-O0ZSrdcM_pad-1"/>
      <use x="5480" y="-4520" xlink:href="#ePcopufPLei-O0ZSrdcM_pad-1"/>
      <use x="5520" y="-4920" xlink:href="#ePcopufPLei-O0ZSrdcM_pad-1"/>
      <use x="5560" y="-4060" xlink:href="#ePcopufPLei-O0ZSrdcM_pad-1"/>
      <use x="5840" y="-3468.5" xlink:href="#ePcopufPLei-O0ZSrdcM_pad-1"/>
      <use x="5940" y="-4920" xlink:href="#ePcopufPLei-O0ZSrdcM_pad-1"/>
      <use x="6000" y="-3270" xlink:href="#ePcopufPLei-O0ZSrdcM_pad-1"/>
      <use x="6000" y="-3540" xlink:href="#ePcopufPLei-O0ZSrdcM_pad-1"/>
      <use x="6090" y="-3070" xlink:href="#ePcopufPLei-O0ZSrdcM_pad-1"/>
      <use x="6320" y="-3920" xlink:href="#ePcopufPLei-O0ZSrdcM_pad-1"/>
      <use x="6440" y="-4420" xlink:href="#ePcopufPLei-O0ZSrdcM_pad-1"/>
      <use x="6520" y="-3960" xlink:href="#ePcopufPLei-O0ZSrdcM_pad-1"/>
      <use x="6550" y="-4720" xlink:href="#ePcopufPLei-O0ZSrdcM_pad-1"/>
      <use x="6560" y="-4520" xlink:href="#ePcopufPLei-O0ZSrdcM_pad-1"/>
      <use x="6590" y="-4130" xlink:href="#ePcopufPLei-O0ZSrdcM_pad-1"/>
      <use x="6600" y="-4720" xlink:href="#ePcopufPLei-O0ZSrdcM_pad-1"/>
      <use x="6640" y="-3990" xlink:href="#ePcopufPLei-O0ZSrdcM_pad-1"/>
      <use x="6700" y="-4262" xlink:href="#ePcopufPLei-O0ZSrdcM_pad-1"/>
      <use x="6700" y="-4440" xlink:href="#ePcopufPLei-O0ZSrdcM_pad-1"/>
      <use x="5600" y="-3070" xlink:href="#ePcopufPLei-O0ZSrdcM_pad-3"/>
      <use x="5600" y="-3120" xlink:href="#ePcopufPLei-O0ZSrdcM_pad-3"/>
      <use x="6400" y="-3070" xlink:href="#ePcopufPLei-O0ZSrdcM_pad-3"/>
      <use x="6400" y="-3120" xlink:href="#ePcopufPLei-O0ZSrdcM_pad-3"/>
      <use x="6501.6" y="-4837.4" xlink:href="#ePcopufPLei-O0ZSrdcM_pad-4"/>
      <use x="6698.4" y="-4837.4" xlink:href="#ePcopufPLei-O0ZSrdcM_pad-4"/>
      <use x="5601.6" y="-3235" xlink:href="#ePcopufPLei-O0ZSrdcM_pad-5"/>
      <use x="5601.6" y="-3365" xlink:href="#ePcopufPLei-O0ZSrdcM_pad-5"/>
      <use x="5700" y="-3235" xlink:href="#ePcopufPLei-O0ZSrdcM_pad-5"/>
      <use x="5700" y="-3365" xlink:href="#ePcopufPLei-O0ZSrdcM_pad-5"/>
      <use x="5798.4" y="-3235" xlink:href="#ePcopufPLei-O0ZSrdcM_pad-5"/>
      <use x="5798.4" y="-3365" xlink:href="#ePcopufPLei-O0ZSrdcM_pad-5"/>
      <use x="6201.6" y="-3235" xlink:href="#ePcopufPLei-O0ZSrdcM_pad-5"/>
      <use x="6201.6" y="-3365" xlink:href="#ePcopufPLei-O0ZSrdcM_pad-5"/>
      <use x="6300" y="-3235" xlink:href="#ePcopufPLei-O0ZSrdcM_pad-5"/>
      <use x="6300" y="-3365" xlink:href="#ePcopufPLei-O0ZSrdcM_pad-5"/>
      <use x="6398.4" y="-3235" xlink:href="#ePcopufPLei-O0ZSrdcM_pad-5"/>
      <use x="6398.4" y="-3365" xlink:href="#ePcopufPLei-O0ZSrdcM_pad-5"/>
      <use x="5200" y="-4880" xlink:href="#ePcopufPLei-O0ZSrdcM_pad-6"/>
      <use x="5300" y="-4880" xlink:href="#ePcopufPLei-O0ZSrdcM_pad-6"/>
      <use x="5400" y="-4880" xlink:href="#ePcopufPLei-O0ZSrdcM_pad-6"/>
      <use x="6580" y="-3104.1" xlink:href="#ePcopufPLei-O0ZSrdcM_pad-7"/>
      <use x="6580" y="-3360" xlink:href="#ePcopufPLei-O0ZSrdcM_pad-7"/>
      <use x="6757.2" y="-3104.1" xlink:href="#ePcopufPLei-O0ZSrdcM_pad-7"/>
      <use x="6757.2" y="-3360" xlink:href="#ePcopufPLei-O0ZSrdcM_pad-7"/>
      <use x="5340" y="-3160" xlink:href="#ePcopufPLei-O0ZSrdcM_pad-8"/>
      <path d="m6462.2-4957.5v27.6m275.6 0v-27.6" fill="none" stroke-width="23.6"/>
    </g>
    <clipPath id="VJ_iOD-XTz_-a8sbSLiE_top_outline">
      <path d="m128524-127000a1524 1524 0 0 0-1524 1524v47752a1524 1524 0 0 0 1524 1524h47752a1524 1524 0 0 0 1524-1524v-47752a1524 1524 0 0 0-1524-1524h-47752" fill="none" stroke-width="25.4"/>
    </clipPath>
    <mask id="VJ_iOD-XTz_-a8sbSLiE_top_mech-mask">
      <g stroke="#000">
        <rect x="127000" y="-127000" width="50800" height="50800" fill="#fff"/>
        <use xlink:href="#VJ_iOD-XTz_-a8sbSLiE_top_drill1"/>
        <use xlink:href="#VJ_iOD-XTz_-a8sbSLiE_top_drill2"/>
      </g>
    </mask>
    <mask id="VJ_iOD-XTz_-a8sbSLiE_top_cf-mask">
      <g fill="#fff" stroke="#fff">
        <use xlink:href="#VJ_iOD-XTz_-a8sbSLiE_top_soldermask"/>
      </g>
    </mask>
    <mask id="VJ_iOD-XTz_-a8sbSLiE_top_sm-mask">
      <g stroke="#000">
        <rect x="127000" y="-127000" width="50800" height="50800" fill="#fff"/>
        <use xlink:href="#VJ_iOD-XTz_-a8sbSLiE_top_soldermask"/>
      </g>
    </mask>
  </defs>
  <rect x="127529" y="-126471" width="49742" height="49742" fill="#222222" stop-color="#000000"/>
  <g>
    <g transform="matrix(1 0 0 -1 0 -203200)">
      <g clip-path="url(#VJ_iOD-XTz_-a8sbSLiE_top_outline)" fill="currentColor" mask="url(#VJ_iOD-XTz_-a8sbSLiE_top_mech-mask)">
        <rect class="VJ_iOD-XTz_-a8sbSLiE_fr4" x="127000" y="-127000" width="50800" height="50800"/>
        <use class="VJ_iOD-XTz_-a8sbSLiE_cu" width="100%" height="100%" stroke="currentColor" xlink:href="#VJ_iOD-XTz_-a8sbSLiE_top_copper"/>
        <use class="VJ_iOD-XTz_-a8sbSLiE_cf" width="100%" height="100%" mask="url(#VJ_iOD-XTz_-a8sbSLiE_top_cf-mask)" stroke="currentColor" xlink:href="#VJ_iOD-XTz_-a8sbSLiE_top_copper"/>
        <g mask="url(#VJ_iOD-XTz_-a8sbSLiE_top_sm-mask)">
          <rect class="VJ_iOD-XTz_-a8sbSLiE_sm" x="127000" y="-127000" width="50800" height="50800"/>
          <use class="VJ_iOD-XTz_-a8sbSLiE_ss" width="100%" height="100%" stroke="currentColor" xlink:href="#VJ_iOD-XTz_-a8sbSLiE_top_silkscreen"/>
        </g>
      </g>
    </g>
  </g>
</svg>
